<?xml version="1.0" standalone="no"?>
<!DOCTYPE svg PUBLIC "-//W3C//DTD SVG 1.1//EN" "http://www.w3.org/Graphics/SVG/1.1/DTD/svg11.dtd" >
<svg>
<metadata>
Created by FontForge 20090622 at Sat May 25 10:01:18 2019
 By deploy user
(c) 2006 Microsoft Corporation. 
</metadata>
<defs>
<font id="IskoolaPota" horiz-adv-x="1343" >
  <font-face 
    font-family="Iskoola Pota"
    font-weight="400"
    font-stretch="normal"
    units-per-em="2048"
    panose-1="2 11 5 2 4 2 4 2 2 3"
    ascent="1638"
    descent="-410"
    x-height="916"
    cap-height="1356"
    bbox="-1200 -498 3922 1869"
    underline-thickness="90"
    underline-position="-145"
    unicode-range="U+0020-U+FB02"
  />
<missing-glyph horiz-adv-x="1593" 
d="M284 0v1280h1024v-1280h-1024zM316 32h960v1216h-960v-1216z" />
    <glyph glyph-name=".notdef" horiz-adv-x="1593" 
d="M284 0v1280h1024v-1280h-1024zM316 32h960v1216h-960v-1216z" />
    <glyph glyph-name="null" horiz-adv-x="0" 
 />
    <glyph glyph-name="nonmarkingreturn" horiz-adv-x="512" 
 />
    <glyph glyph-name="space" unicode=" " horiz-adv-x="512" 
 />
    <glyph glyph-name="exclam" unicode="!" horiz-adv-x="682" 
d="M360 359h-38l-88 810q-6 53 -6 79q0 63 33.5 101t80.5 38t79.5 -38t32.5 -113q0 -24 -4 -67zM340 193q46 0 78.5 -32.5t32.5 -77.5q0 -46 -32.5 -78.5t-78.5 -32.5t-78.5 32.5t-32.5 78.5q0 45 32.5 77.5t78.5 32.5z" />
    <glyph glyph-name="quotedbl" unicode="&#x22;" horiz-adv-x="836" 
d="M576 803l-54 292l-22 121q-2 25 -2 50q0 63 28 92t74 29q43 0 71.5 -29t28.5 -78q0 -85 -19 -184l-57 -293h-48zM210 803l-55 296q-22 122 -22 166q0 64 26.5 93t71.5 29q44 0 73 -29.5t29 -78.5q0 -39 -26 -181l-54 -295h-43z" />
    <glyph glyph-name="numbersign" unicode="#" horiz-adv-x="1024" 
d="M115 -28l93 455h-171v82h187l69 343h-256v80h275l91 455h83l-91 -455h337l97 455h83l-95 -455h170v-80h-185l-70 -343h255v-82h-272l-93 -455h-81l91 455h-339l-95 -455h-83zM308 509h339l72 343h-341z" />
    <glyph glyph-name="dollar" unicode="$" horiz-adv-x="1024" 
d="M108 334h44q11 -137 86 -210t224 -87v584q-225 139 -300 246q-53 76 -53 185q0 123 91.5 215t261.5 111v92h64v-92q82 -5 138 -19q29 -7 192 -69v-299h-39q-13 159 -82.5 232.5t-208.5 87.5v-508q252 -176 323.5 -259.5t71.5 -207.5q0 -138 -104.5 -243t-290.5 -121v-128
h-64v128q-94 4 -175 21.5t-179 57.5v283zM462 845v465q-100 -12 -148.5 -63.5t-48.5 -129.5q0 -73 44 -136.5t153 -135.5zM526 37q75 13 115 37q56 35 88.5 91.5t32.5 120.5q0 66 -39.5 125t-196.5 167v-541z" />
    <glyph glyph-name="percent" unicode="%" horiz-adv-x="1706" 
d="M1392 1387l-988 -1443h-89l988 1443h89zM364 1387q135 0 209.5 -112t74.5 -257q0 -174 -84 -269t-202 -95q-79 0 -145 43.5t-105.5 129.5t-39.5 191t40 193.5t109.5 132t142.5 43.5zM361 1331q-51 0 -90.5 -60t-39.5 -252q0 -139 22 -212q17 -55 53 -85q21 -18 52 -18
q48 0 82 52q50 77 50 257q0 190 -49 267q-32 51 -80 51zM1346 673q71 0 141.5 -45t109 -131t38.5 -189q0 -177 -85 -270.5t-201 -93.5q-73 0 -141.5 45t-108 128.5t-39.5 190.5q0 105 39.5 192t108 130t138.5 43zM1347 620q-48 0 -83 -54q-45 -70 -45 -265q0 -179 46 -250
q34 -51 82 -51q46 0 82 55q48 73 48 251q0 188 -48 263q-33 51 -82 51z" />
    <glyph glyph-name="ampersand" unicode="&#x26;" horiz-adv-x="1593" 
d="M1045 873h420v-37q-87 -7 -128.5 -38.5t-129.5 -190.5t-198 -297q89 -104 159 -145.5t141 -41.5q69 0 117 37.5t68 110.5l37 -27q-37 -141 -119 -208t-191 -67q-82 0 -166.5 44.5t-184.5 150.5q-124 -110 -223.5 -152.5t-212.5 -42.5q-165 0 -262 88t-97 210
q0 121 87 241.5t327 249.5q-47 104 -64 170.5t-17 127.5q0 171 126 261q98 70 223 70q119 0 194 -70.5t75 -173.5q0 -106 -72.5 -186t-256.5 -175q127 -226 265 -414q176 210 176 354q0 46 -30 82q-22 27 -63 32v37zM663 847q124 59 185.5 134t61.5 167q0 72 -44.5 119
t-110.5 47q-87 0 -131.5 -60.5t-44.5 -118.5q0 -49 17 -109.5t67 -178.5zM818 222q-132 180 -183 263t-112 206q-120 -69 -180.5 -152t-60.5 -180q0 -107 69 -188t186 -81q63 0 121.5 25t159.5 107z" />
    <glyph glyph-name="quotesingle" unicode="'" horiz-adv-x="369" 
d="M158 803l-54 296q-23 123 -23 166q0 64 26 93t71 29t74.5 -29.5t29.5 -77.5q0 -37 -26 -182l-54 -295h-44z" />
    <glyph glyph-name="parenleft" unicode="(" horiz-adv-x="682" 
d="M636 -401v-37q-151 76 -252 178q-144 145 -222 342t-78 409q0 310 153 565.5t399 365.5v-42q-123 -68 -202 -186t-118 -299t-39 -378q0 -214 33 -389q26 -138 63 -221.5t99.5 -160.5t163.5 -147z" />
    <glyph glyph-name="parenright" unicode=")" horiz-adv-x="682" 
d="M46 1380v42q152 -75 253 -177q143 -146 221 -342.5t78 -409.5q0 -310 -152.5 -565.5t-399.5 -365.5v37q123 69 202.5 186.5t118 299t38.5 378.5q0 213 -33 389q-25 138 -62.5 221t-99.5 160t-164 147z" />
    <glyph glyph-name="asterisk" unicode="*" horiz-adv-x="1024" 
d="M494 1044q-4 69 -28 137q-34 98 -34 135q0 52 24.5 79t60.5 27q31 0 54 -27t23 -77q0 -45 -26.5 -125.5t-32.5 -148.5q55 35 99 85q68 79 101 98t67 19q33 0 55.5 -22.5t22.5 -53.5q0 -37 -33 -66t-165 -58q-77 -17 -128 -39q52 -27 127 -41q121 -22 158.5 -55t37.5 -72
q0 -30 -22.5 -52t-52.5 -22t-66.5 21t-98.5 94q-41 49 -102 92q2 -57 23 -124q36 -118 36 -161q0 -40 -24 -67.5t-51 -27.5q-37 0 -67 29q-21 21 -21 67q0 48 23 115.5t29 93t11 75.5q-59 -39 -103 -87q-73 -82 -110 -104q-26 -16 -54 -16q-34 0 -58 23t-24 51
q0 25 20.5 52.5t61.5 45.5q27 12 123 32q62 13 121 38q-54 27 -129 42q-123 26 -152 47q-45 33 -45 80q0 27 22.5 49.5t52.5 22.5q33 0 70 -21t92 -84.5t112 -98.5z" />
    <glyph glyph-name="plus" unicode="+" horiz-adv-x="1155" 
d="M535 141v499h-498v82h498v497h80v-497h500v-82h-500v-499h-80z" />
    <glyph glyph-name="comma" unicode="," horiz-adv-x="512" 
d="M110 -341v44q103 34 159.5 105.5t56.5 151.5q0 19 -9 32q-7 9 -14 9q-11 0 -48 -20q-18 -9 -38 -9q-49 0 -78 29t-29 80q0 49 37.5 84t91.5 35q66 0 117.5 -57.5t51.5 -152.5q0 -103 -71.5 -191.5t-226.5 -139.5z" />
    <glyph glyph-name="hyphen" unicode="-" horiz-adv-x="682" 
d="M83 535h517v-151h-517v151z" />
    <glyph glyph-name="period" unicode="." horiz-adv-x="512" 
d="M256 194q47 0 79 -32.5t32 -78.5t-32.5 -78.5t-78.5 -32.5t-78.5 32.5t-32.5 78.5q0 47 32.5 79t78.5 32z" />
    <glyph glyph-name="slash" unicode="/" horiz-adv-x="569" 
d="M574 1422l-491 -1450h-80l491 1450h80z" />
    <glyph glyph-name="zero" unicode="0" horiz-adv-x="1024" 
d="M74 670q0 232 70 399.5t186 249.5q90 65 186 65q156 0 280 -159q155 -197 155 -534q0 -236 -68 -401t-173.5 -239.5t-203.5 -74.5q-194 0 -323 229q-109 193 -109 465zM270 645q0 -280 69 -457q57 -149 170 -149q54 0 112 48.5t88 162.5q46 172 46 485q0 232 -48 387
q-36 115 -93 163q-41 33 -99 33q-68 0 -121 -61q-72 -83 -98 -261t-26 -351z" />
    <glyph glyph-name="one" unicode="1" horiz-adv-x="1024" 
d="M240 1223l330 161h33v-1145q0 -114 9.5 -142t39.5 -43t122 -17v-37h-510v37q96 2 124 16.5t39 39t11 146.5v732q0 148 -10 190q-7 32 -25.5 47t-44.5 15q-37 0 -103 -31z" />
    <glyph glyph-name="two" unicode="2" horiz-adv-x="1024" 
d="M939 261l-95 -261h-800v37q353 322 497 526t144 373q0 129 -79 212t-189 83q-100 0 -179.5 -58.5t-117.5 -171.5h-37q25 185 128.5 284t258.5 99q165 0 275.5 -106t110.5 -250q0 -103 -48 -206q-74 -162 -240 -343q-249 -272 -311 -328h354q108 0 151.5 8t78.5 32.5
t61 69.5h37z" />
    <glyph glyph-name="three" unicode="3" horiz-adv-x="1024" 
d="M104 1098q58 137 146.5 211.5t220.5 74.5q163 0 250 -106q66 -79 66 -169q0 -148 -186 -306q125 -49 189 -140t64 -214q0 -176 -112 -305q-146 -168 -423 -168q-137 0 -186.5 34t-49.5 73q0 29 23.5 51t56.5 22q25 0 51 -8q17 -5 77 -36.5t83 -37.5q37 -11 79 -11
q102 0 177.5 79t75.5 187q0 79 -35 154q-26 56 -57 85q-43 40 -118 72.5t-153 32.5h-32v30q79 10 158.5 57t115.5 113t36 145q0 103 -64.5 166.5t-160.5 63.5q-155 0 -259 -166z" />
    <glyph glyph-name="four" unicode="4" horiz-adv-x="1024" 
d="M953 500v-142h-182v-358h-165v358h-574v128l629 898h110v-884h182zM606 500v673l-476 -673h476z" />
    <glyph glyph-name="five" unicode="5" horiz-adv-x="1024" 
d="M889 1356l-78 -170h-408l-89 -182q265 -39 420 -197q133 -136 133 -320q0 -107 -43.5 -198t-109.5 -155t-147 -103q-115 -55 -236 -55q-122 0 -177.5 41.5t-55.5 91.5q0 28 23 49.5t58 21.5q26 0 45.5 -8t66.5 -41q75 -52 152 -52q117 0 205.5 88.5t88.5 215.5
q0 123 -79 229.5t-218 164.5q-109 45 -297 52l260 527h486z" />
    <glyph glyph-name="six" unicode="6" horiz-adv-x="1024" 
d="M918 1384v-37q-132 -13 -215.5 -52.5t-165 -120.5t-135 -180.5t-89.5 -236.5q144 99 289 99q139 0 241 -112t102 -288q0 -170 -103 -310q-124 -170 -328 -170q-139 0 -236 92q-190 179 -190 464q0 182 73 346t208.5 291t259.5 171t231 44h58zM296 684q-18 -135 -18 -218
q0 -96 35.5 -208.5t105.5 -178.5q51 -47 124 -47q87 0 155.5 82t68.5 234q0 171 -68 296t-193 125q-38 0 -81.5 -16t-128.5 -69z" />
    <glyph glyph-name="seven" unicode="7" horiz-adv-x="1024" 
d="M206 1356h727v-38l-452 -1346h-112l405 1221h-373q-113 0 -161 -27q-84 -46 -135 -142l-29 11z" />
    <glyph glyph-name="eight" unicode="8" horiz-adv-x="1024" 
d="M393 683q-161 132 -207.5 212t-46.5 166q0 132 102 227.5t271 95.5q164 0 264 -89t100 -203q0 -76 -54 -155t-225 -186q176 -136 233 -214q76 -102 76 -215q0 -143 -109 -244.5t-286 -101.5q-193 0 -301 121q-86 97 -86 212q0 90 60.5 178.5t208.5 195.5zM550 790
q120 108 152 170.5t32 141.5q0 105 -59 164.5t-161 59.5t-166 -59t-64 -138q0 -52 26.5 -104t75.5 -99zM440 645q-83 -70 -123 -152.5t-40 -178.5q0 -129 70.5 -206.5t179.5 -77.5q108 0 173 61t65 148q0 72 -38 129q-71 106 -287 277z" />
    <glyph glyph-name="nine" unicode="9" horiz-adv-x="1024" 
d="M108 -28v37q130 2 242 60.5t216.5 204.5t145.5 321q-157 -101 -284 -101q-143 0 -245 110.5t-102 293.5q0 178 102 317q123 169 321 169q167 0 286 -138q146 -171 146 -422q0 -226 -111 -421.5t-309 -324.5q-161 -106 -351 -106h-57zM728 669q18 130 18 208
q0 97 -33 209.5t-93.5 172.5t-137.5 60q-89 0 -156 -80t-67 -238q0 -211 89 -330q65 -86 160 -86q46 0 109 22t111 62z" />
    <glyph glyph-name="colon" unicode=":" horiz-adv-x="569" 
d="M289 944q46 0 78.5 -32.5t32.5 -78.5t-32.5 -78.5t-78.5 -32.5t-78.5 32.5t-32.5 78.5t32.5 78.5t78.5 32.5zM287 195q47 0 79.5 -33t32.5 -79t-33 -78.5t-79 -32.5t-78.5 32.5t-32.5 78.5t32.5 79t78.5 33z" />
    <glyph glyph-name="semicolon" unicode=";" horiz-adv-x="569" 
d="M282 945q46 0 78.5 -32t32.5 -78t-32.5 -78.5t-78.5 -32.5t-78.5 32.5t-32.5 78.5t32.5 78t78.5 32zM142 -341v44q103 34 159.5 105.5t56.5 151.5q0 19 -9 32q-7 9 -14 9q-11 0 -48 -20q-18 -9 -38 -9q-49 0 -78 29t-29 80q0 49 37.5 84t91.5 35q66 0 117.5 -57.5
t51.5 -152.5q0 -103 -71.5 -191.5t-226.5 -139.5z" />
    <glyph glyph-name="less" unicode="&#x3c;" horiz-adv-x="1155" 
d="M37 706l1076 466v-87l-926 -402l926 -406v-90l-1076 470v49z" />
    <glyph glyph-name="equal" unicode="=" horiz-adv-x="1155" 
d="M37 883h1079v-82h-1079v82zM37 557h1079v-82h-1079v82z" />
    <glyph glyph-name="greater" unicode="&#x3e;" horiz-adv-x="1155" 
d="M1113 653l-1076 -466v86l927 402l-927 406v91l1076 -470v-49z" />
    <glyph glyph-name="question" unicode="?" horiz-adv-x="909" 
d="M454 320h-41q7 126 31.5 208.5t101.5 229.5q60 113 78 173.5t18 122.5q0 127 -67.5 202t-165.5 75q-87 0 -137 -41t-50 -89q0 -37 30 -91t30 -82q0 -36 -23 -60.5t-56 -24.5q-42 0 -76.5 41.5t-34.5 115.5q0 113 97 200t263 87q206 0 303 -120q72 -88 72 -195
q0 -73 -32.5 -150t-123.5 -181q-145 -164 -177.5 -232.5t-39.5 -188.5zM440 196q47 0 79.5 -32.5t32.5 -79.5q0 -46 -33 -78.5t-79 -32.5t-78.5 32.5t-32.5 78.5q0 47 32.5 79.5t78.5 32.5z" />
    <glyph glyph-name="at" unicode="@" horiz-adv-x="1886" 
d="M1408 958l-117 -399q-65 -224 -79 -284t-14 -96q0 -32 21.5 -54t53.5 -22q73 0 175.5 73t175.5 237t73 342q0 171 -82.5 316t-233 222.5t-332.5 77.5q-231 0 -429 -122.5t-313.5 -352.5t-115.5 -478q0 -230 101.5 -418t285.5 -284.5t396 -96.5q263 0 475.5 141t328.5 412
h58q-90 -274 -327 -444t-540 -170q-238 0 -442 112.5t-317 319t-113 454.5q0 264 124 492.5t347.5 357t474.5 128.5q207 0 373.5 -85.5t253.5 -250t87 -349.5q0 -183 -81.5 -362.5t-207.5 -261.5t-263 -82q-76 0 -114.5 36t-38.5 101q0 56 18 147q-148 -179 -237 -232
t-157 -53q-71 0 -126 63.5t-55 169.5q0 145 94.5 325t250.5 293q115 83 206 83q67 0 111.5 -34.5t60.5 -103.5l33 110zM1057 917q-75 0 -152 -79q-113 -116 -193 -313q-59 -144 -59 -232q0 -63 35.5 -102.5t79.5 -39.5q58 0 122 44t134 135.5t102 183.5q56 159 56 259
q0 66 -36.5 105t-88.5 39z" />
    <glyph glyph-name="A" unicode="A" horiz-adv-x="1479" 
d="M937 454h-525l-92 -214q-34 -79 -34 -118q0 -31 29.5 -54.5t127.5 -30.5v-37h-427v37q85 15 110 39q51 48 113 195l477 1116h35l472 -1128q57 -136 103.5 -176.5t129.5 -45.5v-37h-535v37q81 4 109.5 27t28.5 56q0 44 -40 139zM909 528l-230 548l-236 -548h466z" />
    <glyph glyph-name="B" unicode="B" horiz-adv-x="1366" 
d="M946 692q141 -30 211 -96q97 -92 97 -225q0 -101 -64 -193.5t-175.5 -135t-340.5 -42.5h-640v37h51q85 0 122 54q23 35 23 149v876q0 126 -29 159q-39 44 -116 44h-51v37h586q164 0 263 -24q150 -36 229 -127.5t79 -210.5q0 -102 -62 -182.5t-183 -119.5zM422 746
q37 -7 84.5 -10.5t104.5 -3.5q146 0 219.5 31.5t112.5 96.5t39 142q0 119 -97 203t-283 84q-100 0 -180 -22v-521zM422 98q116 -27 229 -27q181 0 276 81.5t95 201.5q0 79 -43 152t-140 115t-240 42q-62 0 -106 -2t-71 -7v-556z" />
    <glyph glyph-name="C" unicode="C" horiz-adv-x="1366" 
d="M1233 1387l31 -461h-31q-62 207 -177 298t-276 91q-135 0 -244 -68.5t-171.5 -218.5t-62.5 -373q0 -184 59 -319t177.5 -207t270.5 -72q132 0 233 56.5t222 224.5l31 -20q-102 -181 -238 -265t-323 -84q-337 0 -522 250q-138 186 -138 438q0 203 91 373t250.5 263.5
t348.5 93.5q147 0 290 -72q42 -22 60 -22q27 0 47 19q26 27 37 75h35z" />
    <glyph glyph-name="D" unicode="D" horiz-adv-x="1479" 
d="M35 0v37h51q86 0 122 55q22 33 22 148v876q0 127 -28 159q-39 44 -116 44h-51v37h552q304 0 462.5 -69t255 -230t96.5 -372q0 -283 -172 -473q-193 -212 -588 -212h-606zM422 98q127 -28 213 -28q232 0 385 163t153 442q0 281 -153 443t-393 162q-90 0 -205 -29v-1153z
" />
    <glyph glyph-name="E" unicode="E" horiz-adv-x="1251" 
d="M428 1282v-536h298q116 0 155 35q52 46 58 162h37v-472h-37q-14 99 -28 127q-18 35 -59 55t-126 20h-298v-447q0 -90 8 -109.5t28 -31t76 -11.5h230q115 0 167 16t100 63q62 62 127 187h40l-117 -340h-1045v37h48q48 0 91 23q32 16 43.5 48t11.5 131v881q0 129 -26 159
q-36 40 -120 40h-48v37h1045l15 -297h-39q-21 107 -46.5 147t-75.5 61q-40 15 -141 15h-372z" />
    <glyph glyph-name="F" unicode="F" horiz-adv-x="1139" 
d="M419 1282v-533h247q85 0 124.5 37.5t52.5 148.5h37v-459h-37q-1 79 -20.5 116t-54 55.5t-102.5 18.5h-247v-426q0 -103 13 -136q10 -25 42 -43q44 -24 92 -24h49v-37h-582v37h48q84 0 122 49q24 32 24 154v876q0 103 -13 136q-10 25 -41 43q-43 24 -92 24h-48v37h1009
l13 -298h-35q-26 95 -60.5 139.5t-85 64.5t-156.5 20h-299z" />
    <glyph glyph-name="G" unicode="G" horiz-adv-x="1479" 
d="M1257 1387l35 -428h-35q-53 160 -137 241q-121 117 -311 117q-259 0 -394 -205q-113 -173 -113 -412q0 -194 75 -354t196.5 -234.5t249.5 -74.5q75 0 145 19t135 56v392q0 102 -15.5 133.5t-48 48t-114.5 16.5v38h525v-38h-25q-78 0 -107 -52q-20 -37 -20 -146v-415
q-115 -62 -227 -91t-249 -29q-393 0 -597 252q-153 189 -153 436q0 179 86 343q102 195 280 300q149 87 352 87q74 0 134.5 -12t171.5 -53q56 -21 75 -21t32.5 17.5t16.5 68.5h37z" />
    <glyph glyph-name="H" unicode="H" horiz-adv-x="1479" 
d="M421 727h630v388q0 104 -13 137q-10 25 -42 43q-43 24 -91 24h-48v37h580v-37h-48q-48 0 -91 -23q-32 -16 -43.5 -48.5t-11.5 -132.5v-875q0 -103 13 -136q10 -25 41 -43q44 -24 92 -24h48v-37h-580v37h48q83 0 121 49q25 32 25 154v413h-630v-413q0 -103 13 -136
q10 -25 42 -43q43 -24 91 -24h49v-37h-581v37h48q84 0 122 49q24 32 24 154v875q0 104 -13 137q-10 25 -41 43q-44 24 -92 24h-48v37h581v-37h-49q-48 0 -91 -23q-31 -16 -43 -48.5t-12 -132.5v-388z" />
    <glyph glyph-name="I" unicode="I" horiz-adv-x="682" 
d="M632 37v-37h-581v37h48q84 0 122 49q24 32 24 154v876q0 103 -13 136q-10 25 -41 43q-44 24 -92 24h-48v37h581v-37h-49q-83 0 -121 -49q-25 -32 -25 -154v-876q0 -103 13 -136q10 -25 42 -43q43 -24 91 -24h49z" />
    <glyph glyph-name="J" unicode="J" horiz-adv-x="797" 
d="M204 1319v37h581v-37h-49q-83 0 -121 -49q-24 -32 -24 -154v-663q0 -153 -33.5 -248t-115.5 -165.5t-198 -70.5q-94 0 -148 46.5t-54 106.5q0 49 25 74q33 31 77 31q32 0 57.5 -21t64.5 -112q23 -54 59 -54q27 0 50.5 33t23.5 117v926q0 103 -13 136q-10 25 -42 43
q-43 24 -91 24h-49z" />
    <glyph glyph-name="K" unicode="K" horiz-adv-x="1479" 
d="M612 752l500 -497q123 -123 210 -167.5t174 -50.5v-37h-645v37q58 0 83.5 19.5t25.5 43.5t-9.5 43t-62.5 71l-468 463v-437q0 -103 13 -136q10 -25 42 -43q43 -24 91 -24h46v-37h-578v37h48q84 0 122 49q24 32 24 154v876q0 103 -13 137q-10 24 -41 42q-44 24 -92 24h-48
v37h578v-37h-46q-47 0 -91 -23q-31 -16 -43 -48t-12 -132v-415l137 127q297 272 359 363q27 40 27 70q0 23 -21 40.5t-71 17.5h-31v37h498v-37q-44 -1 -80 -12t-88 -42.5t-128 -101.5q-22 -20 -203 -205z" />
    <glyph glyph-name="L" unicode="L" horiz-adv-x="1251" 
d="M1174 375l33 -7l-116 -368h-1050v37h51q86 0 123 56q21 32 21 148v875q0 127 -28 159q-39 44 -116 44h-51v37h614v-37q-108 1 -151.5 -20t-59.5 -53t-16 -153v-852q0 -83 16 -114q12 -21 37 -31t156 -10h99q156 0 219 23t115 81.5t104 184.5z" />
    <glyph glyph-name="M" unicode="M" horiz-adv-x="1821" 
d="M838 0l-524 1141v-906q0 -125 27 -156q37 -42 117 -42h48v-37h-472v37h48q86 0 122 52q22 32 22 146v886q0 90 -20 130q-14 29 -51.5 48.5t-120.5 19.5v37h384l492 -1061l484 1061h384v-37h-47q-87 0 -123 -52q-22 -32 -22 -146v-886q0 -125 28 -156q37 -42 117 -42h47
v-37h-576v37h48q87 0 122 52q22 32 22 146v906l-523 -1141h-33z" />
    <glyph glyph-name="N" unicode="N" horiz-adv-x="1479" 
d="M-27 1356h368l829 -1017v782q0 125 -28 156q-37 42 -117 42h-47v37h472v-37h-48q-86 0 -122 -52q-22 -32 -22 -146v-1143h-36l-894 1092v-835q0 -125 27 -156q38 -42 117 -42h48v-37h-472v37h47q87 0 123 52q22 32 22 146v943q-59 69 -89.5 91t-89.5 41q-29 9 -88 9v37z
" />
    <glyph glyph-name="O" unicode="O" horiz-adv-x="1479" 
d="M749 1387q264 0 457.5 -200.5t193.5 -500.5q0 -309 -195 -513t-472 -204q-280 0 -470.5 199t-190.5 515q0 323 220 527q191 177 457 177zM730 1314q-182 0 -292 -135q-137 -168 -137 -492q0 -332 142 -511q109 -136 288 -136q191 0 315.5 149t124.5 470q0 348 -137 519
q-110 136 -304 136z" />
    <glyph glyph-name="P" unicode="P" horiz-adv-x="1139" 
d="M420 635v-395q0 -128 28 -159q38 -44 115 -44h52v-37h-581v37h51q86 0 123 56q20 31 20 147v876q0 128 -27 159q-39 44 -116 44h-51v37h497q182 0 287 -37.5t177 -126.5t72 -211q0 -166 -109.5 -270t-309.5 -104q-49 0 -106 7t-122 21zM420 692q53 -10 94 -15t70 -5
q104 0 179.5 80.5t75.5 208.5q0 88 -36 163.5t-102 113t-150 37.5q-51 0 -131 -19v-564z" />
    <glyph glyph-name="Q" unicode="Q" horiz-adv-x="1479" 
d="M902 -15q102 -176 220.5 -259t269.5 -95v-32q-138 5 -295 55.5t-297.5 140t-242.5 190.5q-144 58 -228 123q-122 97 -189.5 238.5t-67.5 334.5q0 304 197 505t477 201q266 0 460.5 -201.5t194.5 -508.5q0 -249 -138.5 -437t-360.5 -255zM734 1310q-182 0 -293 -130
q-140 -163 -140 -499q0 -329 142 -507q110 -137 291 -137q188 0 303 137q135 162 135 478q0 243 -74 409q-57 128 -151.5 188.5t-212.5 60.5z" />
    <glyph glyph-name="R" unicode="R" horiz-adv-x="1366" 
d="M1384 0h-362l-459 634q-51 -2 -83 -2q-13 0 -28 0.5t-31 1.5v-394q0 -128 28 -159q38 -44 114 -44h53v-37h-581v37h51q86 0 123 56q21 31 21 147v876q0 128 -28 159q-39 44 -116 44h-51v37h494q216 0 318.5 -31.5t174 -116t71.5 -201.5q0 -125 -81.5 -217t-252.5 -130
l280 -389q96 -134 165 -178t180 -56v-37zM421 697q19 0 33 -0.5t23 -0.5q194 0 292.5 84t98.5 214q0 127 -79.5 206.5t-210.5 79.5q-58 0 -157 -19v-564z" />
    <glyph glyph-name="S" unicode="S" horiz-adv-x="1139" 
d="M939 1387v-469h-37q-18 135 -64.5 215t-132.5 127t-178 47q-104 0 -172 -63.5t-68 -144.5q0 -62 43 -113q62 -75 295 -200q190 -102 259.5 -156.5t107 -128.5t37.5 -155q0 -154 -119.5 -265.5t-307.5 -111.5q-59 0 -111 9q-31 5 -128.5 36.5t-123.5 31.5q-25 0 -39.5 -15
t-21.5 -62h-37v465h37q26 -146 70 -218.5t134.5 -120.5t198.5 -48q125 0 197.5 66t72.5 156q0 50 -27.5 101t-85.5 95q-39 30 -213 127.5t-247.5 155.5t-111.5 128t-38 154q0 146 112 251.5t285 105.5q108 0 229 -53q56 -25 79 -25q26 0 42.5 15.5t26.5 62.5h37z" />
    <glyph glyph-name="T" unicode="T" horiz-adv-x="1251" 
d="M1185 1356l15 -318h-38q-11 84 -30 120q-31 58 -82.5 85.5t-135.5 27.5h-191v-1036q0 -125 27 -156q38 -42 117 -42h47v-37h-575v37h48q86 0 122 52q22 32 22 146v1036h-163q-95 0 -135 -14q-52 -19 -89 -73t-44 -146h-38l16 318h1107z" />
    <glyph glyph-name="U" unicode="U" horiz-adv-x="1479" 
d="M977 1319v37h480v-37h-51q-80 0 -123 -67q-21 -31 -21 -144v-550q0 -204 -40.5 -316.5t-159 -193t-322.5 -80.5q-222 0 -337 77t-163 207q-32 89 -32 334v530q0 125 -34.5 164t-111.5 39h-51v37h586v-37h-52q-84 0 -120 -53q-25 -36 -25 -150v-591q0 -79 14.5 -181
t52.5 -159t109.5 -94t175.5 -37q133 0 238 58t143.5 148.5t38.5 306.5v549q0 127 -28 159q-39 44 -116 44h-51z" />
    <glyph glyph-name="V" unicode="V" horiz-adv-x="1479" 
d="M1454 1356v-37q-72 -13 -109 -46q-53 -49 -94 -150l-473 -1154h-37l-508 1169q-39 90 -55 110q-25 31 -61.5 48.5t-98.5 22.5v37h554v-37q-94 -9 -122 -32t-28 -59q0 -50 46 -156l345 -795l320 785q47 116 47 161q0 29 -29 55.5t-98 37.5q-5 1 -17 3v37h418z" />
    <glyph glyph-name="W" unicode="W" horiz-adv-x="1933" 
d="M1917 1356v-37q-53 0 -86 -19t-63 -71q-20 -35 -63 -167l-378 -1093h-40l-309 867l-307 -867h-36l-403 1126q-45 126 -57 149q-20 38 -54.5 56.5t-93.5 18.5v37h502v-37h-24q-53 0 -81 -24t-28 -58q0 -35 44 -161l267 -761l225 647l-40 114l-32 91q-21 50 -47 88
q-13 19 -32 32q-25 18 -50 26q-19 6 -60 6v37h528v-37h-36q-56 0 -82 -24t-26 -65q0 -51 45 -178l260 -737l258 747q44 124 44 172q0 23 -14.5 43t-36.5 28q-38 14 -99 14v37h405z" />
    <glyph glyph-name="X" unicode="X" horiz-adv-x="1479" 
d="M836 751l291 -434q121 -180 179.5 -227.5t148.5 -52.5v-37h-582v37q58 1 86 12q21 9 34.5 27.5t13.5 37.5q0 23 -9 46q-7 17 -55 88l-230 348l-284 -364q-45 -58 -54 -77.5t-9 -40.5q0 -32 27 -53t103 -24v-37h-481v37q51 5 88 21q62 26 118 70t128 135l320 404l-267 391
q-109 159 -185 208.5t-175 52.5v37h627v-37q-80 -3 -109.5 -26t-29.5 -51q0 -37 48 -108l208 -311l241 305q42 54 51.5 74t9.5 41t-12 37q-15 21 -38 29.5t-95 9.5v37h481v-37q-57 -3 -93 -18q-54 -23 -99 -62t-127 -144z" />
    <glyph glyph-name="Y" unicode="Y" horiz-adv-x="1479" 
d="M976 1356h473v-37h-26q-26 0 -76 -23t-91 -66t-101 -140l-327 -515v-340q0 -125 28 -156q38 -42 120 -42h44v-37h-576v37h48q86 0 122 52q22 32 22 146v321l-372 568q-66 100 -89.5 125t-97.5 60q-20 10 -58 10v37h580v-37h-30q-47 0 -86.5 -22t-39.5 -66q0 -36 61 -130
l283 -437l266 418q60 94 60 140q0 28 -14.5 50t-41.5 34.5t-81 12.5v37z" />
    <glyph glyph-name="Z" unicode="Z" horiz-adv-x="1251" 
d="M1178 1356l-891 -1274h556q128 0 196.5 56t121.5 227l33 -6l-64 -359h-1104v37l870 1238h-434q-108 0 -156.5 -23.5t-74 -68t-46.5 -166.5h-38l28 339h1003z" />
    <glyph glyph-name="bracketleft" unicode="[" horiz-adv-x="682" 
d="M608 -406h-440v1793h440v-79h-290v-1636h290v-78z" />
    <glyph glyph-name="backslash" unicode="\" horiz-adv-x="569" 
d="M83 1422l490 -1450h-80l-490 1450h80z" />
    <glyph glyph-name="bracketright" unicode="]" horiz-adv-x="682" 
d="M75 1387h440v-1794h-440v79h290v1636h-290v79z" />
    <glyph glyph-name="asciicircum" unicode="^" horiz-adv-x="961" 
d="M498 1384l425 -717h-92l-350 586l-350 -586h-94l431 717h30z" />
    <glyph glyph-name="underscore" unicode="_" horiz-adv-x="1024" 
d="M1042 -442h-1059v84h1059v-84z" />
    <glyph glyph-name="grave" unicode="`" horiz-adv-x="682" 
d="M118 1390h223l106 -345h-35z" />
    <glyph glyph-name="a" unicode="a" horiz-adv-x="909" 
d="M583 132q-141 -109 -177 -126q-54 -25 -115 -25q-95 0 -156.5 65t-61.5 171q0 67 30 116q41 68 142.5 128t337.5 146v36q0 137 -43.5 188t-126.5 51q-63 0 -100 -34q-38 -34 -38 -78l2 -58q0 -46 -23.5 -71t-61.5 -25q-37 0 -60.5 26t-23.5 71q0 86 88 158t247 72
q122 0 200 -41q59 -31 87 -97q18 -43 18 -176v-311q0 -131 5 -160.5t16.5 -39.5t26.5 -10q16 0 28 7q21 13 81 73v-56q-112 -150 -214 -150q-49 0 -78 34t-30 116zM583 197v349q-151 -60 -195 -85q-79 -44 -113 -92t-34 -105q0 -72 43 -119.5t99 -47.5q76 0 200 100z" />
    <glyph glyph-name="b" unicode="b" horiz-adv-x="1024" 
d="M315 758q133 185 287 185q141 0 246 -120.5t105 -329.5q0 -244 -162 -393q-139 -128 -310 -128q-80 0 -162.5 29t-168.5 87v949q0 156 -7.5 192t-23.5 49t-40 13q-28 0 -70 -16l-14 35l275 112h45v-664zM315 694v-548q51 -50 105.5 -75.5t111.5 -25.5q91 0 169.5 100
t78.5 291q0 176 -78.5 270.5t-178.5 94.5q-53 0 -106 -27q-40 -20 -102 -80z" />
    <glyph glyph-name="c" unicode="c" horiz-adv-x="909" 
d="M842 348q-37 -181 -145 -278.5t-239 -97.5q-156 0 -272 131t-116 354q0 216 128.5 351t308.5 135q135 0 222 -71.5t87 -148.5q0 -38 -24.5 -61.5t-68.5 -23.5q-59 0 -89 38q-17 21 -22.5 80t-40.5 90q-35 30 -97 30q-100 0 -161 -74q-81 -98 -81 -259q0 -164 80.5 -289.5
t217.5 -125.5q98 0 176 67q55 46 107 167z" />
    <glyph glyph-name="d" unicode="d" horiz-adv-x="1024" 
d="M711 103q-67 -70 -131 -100.5t-138 -30.5q-150 0 -262 125.5t-112 322.5t124 360.5t319 163.5q121 0 200 -77v169q0 157 -7.5 193t-23.5 49t-40 13q-26 0 -69 -16l-13 35l273 112h45v-1059q0 -161 7.5 -196.5t24 -49.5t38.5 -14q27 0 72 17l11 -35l-272 -113h-46v131z
M711 173v472q-6 68 -36 124t-79.5 84.5t-96.5 28.5q-88 0 -157 -79q-91 -104 -91 -304q0 -202 88 -309.5t196 -107.5q91 0 176 91z" />
    <glyph glyph-name="e" unicode="e" horiz-adv-x="909" 
d="M218 571q-1 -204 99 -320t235 -116q90 0 156.5 49.5t111.5 169.5l31 -20q-21 -137 -122 -249.5t-253 -112.5q-165 0 -282.5 128.5t-117.5 345.5q0 235 120.5 366.5t302.5 131.5q154 0 253 -101.5t99 -271.5h-633zM218 629h424q-5 88 -21 124q-25 56 -74.5 88t-103.5 32
q-83 0 -148.5 -64.5t-76.5 -179.5z" />
    <glyph glyph-name="f" unicode="f" horiz-adv-x="682" 
d="M422 844v-602q0 -128 28 -162q37 -44 99 -44h83v-36h-547v36h41q40 0 73 20t45.5 54t12.5 132v602h-178v72h178v60q0 137 44 232t134.5 153.5t203.5 58.5q105 0 193 -68q58 -45 58 -101q0 -30 -26 -56.5t-56 -26.5q-23 0 -48.5 16.5t-62.5 71t-68 73.5t-69 19
q-46 0 -78 -24.5t-46 -76t-14 -265.5v-66h236v-72h-236z" />
    <glyph glyph-name="g" unicode="g" horiz-adv-x="1024" 
d="M309 334q-84 41 -129 114.5t-45 162.5q0 136 102.5 234t262.5 98q131 0 227 -64h194q43 0 50 -2.5t10 -8.5q6 -9 6 -32q0 -26 -5 -36q-3 -5 -10.5 -8t-50.5 -3h-119q56 -72 56 -184q0 -128 -98 -219t-263 -91q-68 0 -139 20q-44 -38 -59.5 -66.5t-15.5 -48.5
q0 -17 16.5 -33t64.5 -23q28 -4 140 -7q206 -5 267 -14q93 -13 148.5 -69t55.5 -138q0 -113 -106 -212q-156 -146 -407 -146q-193 0 -326 87q-75 50 -75 104q0 24 11 48q17 37 70 103q7 9 102 108q-52 31 -73.5 55.5t-21.5 55.5q0 35 28.5 82t131.5 133zM483 895
q-74 0 -124 -59t-50 -181q0 -158 68 -245q52 -66 132 -66q76 0 125 57t49 179q0 159 -69 249q-51 66 -131 66zM299 0q-47 -51 -71 -95t-24 -81q0 -48 58 -84q100 -62 289 -62q180 0 265.5 63.5t85.5 135.5q0 52 -51 74q-52 22 -206 26q-225 6 -346 23z" />
    <glyph glyph-name="h" unicode="h" horiz-adv-x="1024" 
d="M333 1422v-670q111 122 176 156.5t130 34.5q78 0 134 -43t83 -135q19 -64 19 -234v-324q0 -87 14 -119q10 -24 34 -38t88 -14v-36h-450v36h21q64 0 89 19.5t35 57.5q3 16 3 94v324q0 150 -15.5 197t-49.5 70.5t-82 23.5q-49 0 -102 -26t-127 -105v-484q0 -94 10.5 -117
t39 -38.5t98.5 -15.5v-36h-454v36q61 0 96 19q20 10 32 38t12 114v829q0 157 -7.5 193t-23 49t-41.5 13q-21 0 -68 -16l-14 35l274 112h46z" />
    <glyph glyph-name="i" unicode="i" horiz-adv-x="569" 
d="M297 1422q42 0 71.5 -29.5t29.5 -71.5t-29.5 -72t-71.5 -30t-72 30t-30 72t29.5 71.5t72.5 29.5zM380 943v-736q0 -86 12.5 -114.5t37 -42.5t89.5 -14v-36h-445v36q67 0 90 13t36.5 43t13.5 115v353q0 149 -9 193q-7 32 -22 44.5t-41 12.5q-28 0 -68 -15l-14 36l276 112
h44z" />
    <glyph glyph-name="j" unicode="j" horiz-adv-x="569" 
d="M296 1423q43 0 73 -30t30 -73q0 -42 -30 -72t-73 -30q-42 0 -72 30t-30 72q0 43 30 73t72 30zM382 943v-922q0 -235 -100 -349t-260 -114q-91 0 -135 33t-44 68t24.5 60t57.5 25q26 0 53 -13q17 -7 65.5 -50.5t81.5 -43.5q24 0 47 18.5t34 62t11 188.5v652q0 151 -9 194
q-7 33 -22 45.5t-41 12.5q-28 0 -68 -15l-14 36l276 112h43z" />
    <glyph glyph-name="k" unicode="k" horiz-adv-x="1024" 
d="M335 1422v-912l233 213q74 68 86 86q8 12 8 24q0 20 -16.5 34.5t-54.5 16.5v32h398v-32q-82 -2 -136.5 -25t-119.5 -82l-235 -217l235 -297q98 -123 132 -156q48 -47 84 -61q25 -10 87 -10v-36h-445v36q38 1 51.5 11.5t13.5 29.5q0 23 -40 74l-281 359v-304
q0 -89 12.5 -117t35.5 -40t100 -13v-36h-466v36q70 0 105 17q21 11 32 34q15 33 15 114v834q0 159 -7 194.5t-23 49t-42 13.5q-21 0 -63 -17l-17 35l272 112h46z" />
    <glyph glyph-name="l" unicode="l" horiz-adv-x="569" 
d="M379 1422v-1215q0 -86 12.5 -114t38.5 -42.5t97 -14.5v-36h-449v36q63 0 86 13t36 43t13 115v832q0 155 -7 190.5t-22.5 48.5t-39.5 13q-26 0 -66 -16l-17 35l273 112h45z" />
    <glyph glyph-name="m" unicode="m" horiz-adv-x="1593" 
d="M336 748q100 100 118 115q45 38 97 59t103 21q86 0 148 -50t83 -145q103 120 174 157.5t146 37.5q73 0 129.5 -37.5t89.5 -122.5q22 -58 22 -182v-394q0 -86 13 -118q10 -22 37 -37.5t88 -15.5v-36h-452v36h19q59 0 92 23q23 16 33 51q4 17 4 97v394q0 112 -27 158
q-39 64 -125 64q-53 0 -106.5 -26.5t-129.5 -98.5l-2 -11l2 -43v-437q0 -94 10.5 -117t39.5 -38.5t99 -15.5v-36h-463v36q76 0 104.5 18t39.5 54q5 17 5 99v394q0 112 -33 161q-44 64 -123 64q-54 0 -107 -29q-83 -44 -128 -99v-491q0 -90 12.5 -117t37 -40.5t99.5 -13.5
v-36h-453v36q63 0 88 13.5t38 43t13 114.5v350q0 151 -9 195q-7 33 -22 45.5t-41 12.5q-28 0 -67 -15l-15 36l276 112h43v-195z" />
    <glyph glyph-name="n" unicode="n" horiz-adv-x="1024" 
d="M331 749q161 194 307 194q75 0 129 -37.5t86 -123.5q22 -60 22 -184v-391q0 -87 14 -118q11 -25 35.5 -39t90.5 -14v-36h-453v36h19q64 0 89.5 19.5t35.5 57.5q4 15 4 94v375q0 125 -32.5 181.5t-109.5 56.5q-119 0 -237 -130v-483q0 -93 11 -115q14 -29 38.5 -42.5
t99.5 -13.5v-36h-453v36h20q70 0 94.5 35.5t24.5 135.5v340q0 165 -7.5 201t-23 49t-41.5 13q-28 0 -67 -15l-15 36l276 112h43v-194z" />
    <glyph glyph-name="o" unicode="o" horiz-adv-x="1024" 
d="M512 943q208 0 334 -158q107 -135 107 -310q0 -123 -59 -249t-162.5 -190t-230.5 -64q-207 0 -329 165q-103 139 -103 312q0 126 62.5 250.5t164.5 184t216 59.5zM481 878q-53 0 -106.5 -31.5t-86.5 -110.5t-33 -203q0 -200 79.5 -345t209.5 -145q97 0 160 80t63 275
q0 244 -105 384q-71 96 -181 96z" />
    <glyph glyph-name="p" unicode="p" horiz-adv-x="1024" 
d="M-2 825l282 114h38v-214q71 121 142.5 169.5t150.5 48.5q138 0 230 -108q113 -132 113 -344q0 -237 -136 -392q-112 -127 -282 -127q-74 0 -128 21q-40 15 -90 60v-279q0 -94 11.5 -119.5t40 -40.5t103.5 -15v-37h-480v37h25q55 -1 94 21q19 11 29.5 35.5t10.5 124.5v866
q0 89 -8 113t-25.5 36t-47.5 12q-24 0 -61 -14zM318 666v-342q0 -111 9 -146q14 -58 68.5 -102t137.5 -44q100 0 162 78q81 102 81 287q0 210 -92 323q-64 78 -152 78q-48 0 -95 -24q-36 -18 -119 -108z" />
    <glyph glyph-name="q" unicode="q" horiz-adv-x="1024" 
d="M875 943v-1178q0 -88 12 -113t37.5 -39t99.5 -14v-37h-462v37h19q56 0 85 16q20 11 32 39.5t12 110.5v394q-91 -108 -159 -147.5t-141 -39.5q-133 0 -237.5 121t-104.5 324q0 233 138 379.5t333 146.5q57 0 105 -16t86 -48q58 28 111 64h34zM710 222v430q0 75 -19.5 118
t-69.5 73t-113 30q-112 0 -192 -95t-80 -288q0 -185 81.5 -281t196.5 -96q59 0 105 25.5t91 83.5z" />
    <glyph glyph-name="r" unicode="r" horiz-adv-x="682" 
d="M332 943v-206q115 206 236 206q55 0 91 -33.5t36 -77.5q0 -39 -26 -66t-62 -27q-35 0 -78.5 34.5t-64.5 34.5q-18 0 -39 -20q-45 -41 -93 -135v-439q0 -76 19 -115q13 -27 46 -45t95 -18v-36h-469v36q70 0 104 22q25 16 35 51q5 17 5 97v355q0 160 -6.5 190.5t-24 44.5
t-43.5 14q-31 0 -70 -15l-10 36l277 112h42z" />
    <glyph glyph-name="s" unicode="s" horiz-adv-x="797" 
d="M656 943v-312h-33q-38 147 -97.5 200t-151.5 53q-70 0 -113 -37t-43 -82q0 -56 32 -96q31 -41 126 -87l146 -71q203 -99 203 -261q0 -125 -94.5 -201.5t-211.5 -76.5q-84 0 -192 30q-33 10 -54 10q-23 0 -36 -26h-33v327h33q28 -140 107 -211t177 -71q69 0 112.5 40.5
t43.5 97.5q0 69 -48.5 116t-193.5 119t-190 130q-45 57 -45 144q0 113 77.5 189t200.5 76q54 0 131 -23q51 -15 68 -15q16 0 25 7t21 31h33z" />
    <glyph glyph-name="t" unicode="t" horiz-adv-x="569" 
d="M330 1217v-301h214v-70h-214v-594q0 -89 25.5 -120t65.5 -31q33 0 64 20.5t48 60.5h39q-35 -98 -99 -147.5t-132 -49.5q-46 0 -90 25.5t-65 73t-21 146.5v616h-145v33q55 22 112.5 74.5t102.5 124.5q23 38 64 139h31z" />
    <glyph glyph-name="u" unicode="u" horiz-adv-x="1024" 
d="M867 916v-555q0 -159 7.5 -194.5t24 -49.5t38.5 -14q31 0 70 17l14 -35l-274 -113h-45v194q-118 -128 -180 -161t-131 -33q-77 0 -133.5 44.5t-78.5 114.5t-22 198v409q0 65 -14 90t-41.5 38.5t-99.5 12.5v37h321v-613q0 -128 44.5 -168t107.5 -40q43 0 97.5 27
t129.5 103v519q0 78 -28.5 105.5t-118.5 29.5v37h312z" />
    <glyph glyph-name="v" unicode="v" horiz-adv-x="1024" 
d="M17 916h431v-37h-28q-39 0 -59.5 -19t-20.5 -51q0 -35 21 -83l213 -506l214 525q23 56 23 85q0 14 -8 23q-11 15 -28 20.5t-69 5.5v37h299v-37q-52 -4 -72 -21q-35 -30 -63 -100l-325 -786h-41l-327 773q-22 54 -42 77.5t-51 39.5q-17 9 -67 17v37z" />
    <glyph glyph-name="w" unicode="w" horiz-adv-x="1479" 
d="M13 916h384v-37q-53 -4 -69.5 -19t-16.5 -43q0 -31 17 -75l196 -527l197 429l-52 135q-24 60 -63 83q-22 14 -82 17v37h436v-37q-72 -3 -102 -26q-20 -16 -20 -51q0 -20 8 -41l208 -526l193 507q20 54 20 86q0 19 -19.5 34t-76.5 17v37h289v-37q-87 -13 -128 -118
l-306 -789h-41l-229 585l-267 -585h-37l-294 770q-29 73 -57 98.5t-88 38.5v37z" />
    <glyph glyph-name="x" unicode="x" horiz-adv-x="1024" 
d="M27 916h431v-37q-41 0 -57.5 -14t-16.5 -37q0 -24 35 -74l33 -50l65 -104l75 104q72 99 72 125q0 21 -17 35.5t-55 14.5v37h310v-37q-49 -3 -85 -27q-49 -34 -134 -148l-125 -167l228 -328q84 -121 120 -145.5t93 -27.5v-36h-432v36q45 0 70 20q19 14 19 37t-64 116
l-134 196l-147 -196q-68 -91 -68 -108q0 -24 22.5 -43.5t67.5 -21.5v-36h-299v36q36 5 63 25q38 29 128 148l192 255l-174 252q-74 108 -114.5 135.5t-101.5 27.5v37z" />
    <glyph glyph-name="y" unicode="y" horiz-adv-x="1024" 
d="M12 916h427v-37h-21q-45 0 -67.5 -19.5t-22.5 -48.5q0 -39 33 -108l223 -462l205 506q17 41 17 81q0 18 -7 27q-8 11 -25 17.5t-60 6.5v37h298v-37q-37 -4 -57 -16t-44 -45q-9 -14 -34 -77l-373 -914q-54 -133 -141.5 -201t-168.5 -68q-59 0 -97 34t-38 78
q0 42 27.5 67.5t75.5 25.5q33 0 90 -22q40 -15 50 -15q30 0 65.5 31t71.5 120l65 159l-329 691q-15 31 -48 77q-25 35 -41 47q-23 16 -74 28v37z" />
    <glyph glyph-name="z" unicode="z" horiz-adv-x="909" 
d="M860 281l-11 -281h-808v36l608 810h-300q-97 0 -127 -12.5t-49 -47.5q-27 -50 -31 -124h-40l6 254h768v-37l-614 -812h334q105 0 142.5 17.5t60.5 61.5q16 32 27 135h34z" />
    <glyph glyph-name="braceleft" unicode="{" horiz-adv-x="983" 
d="M841 -407v-35q-167 23 -271.5 135.5t-104.5 249.5q0 72 23 167.5t23 148.5q0 72 -60.5 134.5t-167.5 76.5v41q107 14 167.5 76t60.5 135q0 53 -23 148t-23 168q0 136 104.5 249t271.5 135v-35q-117 -28 -171.5 -91.5t-54.5 -139.5q0 -59 22.5 -155.5t22.5 -164.5
q0 -101 -74 -196t-221 -147q144 -53 219.5 -150t75.5 -198q0 -68 -22.5 -164.5t-22.5 -155.5q0 -76 54.5 -139.5t171.5 -92.5z" />
    <glyph glyph-name="bar" unicode="|" horiz-adv-x="410" 
d="M244 1422v-1864h-83v1864h83z" />
    <glyph glyph-name="braceright" unicode="}" horiz-adv-x="983" 
d="M177 1387v35q167 -22 271.5 -134.5t104.5 -250.5q0 -72 -23 -167t-23 -148q0 -72 60.5 -134.5t167.5 -76.5v-41q-107 -14 -167.5 -76.5t-60.5 -134.5q0 -53 23 -148.5t23 -167.5q0 -136 -104.5 -249t-271.5 -136v35q117 29 171.5 92t54.5 140q0 59 -23 155.5t-23 163.5
q0 102 74.5 197t221.5 147q-144 53 -220 150t-76 198q0 68 23 164.5t23 155.5q0 76 -54.5 139.5t-171.5 91.5z" />
    <glyph glyph-name="asciitilde" unicode="~" horiz-adv-x="1108" 
d="M1042 675h45q-4 -130 -74 -203.5t-171 -73.5q-46 0 -99 15.5t-274 105.5q-154 64 -219 64q-70 0 -118 -43t-68 -140h-44q6 135 74 206.5t160 71.5q44 0 90 -14q104 -30 273.5 -102.5t238.5 -72.5q75 0 126 48t60 138z" />
    <glyph glyph-name="Adieresis" unicode="&#xc4;" horiz-adv-x="1479" 
d="M937 454h-525l-92 -214q-34 -79 -34 -118q0 -31 29.5 -54.5t127.5 -30.5v-37h-427v37q85 15 110 39q51 48 113 195l477 1116h35l472 -1128q57 -136 103.5 -176.5t129.5 -45.5v-37h-535v37q81 4 109.5 27t28.5 56q0 44 -40 139zM909 528l-230 548l-236 -548h466zM911 1708
q45 0 76.5 -32t31.5 -77t-31.5 -76.5t-76.5 -31.5t-77 31.5t-32 76.5t32 77t77 32zM558 1708q46 0 77.5 -32t31.5 -77t-32 -76.5t-76 -31.5q-45 0 -77 31.5t-32 76.5t31.5 77t76.5 32z" />
    <glyph glyph-name="Aring" unicode="&#xc5;" horiz-adv-x="1479" 
d="M937 454h-525l-92 -214q-34 -79 -34 -118q0 -31 29.5 -54.5t127.5 -30.5v-37h-427v37q85 15 110 39q51 48 113 195l477 1116h35l472 -1128q57 -136 103.5 -176.5t129.5 -45.5v-37h-535v37q81 4 109.5 27t28.5 56q0 44 -40 139zM909 528l-230 548l-236 -548h466zM731 1701
q80 0 136 -56t56 -135q0 -80 -56 -136t-136 -56q-79 0 -135 56t-56 136q0 79 55.5 135t135.5 56zM731 1632q-51 0 -86.5 -35.5t-35.5 -86.5q0 -50 35.5 -86t86.5 -36t86.5 36t35.5 86q0 51 -35.5 86.5t-86.5 35.5z" />
    <glyph glyph-name="Ccedilla" unicode="&#xc7;" horiz-adv-x="1366" 
d="M1233 1387l31 -461h-31q-62 207 -177 298t-276 91q-135 0 -244 -68.5t-171.5 -218.5t-62.5 -373q0 -184 59 -319t177.5 -207t270.5 -72q132 0 233 56.5t222 224.5l31 -20q-102 -181 -238 -265t-323 -84q-337 0 -522 250q-138 186 -138 438q0 203 91 373t250.5 263.5
t348.5 93.5q147 0 290 -72q42 -22 60 -22q27 0 47 19q26 27 37 75h35zM698 16h60l-50 -79q63 -16 94 -54t31 -92q0 -72 -60 -126.5t-155 -54.5q-37 0 -94 7v43q28 -4 48 -4q51 0 86 33.5t35 76.5q0 30 -23 52t-57 22q-10 0 -26 -2z" />
    <glyph glyph-name="Eacute" unicode="&#xc9;" horiz-adv-x="1251" 
d="M428 1282v-536h298q116 0 155 35q52 46 58 162h37v-472h-37q-14 99 -28 127q-18 35 -59 55t-126 20h-298v-447q0 -90 8 -109.5t28 -31t76 -11.5h230q115 0 167 16t100 63q62 62 127 187h40l-117 -340h-1045v37h48q48 0 91 23q32 16 43.5 48t11.5 131v881q0 129 -26 159
q-36 40 -120 40h-48v37h1045l15 -297h-39q-21 107 -46.5 147t-75.5 61q-40 15 -141 15h-372zM853 1797l-295 -345h-34l105 345h224z" />
    <glyph glyph-name="Ntilde" unicode="&#xd1;" horiz-adv-x="1479" 
d="M-27 1356h368l829 -1017v782q0 125 -28 156q-37 42 -117 42h-47v37h472v-37h-48q-86 0 -122 -52q-22 -32 -22 -146v-1143h-36l-894 1092v-835q0 -125 27 -156q38 -42 117 -42h48v-37h-472v37h47q87 0 123 52q22 32 22 146v943q-59 69 -89.5 91t-89.5 41q-29 9 -88 9v37z
M448 1465h-32q4 137 57 198t131 61q41 0 75 -13q45 -17 127.5 -71.5t122.5 -54.5q32 0 56.5 27t38.5 112h31q1 -93 -24.5 -147.5t-72 -85t-93.5 -30.5q-79 0 -196 80q-63 43 -85 52t-43 9q-41 0 -65 -36q-11 -17 -28 -101z" />
    <glyph glyph-name="Odieresis" unicode="&#xd6;" horiz-adv-x="1479" 
d="M749 1387q264 0 457.5 -200.5t193.5 -500.5q0 -309 -195 -513t-472 -204q-280 0 -470.5 199t-190.5 515q0 323 220 527q191 177 457 177zM730 1314q-182 0 -292 -135q-137 -168 -137 -492q0 -332 142 -511q109 -136 288 -136q191 0 315.5 149t124.5 470q0 348 -137 519
q-110 136 -304 136zM909 1708q45 0 76.5 -32t31.5 -77t-31.5 -76.5t-76.5 -31.5t-77 31.5t-32 76.5t32 77t77 32zM556 1708q46 0 77.5 -32t31.5 -77t-32 -76.5t-76 -31.5q-45 0 -77 31.5t-32 76.5t31.5 77t76.5 32z" />
    <glyph glyph-name="Udieresis" unicode="&#xdc;" horiz-adv-x="1479" 
d="M977 1319v37h480v-37h-51q-80 0 -123 -67q-21 -31 -21 -144v-550q0 -204 -40.5 -316.5t-159 -193t-322.5 -80.5q-222 0 -337 77t-163 207q-32 89 -32 334v530q0 125 -34.5 164t-111.5 39h-51v37h586v-37h-52q-84 0 -120 -53q-25 -36 -25 -150v-591q0 -79 14.5 -181
t52.5 -159t109.5 -94t175.5 -37q133 0 238 58t143.5 148.5t38.5 306.5v549q0 127 -28 159q-39 44 -116 44h-51zM960 1708q45 0 76.5 -32t31.5 -77t-31.5 -76.5t-76.5 -31.5t-77 31.5t-32 76.5t32 77t77 32zM607 1708q46 0 77.5 -32t31.5 -77t-32 -76.5t-76 -31.5
q-45 0 -77 31.5t-32 76.5t31.5 77t76.5 32z" />
    <glyph glyph-name="aacute" unicode="&#xe1;" horiz-adv-x="909" 
d="M583 132q-141 -109 -177 -126q-54 -25 -115 -25q-95 0 -156.5 65t-61.5 171q0 67 30 116q41 68 142.5 128t337.5 146v36q0 137 -43.5 188t-126.5 51q-63 0 -100 -34q-38 -34 -38 -78l2 -58q0 -46 -23.5 -71t-61.5 -25q-37 0 -60.5 26t-23.5 71q0 86 88 158t247 72
q122 0 200 -41q59 -31 87 -97q18 -43 18 -176v-311q0 -131 5 -160.5t16.5 -39.5t26.5 -10q16 0 28 7q21 13 81 73v-56q-112 -150 -214 -150q-49 0 -78 34t-30 116zM583 197v349q-151 -60 -195 -85q-79 -44 -113 -92t-34 -105q0 -72 43 -119.5t99 -47.5q76 0 200 100z
M682 1390l-295 -345h-34l105 345h224z" />
    <glyph glyph-name="agrave" unicode="&#xe0;" horiz-adv-x="909" 
d="M583 132q-141 -109 -177 -126q-54 -25 -115 -25q-95 0 -156.5 65t-61.5 171q0 67 30 116q41 68 142.5 128t337.5 146v36q0 137 -43.5 188t-126.5 51q-63 0 -100 -34q-38 -34 -38 -78l2 -58q0 -46 -23.5 -71t-61.5 -25q-37 0 -60.5 26t-23.5 71q0 86 88 158t247 72
q122 0 200 -41q59 -31 87 -97q18 -43 18 -176v-311q0 -131 5 -160.5t16.5 -39.5t26.5 -10q16 0 28 7q21 13 81 73v-56q-112 -150 -214 -150q-49 0 -78 34t-30 116zM583 197v349q-151 -60 -195 -85q-79 -44 -113 -92t-34 -105q0 -72 43 -119.5t99 -47.5q76 0 200 100z
M260 1390h223l106 -345h-35z" />
    <glyph glyph-name="acircumflex" unicode="&#xe2;" horiz-adv-x="909" 
d="M583 132q-141 -109 -177 -126q-54 -25 -115 -25q-95 0 -156.5 65t-61.5 171q0 67 30 116q41 68 142.5 128t337.5 146v36q0 137 -43.5 188t-126.5 51q-63 0 -100 -34q-38 -34 -38 -78l2 -58q0 -46 -23.5 -71t-61.5 -25q-37 0 -60.5 26t-23.5 71q0 86 88 158t247 72
q122 0 200 -41q59 -31 87 -97q18 -43 18 -176v-311q0 -131 5 -160.5t16.5 -39.5t26.5 -10q16 0 28 7q21 13 81 73v-56q-112 -150 -214 -150q-49 0 -78 34t-30 116zM583 197v349q-151 -60 -195 -85q-79 -44 -113 -92t-34 -105q0 -72 43 -119.5t99 -47.5q76 0 200 100z
M366 1385h184l190 -331h-31l-273 213l-229 -213h-30z" />
    <glyph glyph-name="adieresis" unicode="&#xe4;" horiz-adv-x="909" 
d="M583 132q-141 -109 -177 -126q-54 -25 -115 -25q-95 0 -156.5 65t-61.5 171q0 67 30 116q41 68 142.5 128t337.5 146v36q0 137 -43.5 188t-126.5 51q-63 0 -100 -34q-38 -34 -38 -78l2 -58q0 -46 -23.5 -71t-61.5 -25q-37 0 -60.5 26t-23.5 71q0 86 88 158t247 72
q122 0 200 -41q59 -31 87 -97q18 -43 18 -176v-311q0 -131 5 -160.5t16.5 -39.5t26.5 -10q16 0 28 7q21 13 81 73v-56q-112 -150 -214 -150q-49 0 -78 34t-30 116zM583 197v349q-151 -60 -195 -85q-79 -44 -113 -92t-34 -105q0 -72 43 -119.5t99 -47.5q76 0 200 100z
M634 1337q45 0 76.5 -32t31.5 -77t-31.5 -76.5t-76.5 -31.5t-77 31.5t-32 76.5t32 77t77 32zM281 1337q46 0 77.5 -32t31.5 -77t-32 -76.5t-76 -31.5q-45 0 -77 31.5t-32 76.5t31.5 77t76.5 32z" />
    <glyph glyph-name="atilde" unicode="&#xe3;" horiz-adv-x="909" 
d="M583 132q-141 -109 -177 -126q-54 -25 -115 -25q-95 0 -156.5 65t-61.5 171q0 67 30 116q41 68 142.5 128t337.5 146v36q0 137 -43.5 188t-126.5 51q-63 0 -100 -34q-38 -34 -38 -78l2 -58q0 -46 -23.5 -71t-61.5 -25q-37 0 -60.5 26t-23.5 71q0 86 88 158t247 72
q122 0 200 -41q59 -31 87 -97q18 -43 18 -176v-311q0 -131 5 -160.5t16.5 -39.5t26.5 -10q16 0 28 7q21 13 81 73v-56q-112 -150 -214 -150q-49 0 -78 34t-30 116zM583 197v349q-151 -60 -195 -85q-79 -44 -113 -92t-34 -105q0 -72 43 -119.5t99 -47.5q76 0 200 100z
M171 1097h-32q4 137 57 198t131 61q41 0 75 -13q45 -17 127.5 -71.5t122.5 -54.5q32 0 56.5 27t38.5 112h31q1 -93 -24.5 -147.5t-72 -85t-93.5 -30.5q-79 0 -196 80q-63 43 -85 52t-43 9q-41 0 -65 -36q-11 -17 -28 -101z" />
    <glyph glyph-name="aring" unicode="&#xe5;" horiz-adv-x="909" 
d="M583 132q-141 -109 -177 -126q-54 -25 -115 -25q-95 0 -156.5 65t-61.5 171q0 67 30 116q41 68 142.5 128t337.5 146v36q0 137 -43.5 188t-126.5 51q-63 0 -100 -34q-38 -34 -38 -78l2 -58q0 -46 -23.5 -71t-61.5 -25q-37 0 -60.5 26t-23.5 71q0 86 88 158t247 72
q122 0 200 -41q59 -31 87 -97q18 -43 18 -176v-311q0 -131 5 -160.5t16.5 -39.5t26.5 -10q16 0 28 7q21 13 81 73v-56q-112 -150 -214 -150q-49 0 -78 34t-30 116zM583 197v349q-151 -60 -195 -85q-79 -44 -113 -92t-34 -105q0 -72 43 -119.5t99 -47.5q76 0 200 100z
M458 1426q80 0 136 -56t56 -135q0 -80 -56 -136t-136 -56q-79 0 -135 56t-56 136q0 79 55.5 135t135.5 56zM458 1357q-51 0 -86.5 -35.5t-35.5 -86.5q0 -50 35.5 -86t86.5 -36t86.5 36t35.5 86q0 51 -35.5 86.5t-86.5 35.5z" />
    <glyph glyph-name="ccedilla" unicode="&#xe7;" horiz-adv-x="909" 
d="M842 348q-37 -181 -145 -278.5t-239 -97.5q-156 0 -272 131t-116 354q0 216 128.5 351t308.5 135q135 0 222 -71.5t87 -148.5q0 -38 -24.5 -61.5t-68.5 -23.5q-59 0 -89 38q-17 21 -22.5 80t-40.5 90q-35 30 -97 30q-100 0 -161 -74q-81 -98 -81 -259q0 -164 80.5 -289.5
t217.5 -125.5q98 0 176 67q55 46 107 167zM470 16h60l-50 -79q63 -16 94 -54t31 -92q0 -72 -60 -126.5t-155 -54.5q-37 0 -94 7v43q28 -4 48 -4q51 0 86 33.5t35 76.5q0 30 -23 52t-57 22q-10 0 -26 -2z" />
    <glyph glyph-name="eacute" unicode="&#xe9;" horiz-adv-x="909" 
d="M218 571q-1 -204 99 -320t235 -116q90 0 156.5 49.5t111.5 169.5l31 -20q-21 -137 -122 -249.5t-253 -112.5q-165 0 -282.5 128.5t-117.5 345.5q0 235 120.5 366.5t302.5 131.5q154 0 253 -101.5t99 -271.5h-633zM218 629h424q-5 88 -21 124q-25 56 -74.5 88t-103.5 32
q-83 0 -148.5 -64.5t-76.5 -179.5zM695 1390l-295 -345h-34l105 345h224z" />
    <glyph glyph-name="egrave" unicode="&#xe8;" horiz-adv-x="909" 
d="M218 571q-1 -204 99 -320t235 -116q90 0 156.5 49.5t111.5 169.5l31 -20q-21 -137 -122 -249.5t-253 -112.5q-165 0 -282.5 128.5t-117.5 345.5q0 235 120.5 366.5t302.5 131.5q154 0 253 -101.5t99 -271.5h-633zM218 629h424q-5 88 -21 124q-25 56 -74.5 88t-103.5 32
q-83 0 -148.5 -64.5t-76.5 -179.5zM285 1390h223l106 -345h-35z" />
    <glyph glyph-name="ecircumflex" unicode="&#xea;" horiz-adv-x="909" 
d="M218 571q-1 -204 99 -320t235 -116q90 0 156.5 49.5t111.5 169.5l31 -20q-21 -137 -122 -249.5t-253 -112.5q-165 0 -282.5 128.5t-117.5 345.5q0 235 120.5 366.5t302.5 131.5q154 0 253 -101.5t99 -271.5h-633zM218 629h424q-5 88 -21 124q-25 56 -74.5 88t-103.5 32
q-83 0 -148.5 -64.5t-76.5 -179.5zM403 1385h184l190 -331h-31l-273 213l-229 -213h-30z" />
    <glyph glyph-name="edieresis" unicode="&#xeb;" horiz-adv-x="909" 
d="M218 571q-1 -204 99 -320t235 -116q90 0 156.5 49.5t111.5 169.5l31 -20q-21 -137 -122 -249.5t-253 -112.5q-165 0 -282.5 128.5t-117.5 345.5q0 235 120.5 366.5t302.5 131.5q154 0 253 -101.5t99 -271.5h-633zM218 629h424q-5 88 -21 124q-25 56 -74.5 88t-103.5 32
q-83 0 -148.5 -64.5t-76.5 -179.5zM671 1336q45 0 76.5 -32t31.5 -77t-31.5 -76.5t-76.5 -31.5t-77 31.5t-32 76.5t32 77t77 32zM318 1336q46 0 77.5 -32t31.5 -77t-32 -76.5t-76 -31.5q-45 0 -77 31.5t-32 76.5t31.5 77t76.5 32z" />
    <glyph glyph-name="iacute" unicode="&#xed;" horiz-adv-x="569" 
d="M379 943v-736q0 -86 13 -114.5t37.5 -42.5t89.5 -14v-36h-445v36q67 0 90 13t36.5 43t13.5 115v353q0 149 -9 193q-7 32 -22 44.5t-41 12.5q-28 0 -68 -15l-14 36l276 112h43zM498 1390l-295 -345h-34l105 345h224z" />
    <glyph glyph-name="igrave" unicode="&#xec;" horiz-adv-x="569" 
d="M379 943v-736q0 -86 13 -114.5t37.5 -42.5t89.5 -14v-36h-445v36q67 0 90 13t36.5 43t13.5 115v353q0 149 -9 193q-7 32 -22 44.5t-41 12.5q-28 0 -68 -15l-14 36l276 112h43zM77 1390h223l106 -345h-35z" />
    <glyph glyph-name="icircumflex" unicode="&#xee;" horiz-adv-x="569" 
d="M379 943v-736q0 -86 13 -114.5t37.5 -42.5t89.5 -14v-36h-445v36q67 0 90 13t36.5 43t13.5 115v353q0 149 -9 193q-7 32 -22 44.5t-41 12.5q-28 0 -68 -15l-14 36l276 112h43zM202 1385h184l190 -331h-31l-273 213l-229 -213h-30z" />
    <glyph glyph-name="idieresis" unicode="&#xef;" horiz-adv-x="569" 
d="M379 943v-736q0 -86 13 -114.5t37.5 -42.5t89.5 -14v-36h-445v36q67 0 90 13t36.5 43t13.5 115v353q0 149 -9 193q-7 32 -22 44.5t-41 12.5q-28 0 -68 -15l-14 36l276 112h43zM463 1336q45 0 76.5 -32t31.5 -77t-31.5 -76.5t-76.5 -31.5t-77 31.5t-32 76.5t32 77t77 32z
M110 1336q46 0 77.5 -32t31.5 -77t-32 -76.5t-76 -31.5q-45 0 -77 31.5t-32 76.5t31.5 77t76.5 32z" />
    <glyph glyph-name="ntilde" unicode="&#xf1;" horiz-adv-x="1024" 
d="M331 749q161 194 307 194q75 0 129 -37.5t86 -123.5q22 -60 22 -184v-391q0 -87 14 -118q11 -25 35.5 -39t90.5 -14v-36h-453v36h19q64 0 89.5 19.5t35.5 57.5q4 15 4 94v375q0 125 -32.5 181.5t-109.5 56.5q-119 0 -237 -130v-483q0 -93 11 -115q14 -29 38.5 -42.5
t99.5 -13.5v-36h-453v36h20q70 0 94.5 35.5t24.5 135.5v340q0 165 -7.5 201t-23 49t-41.5 13q-28 0 -67 -15l-15 36l276 112h43v-194zM225 1097h-32q4 137 57 198t131 61q41 0 75 -13q45 -17 127.5 -71.5t122.5 -54.5q32 0 56.5 27t38.5 112h31q1 -93 -24.5 -147.5t-72 -85
t-93.5 -30.5q-79 0 -196 80q-63 43 -85 52t-43 9q-41 0 -65 -36q-11 -17 -28 -101z" />
    <glyph glyph-name="oacute" unicode="&#xf3;" horiz-adv-x="1024" 
d="M512 943q208 0 334 -158q107 -135 107 -310q0 -123 -59 -249t-162.5 -190t-230.5 -64q-207 0 -329 165q-103 139 -103 312q0 126 62.5 250.5t164.5 184t216 59.5zM481 878q-53 0 -106.5 -31.5t-86.5 -110.5t-33 -203q0 -200 79.5 -345t209.5 -145q97 0 160 80t63 275
q0 244 -105 384q-71 96 -181 96zM723 1390l-295 -345h-34l105 345h224z" />
    <glyph glyph-name="ograve" unicode="&#xf2;" horiz-adv-x="1024" 
d="M512 943q208 0 334 -158q107 -135 107 -310q0 -123 -59 -249t-162.5 -190t-230.5 -64q-207 0 -329 165q-103 139 -103 312q0 126 62.5 250.5t164.5 184t216 59.5zM481 878q-53 0 -106.5 -31.5t-86.5 -110.5t-33 -203q0 -200 79.5 -345t209.5 -145q97 0 160 80t63 275
q0 244 -105 384q-71 96 -181 96zM301 1390h223l106 -345h-35z" />
    <glyph glyph-name="ocircumflex" unicode="&#xf4;" horiz-adv-x="1024" 
d="M512 943q208 0 334 -158q107 -135 107 -310q0 -123 -59 -249t-162.5 -190t-230.5 -64q-207 0 -329 165q-103 139 -103 312q0 126 62.5 250.5t164.5 184t216 59.5zM481 878q-53 0 -106.5 -31.5t-86.5 -110.5t-33 -203q0 -200 79.5 -345t209.5 -145q97 0 160 80t63 275
q0 244 -105 384q-71 96 -181 96zM431 1385h184l190 -331h-31l-273 213l-229 -213h-30z" />
    <glyph glyph-name="odieresis" unicode="&#xf6;" horiz-adv-x="1024" 
d="M512 943q208 0 334 -158q107 -135 107 -310q0 -123 -59 -249t-162.5 -190t-230.5 -64q-207 0 -329 165q-103 139 -103 312q0 126 62.5 250.5t164.5 184t216 59.5zM481 878q-53 0 -106.5 -31.5t-86.5 -110.5t-33 -203q0 -200 79.5 -345t209.5 -145q97 0 160 80t63 275
q0 244 -105 384q-71 96 -181 96zM687 1336q45 0 76.5 -32t31.5 -77t-31.5 -76.5t-76.5 -31.5t-77 31.5t-32 76.5t32 77t77 32zM334 1336q46 0 77.5 -32t31.5 -77t-32 -76.5t-76 -31.5q-45 0 -77 31.5t-32 76.5t31.5 77t76.5 32z" />
    <glyph glyph-name="otilde" unicode="&#xf5;" horiz-adv-x="1024" 
d="M512 943q208 0 334 -158q107 -135 107 -310q0 -123 -59 -249t-162.5 -190t-230.5 -64q-207 0 -329 165q-103 139 -103 312q0 126 62.5 250.5t164.5 184t216 59.5zM481 878q-53 0 -106.5 -31.5t-86.5 -110.5t-33 -203q0 -200 79.5 -345t209.5 -145q97 0 160 80t63 275
q0 244 -105 384q-71 96 -181 96zM224 1097h-32q4 137 57 198t131 61q41 0 75 -13q45 -17 127.5 -71.5t122.5 -54.5q32 0 56.5 27t38.5 112h31q1 -93 -24.5 -147.5t-72 -85t-93.5 -30.5q-79 0 -196 80q-63 43 -85 52t-43 9q-41 0 -65 -36q-11 -17 -28 -101z" />
    <glyph glyph-name="uacute" unicode="&#xfa;" horiz-adv-x="1024" 
d="M867 916v-555q0 -159 7.5 -194.5t24 -49.5t38.5 -14q31 0 70 17l14 -35l-274 -113h-45v194q-118 -128 -180 -161t-131 -33q-77 0 -133.5 44.5t-78.5 114.5t-22 198v409q0 65 -14 90t-41.5 38.5t-99.5 12.5v37h321v-613q0 -128 44.5 -168t107.5 -40q43 0 97.5 27
t129.5 103v519q0 78 -28.5 105.5t-118.5 29.5v37h312zM699 1390l-295 -345h-34l105 345h224z" />
    <glyph glyph-name="ugrave" unicode="&#xf9;" horiz-adv-x="1024" 
d="M867 916v-555q0 -159 7.5 -194.5t24 -49.5t38.5 -14q31 0 70 17l14 -35l-274 -113h-45v194q-118 -128 -180 -161t-131 -33q-77 0 -133.5 44.5t-78.5 114.5t-22 198v409q0 65 -14 90t-41.5 38.5t-99.5 12.5v37h321v-613q0 -128 44.5 -168t107.5 -40q43 0 97.5 27
t129.5 103v519q0 78 -28.5 105.5t-118.5 29.5v37h312zM307 1390h223l106 -345h-35z" />
    <glyph glyph-name="ucircumflex" unicode="&#xfb;" horiz-adv-x="1024" 
d="M867 916v-555q0 -159 7.5 -194.5t24 -49.5t38.5 -14q31 0 70 17l14 -35l-274 -113h-45v194q-118 -128 -180 -161t-131 -33q-77 0 -133.5 44.5t-78.5 114.5t-22 198v409q0 65 -14 90t-41.5 38.5t-99.5 12.5v37h321v-613q0 -128 44.5 -168t107.5 -40q43 0 97.5 27
t129.5 103v519q0 78 -28.5 105.5t-118.5 29.5v37h312zM423 1385h184l190 -331h-31l-273 213l-229 -213h-30z" />
    <glyph glyph-name="udieresis" unicode="&#xfc;" horiz-adv-x="1024" 
d="M867 916v-555q0 -159 7.5 -194.5t24 -49.5t38.5 -14q31 0 70 17l14 -35l-274 -113h-45v194q-118 -128 -180 -161t-131 -33q-77 0 -133.5 44.5t-78.5 114.5t-22 198v409q0 65 -14 90t-41.5 38.5t-99.5 12.5v37h321v-613q0 -128 44.5 -168t107.5 -40q43 0 97.5 27
t129.5 103v519q0 78 -28.5 105.5t-118.5 29.5v37h312zM687 1336q45 0 76.5 -32t31.5 -77t-31.5 -76.5t-76.5 -31.5t-77 31.5t-32 76.5t32 77t77 32zM334 1336q46 0 77.5 -32t31.5 -77t-32 -76.5t-76 -31.5q-45 0 -77 31.5t-32 76.5t31.5 77t76.5 32z" />
    <glyph glyph-name="dagger" unicode="&#x2020;" horiz-adv-x="1024" 
d="M524 -421h-37q-4 436 -32 702q-21 199 -69 378q51 44 73 93t28 144q-65 -7 -132 -35q-105 -44 -153 -44q-45 0 -73 27t-28 68q0 42 29.5 70.5t73.5 28.5q25 0 46 -6q11 -3 105 -44q60 -26 132 -30q-1 41 -7 62q-7 31 -30 86q-54 128 -54 194q0 58 33 94t79 36
q42 0 75.5 -37.5t33.5 -92.5q0 -30 -8 -60q-10 -39 -45.5 -125.5t-39.5 -156.5q71 6 132 30q99 39 115 43q22 6 45 6q48 0 77.5 -28t29.5 -70q0 -40 -29.5 -68t-73.5 -28q-55 0 -165 47q-48 20 -69 25t-62 8q5 -94 27.5 -145t72.5 -92q-48 -183 -67 -363.5t-33 -716.5z" />
    <glyph glyph-name="degree" unicode="&#xb0;" horiz-adv-x="819" 
d="M405 1386q129 0 218.5 -90t89.5 -218q0 -127 -90 -217t-218 -90q-127 0 -217 90t-90 217q0 128 89.5 218t217.5 90zM405 1302q-93 0 -158 -65t-65 -158q0 -92 65 -157.5t158 -65.5q92 0 157.5 65.5t65.5 157.5q0 93 -65 158t-158 65z" />
    <glyph glyph-name="cent" unicode="&#xa2;" horiz-adv-x="1024" 
d="M900 349q-47 -188 -163 -292q-90 -81 -221 -81q-81 0 -162 35l-142 -390h-70l155 427q-81 76 -117 154q-51 110 -51 250q0 254 157 390q120 105 273 105q20 0 61 -4l140 383h72l-145 -402q101 -45 138 -87q48 -54 48 -115q0 -39 -24 -62t-70 -23q-55 0 -86 38
q-18 22 -26 82q-4 31 -17 65l-228 -631q56 -38 94 -51q28 -10 69 -10q61 0 117 25.5t85 60t83 146.5zM370 250l223 615q-28 12 -60 12q-102 0 -162 -74q-82 -100 -82 -268q0 -75 17.5 -138t63.5 -147z" />
    <glyph glyph-name="sterling" unicode="&#xa3;" horiz-adv-x="1024" 
d="M723 659h-258q1 -46 1 -68q0 -94 -13.5 -174t-48.5 -184q196 -63 224 -69q52 -12 102 -12q83 0 135 38.5t76 121.5l36 -9q-21 -161 -103.5 -244t-183.5 -83q-68 0 -123 24.5t-203 135.5q-40 -80 -86.5 -120t-99.5 -40q-50 0 -83.5 34.5t-33.5 94.5q0 67 46 111.5
t118 44.5q17 0 38 -2t47 -6q2 26 2.5 45t0.5 32q0 88 -21 329h-194v95h194q-13 149 -13 199q0 122 49 223t135.5 154.5t185.5 53.5q126 0 189.5 -68t63.5 -136q0 -32 -24.5 -57t-53.5 -25q-38 0 -63 38q-11 18 -15 77.5t-34 87.5q-31 28 -87 28q-79 0 -130.5 -62t-51.5 -218
q0 -73 12 -187l10 -108h258v-95zM298 172q-22 14 -43 21t-42 7q-45 0 -70 -24.5t-25 -63.5q0 -36 19.5 -57t45.5 -21q33 0 64.5 31t50.5 107z" />
    <glyph glyph-name="section" unicode="&#xa7;" horiz-adv-x="1024" 
d="M377 843q-67 74 -95.5 135t-28.5 124q0 117 82 199.5t202 82.5q110 0 181.5 -67t71.5 -153q0 -39 -26 -69q-19 -21 -53 -21t-56 23t-22 54q0 15 8 53q5 23 5 43q0 41 -29 68t-80 27q-73 0 -123.5 -51t-50.5 -124q0 -64 27 -106q45 -70 151 -147q201 -145 275 -260
q52 -82 52 -172q0 -91 -53 -182t-168 -160q70 -77 96.5 -133t26.5 -121q0 -122 -82 -204t-202 -82q-108 0 -179.5 68.5t-71.5 156.5q0 37 23.5 62.5t54.5 25.5t53 -23.5t22 -63.5q0 -27 -8 -59.5t-8 -49.5q0 -29 25 -48q39 -30 95 -30q67 0 121.5 52t54.5 113q0 62 -31 111
q-48 75 -174 170q-188 140 -256 247q-51 81 -51 172q0 92 54 181.5t167 157.5zM409 812q-151 -91 -151 -222q0 -70 37 -129q52 -81 197 -191q70 -53 122 -101q153 93 153 220q0 65 -44 135.5t-181 177.5q-82 63 -133 110z" />
    <glyph glyph-name="bullet" unicode="&#x2022;" horiz-adv-x="717" 
d="M363 928q104 0 177.5 -73.5t73.5 -177.5t-73.5 -177.5t-177.5 -73.5t-177.5 73.5t-73.5 177.5t73 177.5t178 73.5z" />
    <glyph glyph-name="paragraph" unicode="&#xb6;" horiz-adv-x="928" 
d="M798 1301v-1743h-72v1743h-187v-1743h-73v1043q-191 8 -285.5 50.5t-144.5 131t-50 198.5t43 180q58 96 154.5 145.5t252.5 49.5h495v-55h-133z" />
    <glyph glyph-name="germandbls" unicode="&#xdf;" horiz-adv-x="1024" 
d="M35 0v36q60 5 85.5 21t36 44.5t10.5 123.5v741q0 249 93 353q93 103 264 103q162 0 257 -91.5t95 -233.5q0 -106 -54 -180q-40 -54 -137 -96q135 -40 204 -139t69 -260q0 -174 -91 -304.5t-244 -130.5q-87 0 -139.5 48t-52.5 114q0 42 21.5 64.5t57.5 22.5
q39 0 60.5 -21.5t21.5 -57.5q0 -16 -4 -33q-6 -24 -6 -35q0 -18 15 -32t41 -14q60 0 99 53q51 70 51 216q0 208 -73.5 330t-221.5 132v57q106 0 160.5 62.5t54.5 208.5q0 134 -52.5 194t-139.5 60q-81 0 -132 -64t-51 -255v-1037h-298z" />
    <glyph glyph-name="registered" unicode="&#xae;" horiz-adv-x="1556" 
d="M778 1387q179 0 349 -91.5t265.5 -262t95.5 -355.5q0 -184 -94 -353t-263 -262.5t-353 -93.5t-352.5 93.5t-262.5 262.5t-94 353q0 185 95.5 355.5t265.5 262t348 91.5zM778 1326q-163 0 -318 -84t-242 -239.5t-87 -324.5q0 -168 85.5 -322t239.5 -240t322 -86t322.5 86
t240 240t85.5 322q0 169 -87 324.5t-242 239.5t-319 84zM386 1114h386q145 0 221 -65.5t76 -158.5q0 -76 -51.5 -133.5t-170.5 -88.5l209 -298q38 -53 68 -73q19 -12 53 -15v-33h-184l-294 405h-76v-309q6 -33 28.5 -48t89.5 -15v-33h-367v33q48 0 68 11.5t29 33.5
q7 16 7 93v523q0 74 -3 87q-7 23 -25.5 35.5t-63.5 12.5v36zM623 697q118 0 172.5 23t83.5 64.5t29 94.5q0 81 -56.5 136t-144.5 55q-38 0 -84 -16v-357z" />
    <glyph glyph-name="copyright" unicode="&#xa9;" horiz-adv-x="1556" 
d="M778 1387q179 0 349 -91.5t265.5 -262t95.5 -355.5q0 -184 -94 -353t-263 -262.5t-353 -93.5t-352.5 93.5t-262.5 262.5t-94 353q0 185 95.5 355.5t265.5 262t348 91.5zM778 1326q-163 0 -318 -84t-242 -239.5t-87 -324.5q0 -168 85.5 -322t239.5 -240t322 -86t322.5 86
t240 240t85.5 322q0 169 -87 324.5t-242 239.5t-319 84zM1129 1134l20 -280h-39q-36 119 -114.5 177.5t-188.5 58.5q-82 0 -146 -34t-105 -91q-30 -43 -50 -114t-20 -150q0 -212 91 -312.5t240 -100.5q195 0 312 162l37 -19q-139 -203 -383 -203q-200 0 -331.5 129.5
t-131.5 314.5q0 192 140 327.5t358 135.5q46 0 76.5 -6t108.5 -32q25 -8 37 -8q16 0 27 8.5t22 36.5h40z" />
    <glyph glyph-name="trademark" unicode="&#x2122;" horiz-adv-x="2007" 
d="M51 1356h728l22 -201h-34q-10 72 -52.5 106.5t-141.5 34.5h-75v-579q0 -84 20 -106.5t86 -25.5v-36h-374v36q65 6 82.5 27.5t17.5 103.5v580h-76q-95 0 -135 -31.5t-55 -109.5h-34zM1156 1356l273 -572l265 572h279v-37q-56 -1 -74.5 -11t-27.5 -32t-9 -92v-468
q0 -85 19 -106t92 -25v-36h-398v36q59 1 79.5 12t30 32t9.5 86v492l-307 -658h-32l-308 649v-482q0 -68 8.5 -88.5t27 -31.5t57.5 -11h36v-36h-306v36q56 0 75.5 10t28.5 31t9 90v466q0 76 -8.5 96t-28.5 30.5t-76 10.5v37h286z" />
    <glyph glyph-name="acute" unicode="&#xb4;" horiz-adv-x="682" 
d="M565 1390l-295 -345h-34l105 345h224z" />
    <glyph glyph-name="dieresis" unicode="&#xa8;" horiz-adv-x="682" 
d="M518 1337q45 0 76.5 -32t31.5 -77t-31.5 -76.5t-76.5 -31.5t-77 31.5t-32 76.5t32 77t77 32zM165 1337q46 0 77.5 -32t31.5 -77t-32 -76.5t-76 -31.5q-45 0 -77 31.5t-32 76.5t31.5 77t76.5 32z" />
    <glyph glyph-name="notequal" unicode="&#x2260;" horiz-adv-x="1124" 
d="M25 818h602l210 533h80l-206 -533h388v-94h-425l-144 -370h569v-93h-605l-211 -531h-80l209 531h-387v93h423l145 370h-568v94z" />
    <glyph glyph-name="AE" unicode="&#xc6;" horiz-adv-x="1821" 
d="M1027 1282v-536h257q115 0 162 43t55 154h36v-471h-36q-12 100 -32.5 134.5t-68.5 55.5q-23 11 -116 11h-257v-449q0 -91 7 -108.5t29 -29.5t79 -12h182q109 0 168 18t114 70q73 68 120 179h38l-108 -341h-1018v37h51q83 0 122 49q24 32 24 153v286h-396l-124 -233
q-70 -132 -70 -173q0 -28 30.5 -51.5t126.5 -30.5v-37h-426v37q44 1 75.5 19t68.5 65t94 153l412 771q77 143 77 193q0 32 -27 50q-34 25 -146 31v37h1111l15 -298h-34q-13 103 -50 157q-27 39 -78 57q-29 10 -136 10h-331zM835 1282l-357 -684h357v684z" />
    <glyph glyph-name="Oslash" unicode="&#xd8;" horiz-adv-x="1479" 
d="M1147 1238l131 162l58 -44l-133 -167q104 -113 151 -229t47 -273q0 -343 -244 -555q-188 -163 -413 -163q-103 0 -216.5 37.5t-197.5 105.5l-129 -159l-59 47l132 164q-201 207 -201 528q0 294 196 494.5t472 200.5q227 0 406 -149zM1063 1135q-116 181 -327 181
q-93 0 -147 -22q-75 -30 -134 -96q-79 -88 -116 -215t-37 -286q0 -231 73 -408zM1101 1063l-685 -846q54 -82 116 -120q89 -56 198 -56q105 0 172 31.5t125.5 97.5t100.5 186t42 300q0 123 -18 228q-14 77 -51 179z" />
    <glyph glyph-name="infinity" unicode="&#x221e;" horiz-adv-x="1460" 
d="M653 667q68 156 149 216.5t221 60.5q161 0 272 -116t111 -301q0 -183 -108 -301.5t-241 -118.5q-99 0 -184 73q-56 48 -153 213q-64 -124 -140 -178.5t-184 -54.5q-144 0 -243.5 103t-99.5 266q0 165 92 266t215 101q86 0 152 -44.5t141 -184.5zM749 464
q75 -156 148 -209.5t164 -53.5q123 0 205.5 88.5t82.5 237.5q0 147 -87 243t-195 96q-69 0 -120.5 -35t-93.5 -112q-24 -45 -104 -255zM624 590q-49 110 -112 162t-155 52q-106 0 -177.5 -74.5t-71.5 -199.5q0 -133 70.5 -212.5t159.5 -79.5q95 0 168 85q47 56 118 267z" />
    <glyph glyph-name="plusminus" unicode="&#xb1;" horiz-adv-x="1124" 
d="M23 141v81h498v418h-498v82h498v497h80v-497h500v-82h-500v-418h501v-81h-1079z" />
    <glyph glyph-name="lessequal" unicode="&#x2264;" horiz-adv-x="1124" 
d="M1098 246l-1073 456v83l1073 454v-102l-950 -393l950 -396v-102zM24 -70h1076v-93h-1076v93z" />
    <glyph glyph-name="greaterequal" unicode="&#x2265;" horiz-adv-x="1124" 
d="M25 1239l1073 -456v-83l-1073 -454v102l950 393l-950 396v102zM24 -70h1076v-93h-1076v93z" />
    <glyph glyph-name="yen" unicode="&#xa5;" horiz-adv-x="1024" 
d="M597 425h426v-73h-426v-108q0 -112 11 -143q9 -22 34 -38q37 -22 85 -22h41v-41h-515v41h32q70 0 104 26q24 19 33 57q4 19 4 120v108h-424v73h424v144l-15 36h-409v73h377l-213 496q-37 87 -72.5 115t-91.5 29v38h442v-38q-72 -5 -96.5 -23t-24.5 -39q0 -16 18 -59
l214 -519l213 504q21 50 21 75q0 21 -21 41q-14 13 -64 17q-9 0 -27 3v38h346v-38q-60 0 -87 -23q-43 -35 -86 -132l-214 -485h387v-73h-419l-7 -16v-164z" />
    <glyph glyph-name="uni00B5" unicode="&#xb5;" horiz-adv-x="1180" 
d="M196 916h164v-533q0 -145 18 -198q13 -40 48 -65t76 -25q118 0 236 134v687h165v-654q0 -100 8 -131q7 -24 24 -37.5t36 -13.5q26 0 44 22q26 31 37 102h42q-9 -121 -63 -176.5t-135 -55.5q-78 0 -120 58q-30 43 -38 132q-87 -102 -162 -146t-152 -44q-53 0 -92 21
q-28 16 -63 64q-1 -31 -1 -46q0 -79 34 -239q13 -61 13 -104q0 -48 -28 -79t-66 -31q-37 0 -62 29t-25 80q0 46 29 165q20 80 22 104q12 103 12 179q0 5 -1 75v726z" />
    <glyph glyph-name="partialdiff" unicode="&#x2202;" horiz-adv-x="1012" 
d="M925 717q12 113 12 186q0 180 -94.5 278.5t-251.5 98.5q-106 0 -176 -40t-125 -119h-46q77 158 166 229.5t215 71.5q90 0 175.5 -49t138 -158t52.5 -295q0 -354 -154 -636q-173 -315 -438 -315q-156 0 -247.5 90t-91.5 245q0 117 46.5 229.5t117.5 190.5t158 124
q113 60 230 60q82 0 148.5 -31.5t109.5 -76.5q27 -28 55 -83zM908 628q-39 111 -116.5 168t-170.5 57q-90 0 -177 -62t-151 -217.5t-64 -310.5q0 -114 55 -175.5t140 -61.5q123 0 251 130q163 166 233 472z" />
    <glyph glyph-name="summation" unicode="&#x2211;" horiz-adv-x="1460" 
d="M1356 -442h-1313v37l669 901l-669 887v37h1278l27 -337h-40q-16 138 -77.5 197t-171.5 59h-740l562 -757l-629 -847h818q70 0 153 27q57 18 94.5 66.5t62.5 152.5l40 -8z" />
    <glyph glyph-name="product" unicode="&#x220f;" horiz-adv-x="1686" 
d="M1240 1342h-795v-1591q0 -83 37 -119t125 -36h36v-38h-597v38h35q88 0 125.5 35.5t37.5 119.5v1477q0 83 -37 119t-126 36h-35v37h1594v-37h-35q-88 0 -125 -36t-37 -119v-1477q0 -83 37 -119t125 -36h35v-38h-597v38h35q88 0 125 35.5t37 119.5v1591z" />
    <glyph glyph-name="pi" unicode="&#x3c0;" horiz-adv-x="1034" 
d="M993 916v-146h-232l-20 -304q-6 -79 -6 -137q0 -139 32.5 -169.5t78.5 -30.5q96 0 114 121h36q-33 -278 -222 -278q-88 0 -141.5 54t-53.5 160q0 70 21 296l27 288h-212q-21 -364 -50.5 -532t-65 -217t-96.5 -49q-46 0 -77.5 27t-31.5 71q0 42 54 115q79 106 118 220.5
t59 364.5h-68q-82 0 -125.5 -36.5t-82.5 -104.5h-36q29 107 75 176t94.5 90t172.5 21h638z" />
    <glyph glyph-name="integral" unicode="&#x222b;" horiz-adv-x="561" 
d="M200 895l18 581q8 154 50 255q27 67 74 99.5t93 32.5q50 0 87.5 -33.5t37.5 -73.5q0 -47 -26.5 -75.5t-65.5 -28.5q-35 0 -76 36q-23 20 -40 20t-28.5 -14.5t-11.5 -49.5q0 -41 9 -145q37 -411 37 -663q0 -70 -16 -590q-8 -295 -90 -399q-54 -67 -134 -67q-52 0 -85 34
t-33 87q0 45 25.5 72t64.5 27q40 0 69 -32t49 -32q17 0 28 14t11 47q0 42 -9 120q-17 143 -26 338q-12 249 -12 440z" />
    <glyph glyph-name="ordfeminine" unicode="&#xaa;" horiz-adv-x="565" 
d="M340 1180q0 109 -26.5 142.5t-79.5 33.5q-48 0 -71 -21.5t-23 -67.5q0 -45 -16.5 -65.5t-41.5 -20.5q-23 0 -39.5 17t-16.5 43q0 55 56.5 99t177.5 44q92 0 141.5 -31t63 -64t13.5 -109v-218q0 -53 2 -61q3 -13 11 -20q7 -6 13 -6q14 0 58 30v-48q-73 -53 -98 -63.5
t-51 -10.5q-25 0 -44.5 20.5t-28.5 74.5q-63 -45 -117 -68t-98 -23q-53 0 -92 38t-39 86q0 44 22 77q30 46 107 93q52 31 217 99zM340 1142q-120 -40 -163.5 -88t-43.5 -96q0 -34 25.5 -60t63.5 -26q22 0 51.5 11t66.5 33v226z" />
    <glyph glyph-name="ordmasculine" unicode="&#xba;" horiz-adv-x="635" 
d="M324 1384q124 0 205.5 -84.5t81.5 -208.5t-89 -214t-211 -90q-118 0 -200 81.5t-82 206.5q0 138 82.5 223.5t212.5 85.5zM296 1341q-52 0 -89 -45t-37 -143q0 -159 69 -258q39 -57 102 -57q57 0 94.5 44.5t37.5 140.5q0 157 -71 256q-44 62 -106 62z" />
    <glyph glyph-name="ae" unicode="&#xe6;" horiz-adv-x="1366" 
d="M734 567q-1 -51 -1 -74q0 -201 72 -286t184 -85q97 0 176 61q50 39 107 159l32 -22q-36 -162 -155 -270q-86 -78 -215 -78q-108 0 -185 47q-36 23 -111 113l-55 -43q-58 -47 -78 -58q-47 -27 -100 -43t-109 -16q-94 0 -158.5 66.5t-64.5 162.5q0 87 43.5 148t170.5 126
q156 80 276 122v92q0 108 -40 152.5t-107 44.5q-66 0 -103 -32q-38 -33 -38 -73q0 -84 -8.5 -109t-26.5 -38t-45 -13q-39 0 -60 23q-30 32 -30 72q0 52 36.5 104t115 88t183.5 36q124 0 187 -35.5t83 -87.5q48 60 101 87q71 36 168 36q144 0 234.5 -97t90.5 -280h-570z
M734 632h378q-2 126 -53.5 183.5t-131.5 57.5t-135.5 -62.5t-57.5 -178.5zM610 184q-21 45 -34 117.5t-13 141.5v89q-135 -42 -248 -128q-74 -57 -74 -146q0 -79 47.5 -129t113.5 -50q39 0 82.5 20.5t125.5 84.5z" />
    <glyph glyph-name="oslash" unicode="&#xf8;" horiz-adv-x="1024" 
d="M806 832l133 147l46 -43l-135 -152q106 -135 106 -312q0 -118 -58 -244.5t-160.5 -191t-230.5 -64.5q-83 0 -147 25.5t-139 88.5l-135 -153l-47 43l141 159q-50 62 -78 152t-28 168q0 119 60.5 240t162.5 184.5t224 63.5q82 0 148.5 -26t136.5 -85zM704 719
q-51 89 -100.5 123.5t-115.5 34.5q-98 0 -163 -80t-65 -265q0 -124 39 -262zM732 654l-403 -450q51 -92 100 -126.5t118 -34.5q99 0 161.5 80t62.5 279q0 121 -39 252z" />
    <glyph glyph-name="questiondown" unicode="&#xbf;" horiz-adv-x="909" 
d="M452 975q46 0 78.5 -32.5t32.5 -78.5t-32.5 -78.5t-78.5 -32.5t-78.5 32.5t-32.5 78.5t32.5 78.5t78.5 32.5zM441 626h39q-5 -124 -24.5 -196.5t-102 -246.5t-82.5 -289q0 -132 66 -204t170 -72q87 0 137 41t50 90q0 31 -31 84.5t-31 85.5q0 34 24 57.5t57 23.5
q41 0 76 -41.5t35 -110.5q0 -115 -97.5 -202.5t-266.5 -87.5q-170 0 -270.5 93.5t-100.5 223.5q0 83 29 152q43 98 150 221.5t137 191.5t36 186z" />
    <glyph glyph-name="exclamdown" unicode="&#xa1;" horiz-adv-x="682" 
d="M342 974q47 0 79 -32.5t32 -78.5t-32.5 -78t-78.5 -32t-78 32t-32 78t32 78.5t78 32.5zM322 587h38l89 -810q5 -53 5 -79q0 -63 -33.5 -101.5t-79.5 -38.5q-47 0 -80 38t-33 114q0 24 5 67z" />
    <glyph glyph-name="logicalnot" unicode="&#xac;" horiz-adv-x="1155" 
d="M36 878h1080v-406h-79v325h-1001v81z" />
    <glyph glyph-name="radical" unicode="&#x221a;" horiz-adv-x="1124" 
d="M1053 1869h74l-312 -1947l-496 1021l-198 -91l-34 64l301 151l405 -823z" />
    <glyph glyph-name="florin" unicode="&#x192;" horiz-adv-x="1024" 
d="M687 875h178l-17 -66h-174q-52 -269 -172 -708q-94 -341 -205 -449q-84 -83 -173 -83q-56 0 -89 30.5t-33 74.5q0 39 23.5 64t53.5 25q26 0 45.5 -18t19.5 -38q0 -22 -14 -38q-10 -12 -10 -19q0 -8 7 -14.5t18 -6.5q20 0 37 10q30 17 59 64t60 177q6 22 86 415
q7 35 123 514h-177l15 66q99 7 124.5 15.5t42.5 31.5q26 34 60 134q73 212 140 272q66 59 147 59q62 0 99.5 -33t37.5 -79q0 -35 -20 -56t-48 -21q-26 0 -44.5 17.5t-18.5 38.5q0 16 11 34.5t11 26.5q0 11 -9 19q-9 7 -26 7q-32 0 -58 -24q-35 -33 -46 -84
q-27 -121 -64 -358z" />
    <glyph glyph-name="approxequal" unicode="&#x2248;" horiz-adv-x="1124" 
d="M1052 1038h43q-3 -126 -72.5 -199.5t-169.5 -73.5q-46 0 -98 15t-275 106q-156 64 -221 64q-70 0 -118.5 -43.5t-67.5 -139.5h-43q4 89 33.5 147.5t86 92t112.5 33.5q43 0 89 -13q104 -30 291 -110q97 -42 156 -58q30 -8 67 -8q75 0 126 48t61 139zM1052 547h43
q-3 -127 -72.5 -200.5t-169.5 -73.5q-46 0 -150 31l-223 91q-156 63 -221 63q-70 0 -118.5 -43.5t-67.5 -139.5h-43q4 89 33 147.5t85.5 92.5t112.5 34q43 0 89 -13q105 -31 292 -111q98 -42 156 -57q30 -8 67 -8q75 0 126 47.5t61 139.5z" />
    <glyph glyph-name="uni2206" unicode="&#x2206;" horiz-adv-x="1253" 
d="M1226 0h-1200l628 1387zM990 82l-399 967l-440 -967h839z" />
    <glyph glyph-name="guillemotleft" unicode="&#xab;" horiz-adv-x="1024" 
d="M508 -8h-57l-387 472l387 470h57l-244 -470zM960 -8h-58l-394 472l394 470h58l-243 -470z" />
    <glyph glyph-name="guillemotright" unicode="&#xbb;" horiz-adv-x="1024" 
d="M516 934h57l387 -472l-387 -470h-57l244 470zM64 934h58l394 -472l-394 -470h-58l243 470z" />
    <glyph glyph-name="ellipsis" unicode="&#x2026;" horiz-adv-x="2048" 
d="M341 194q47 0 79 -32.5t32 -78.5t-32.5 -78.5t-78.5 -32.5t-78.5 32.5t-32.5 78.5q0 47 32.5 79t78.5 32zM1024 194q46 0 78.5 -32.5t32.5 -78.5t-32.5 -78.5t-78.5 -32.5t-78.5 32.5t-32.5 78.5q0 47 32.5 79t78.5 32zM1707 194q46 0 78.5 -32.5t32.5 -78.5t-32.5 -78.5
t-78.5 -32.5t-78.5 32.5t-32.5 78.5q0 47 32 79t79 32z" />
    <glyph glyph-name="uni00A0" unicode="&#xa0;" horiz-adv-x="512" 
 />
    <glyph glyph-name="Agrave" unicode="&#xc0;" horiz-adv-x="1479" 
d="M937 454h-525l-92 -214q-34 -79 -34 -118q0 -31 29.5 -54.5t127.5 -30.5v-37h-427v37q85 15 110 39q51 48 113 195l477 1116h35l472 -1128q57 -136 103.5 -176.5t129.5 -45.5v-37h-535v37q81 4 109.5 27t28.5 56q0 44 -40 139zM909 528l-230 548l-236 -548h466zM513 1797
h223l106 -345h-35z" />
    <glyph glyph-name="Atilde" unicode="&#xc3;" horiz-adv-x="1479" 
d="M937 454h-525l-92 -214q-34 -79 -34 -118q0 -31 29.5 -54.5t127.5 -30.5v-37h-427v37q85 15 110 39q51 48 113 195l477 1116h35l472 -1128q57 -136 103.5 -176.5t129.5 -45.5v-37h-535v37q81 4 109.5 27t28.5 56q0 44 -40 139zM909 528l-230 548l-236 -548h466zM449 1465
h-32q4 137 57 198t131 61q41 0 75 -13q45 -17 127.5 -71.5t122.5 -54.5q32 0 56.5 27t38.5 112h31q1 -93 -24.5 -147.5t-72 -85t-93.5 -30.5q-79 0 -196 80q-63 43 -85 52t-43 9q-41 0 -65 -36q-11 -17 -28 -101z" />
    <glyph glyph-name="Otilde" unicode="&#xd5;" horiz-adv-x="1479" 
d="M749 1387q264 0 457.5 -200.5t193.5 -500.5q0 -309 -195 -513t-472 -204q-280 0 -470.5 199t-190.5 515q0 323 220 527q191 177 457 177zM730 1314q-182 0 -292 -135q-137 -168 -137 -492q0 -332 142 -511q109 -136 288 -136q191 0 315.5 149t124.5 470q0 348 -137 519
q-110 136 -304 136zM446 1465h-32q4 137 57 198t131 61q41 0 75 -13q45 -17 127.5 -71.5t122.5 -54.5q32 0 56.5 27t38.5 112h31q1 -93 -24.5 -147.5t-72 -85t-93.5 -30.5q-79 0 -196 80q-63 43 -85 52t-43 9q-41 0 -65 -36q-11 -17 -28 -101z" />
    <glyph glyph-name="OE" unicode="&#x152;" horiz-adv-x="1821" 
d="M1104 1282v-535h183q115 0 163 47.5t47 148.5h39v-472h-39q-9 123 -51 162.5t-159 39.5h-183v-448q0 -80 10 -104t33 -37q15 -8 77 -8h104q120 0 167.5 13t98.5 59q75 68 129 192h40l-108 -340h-485q-141 0 -171 -1q-12 0 -167 -9q-108 -6 -145 -6q-169 0 -308.5 85.5
t-221.5 250t-82 356.5q0 258 141 455q169 237 493 237q23 0 194 -7q140 -5 267 -5h473l12 -298h-32q-24 118 -43 149q-25 40 -77 62q-33 13 -143 13h-256zM912 1042q0 130 -18.5 171.5t-53.5 61.5q-50 29 -127 29q-124 0 -218.5 -73t-142 -223.5t-47.5 -339.5
q0 -155 42 -301t135.5 -229t226.5 -83q76 0 122 25.5t63.5 71.5t17.5 188v702z" />
    <glyph glyph-name="oe" unicode="&#x153;" horiz-adv-x="1479" 
d="M863 573q-2 -25 -2 -38q0 -94 33.5 -196t99.5 -152t145 -50q80 0 141.5 51t97.5 167l33 -17q-36 -193 -125.5 -279.5t-214.5 -86.5q-97 0 -165.5 47t-103.5 114q-62 -80 -141.5 -120.5t-176.5 -40.5q-176 0 -296.5 128.5t-120.5 342.5q0 229 123.5 364.5t299.5 135.5
q107 0 186 -44t126 -114q59 85 124 122t159 37q147 0 239 -99t87 -272h-548zM453 888q-36 0 -85.5 -26.5t-76.5 -90.5q-37 -83 -37 -232q0 -258 102 -406q62 -90 153 -90q89 0 147.5 74t58.5 261q0 233 -67.5 371.5t-194.5 138.5zM863 638h351q1 70 -24 134q-18 48 -61 76.5
t-90 28.5q-67 0 -118.5 -60t-57.5 -179z" />
    <glyph glyph-name="endash" unicode="&#x2013;" horiz-adv-x="1024" 
d="M1041 453h-1059v73h1059v-73z" />
    <glyph glyph-name="emdash" unicode="&#x2014;" horiz-adv-x="2048" 
d="M2066 453h-2085v74h2085v-74z" />
    <glyph glyph-name="quotedblleft" unicode="&#x201c;" horiz-adv-x="909" 
d="M326 1387v-41q-88 -46 -126 -96t-38 -109q0 -35 10 -48q9 -14 22 -14t35 7.5t40 7.5q41 0 71.5 -30.5t30.5 -74.5q0 -48 -37 -82.5t-92 -34.5q-67 0 -121 58t-54 143q0 100 66.5 186.5t192.5 127.5zM803 1384v-38q-101 -58 -133 -104t-32 -108q0 -28 11 -42t23 -14
q11 0 33 8t44 8q41 0 71.5 -29.5t30.5 -72.5q0 -49 -38.5 -85t-94.5 -36q-66 0 -119 57t-53 142q0 105 67 191.5t190 122.5z" />
    <glyph glyph-name="quotedblright" unicode="&#x201d;" horiz-adv-x="909" 
d="M115 871v42q101 57 132.5 103.5t31.5 107.5q0 28 -10 42q-11 14 -24 14q-10 0 -32 -8t-44 -8q-42 0 -72 30t-30 73q0 48 38.5 84t93.5 36q66 0 119.5 -57t53.5 -144q0 -105 -67.5 -192t-189.5 -123zM592 871v42q87 45 125.5 95.5t38.5 109.5q0 35 -10 49q-10 13 -22 13
q-13 0 -35 -8q-23 -8 -40 -8q-41 0 -71.5 31t-30.5 74q0 48 37 83t91 35q68 0 122 -58.5t54 -143.5q0 -100 -66.5 -186.5t-192.5 -127.5z" />
    <glyph glyph-name="quoteleft" unicode="&#x2018;" horiz-adv-x="682" 
d="M444 1387v-43q-102 -62 -139 -115q-27 -39 -27 -92q0 -32 12 -47q11 -15 26 -15q10 0 28 7q27 9 44 9q40 0 71 -30t31 -75q0 -51 -31 -79q-43 -38 -100 -38q-68 0 -121 57t-53 141q0 118 88 215q59 64 171 105z" />
    <glyph glyph-name="quoteright" unicode="&#x2019;" horiz-adv-x="682" 
d="M238 869v47q103 61 140 114q26 38 26 91q0 31 -11 46q-12 15 -26 15q-11 0 -29 -7q-26 -9 -43 -9q-40 0 -71 30t-31 75q0 50 31 78q42 38 100 38q67 0 120.5 -56.5t53.5 -140.5q0 -118 -89 -215q-59 -64 -171 -106z" />
    <glyph glyph-name="divide" unicode="&#xf7;" horiz-adv-x="1124" 
d="M562 1075q36 0 61.5 -25.5t25.5 -61.5t-25.5 -61.5t-62.5 -25.5q-36 0 -61.5 25.5t-25.5 61.5t25.5 61.5t62.5 25.5zM1101 640h-1078v82h1078v-82zM562 455q37 0 62.5 -26t25.5 -62t-26 -62t-62 -26t-62 26t-26 62t25.5 62t62.5 26z" />
    <glyph glyph-name="lozenge" unicode="&#x25ca;" horiz-adv-x="1012" 
d="M549 1422l418 -713l-418 -709h-111l-391 709l391 713h111zM495 1325l-340 -616l340 -615l359 615z" />
    <glyph glyph-name="ydieresis" unicode="&#xff;" horiz-adv-x="1024" 
d="M12 916h427v-37h-21q-45 0 -67.5 -19.5t-22.5 -48.5q0 -39 33 -108l223 -462l205 506q17 41 17 81q0 18 -7 27q-8 11 -25 17.5t-60 6.5v37h298v-37q-37 -4 -57 -16t-44 -45q-9 -14 -34 -77l-373 -914q-54 -133 -141.5 -201t-168.5 -68q-59 0 -97 34t-38 78
q0 42 27.5 67.5t75.5 25.5q33 0 90 -22q40 -15 50 -15q30 0 65.5 31t71.5 120l65 159l-329 691q-15 31 -48 77q-25 35 -41 47q-23 16 -74 28v37zM725 1337q45 0 76.5 -32t31.5 -77t-31.5 -76.5t-76.5 -31.5t-77 31.5t-32 76.5t32 77t77 32zM372 1337q46 0 77.5 -32t31.5 -77
t-32 -76.5t-76 -31.5q-45 0 -77 31.5t-32 76.5t31.5 77t76.5 32z" />
    <glyph glyph-name="Ydieresis" unicode="&#x178;" horiz-adv-x="1479" 
d="M976 1356h473v-37h-26q-26 0 -76 -23t-91 -66t-101 -140l-327 -515v-340q0 -125 28 -156q38 -42 120 -42h44v-37h-576v37h48q86 0 122 52q22 32 22 146v321l-372 568q-66 100 -89.5 125t-97.5 60q-20 10 -58 10v37h580v-37h-30q-47 0 -86.5 -22t-39.5 -66q0 -36 61 -130
l283 -437l266 418q60 94 60 140q0 28 -14.5 50t-41.5 34.5t-81 12.5v37zM936 1708q45 0 76.5 -32t31.5 -77t-31.5 -76.5t-76.5 -31.5t-77 31.5t-32 76.5t32 77t77 32zM583 1708q46 0 77.5 -32t31.5 -77t-32 -76.5t-76 -31.5q-45 0 -77 31.5t-32 76.5t31.5 77t76.5 32z" />
    <glyph glyph-name="fraction" unicode="&#x2044;" horiz-adv-x="342" 
d="M683 1384l-935 -1438h-89l935 1438h89z" />
    <glyph glyph-name="guilsinglleft" unicode="&#x2039;" horiz-adv-x="682" 
d="M563 -8h-57l-387 472l387 470h57l-244 -470z" />
    <glyph glyph-name="guilsinglright" unicode="&#x203a;" horiz-adv-x="682" 
d="M115 934h58l394 -472l-394 -470h-58l243 470z" />
    <glyph glyph-name="fi" unicode="&#xfb01;" horiz-adv-x="1139" 
d="M367 916h383q112 0 145 6h44v-710q0 -111 26.5 -142.5t119.5 -33.5v-36h-456v36q98 0 126 43q20 30 20 133v485q0 93 -10 112q-8 15 -30.5 23.5t-144.5 8.5h-223v-596q0 -108 12 -140q9 -24 37 -41q44 -28 76 -28h42v-36h-500v36h36q70 0 101 38.5t31 170.5v596h-177v75
h177q0 183 50.5 285.5t149.5 161.5t224 59q86 0 156 -28.5t103.5 -73t33.5 -83.5q0 -34 -22.5 -57t-53.5 -23q-34 0 -58 17.5t-81 98.5q-33 47 -70 68q-28 15 -70 15q-51 0 -101.5 -41t-69.5 -94q-26 -72 -26 -252v-53z" />
    <glyph glyph-name="fl" unicode="&#xfb02;" horiz-adv-x="1139" 
d="M777 840h-411v-593q0 -108 15 -141.5t49.5 -52.5t105.5 -17v-36h-503v36h40q57 0 92 32t35 172v600h-177v76h177q7 201 49 296.5t132 152.5t180 57q102 0 200 -74l141 74h40v-1210q0 -90 10.5 -117.5t39 -42.5t95.5 -16v-36h-455v36q66 1 101 20q20 10 32 37t12 119v628z
M777 916v298q-32 -37 -69 -37q-46 0 -104 84.5t-116 84.5q-34 0 -57 -20q-37 -30 -53 -86q-12 -42 -12 -234v-90h411z" />
    <glyph glyph-name="daggerdbl" unicode="&#x2021;" horiz-adv-x="1024" 
d="M530 976q8 -66 26 -98t68 -72q-50 -73 -72 -144t-22 -178q0 -100 21 -168.5t73 -145.5q-48 -41 -66.5 -73.5t-27.5 -96.5q39 6 56.5 11t71.5 27q85 35 134 35q41 0 67 -25t26 -63q0 -40 -26 -66t-66 -26q-41 0 -127 37q-46 19 -74 26q-21 5 -62 7q8 -61 13 -80.5
t21 -55.5q50 -110 50 -164q0 -45 -29 -75t-72 -30q-42 0 -71 31t-29 77q0 23 6.5 49.5t39.5 114.5q24 65 31 133q-45 -2 -70.5 -8t-74.5 -28q-76 -34 -113 -34q-41 0 -66 24.5t-25 63.5q0 41 26.5 66.5t69.5 25.5q40 0 113 -32q49 -21 76 -27q21 -5 64 -7q-9 61 -27.5 92.5
t-68.5 70.5q46 61 66 120q31 91 31 206q0 118 -32 205q-19 54 -65 105q48 36 66.5 68.5t29.5 101.5q-41 -3 -58.5 -7.5t-86.5 -32t-118 -27.5q-38 0 -63 25t-25 63q0 37 24.5 61.5t62.5 24.5q46 0 131 -34q51 -21 76 -27q18 -5 57 -8q-2 43 -8 63q-11 40 -45 129
q-21 53 -23 60q-4 18 -4 45q0 50 29 80.5t72 30.5t70 -29t27 -86q0 -31 -5.5 -51t-36 -90.5t-36.5 -151.5q44 3 63 7.5t76 28.5q76 33 126 33q40 0 65 -24.5t25 -62.5q0 -39 -26 -64t-68 -25q-47 0 -126 33q-51 23 -71 28t-64 8z" />
    <glyph glyph-name="periodcentered" unicode="&#xb7;" horiz-adv-x="682" 
d="M341 808q44 0 74.5 -30.5t30.5 -74.5q0 -43 -31 -74t-74 -31t-74 31t-31 74q0 44 30.5 74.5t74.5 30.5z" />
    <glyph glyph-name="periodcentered" unicode="&#x2219;" horiz-adv-x="682" 
d="M341 808q44 0 74.5 -30.5t30.5 -74.5q0 -43 -31 -74t-74 -31t-74 31t-31 74q0 44 30.5 74.5t74.5 30.5z" />
    <glyph glyph-name="quotesinglbase" unicode="&#x201a;" horiz-adv-x="682" 
d="M203 -341v44q103 34 159.5 105.5t56.5 151.5q0 19 -9 32q-7 9 -14 9q-11 0 -48 -20q-18 -9 -38 -9q-49 0 -78 29t-29 80q0 49 37.5 84t91.5 35q66 0 117.5 -57.5t51.5 -152.5q0 -103 -71.5 -191.5t-226.5 -139.5z" />
    <glyph glyph-name="quotedblbase" unicode="&#x201e;" horiz-adv-x="909" 
d="M115 -316v42q101 57 132.5 103.5t31.5 107.5q0 28 -10 42q-11 14 -24 14q-10 0 -32 -8t-44 -8q-42 0 -72 30t-30 73q0 48 38.5 84t93.5 36q66 0 119.5 -57t53.5 -144q0 -105 -67.5 -192t-189.5 -123zM592 -316v42q87 45 125.5 95.5t38.5 109.5q0 35 -10 49q-10 13 -22 13
q-13 0 -35 -8q-23 -8 -40 -8q-41 0 -71.5 31t-30.5 74q0 48 37 83t91 35q68 0 122 -58.5t54 -143.5q0 -100 -66.5 -186.5t-192.5 -127.5z" />
    <glyph glyph-name="perthousand" unicode="&#x2030;" horiz-adv-x="2048" 
d="M1220 1387l-972 -1442h-89l972 1442h89zM353 1387q77 0 145 -45t106.5 -131t38.5 -190q0 -169 -85 -265.5t-201 -96.5q-74 0 -143.5 44t-109 128t-39.5 191q0 104 39 191.5t106.5 130.5t142.5 43zM349 1334q-30 0 -50 -16q-33 -29 -51 -87q-22 -77 -22 -214
q0 -185 47 -258q33 -50 82 -50q46 0 79 52q49 78 49 269q0 179 -48 252q-35 52 -86 52zM1029 673q72 0 140 -44.5t107.5 -130.5t39.5 -186q0 -109 -39 -193t-109.5 -129t-141.5 -45q-113 0 -200.5 97.5t-87.5 265.5q0 105 40 192t110.5 130t140.5 43zM1025 620
q-31 0 -54 -19q-35 -29 -54 -91.5t-19 -209.5q0 -180 46 -251q32 -49 80 -49q49 0 82 50q49 75 49 253q0 188 -50 266q-32 51 -80 51zM1691 673q68 0 140.5 -43.5t111 -126t38.5 -183.5q0 -121 -36 -202.5t-107.5 -127t-144.5 -45.5t-141.5 44.5t-107 127t-38.5 184.5
q0 117 38 203t111 127.5t136 41.5zM1691 620q-50 0 -80 -47q-45 -73 -45 -269q0 -183 46 -254q33 -50 83 -50q30 0 53 19q34 29 53.5 94.5t19.5 215.5q0 170 -47 240q-35 51 -83 51z" />
    <glyph glyph-name="Acircumflex" unicode="&#xc2;" horiz-adv-x="1479" 
d="M937 454h-525l-92 -214q-34 -79 -34 -118q0 -31 29.5 -54.5t127.5 -30.5v-37h-427v37q85 15 110 39q51 48 113 195l477 1116h35l472 -1128q57 -136 103.5 -176.5t129.5 -45.5v-37h-535v37q81 4 109.5 27t28.5 56q0 44 -40 139zM909 528l-230 548l-236 -548h466zM643 1793
h184l190 -331h-31l-273 213l-229 -213h-30z" />
    <glyph glyph-name="Ecircumflex" unicode="&#xca;" horiz-adv-x="1251" 
d="M428 1282v-536h298q116 0 155 35q52 46 58 162h37v-472h-37q-14 99 -28 127q-18 35 -59 55t-126 20h-298v-447q0 -90 8 -109.5t28 -31t76 -11.5h230q115 0 167 16t100 63q62 62 127 187h40l-117 -340h-1045v37h48q48 0 91 23q32 16 43.5 48t11.5 131v881q0 129 -26 159
q-36 40 -120 40h-48v37h1045l15 -297h-39q-21 107 -46.5 147t-75.5 61q-40 15 -141 15h-372zM537 1793h184l190 -331h-31l-273 213l-229 -213h-30z" />
    <glyph glyph-name="Aacute" unicode="&#xc1;" horiz-adv-x="1479" 
d="M937 454h-525l-92 -214q-34 -79 -34 -118q0 -31 29.5 -54.5t127.5 -30.5v-37h-427v37q85 15 110 39q51 48 113 195l477 1116h35l472 -1128q57 -136 103.5 -176.5t129.5 -45.5v-37h-535v37q81 4 109.5 27t28.5 56q0 44 -40 139zM909 528l-230 548l-236 -548h466zM959 1797
l-295 -345h-34l105 345h224z" />
    <glyph glyph-name="Edieresis" unicode="&#xcb;" horiz-adv-x="1251" 
d="M428 1282v-536h298q116 0 155 35q52 46 58 162h37v-472h-37q-14 99 -28 127q-18 35 -59 55t-126 20h-298v-447q0 -90 8 -109.5t28 -31t76 -11.5h230q115 0 167 16t100 63q62 62 127 187h40l-117 -340h-1045v37h48q48 0 91 23q32 16 43.5 48t11.5 131v881q0 129 -26 159
q-36 40 -120 40h-48v37h1045l15 -297h-39q-21 107 -46.5 147t-75.5 61q-40 15 -141 15h-372zM805 1708q45 0 76.5 -32t31.5 -77t-31.5 -76.5t-76.5 -31.5t-77 31.5t-32 76.5t32 77t77 32zM452 1708q46 0 77.5 -32t31.5 -77t-32 -76.5t-76 -31.5q-45 0 -77 31.5t-32 76.5
t31.5 77t76.5 32z" />
    <glyph glyph-name="Egrave" unicode="&#xc8;" horiz-adv-x="1251" 
d="M428 1282v-536h298q116 0 155 35q52 46 58 162h37v-472h-37q-14 99 -28 127q-18 35 -59 55t-126 20h-298v-447q0 -90 8 -109.5t28 -31t76 -11.5h230q115 0 167 16t100 63q62 62 127 187h40l-117 -340h-1045v37h48q48 0 91 23q32 16 43.5 48t11.5 131v881q0 129 -26 159
q-36 40 -120 40h-48v37h1045l15 -297h-39q-21 107 -46.5 147t-75.5 61q-40 15 -141 15h-372zM406 1797h223l106 -345h-35z" />
    <glyph glyph-name="Iacute" unicode="&#xcd;" horiz-adv-x="682" 
d="M632 37v-37h-581v37h48q84 0 122 49q24 32 24 154v876q0 103 -13 136q-10 25 -41 43q-44 24 -92 24h-48v37h581v-37h-49q-83 0 -121 -49q-25 -32 -25 -154v-876q0 -103 13 -136q10 -25 42 -43q43 -24 91 -24h49zM565 1797l-295 -345h-34l105 345h224z" />
    <glyph glyph-name="Icircumflex" unicode="&#xce;" horiz-adv-x="682" 
d="M632 37v-37h-581v37h48q84 0 122 49q24 32 24 154v876q0 103 -13 136q-10 25 -41 43q-44 24 -92 24h-48v37h581v-37h-49q-83 0 -121 -49q-25 -32 -25 -154v-876q0 -103 13 -136q10 -25 42 -43q43 -24 91 -24h49zM249 1793h184l190 -331h-31l-273 213l-229 -213h-30z" />
    <glyph glyph-name="Idieresis" unicode="&#xcf;" horiz-adv-x="682" 
d="M632 37v-37h-581v37h48q84 0 122 49q24 32 24 154v876q0 103 -13 136q-10 25 -41 43q-44 24 -92 24h-48v37h581v-37h-49q-83 0 -121 -49q-25 -32 -25 -154v-876q0 -103 13 -136q10 -25 42 -43q43 -24 91 -24h49zM517 1708q45 0 76.5 -32t31.5 -77t-31.5 -76.5
t-76.5 -31.5t-77 31.5t-32 76.5t32 77t77 32zM164 1708q46 0 77.5 -32t31.5 -77t-32 -76.5t-76 -31.5q-45 0 -77 31.5t-32 76.5t31.5 77t76.5 32z" />
    <glyph glyph-name="Igrave" unicode="&#xcc;" horiz-adv-x="682" 
d="M632 37v-37h-581v37h48q84 0 122 49q24 32 24 154v876q0 103 -13 136q-10 25 -41 43q-44 24 -92 24h-48v37h581v-37h-49q-83 0 -121 -49q-25 -32 -25 -154v-876q0 -103 13 -136q10 -25 42 -43q43 -24 91 -24h49zM119 1797h223l106 -345h-35z" />
    <glyph glyph-name="Oacute" unicode="&#xd3;" horiz-adv-x="1479" 
d="M749 1387q264 0 457.5 -200.5t193.5 -500.5q0 -309 -195 -513t-472 -204q-280 0 -470.5 199t-190.5 515q0 323 220 527q191 177 457 177zM730 1314q-182 0 -292 -135q-137 -168 -137 -492q0 -332 142 -511q109 -136 288 -136q191 0 315.5 149t124.5 470q0 348 -137 519
q-110 136 -304 136zM957 1797l-295 -345h-34l105 345h224z" />
    <glyph glyph-name="Ocircumflex" unicode="&#xd4;" horiz-adv-x="1479" 
d="M749 1387q264 0 457.5 -200.5t193.5 -500.5q0 -309 -195 -513t-472 -204q-280 0 -470.5 199t-190.5 515q0 323 220 527q191 177 457 177zM730 1314q-182 0 -292 -135q-137 -168 -137 -492q0 -332 142 -511q109 -136 288 -136q191 0 315.5 149t124.5 470q0 348 -137 519
q-110 136 -304 136zM641 1793h184l190 -331h-31l-273 213l-229 -213h-30z" />
    <glyph glyph-name="Ograve" unicode="&#xd2;" horiz-adv-x="1479" 
d="M749 1387q264 0 457.5 -200.5t193.5 -500.5q0 -309 -195 -513t-472 -204q-280 0 -470.5 199t-190.5 515q0 323 220 527q191 177 457 177zM730 1314q-182 0 -292 -135q-137 -168 -137 -492q0 -332 142 -511q109 -136 288 -136q191 0 315.5 149t124.5 470q0 348 -137 519
q-110 136 -304 136zM511 1797h223l106 -345h-35z" />
    <glyph glyph-name="Uacute" unicode="&#xda;" horiz-adv-x="1479" 
d="M977 1319v37h480v-37h-51q-80 0 -123 -67q-21 -31 -21 -144v-550q0 -204 -40.5 -316.5t-159 -193t-322.5 -80.5q-222 0 -337 77t-163 207q-32 89 -32 334v530q0 125 -34.5 164t-111.5 39h-51v37h586v-37h-52q-84 0 -120 -53q-25 -36 -25 -150v-591q0 -79 14.5 -181
t52.5 -159t109.5 -94t175.5 -37q133 0 238 58t143.5 148.5t38.5 306.5v549q0 127 -28 159q-39 44 -116 44h-51zM960 1797l-295 -345h-34l105 345h224z" />
    <glyph glyph-name="Ucircumflex" unicode="&#xdb;" horiz-adv-x="1479" 
d="M977 1319v37h480v-37h-51q-80 0 -123 -67q-21 -31 -21 -144v-550q0 -204 -40.5 -316.5t-159 -193t-322.5 -80.5q-222 0 -337 77t-163 207q-32 89 -32 334v530q0 125 -34.5 164t-111.5 39h-51v37h586v-37h-52q-84 0 -120 -53q-25 -36 -25 -150v-591q0 -79 14.5 -181
t52.5 -159t109.5 -94t175.5 -37q133 0 238 58t143.5 148.5t38.5 306.5v549q0 127 -28 159q-39 44 -116 44h-51zM691 1793h184l190 -331h-31l-273 213l-229 -213h-30z" />
    <glyph glyph-name="Ugrave" unicode="&#xd9;" horiz-adv-x="1479" 
d="M977 1319v37h480v-37h-51q-80 0 -123 -67q-21 -31 -21 -144v-550q0 -204 -40.5 -316.5t-159 -193t-322.5 -80.5q-222 0 -337 77t-163 207q-32 89 -32 334v530q0 125 -34.5 164t-111.5 39h-51v37h586v-37h-52q-84 0 -120 -53q-25 -36 -25 -150v-591q0 -79 14.5 -181
t52.5 -159t109.5 -94t175.5 -37q133 0 238 58t143.5 148.5t38.5 306.5v549q0 127 -28 159q-39 44 -116 44h-51zM562 1797h223l106 -345h-35z" />
    <glyph glyph-name="dotlessi" unicode="&#x131;" horiz-adv-x="569" 
d="M379 943v-736q0 -86 13 -114.5t37.5 -42.5t89.5 -14v-36h-445v36q67 0 90 13t36.5 43t13.5 115v353q0 149 -9 193q-7 32 -22 44.5t-41 12.5q-28 0 -68 -15l-14 36l276 112h43z" />
    <glyph glyph-name="circumflex" unicode="&#x2c6;" horiz-adv-x="682" 
d="M249 1385h184l190 -331h-31l-273 213l-229 -213h-30z" />
    <glyph glyph-name="tilde" unicode="&#x2dc;" horiz-adv-x="682" 
d="M54 1097h-32q4 137 57 198t131 61q41 0 75 -13q45 -17 127.5 -71.5t122.5 -54.5q32 0 56.5 27t38.5 112h31q1 -93 -24.5 -147.5t-72 -85t-93.5 -30.5q-79 0 -196 80q-63 43 -85 52t-43 9q-41 0 -65 -36q-11 -17 -28 -101z" />
    <glyph glyph-name="macron" unicode="&#xaf;" horiz-adv-x="1024" 
d="M1042 1462h-1059v84h1059v-84z" />
    <glyph glyph-name="breve" unicode="&#x2d8;" horiz-adv-x="682" 
d="M55 1358h31q33 -61 76 -86q72 -43 181 -43t180 42q51 29 71 87h33q-9 -124 -91.5 -202t-194.5 -78q-111 0 -193 77.5t-93 202.5z" />
    <glyph glyph-name="dotaccent" unicode="&#x2d9;" horiz-adv-x="682" 
d="M342 1337q45 0 77 -32t32 -77t-32 -77t-77 -32t-77 32t-32 77t31.5 77t77.5 32z" />
    <glyph glyph-name="ring" unicode="&#x2da;" horiz-adv-x="682" 
d="M341 1424q80 0 136 -56t56 -135q0 -80 -56 -136t-136 -56q-79 0 -135 56t-56 136q0 79 55.5 135t135.5 56zM341 1355q-51 0 -86.5 -35.5t-35.5 -86.5q0 -50 35.5 -86t86.5 -36t86.5 36t35.5 86q0 51 -35.5 86.5t-86.5 35.5z" />
    <glyph glyph-name="cedilla" unicode="&#xb8;" horiz-adv-x="682" 
d="M361 16h60l-50 -79q63 -16 94 -54t31 -92q0 -72 -60 -126.5t-155 -54.5q-37 0 -94 7v43q28 -4 48 -4q51 0 86 33.5t35 76.5q0 30 -23 52t-57 22q-10 0 -26 -2z" />
    <glyph glyph-name="hungarumlaut" unicode="&#x2dd;" horiz-adv-x="682" 
d="M144 1390h187l-220 -346h-33zM457 1390h187l-218 -346h-34z" />
    <glyph glyph-name="ogonek" unicode="&#x2db;" horiz-adv-x="682" 
d="M228 16h52q-26 -52 -26 -99q0 -84 52 -132q69 -63 162 -63q57 0 119 23l21 -32q-88 -49 -132 -62.5t-99 -13.5q-109 0 -169 54t-60 130q0 53 21.5 106.5t58.5 88.5z" />
    <glyph glyph-name="caron" unicode="&#x2c7;" horiz-adv-x="682" 
d="M434 1054h-184l-190 331h31l273 -212l229 212h30z" />
    <glyph glyph-name="currency" unicode="&#xa4;" horiz-adv-x="1024" 
d="M794 1019l143 142l58 -57l-144 -141q103 -132 103 -281q0 -154 -103 -284l144 -145l-58 -55l-143 143q-134 -103 -270 -103q-88 0 -171.5 30.5t-123.5 72.5l-146 -143l-56 55l144 145q-102 117 -102 282q0 157 102 283l-144 141l56 57l146 -142q52 45 132 73.5t153 28.5
q69 0 145.5 -26t134.5 -76zM512 1040q-151 0 -256.5 -106.5t-105.5 -256.5q0 -147 106 -253t255 -106t256 107t107 254q0 91 -49 179t-135 135t-178 47z" />
    <glyph glyph-name="uni2126" unicode="&#x2126;" horiz-adv-x="1573" 
d="M645 290l30 -290h-604v334h34q20 -79 47 -101t99 -22h303v29q-158 47 -248 118t-143 191.5t-53 244.5q0 152 81 293.5t236 218t360 76.5q204 0 359 -76t236 -217.5t81 -294.5q0 -125 -53 -245t-142.5 -191t-248.5 -118v-29h303q73 0 100 22t47 101h34v-334h-605l31 290
q123 45 185 131q104 145 104 376q0 256 -115.5 386t-310.5 130q-205 0 -306 -114q-130 -146 -130 -401q0 -146 40.5 -256.5t112.5 -175.5q48 -44 136 -76z" />
    <glyph glyph-name="lslash" unicode="&#x142;" horiz-adv-x="569" 
d="M380 1422v-608l171 141v-85l-171 -142v-522q0 -96 10.5 -119t34.5 -34q37 -19 101 -17v-36h-462v36l25 -1q52 0 83 18q22 13 33 39t11 125v379l-186 -153v84l186 154v355q0 149 -9 186q-5 26 -24 42t-42 16q-17 0 -67 -17l-10 36l284 123h32z" />
    <glyph glyph-name="Scaron" unicode="&#x160;" horiz-adv-x="1139" 
d="M939 1387v-469h-37q-18 135 -64.5 215t-132.5 127t-178 47q-104 0 -172 -63.5t-68 -144.5q0 -62 43 -113q62 -75 295 -200q190 -102 259.5 -156.5t107 -128.5t37.5 -155q0 -154 -119.5 -265.5t-307.5 -111.5q-59 0 -111 9q-31 5 -128.5 36.5t-123.5 31.5q-25 0 -39.5 -15
t-21.5 -62h-37v465h37q26 -146 70 -218.5t134.5 -120.5t198.5 -48q125 0 197.5 66t72.5 156q0 50 -27.5 101t-85.5 95q-39 30 -213 127.5t-247.5 155.5t-111.5 128t-38 154q0 146 112 251.5t285 105.5q108 0 229 -53q56 -25 79 -25q26 0 42.5 15.5t26.5 62.5h37zM657 1462
h-184l-190 331h31l273 -212l229 212h30z" />
    <glyph glyph-name="scaron" unicode="&#x161;" horiz-adv-x="797" 
d="M656 943v-312h-33q-38 147 -97.5 200t-151.5 53q-70 0 -113 -37t-43 -82q0 -56 32 -96q31 -41 126 -87l146 -71q203 -99 203 -261q0 -125 -94.5 -201.5t-211.5 -76.5q-84 0 -192 30q-33 10 -54 10q-23 0 -36 -26h-33v327h33q28 -140 107 -211t177 -71q69 0 112.5 40.5
t43.5 97.5q0 69 -48.5 116t-193.5 119t-190 130q-45 57 -45 144q0 113 77.5 189t200.5 76q54 0 131 -23q51 -15 68 -15q16 0 25 7t21 31h33zM491 1054h-184l-190 331h31l273 -212l229 212h30z" />
    <glyph glyph-name="Yacute" unicode="&#xdd;" horiz-adv-x="1479" 
d="M976 1356h473v-37h-26q-26 0 -76 -23t-91 -66t-101 -140l-327 -515v-340q0 -125 28 -156q38 -42 120 -42h44v-37h-576v37h48q86 0 122 52q22 32 22 146v321l-372 568q-66 100 -89.5 125t-97.5 60q-20 10 -58 10v37h580v-37h-30q-47 0 -86.5 -22t-39.5 -66q0 -36 61 -130
l283 -437l266 418q60 94 60 140q0 28 -14.5 50t-41.5 34.5t-81 12.5v37zM996 1797l-295 -345h-34l105 345h224z" />
    <glyph glyph-name="yacute" unicode="&#xfd;" horiz-adv-x="1024" 
d="M12 916h427v-37h-21q-45 0 -67.5 -19.5t-22.5 -48.5q0 -39 33 -108l223 -462l205 506q17 41 17 81q0 18 -7 27q-8 11 -25 17.5t-60 6.5v37h298v-37q-37 -4 -57 -16t-44 -45q-9 -14 -34 -77l-373 -914q-54 -133 -141.5 -201t-168.5 -68q-59 0 -97 34t-38 78
q0 42 27.5 67.5t75.5 25.5q33 0 90 -22q40 -15 50 -15q30 0 65.5 31t71.5 120l65 159l-329 691q-15 31 -48 77q-25 35 -41 47q-23 16 -74 28v37zM732 1390l-295 -345h-34l105 345h224z" />
    <glyph glyph-name="Thorn" unicode="&#xde;" horiz-adv-x="1139" 
d="M420 1048h74q150 0 224 -12q108 -19 179.5 -64.5t117 -121.5t45.5 -170q0 -77 -29 -142.5t-78 -112.5t-111 -75t-161 -41q-36 -5 -191 -5h-70v-61q0 -129 34.5 -167.5t118.5 -38.5h41v-37h-578v37h38q93 0 133 56q20 28 20 147v868q0 114 -11 140.5t-48.5 48.5t-91.5 22
h-40v37h578v-37h-40q-44 0 -94 -23q-30 -14 -45 -49t-15 -134v-65zM420 970v-595h44q122 0 190 28q90 38 133 109t43 165q0 75 -31 138t-81.5 98.5t-112.5 48.5q-40 8 -137 8h-48z" />
    <glyph glyph-name="thorn" unicode="&#xfe;" horiz-adv-x="1024" 
d="M-2 1308l282 114h38v-697q71 121 142.5 169.5t150.5 48.5q138 0 230 -108q113 -132 113 -344q0 -237 -136 -392q-112 -127 -282 -127q-74 0 -128 21q-40 15 -90 60v-279q0 -93 11.5 -118t40 -40t103.5 -15v-38h-480v38l25 -1q55 -1 94 21q19 11 29.5 35.5t10.5 123.5
v1349q0 89 -8 113.5t-25.5 36.5t-47.5 12q-24 0 -61 -15zM318 666v-342q0 -111 9 -146q14 -58 68.5 -102t137.5 -44q100 0 162 78q81 102 81 287q0 210 -92 323q-64 78 -152 78q-48 0 -95 -24q-36 -18 -119 -108z" />
    <glyph glyph-name="Zcaron" unicode="&#x17d;" horiz-adv-x="1251" 
d="M1178 1356l-891 -1274h556q128 0 196.5 56t121.5 227l33 -6l-64 -359h-1104v37l870 1238h-434q-108 0 -156.5 -23.5t-74 -68t-46.5 -166.5h-38l28 339h1003zM734 1462h-184l-190 331h31l273 -212l229 212h30z" />
    <glyph glyph-name="zcaron" unicode="&#x17e;" horiz-adv-x="909" 
d="M860 281l-11 -281h-808v36l608 810h-300q-97 0 -127 -12.5t-49 -47.5q-27 -50 -31 -124h-40l6 254h768v-37l-614 -812h334q105 0 142.5 17.5t60.5 61.5q16 32 27 135h34zM563 1054h-184l-190 331h31l273 -212l229 212h30z" />
    <glyph glyph-name="onehalf" unicode="&#xbd;" horiz-adv-x="1536" 
d="M134 1297l205 87h35v-592q0 -60 6 -74q5 -9 16 -14q16 -8 79 -8v-32h-325v32q64 0 80 7q12 5 17 16t5 73v374q0 71 -5 94q-3 16 -10.5 22.5t-19.5 6.5q-20 0 -67 -20zM1268 1384l-935 -1438h-89l935 1438h89zM1494 113l-61 -153h-494v30q247 192 328 313q50 74 50 143
q0 61 -41.5 102.5t-104.5 41.5q-57 0 -100 -29.5t-65 -88.5h-45q14 97 77.5 153t164.5 56q106 0 172.5 -58.5t66.5 -129.5q0 -66 -48 -142q-75 -116 -295 -294h187q86 0 114.5 11.5t48.5 44.5h45z" />
    <glyph glyph-name="onequarter" unicode="&#xbc;" horiz-adv-x="1536" 
d="M134 1297l205 87h35v-592q0 -60 6 -74q5 -9 16 -14q16 -8 79 -8v-32h-325v32q64 0 80 7q12 5 17 16t5 73v374q0 71 -5 94q-3 16 -10.5 22.5t-19.5 6.5q-20 0 -67 -20zM1292 1384l-934 -1438h-90l935 1438h89zM1501 224v-81h-108v-183h-117v183h-343v73l376 465h84v-457
h108zM1276 224v316l-260 -316h260z" />
    <glyph glyph-name="onesuperior" unicode="&#xb9;" horiz-adv-x="614" 
d="M136 1297l205 87h35v-592q0 -60 6 -74q5 -9 16 -14q16 -8 79 -8v-32h-325v32q64 0 80 7q12 5 17 16t5 73v374q0 71 -5 94q-3 16 -10.5 22.5t-19.5 6.5q-20 0 -67 -20z" />
    <glyph glyph-name="threequarters" unicode="&#xbe;" horiz-adv-x="1536" 
d="M1277 1384l-931 -1438h-90l935 1438h86zM53 1229q36 74 81 108q64 47 149 47q92 0 145 -46t53 -101q0 -68 -105 -155q72 -26 108.5 -74.5t36.5 -107.5q0 -103 -85.5 -177t-246.5 -74q-84 0 -121 24q-26 17 -26 39q0 17 16.5 31t42.5 14q28 0 81 -24t91 -24q56 0 96 39.5
t40 92.5q0 72 -56.5 120t-175.5 46v28q77 0 129.5 47t52.5 108q0 49 -33 80t-88 31q-85 0 -147 -88zM1501 224v-81h-108v-183h-116v183h-344v73l376 465h84v-457h108zM1277 224v316l-260 -316h260z" />
    <glyph glyph-name="threesuperior" unicode="&#xb3;" horiz-adv-x="614" 
d="M55 1229q36 74 81 108q64 47 149 47q92 0 145 -46t53 -101q0 -68 -105 -155q72 -26 108.5 -74.5t36.5 -107.5q0 -103 -85.5 -177t-246.5 -74q-84 0 -121 24q-26 17 -26 39q0 17 16.5 31t42.5 14q28 0 81 -24t91 -24q56 0 96 39.5t40 92.5q0 45 -26.5 86t-68.5 57
q-60 23 -107 23h-30v28q77 0 129.5 47t52.5 108q0 49 -33 80t-88 31q-85 0 -147 -88z" />
    <glyph glyph-name="twosuperior" unicode="&#xb2;" horiz-adv-x="614" 
d="M575 816l-61 -152h-494v29q247 192 328 313q50 74 50 143q0 61 -41.5 102.5t-104.5 41.5q-57 0 -100 -29.5t-65 -88.5h-45q14 98 77.5 153.5t164.5 55.5q106 0 172.5 -58t66.5 -130q0 -66 -48 -141q-75 -117 -295 -295h186q87 0 115.5 12t48.5 44h45z" />
    <glyph glyph-name="brokenbar" unicode="&#xa6;" horiz-adv-x="410" 
d="M244 1422v-742h-83v742h83zM244 300v-742h-83v742h83z" />
    <glyph glyph-name="minus" unicode="&#x2212;" horiz-adv-x="1155" 
d="M1115 640h-1078v82h1078v-82z" />
    <glyph glyph-name="multiply" unicode="&#xd7;" horiz-adv-x="1155" 
d="M165 328l353 353l-352 352l58 58l352 -352l352 352l56 -57l-352 -352l354 -354l-57 -58l-354 354l-353 -353z" />
    <glyph glyph-name="Lslash" unicode="&#x141;" horiz-adv-x="1251" 
d="M1086 0h-1049v37h42q47 0 92 23q33 17 45.5 49.5t12.5 133.5v299l-207 -166v92l207 174v470q0 114 -11 140.5t-45.5 46.5t-93.5 20h-42v37h602v-37h-60q-71 0 -104.5 -22.5t-46.5 -67.5q-7 -23 -7 -117v-311l227 187v-95l-227 -192v-453q0 -89 11 -112t41 -37
q21 -11 114 -11h152q145 0 193 15q69 20 130.5 85.5t104.5 187.5l32 -8z" />
    <glyph glyph-name="uni03A9" unicode="&#x3a9;" horiz-adv-x="1573" 
d="M645 290l30 -290h-604v334h34q20 -79 47 -101t99 -22h303v29q-158 47 -248 118t-143 191.5t-53 244.5q0 152 81 293.5t236 218t360 76.5q204 0 359 -76t236 -217.5t81 -294.5q0 -125 -53 -245t-142.5 -191t-248.5 -118v-29h303q73 0 100 22t47 101h34v-334h-605l31 290
q123 45 185 131q104 145 104 376q0 256 -115.5 386t-310.5 130q-205 0 -306 -114q-130 -146 -130 -401q0 -146 40.5 -256.5t112.5 -175.5q48 -44 136 -76z" />
    <glyph glyph-name="Euro" unicode="&#x20ac;" horiz-adv-x="1024" 
d="M847 737h-574q-3 -42 -3 -83h552l-23 -78h-527q8 -211 84 -352q89 -164 240 -164q134 0 224 69q54 41 137 156l31 -20q-86 -136 -156 -194q-115 -95 -276 -95q-230 0 -356 191q-103 156 -122 409h-101l23 78h74v16q0 30 2 67h-99l23 78h84q34 237 162 391
q147 178 376 178q171 0 340 -88v-299h-39q-26 321 -301 321q-158 0 -250 -167q-71 -130 -93 -336h591z" />
    <glyph glyph-name="Eth" unicode="&#xd0;" horiz-adv-x="1479" 
d="M35 0v37h51q86 0 123 56q21 32 21 147v438h-195v74h195v364q0 127 -28 159q-39 44 -116 44h-51v37h552q315 0 466 -71.5t249 -229t98 -368.5q0 -287 -183.5 -487t-576.5 -200h-605zM423 100q127 -28 213 -28q231 0 384 163t153 442q0 281 -153 443t-392 162
q-90 0 -205 -29v-501h393v-74h-393v-578z" />
    <glyph glyph-name="eth" unicode="&#xf0;" horiz-adv-x="1024" 
d="M469 1169l-247 -135l-30 55l233 132q-66 67 -99.5 94.5t-88.5 63.5l27 43q120 -60 247 -155l249 139l34 -55l-229 -130q190 -165 287 -363.5t97 -383.5q0 -139 -57.5 -255.5t-161.5 -181.5t-231 -65q-179 0 -305 133.5t-126 335.5q0 211 138 365q118 129 282 129
q49 0 88 -13q31 -10 81 -46q-80 165 -188 293zM479 874q-96 0 -161 -81t-65 -275q0 -136 40.5 -250.5t109.5 -170t144 -55.5q91 0 154 79t63 256q0 225 -79 361t-206 136z" />
    <glyph glyph-name="pi1" horiz-adv-x="1124" 
d="M1024 916v-146h-232q-17 -104 -28 -240.5t-11 -217.5q0 -90 35.5 -131.5t89.5 -41.5q44 0 74 28t36 83h36q-18 -150 -76 -214t-130 -64q-74 0 -124.5 69.5t-50.5 276.5q0 91 11 204q17 183 27 248h-235l-15 -233q-12 -149 -38.5 -298t-55.5 -202q-20 -38 -41.5 -51.5
t-43.5 -13.5q-39 0 -64.5 24.5t-25.5 58.5q0 28 10 52q6 15 55 83q33 45 51 97t33 169q3 21 24 314h-29q-70 0 -114 -28t-94 -113h-36q32 120 81 185t95 83.5t148 18.5h638z" />
    <glyph glyph-name="uni22C6" unicode="&#x22c6;" horiz-adv-x="1518" 
d="M340 -55l155 495l-405 299h508l161 488l161 -488h508l-405 -299l155 -495l-419 299z" />
    <glyph glyph-name="uni0D9A0DCA" horiz-adv-x="1665" 
d="M164 27l-62 22q78 246 163 380.5t210 238.5q-8 72 -32 108.5t-64 36.5q-57 0 -94 -94q-18 -49 -27.5 -64.5t-30.5 -28t-45 -12.5q-38 0 -59 24.5t-21 66.5q0 59 62.5 125.5t159.5 66.5q163 0 202 -190q98 86 217.5 138t233.5 52q203 0 350 -131v629h62q38 -33 118 -76
q76 -39 111 -85.5t35 -111.5t-45.5 -112t-118.5 -47q-37 0 -96 18v-289q45 -63 67.5 -139t22.5 -164q0 -164 -54.5 -276.5t-146.5 -112.5q-64 0 -133 59l41 52q47 -45 90 -45q49 0 75.5 65t26.5 164q0 109 -70 226t-180 187t-229 70q-97 0 -196 -42.5t-201 -127.5
q48 17 119 29t116 12q183 0 282 -102t99 -266q0 -128 -62.5 -204.5t-172.5 -76.5q-71 0 -124.5 36t-90.5 109q-37 -70 -96.5 -107.5t-120.5 -37.5q-57 0 -92.5 17.5t-71.5 56.5q-30 32 -49 32q-42 0 -78 -79zM1393 1051q38 -17 75 -17q42 0 68.5 27t26.5 67q0 56 -32.5 91.5
t-101.5 73.5q-18 9 -36 20v-262zM707 442q0 -127 51.5 -200.5t130.5 -73.5q73 0 114 48.5t41 119.5q0 102 -75.5 175t-218.5 73q-149 0 -347 -74q-55 -67 -102.5 -153t-87.5 -191q46 18 72 18q35 0 74 -8t81 -8q97 0 147 68.5t54 205.5h66z" />
    <glyph glyph-name="uni0D9A0DD2" horiz-adv-x="1665" 
d="M174 27l-61 22q91 263 173.5 393t198.5 226q-8 71 -38 108t-68 37q-34 0 -58.5 -28.5t-35.5 -65.5q-21 -67 -48.5 -86t-54.5 -19q-38 0 -59 24.5t-21 66.5q0 59 62.5 125.5t159.5 66.5q178 0 213 -192q22 30 77 182q49 141 89 225t100 146.5t139 95t178 32.5
q146 0 242 -106.5t96 -257.5q0 -135 -72 -260q79 -71 118.5 -164t39.5 -209q0 -156 -71 -272.5t-170 -116.5q-63 0 -134 59l41 52q47 -45 90 -45q61 0 102.5 63t41.5 166q0 104 -71 220t-188 189.5t-241 73.5q-95 0 -213.5 -46t-214.5 -124q48 17 119 29t117 12
q182 0 281.5 -102.5t99.5 -265.5q0 -128 -62 -204.5t-174 -76.5q-71 0 -124.5 36t-90.5 109q-36 -70 -95.5 -107.5t-121.5 -37.5q-57 0 -92.5 17.5t-71.5 56.5q-30 32 -49 32q-42 0 -78 -79zM1333 805q24 30 41 79t17 91q0 115 -79.5 179.5t-213.5 64.5q-159 0 -264.5 -90.5
t-186.5 -344.5q90 56 183 84.5t188 28.5q176 0 315 -92zM717 442q0 -127 51.5 -200.5t130.5 -73.5q74 0 115 48t41 120q0 103 -76.5 175.5t-218.5 72.5q-145 0 -346 -74q-55 -65 -102.5 -151t-88.5 -193q46 18 72 18q35 0 75 -8q39 -8 81 -8q96 0 146 68.5t54 205.5h66z" />
    <glyph glyph-name="uni0D9A0DD3" horiz-adv-x="1665" 
d="M174 27l-61 22q91 263 173.5 393t198.5 226q-8 71 -38 108t-68 37q-34 0 -58 -28.5t-36 -65.5q-17 -47 -27.5 -64t-31 -29t-44.5 -12q-38 0 -59 24.5t-21 66.5q0 59 62.5 125.5t159.5 66.5q177 0 213 -190q34 54 77 180q49 141 89.5 224.5t100 146t140.5 95.5t182 33
q154 0 247 -89t93 -226q0 -95 -54 -160t-148 -67q135 -65 207.5 -181.5t72.5 -273.5q0 -156 -71 -272.5t-170 -116.5q-63 0 -134 59l41 52q47 -45 90 -45q61 0 102.5 63t41.5 166q0 104 -71 220t-188 189.5t-241 73.5q-95 0 -213.5 -46t-214.5 -124q48 17 119 29t117 12
q182 0 281.5 -102.5t99.5 -265.5q0 -128 -62 -204.5t-174 -76.5q-71 0 -124.5 36t-90.5 109q-36 -70 -95.5 -107.5t-121.5 -37.5q-57 0 -92.5 17.5t-71.5 56.5q-30 32 -49 32q-42 0 -78 -79zM1161 879q-51 47 -51 114q0 63 35.5 119.5t97.5 85.5q-65 21 -145 21
q-159 0 -264.5 -90.5t-186.5 -344.5q90 56 183 84.5t188 28.5q73 0 143 -18zM1313 1171q-61 -19 -99 -70.5t-38 -103.5q0 -37 22 -62.5t66 -25.5q50 0 82 48t32 100q0 83 -65 114zM717 442q0 -127 51.5 -200.5t130.5 -73.5q74 0 115 48t41 120q0 103 -76.5 175.5
t-218.5 72.5q-145 0 -346 -74q-55 -65 -102.5 -151t-88.5 -193q46 18 72 18q35 0 75 -8q39 -8 81 -8q96 0 146 68.5t54 205.5h66z" />
    <glyph glyph-name="uni0D9A0DD4" horiz-adv-x="1665" 
d="M174 25l-61 22q91 263 173.5 393t198.5 226q-8 71 -38 108t-68 37q-35 0 -58.5 -30.5t-52.5 -107.5q-11 -29 -35 -45t-51 -16q-38 0 -59 24.5t-21 65.5q0 60 63 126.5t159 66.5q177 0 213 -190q122 96 242 144t239 48q219 0 372.5 -137.5t153.5 -372.5q0 -151 -33.5 -232
t-93.5 -121t-176 -54q-81 -12 -115 -36.5t-34 -78.5q0 -53 42.5 -82t168.5 -29q80 0 133 21.5t53 66.5q0 30 -16 62l53 12q28 -40 28 -90q0 -87 -70 -144t-177 -57q-130 0 -205.5 57.5t-75.5 157.5q0 95 54.5 145t183.5 62q91 8 135.5 61t44.5 185q0 107 -72.5 223.5
t-189.5 189t-238 72.5q-91 0 -209 -45.5t-219 -126.5q48 17 119 29t117 12q182 0 281.5 -102.5t99.5 -265.5q0 -128 -62 -204.5t-174 -76.5q-71 0 -124.5 36t-90.5 109q-36 -70 -95.5 -107.5t-121.5 -37.5q-57 0 -92.5 17.5t-71.5 56.5q-30 32 -49 32q-42 0 -78 -79z
M717 442q0 -127 51.5 -200.5t130.5 -73.5q74 0 115 48t41 120q0 103 -76.5 175.5t-218.5 72.5q-145 0 -346 -74q-55 -65 -102.5 -151t-88.5 -193q46 18 72 18q35 0 75 -8q39 -8 81 -8q96 0 146 68.5t54 205.5h66z" />
    <glyph glyph-name="uni0D9A0DD6" horiz-adv-x="1665" 
d="M174 27l-61 22q91 263 173.5 393t198.5 226q-8 71 -38 108t-68 37q-57 0 -94 -94q-18 -49 -27.5 -64.5t-30.5 -28t-45 -12.5q-38 0 -59 24.5t-21 66.5q0 59 62.5 125.5t159.5 66.5q177 0 213 -190q121 95 241.5 142.5t239.5 47.5q221 0 373.5 -137.5t152.5 -370.5
q0 -136 -59 -242t-152 -124l80 -70l-27 -51q-59 20 -90 20q-57 0 -57 -28q0 -21 17.5 -38t93.5 -49l-29 -59q-56 27 -92 27q-28 0 -49 -13.5t-21 -31.5q0 -76 154 -76q96 0 141 30t45 101l66 4q16 -30 16 -82q0 -84 -74 -143.5t-180 -59.5q-109 0 -184.5 56t-75.5 151
q0 42 34.5 77.5t94.5 39.5q-29 31 -29 68q0 35 30 59t83 29q-29 26 -58 49q-29 22 -55 47l43 51q40 -45 90 -45q64 0 104 55.5t40 153.5q0 104 -71 220t-188 189.5t-241 73.5q-95 0 -213.5 -46t-214.5 -124q48 17 119 29t117 12q182 0 281.5 -102.5t99.5 -265.5
q0 -128 -62 -204.5t-174 -76.5q-71 0 -124.5 36t-90.5 109q-36 -70 -95.5 -107.5t-121.5 -37.5q-57 0 -92.5 17.5t-71.5 56.5q-30 32 -49 32q-42 0 -78 -79zM717 442q0 -127 51.5 -200.5t130.5 -73.5q74 0 115 48t41 120q0 103 -76.5 175.5t-218.5 72.5q-145 0 -346 -74
q-55 -65 -102.5 -151t-88.5 -193q46 18 72 18q35 0 75 -8q39 -8 81 -8q96 0 146 68.5t54 205.5h66z" />
    <glyph glyph-name="uni0D9A.reph" horiz-adv-x="1665" 
d="M174 27l-61 22q91 263 173.5 393t198.5 226q-8 71 -38 108t-68 37q-57 0 -94 -94q-18 -49 -27.5 -64.5t-30.5 -28t-45 -12.5q-38 0 -59 24.5t-21 66.5q0 59 62.5 125.5t159.5 66.5q177 0 213 -190q67 52 131 89.5t125 59.5q-60 21 -93.5 69.5t-33.5 104.5
q0 96 81.5 155.5t213.5 59.5q137 0 214.5 -59t77.5 -156q0 -38 -15.5 -84t-43.5 -76q166 -53 258 -178.5t92 -302.5q0 -156 -71 -272.5t-170 -116.5q-63 0 -134 59l41 52q47 -45 90 -45q61 0 102.5 63t41.5 166q0 104 -71 220t-188 189.5t-241 73.5q-95 0 -213.5 -46
t-214.5 -124q48 17 119 29t117 12q182 0 281.5 -102.5t99.5 -265.5q0 -128 -62 -204.5t-174 -76.5q-71 0 -124.5 36t-90.5 109q-36 -70 -95.5 -107.5t-121.5 -37.5q-57 0 -92.5 17.5t-71.5 56.5q-30 32 -49 32q-42 0 -78 -79zM1061 897q35 -2 69 -10q58 55 58 143
q0 61 -66 105.5t-161 44.5q-103 0 -166.5 -43.5t-63.5 -102.5q0 -48 31.5 -85.5t99.5 -49.5q-45 38 -45 100q0 57 41.5 95.5t106.5 38.5q61 0 102 -39.5t41 -94.5q0 -62 -47 -102zM883 1001q0 -37 24 -53t56 -16q35 0 57 17.5t22 51.5q0 29 -21.5 47.5t-55.5 18.5
q-41 0 -61.5 -16.5t-20.5 -49.5zM717 442q0 -127 51.5 -200.5t130.5 -73.5q74 0 115 48t41 120q0 103 -76.5 175.5t-218.5 72.5q-145 0 -346 -74q-55 -65 -102.5 -151t-88.5 -193q46 18 72 18q35 0 75 -8q39 -8 81 -8q96 0 146 68.5t54 205.5h66z" />
    <glyph glyph-name="uni0D9A.rakar" horiz-adv-x="1665" 
d="M174 27l-61 22q91 263 173.5 393t198.5 226q-8 71 -38 108t-68 37q-57 0 -94 -94q-18 -49 -27.5 -64.5t-30.5 -28t-45 -12.5q-38 0 -59 24.5t-21 66.5q0 59 62.5 125.5t159.5 66.5q177 0 213 -190q121 95 241.5 142.5t239.5 47.5q221 0 373.5 -137.5t152.5 -370.5
q0 -262 -103 -467.5t-268 -311.5t-354 -106q-203 0 -361.5 86t-273.5 258l52 43q82 -103 218.5 -161t297.5 -58q233 0 417.5 99.5t268.5 298.5q-62 -70 -135 -70q-63 0 -134 59l41 52q47 -45 90 -45q61 0 102.5 63t41.5 166q0 104 -71 220t-188 189.5t-241 73.5
q-95 0 -213.5 -46t-214.5 -124q48 17 119 29t117 12q182 0 281.5 -102.5t99.5 -265.5q0 -128 -62 -204.5t-174 -76.5q-71 0 -124.5 36t-90.5 109q-36 -70 -95.5 -107.5t-121.5 -37.5q-57 0 -92.5 17.5t-71.5 56.5q-30 32 -49 32q-42 0 -78 -79zM717 442q0 -127 51.5 -200.5
t130.5 -73.5q74 0 115 48t41 120q0 103 -76.5 175.5t-218.5 72.5q-145 0 -346 -74q-55 -65 -102.5 -151t-88.5 -193q46 18 72 18q38 0 76 -8t80 -8q96 0 146 68.5t54 205.5h66z" />
    <glyph glyph-name="uni0D9A0DD2.rakar" horiz-adv-x="1665" 
d="M174 27l-61 22q91 263 173.5 393t198.5 226q-8 71 -38 108t-68 37q-34 0 -58.5 -28.5t-35.5 -65.5q-21 -67 -48.5 -86t-54.5 -19q-38 0 -59 24.5t-21 66.5q0 59 62.5 125.5t159.5 66.5q177 0 213 -190q29 41 77 180q49 141 89 225t100 146.5t139 95t178 32.5
q146 0 242 -106.5t96 -257.5q0 -135 -72 -260q79 -71 118.5 -164t39.5 -209q0 -261 -103 -468t-269 -312t-353 -105q-203 0 -361.5 86t-273.5 258l52 43q82 -103 218.5 -161t297.5 -58q233 0 417.5 99.5t268.5 298.5q-62 -70 -135 -70q-63 0 -134 59l41 52q47 -45 90 -45
q61 0 102.5 63t41.5 166q0 104 -71 220t-188 189.5t-241 73.5q-95 0 -213.5 -46t-214.5 -124q48 17 119 29t117 12q182 0 281.5 -102.5t99.5 -265.5q0 -128 -62 -204.5t-174 -76.5q-71 0 -124.5 36t-90.5 109q-36 -70 -95.5 -107.5t-121.5 -37.5q-57 0 -92.5 17.5
t-71.5 56.5q-30 32 -49 32q-42 0 -78 -79zM1333 805q24 30 41 79t17 91q0 115 -79.5 179.5t-213.5 64.5q-159 0 -264.5 -90.5t-186.5 -344.5q90 56 183 84.5t188 28.5q176 0 315 -92zM717 442q0 -127 51.5 -200.5t130.5 -73.5q74 0 115 48t41 120q0 103 -76.5 175.5
t-218.5 72.5q-145 0 -346 -74q-55 -65 -102.5 -151t-88.5 -193q46 18 72 18q38 0 76 -8t80 -8q96 0 146 68.5t54 205.5h66z" />
    <glyph glyph-name="uni0D9A0DD3.rakar" horiz-adv-x="1665" 
d="M174 27l-61 22q91 263 173.5 393t198.5 226q-8 71 -38 108t-68 37q-29 0 -52.5 -23.5t-41.5 -70.5q-18 -49 -27.5 -64.5t-30.5 -28t-45 -12.5q-38 0 -59 24.5t-21 66.5q0 59 62.5 125.5t159.5 66.5q177 0 213 -190q36 59 77 180q49 141 89.5 224.5t100 146t140.5 95.5
t182 33q154 0 247 -89t93 -226q0 -95 -54 -160t-148 -67q135 -65 207.5 -181.5t72.5 -273.5q0 -241 -95.5 -449.5t-264 -322t-365.5 -113.5q-203 0 -361.5 86t-273.5 258l52 43q82 -103 218.5 -161t297.5 -58q233 0 417.5 99.5t268.5 298.5q-62 -70 -135 -70q-63 0 -134 59
l41 52q47 -45 90 -45q61 0 102.5 63t41.5 166q0 104 -71 220t-188 189.5t-241 73.5q-95 0 -213.5 -46t-214.5 -124q48 17 119 29t117 12q182 0 281.5 -102.5t99.5 -265.5q0 -128 -62 -204.5t-174 -76.5q-71 0 -124.5 36t-90.5 109q-36 -70 -95.5 -107.5t-121.5 -37.5
q-57 0 -92.5 17.5t-71.5 56.5q-30 32 -49 32q-42 0 -78 -79zM1161 879q-51 47 -51 114q0 63 35.5 119.5t97.5 85.5q-65 21 -145 21q-159 0 -264.5 -90.5t-186.5 -344.5q90 56 183 84.5t188 28.5q73 0 143 -18zM1313 1171q-61 -19 -99 -70.5t-38 -103.5q0 -37 22 -62.5
t66 -25.5q50 0 82 48t32 100q0 83 -65 114zM717 442q0 -127 51.5 -200.5t130.5 -73.5q74 0 115 48t41 120q0 103 -76.5 175.5t-218.5 72.5q-145 0 -346 -74q-55 -65 -102.5 -151t-88.5 -193q46 18 72 18q38 0 76 -8t80 -8q96 0 146 68.5t54 205.5h66z" />
    <glyph glyph-name="uni0D9A0DCA200D0DC0" horiz-adv-x="2263" 
d="M174 27l-61 22q91 263 173.5 393t198.5 226q-8 71 -38 108t-68 37q-57 0 -94 -94q-18 -49 -27.5 -64.5t-30.5 -28t-45 -12.5q-38 0 -59 24.5t-21 66.5q0 59 62.5 125.5t159.5 66.5q177 0 213 -190q93 72 262 131t313 59q179 0 308.5 -69t129.5 -162q0 -38 -18.5 -60
t-81.5 -22h-86q-110 0 -179 -56.5t-69 -132.5q0 -114 110 -170.5t330 -56.5q244 0 390.5 117.5t146.5 298.5q0 176 -77 306.5t-201 198.5t-238 68q-143 0 -249 -48.5t-175 -145.5l-55 34q70 110 194 168t281 58q254 0 420 -182.5t166 -460.5q0 -279 -184 -429.5t-435 -150.5
q-160 0 -267 46.5t-161 139.5q-24 -89 -80 -137.5t-135 -48.5q-71 0 -124.5 36t-90.5 109q-36 -70 -95.5 -107.5t-121.5 -37.5q-57 0 -92.5 17.5t-71.5 56.5q-30 32 -49 32q-42 0 -78 -79zM516 608q48 17 119 29t117 12q115 0 197.5 -41.5t131.5 -124.5q31 83 108 124.5
t200 41.5h67q29 0 29 19q0 11 -29.5 40.5t-120.5 60t-237 30.5q-151 0 -308 -49.5t-274 -141.5zM717 442q0 -127 51.5 -200.5t130.5 -73.5q74 0 115 48t41 120q0 103 -76.5 175.5t-218.5 72.5q-145 0 -346 -74q-109 -130 -191 -344q46 18 72 18q35 0 75 -8q39 -8 81 -8
q96 0 146 68.5t54 205.5h66z" />
    <glyph glyph-name="uni0D9A0DCA200D0DC00DCA" horiz-adv-x="2263" 
d="M174 27l-61 22q91 263 173.5 393t198.5 226q-8 71 -38 108t-68 37q-57 0 -94 -94q-18 -49 -27.5 -64.5t-30.5 -28t-45 -12.5q-38 0 -59 24.5t-21 66.5q0 59 62.5 125.5t159.5 66.5q177 0 213 -190q93 72 262 131t313 59q179 0 308.5 -69t129.5 -162q0 -38 -18.5 -60
t-81.5 -22h-86q-110 0 -179 -56.5t-69 -132.5q0 -114 110 -170.5t330 -56.5q244 0 390.5 117.5t146.5 298.5q0 101 -82.5 196t-217.5 153t-261 58q-103 0 -173 -16.5t-161 -52.5l-33 53q37 18 105 43q-60 67 -60 96q0 44 93.5 76.5t207.5 32.5q206 0 349 -86.5t221 -245.5
t78 -311q0 -279 -184 -429.5t-435 -150.5q-160 0 -267 46.5t-161 139.5q-24 -89 -80 -137.5t-135 -48.5q-71 0 -124.5 36t-90.5 109q-36 -70 -95.5 -107.5t-121.5 -37.5q-57 0 -92.5 17.5t-71.5 56.5q-30 32 -49 32q-42 0 -78 -79zM1339 1036q123 21 183 21q154 0 280.5 -51
t225.5 -152q-96 180 -227.5 241.5t-289.5 61.5q-77 0 -153 -15.5t-76 -29.5q0 -11 20 -37.5t37 -38.5zM516 608q48 17 119 29t117 12q115 0 197.5 -41.5t131.5 -124.5q30 83 107 124.5t201 41.5h67q29 0 29 19q0 11 -29.5 40.5t-120.5 60t-237 30.5q-151 0 -308 -49.5
t-274 -141.5zM717 442q0 -127 51.5 -200.5t130.5 -73.5q74 0 115 48t41 120q0 103 -76.5 175.5t-218.5 72.5q-145 0 -346 -74q-109 -130 -191 -344q46 18 72 18q35 0 75 -8q39 -8 81 -8q96 0 146 68.5t54 205.5h66z" />
    <glyph glyph-name="uni0D9A0DCA200D0DC00DD2" horiz-adv-x="2263" 
d="M174 27l-61 22q91 263 173.5 393t198.5 226q-8 71 -38 108t-68 37q-57 0 -94 -94q-18 -49 -27.5 -64.5t-30.5 -28t-45 -12.5q-38 0 -59 24.5t-21 66.5q0 59 62.5 125.5t159.5 66.5q177 0 213 -190q93 72 262 131t313 59q179 0 308.5 -69t129.5 -162q0 -38 -18.5 -60
t-81.5 -22h-86q-110 0 -179 -56.5t-69 -132.5q0 -114 110 -170.5t330 -56.5q239 0 388 118t149 321q0 115 -66.5 200t-182.5 120t-240 40q-244 13 -312.5 56.5t-68.5 135.5q0 104 103 165.5t298 61.5q185 0 325 -74t140 -190q0 -59 -41.5 -103t-103.5 -56
q102 -53 158.5 -150.5t56.5 -218.5q0 -283 -182.5 -438.5t-436.5 -155.5q-159 0 -266 47t-162 141q-24 -88 -80.5 -138t-134.5 -50q-71 0 -124.5 36t-90.5 109q-36 -70 -95.5 -107.5t-121.5 -37.5q-57 0 -92.5 17.5t-71.5 56.5q-30 32 -49 32q-42 0 -78 -79zM1300 1139
q0 -44 58 -69.5t174 -31.5q41 -2 179 -13q116 -9 151 -9q75 0 113 25t38 61q0 58 -121.5 87.5t-363.5 29.5q-117 0 -172.5 -16t-55.5 -64zM516 608q48 17 119 29t117 12q115 0 197.5 -41.5t131.5 -124.5q32 83 109 124.5t199 41.5h67q29 0 29 19q0 11 -29.5 40.5t-120.5 60
t-237 30.5q-151 0 -308 -49.5t-274 -141.5zM717 442q0 -127 51.5 -200.5t130.5 -73.5q74 0 115 48t41 120q0 103 -76.5 175.5t-218.5 72.5q-145 0 -346 -74q-109 -130 -191 -344q46 18 72 18q35 0 75 -8q39 -8 81 -8q96 0 146 68.5t54 205.5h66z" />
    <glyph glyph-name="uni0D9A0DCA200D0DC00DD3" horiz-adv-x="2263" 
d="M174 27l-61 22q91 263 173.5 393t198.5 226q-8 71 -38 108t-68 37q-57 0 -94 -94q-18 -49 -27.5 -64.5t-30.5 -28t-45 -12.5q-38 0 -59 24.5t-21 66.5q0 59 62.5 125.5t159.5 66.5q177 0 213 -190q93 72 262 131t313 59q179 0 308.5 -69t129.5 -162q0 -38 -18.5 -60
t-81.5 -22h-86q-110 0 -179 -56.5t-69 -132.5q0 -114 110 -170.5t330 -56.5q239 0 388 118t149 321q0 150 -115.5 251.5t-437.5 112.5q-169 10 -243 53t-74 135q0 109 110 168t291 59q185 0 325 -74t140 -190q0 -59 -41.5 -103t-103.5 -56q102 -53 158.5 -150.5t56.5 -218.5
q0 -283 -182.5 -438.5t-436.5 -155.5q-159 0 -266 47t-162 141q-24 -88 -80.5 -138t-134.5 -50q-71 0 -124.5 36t-90.5 109q-36 -70 -95.5 -107.5t-121.5 -37.5q-57 0 -92.5 17.5t-71.5 56.5q-30 32 -49 32q-42 0 -78 -79zM516 608q48 17 119 29t117 12q115 0 197.5 -41.5
t131.5 -124.5q32 83 109 124.5t199 41.5h67q29 0 29 19q0 11 -29.5 40.5t-120.5 60t-237 30.5q-151 0 -308 -49.5t-274 -141.5zM717 442q0 -127 51.5 -200.5t130.5 -73.5q74 0 115 48t41 120q0 103 -76.5 175.5t-218.5 72.5q-145 0 -346 -74q-109 -130 -191 -344
q46 18 72 18q35 0 75 -8q39 -8 81 -8q96 0 146 68.5t54 205.5h66zM1751 1020q-25 15 -40 44t-15 58q0 57 45 88q-97 9 -213 9q-118 0 -173 -18t-55 -64q0 -43 54.5 -67t156.5 -31q129 -7 240 -19zM2013 1102q0 40 -38.5 69t-110.5 29q-52 0 -77.5 -19.5t-25.5 -58.5
q0 -42 44 -69t106 -27q49 0 75.5 24t26.5 52z" />
    <glyph glyph-name="uni0D9A0DCA200D0DC00DD4" horiz-adv-x="2263" 
d="M174 27l-61 22q91 263 173.5 393t198.5 226q-8 71 -38 108t-68 37q-57 0 -94 -94q-18 -49 -27.5 -64.5t-30.5 -28t-45 -12.5q-38 0 -59 24.5t-21 66.5q0 59 62.5 125.5t159.5 66.5q177 0 213 -190q93 72 262 131t313 59q179 0 308.5 -69t129.5 -162q0 -38 -18.5 -60
t-81.5 -22h-86q-111 0 -179.5 -55.5t-68.5 -133.5q0 -114 110 -170.5t330 -56.5q244 0 390.5 117.5t146.5 298.5q0 176 -77 306.5t-201 198.5t-238 68q-143 0 -249 -48.5t-175 -145.5l-55 34q70 110 194 168t281 58q252 0 419 -180.5t167 -456.5v-1057h-910q-88 0 -141 50.5
t-53 135.5q0 84 57.5 140.5t138.5 56.5q148 0 211 -143l-57 -27q-58 104 -143 104q-61 0 -101.5 -37t-40.5 -92q0 -60 35 -91.5t94 -31.5h826v670q-81 -127 -228 -195.5t-307 -68.5t-267 46.5t-161 139.5q-24 -89 -80 -137.5t-135 -48.5q-71 0 -124.5 36t-90.5 109
q-36 -70 -95.5 -107.5t-121.5 -37.5q-57 0 -92.5 17.5t-71.5 56.5q-30 32 -49 32q-42 0 -78 -79zM516 608q48 17 119 29t117 12q115 0 197.5 -41.5t131.5 -124.5q27 81 97.5 123.5t210.5 42.5h67q29 0 29 19q0 11 -29.5 40.5t-120.5 60t-237 30.5q-151 0 -308 -49.5
t-274 -141.5zM717 442q0 -127 51.5 -200.5t130.5 -73.5q74 0 115 48t41 120q0 103 -76.5 175.5t-218.5 72.5q-145 0 -346 -74q-109 -130 -191 -344q46 18 72 18q35 0 75 -8q39 -8 81 -8q96 0 146 68.5t54 205.5h66z" />
    <glyph glyph-name="uni0D9A0DCA200D0DC00DD6" horiz-adv-x="2263" 
d="M174 27l-61 22q91 263 173.5 393t198.5 226q-8 71 -38 108t-68 37q-57 0 -94 -94q-18 -49 -27.5 -64.5t-30.5 -28t-45 -12.5q-38 0 -59 24.5t-21 66.5q0 59 62.5 125.5t159.5 66.5q177 0 213 -190q93 72 262 131t313 59q179 0 308.5 -69t129.5 -162q0 -38 -18.5 -60
t-81.5 -22h-86q-110 0 -179 -56.5t-69 -132.5q0 -114 110 -170.5t330 -56.5q244 0 390.5 117.5t146.5 298.5q0 176 -77 306.5t-201 198.5t-238 68q-143 0 -249 -48.5t-175 -145.5l-55 34q70 110 194 168t281 58q254 0 420 -182.5t166 -460.5v-1063h-58q-99 125 -243 125
q-53 0 -103 -8t-112 -32l-117 -44q-121 -45 -246 -45q-105 0 -165 57.5t-60 142.5q0 77 55 137t141 60q148 0 211 -143l-57 -27q-53 104 -145 104q-67 0 -103.5 -39.5t-36.5 -87.5q0 -60 41 -99.5t101 -39.5q75 0 138.5 21.5t123.5 46.5q175 82 297 82q143 0 254 -90v626
q-81 -127 -228 -195.5t-307 -68.5t-267 46.5t-161 139.5q-24 -89 -80 -137.5t-135 -48.5q-71 0 -124.5 36t-90.5 109q-36 -70 -95.5 -107.5t-121.5 -37.5q-57 0 -92.5 17.5t-71.5 56.5q-30 32 -49 32q-42 0 -78 -79zM516 608q48 17 119 29t117 12q115 0 197.5 -41.5
t131.5 -124.5q30 83 107 124.5t201 41.5h67q29 0 29 19q0 11 -29.5 40.5t-120.5 60t-237 30.5q-151 0 -308 -49.5t-274 -141.5zM717 442q0 -127 51.5 -200.5t130.5 -73.5q74 0 115 48t41 120q0 103 -76.5 175.5t-218.5 72.5q-145 0 -346 -74q-109 -130 -191 -344
q46 18 72 18q35 0 75 -8q39 -8 81 -8q96 0 146 68.5t54 205.5h66z" />
    <glyph glyph-name="uni0D9A0DCA200D0DC2" horiz-adv-x="2187" 
d="M174 27l-61 22q91 263 173.5 393t198.5 226q-8 71 -38 108t-68 37q-57 0 -94 -94q-18 -49 -27.5 -64.5t-30.5 -28t-45 -12.5q-38 0 -59 24.5t-21 66.5q0 59 62.5 125.5t159.5 66.5q177 0 213 -190q93 72 262 131t313 59q179 0 308.5 -69t129.5 -162q0 -38 -18.5 -60
t-81.5 -22h-86q-103 0 -163 -55t-60 -154q0 -104 103.5 -155.5t311.5 -51.5q225 0 334 52t109 159q0 44 -20 81t-60 66q-49 -37 -121 -49q35 -34 35 -78q0 -70 -60.5 -104.5t-164.5 -34.5h-84q-101 0 -154 37t-53 98q0 76 68.5 105.5t189.5 29.5h38q20 0 36 -2q12 0 29 -1
q16 -1 28 -1q107 0 156 31q-71 29 -164 29h-88q7 141 70.5 226t158.5 85q73 0 122.5 -45.5t49.5 -122.5q0 -67 -47 -143q58 -34 88.5 -96t30.5 -136q0 -168 -135.5 -261t-388.5 -93q-177 0 -277 41t-168 139q-22 -81 -78.5 -130.5t-138.5 -49.5q-71 0 -124.5 36t-90.5 109
q-36 -70 -95.5 -107.5t-121.5 -37.5q-57 0 -92.5 17.5t-71.5 56.5q-30 32 -49 32q-42 0 -78 -79zM516 608q48 17 119 29t117 12q115 0 197.5 -41.5t131.5 -124.5q35 81 117.5 123.5t190.5 42.5h67q29 0 29 19q0 11 -29.5 40.5t-120.5 60t-237 30.5q-151 0 -308 -49.5
t-274 -141.5zM1681 649h17q121 0 209 -35q16 36 16 54q0 33 -31.5 55t-81.5 22q-57 0 -86.5 -22t-42.5 -74zM717 442q0 -127 51.5 -200.5t130.5 -73.5q74 0 115 48t41 120q0 103 -76.5 175.5t-218.5 72.5q-145 0 -346 -74q-109 -130 -191 -344q46 18 72 18q35 0 75 -8
q39 -8 81 -8q96 0 146 68.5t54 205.5h66zM1382 397q0 -30 46.5 -44.5t140.5 -14.5q99 0 148.5 15.5t49.5 47.5q0 35 -43.5 49.5t-140.5 14.5q-115 0 -158 -15.5t-43 -52.5z" />
    <glyph glyph-name="uni0D9A0DCA200D0DC20DCA" horiz-adv-x="2187" 
d="M174 27l-61 22q91 263 173.5 393t198.5 226q-8 71 -38 108t-68 37q-57 0 -94 -94q-18 -49 -27.5 -64.5t-30.5 -28t-45 -12.5q-38 0 -59 24.5t-21 66.5q0 59 62.5 125.5t159.5 66.5q177 0 213 -190q93 72 262 131t313 59q179 0 308.5 -69t129.5 -162q0 -38 -18.5 -60
t-81.5 -22h-86q-103 0 -163 -55t-60 -154q0 -104 103.5 -155.5t311.5 -51.5q225 0 334 52t109 159q0 44 -20 81t-60 66q-49 -37 -121 -49q35 -34 35 -78q0 -70 -60.5 -104.5t-164.5 -34.5h-84q-101 0 -154 37t-53 98q0 76 68.5 105.5t189.5 29.5h38q20 0 36 -2q12 0 29 -1
q16 -1 28 -1q107 0 156 31q-71 29 -164 29h-88q7 141 70.5 226t158.5 85h10v498h62q37 -32 119 -76q78 -42 111.5 -88t33.5 -109q0 -67 -45 -113t-119 -46q-37 0 -96 18v-98q48 -23 72 -61.5t24 -92.5q0 -67 -47 -143q58 -34 88.5 -96t30.5 -136q0 -168 -135.5 -261
t-388.5 -93q-177 0 -277 41t-168 139q-22 -81 -78.5 -130.5t-138.5 -49.5q-71 0 -124.5 36t-90.5 109q-36 -70 -95.5 -107.5t-121.5 -37.5q-57 0 -92.5 17.5t-71.5 56.5q-30 32 -49 32q-42 0 -78 -79zM1915 1051q38 -17 76 -17q42 0 68 27t26 67q0 56 -32.5 91.5
t-101.5 73.5q-18 9 -36 20v-262zM516 608q48 17 119 29t117 12q115 0 197.5 -41.5t131.5 -124.5q35 81 117.5 123.5t190.5 42.5h67q29 0 29 19q0 11 -29.5 40.5t-120.5 60t-237 30.5q-151 0 -308 -49.5t-274 -141.5zM1681 649h17q121 0 209 -35q16 36 16 54q0 33 -31.5 55
t-81.5 22q-57 0 -86.5 -22t-42.5 -74zM717 442q0 -127 51.5 -200.5t130.5 -73.5q74 0 115 48t41 120q0 103 -76.5 175.5t-218.5 72.5q-145 0 -346 -74q-109 -130 -191 -344q46 18 72 18q35 0 75 -8q39 -8 81 -8q96 0 146 68.5t54 205.5h66zM1382 397q0 -30 46.5 -44.5
t140.5 -14.5q99 0 148.5 15.5t49.5 47.5q0 35 -43.5 49.5t-140.5 14.5q-115 0 -158 -15.5t-43 -52.5z" />
    <glyph glyph-name="uni0D9A0DCA200D0DC20DD2" horiz-adv-x="2187" 
d="M174 27l-61 22q91 263 173.5 393t198.5 226q-8 71 -38 108t-68 37q-57 0 -94 -94q-18 -49 -27.5 -64.5t-30.5 -28t-45 -12.5q-38 0 -59 24.5t-21 66.5q0 59 62.5 125.5t159.5 66.5q177 0 213 -190q93 72 262 131t313 59q49 0 94 -6q-42 32 -71 85.5t-29 102.5
q0 144 120.5 225.5t358.5 81.5q239 0 360 -79.5t121 -227.5q0 -49 -34 -109t-95 -102q37 -24 55.5 -59t18.5 -80q0 -67 -47 -143q58 -34 88.5 -96t30.5 -136q0 -168 -135.5 -261t-388.5 -93q-177 0 -277 41t-168 139q-22 -81 -78.5 -130.5t-138.5 -49.5q-71 0 -124.5 36
t-90.5 109q-36 -70 -95.5 -107.5t-121.5 -37.5q-57 0 -92.5 17.5t-71.5 56.5q-30 32 -49 32q-42 0 -78 -79zM1649 528q12 0 29 -1q16 -1 28 -1q107 0 156 31q-71 29 -164 29h-88q7 141 70.5 226t158.5 85q6 0 14 -1q7 -1 15 -1l34 28q89 69 89 138q0 82 -94.5 120t-311.5 38
q-215 0 -309 -38t-94 -120q0 -60 52 -117t136 -94q90 -39 135 -85t45 -99q0 -38 -18.5 -60t-81.5 -22h-86q-103 0 -163 -55t-60 -154q0 -104 103.5 -155.5t311.5 -51.5q225 0 334 52t109 159q0 44 -20 81t-60 66q-49 -37 -121 -49q35 -34 35 -78q0 -70 -60.5 -104.5
t-164.5 -34.5h-84q-101 0 -154 37t-53 98q0 76 68.5 105.5t189.5 29.5h38q20 0 36 -2zM516 608q48 17 119 29t117 12q115 0 197.5 -41.5t131.5 -124.5q35 81 117.5 123.5t190.5 42.5h67q29 0 29 19q0 11 -29.5 40.5t-120.5 60t-237 30.5q-151 0 -308 -49.5t-274 -141.5z
M1681 649h17q121 0 209 -35q16 36 16 54q0 33 -31.5 55t-81.5 22q-57 0 -86.5 -22t-42.5 -74zM717 442q0 -127 51.5 -200.5t130.5 -73.5q74 0 115 48t41 120q0 103 -76.5 175.5t-218.5 72.5q-145 0 -346 -74q-109 -130 -191 -344q46 18 72 18q35 0 75 -8q39 -8 81 -8
q96 0 146 68.5t54 205.5h66zM1382 397q0 -30 46.5 -44.5t140.5 -14.5q99 0 148.5 15.5t49.5 47.5q0 35 -43.5 49.5t-140.5 14.5q-115 0 -158 -15.5t-43 -52.5z" />
    <glyph glyph-name="uni0D9A0DCA200D0DC20DD3" horiz-adv-x="2187" 
d="M174 27l-61 22q91 263 173.5 393t198.5 226q-8 71 -38 108t-68 37q-34 0 -58.5 -28t-35.5 -66q-20 -65 -47.5 -85t-55.5 -20q-38 0 -59 24.5t-21 66.5q0 59 62.5 125.5t159.5 66.5q177 0 213 -190q93 72 262 131t313 59q49 0 94 -6q-42 32 -71 85.5t-29 102.5
q0 139 115 223t335 84q237 0 358.5 -86t121.5 -208q0 -62 -28.5 -122.5t-78.5 -95.5q41 -25 61.5 -61t20.5 -84q0 -67 -47 -143q58 -34 88.5 -96t30.5 -136q0 -168 -135.5 -261t-388.5 -93q-177 0 -277 41t-168 139q-22 -81 -78.5 -130.5t-138.5 -49.5q-71 0 -124.5 36
t-90.5 109q-36 -70 -95.5 -107.5t-121.5 -37.5q-57 0 -92.5 17.5t-71.5 56.5q-30 32 -49 32q-42 0 -78 -79zM1575 530q48 0 80 -2q31 -2 51 -2q107 0 156 31q-71 29 -164 29h-88q6 103 38 173.5t91 108.5q-60 39 -60 121q0 56 33 117t82 94q-88 19 -238 19
q-187 0 -280.5 -39.5t-93.5 -118.5q0 -60 52 -117t136 -94q90 -39 135 -85t45 -99q0 -38 -18.5 -60t-81.5 -22h-86q-103 0 -163 -55t-60 -154q0 -104 103.5 -155.5t311.5 -51.5q225 0 334 52t109 159q0 44 -20 81t-60 66q-49 -37 -121 -49q35 -34 35 -78q0 -70 -60.5 -104.5
t-164.5 -34.5h-84q-101 0 -154 37t-53 98q0 76 68.5 105.5t189.5 29.5zM1868 1178q-55 -32 -89 -84t-34 -97q0 -88 82 -88q50 0 85.5 48.5t35.5 99.5q0 40 -19 74t-61 47zM516 608q48 17 119 29t117 12q115 0 197.5 -41.5t131.5 -124.5q35 81 117.5 123.5t190.5 42.5h67
q29 0 29 19q0 11 -29.5 40.5t-120.5 60t-237 30.5q-151 0 -308 -49.5t-274 -141.5zM1681 649h17q121 0 209 -35q16 36 16 54q0 33 -31.5 55t-81.5 22q-57 0 -86.5 -22t-42.5 -74zM717 442q0 -127 51.5 -200.5t130.5 -73.5q74 0 115 48t41 120q0 103 -76.5 175.5t-218.5 72.5
q-145 0 -346 -74q-109 -130 -191 -344q46 18 72 18q35 0 75 -8q39 -8 81 -8q96 0 146 68.5t54 205.5h66zM1382 397q0 -30 46.5 -44.5t140.5 -14.5q99 0 148.5 15.5t49.5 47.5q0 35 -43.5 49.5t-140.5 14.5q-115 0 -158 -15.5t-43 -52.5z" />
    <glyph glyph-name="uni0D9A0DCA200D0DC20DD4" horiz-adv-x="2187" 
d="M174 27l-61 22q91 263 173.5 393t198.5 226q-8 71 -38 108t-68 37q-57 0 -94 -94q-18 -49 -27.5 -64.5t-30.5 -28t-45 -12.5q-38 0 -59 24.5t-21 66.5q0 59 62.5 125.5t159.5 66.5q177 0 213 -190q93 72 262 131t313 59q179 0 308.5 -69t129.5 -162q0 -38 -18.5 -60
t-81.5 -22h-86q-103 0 -163 -55t-60 -154q0 -104 103.5 -155.5t311.5 -51.5q225 0 334 52t109 159q0 44 -20 81t-60 66q-49 -37 -121 -49q35 -34 35 -78q0 -70 -60.5 -104.5t-164.5 -34.5h-84q-101 0 -154 37t-53 98q0 76 68.5 105.5t189.5 29.5h38q20 0 36 -2q12 0 29 -1
q16 -1 28 -1q107 0 156 31q-71 29 -164 29h-88q7 141 70.5 226t158.5 85q73 0 122.5 -45.5t49.5 -122.5q0 -67 -47 -143q58 -34 88.5 -96t30.5 -136v-825h-828q-88 0 -141 50.5t-53 135.5q0 84 57.5 140.5t138.5 56.5q69 0 125.5 -36t85.5 -107l-57 -27q-58 104 -143 104
q-61 0 -101.5 -37t-40.5 -92q0 -60 35 -91.5t94 -31.5h744v543q-67 -69 -177 -103t-263 -34q-177 0 -277 41t-168 139q-22 -81 -78.5 -130.5t-138.5 -49.5q-71 0 -124.5 36t-90.5 109q-36 -70 -95.5 -107.5t-121.5 -37.5q-57 0 -92.5 17.5t-71.5 56.5q-30 32 -49 32
q-42 0 -78 -79zM516 608q48 17 119 29t117 12q115 0 197.5 -41.5t131.5 -124.5q35 81 117.5 123.5t190.5 42.5h67q29 0 29 19q0 11 -29.5 40.5t-120.5 60t-237 30.5q-151 0 -308 -49.5t-274 -141.5zM1681 649h17q121 0 209 -35q16 36 16 54q0 33 -31.5 55t-81.5 22
q-57 0 -86.5 -22t-42.5 -74zM717 442q0 -127 51.5 -200.5t130.5 -73.5q74 0 115 48t41 120q0 103 -76.5 175.5t-218.5 72.5q-145 0 -346 -74q-109 -130 -191 -344q46 18 72 18q35 0 75 -8q39 -8 81 -8q96 0 146 68.5t54 205.5h66zM1382 397q0 -30 46.5 -44.5t140.5 -14.5
q99 0 148.5 15.5t49.5 47.5q0 35 -43.5 49.5t-140.5 14.5q-115 0 -158 -15.5t-43 -52.5z" />
    <glyph glyph-name="uni0D9A0DCA200D0DC20DD6" horiz-adv-x="2187" 
d="M174 27l-61 22q91 263 173.5 393t198.5 226q-8 71 -38 108t-68 37q-57 0 -94 -94q-18 -49 -27.5 -64.5t-30.5 -28t-45 -12.5q-38 0 -59 24.5t-21 66.5q0 59 62.5 125.5t159.5 66.5q177 0 213 -190q93 72 262 131t313 59q179 0 308.5 -69t129.5 -162q0 -38 -18.5 -60
t-81.5 -22h-86q-103 0 -163 -55t-60 -154q0 -104 103.5 -155.5t311.5 -51.5q225 0 334 52t109 159q0 44 -20 81t-60 66q-49 -37 -121 -49q35 -34 35 -78q0 -70 -60.5 -104.5t-164.5 -34.5h-84q-101 0 -154 37t-53 98q0 76 68.5 105.5t189.5 29.5h38q20 0 36 -2q12 0 29 -1
q16 -1 28 -1q107 0 156 31q-71 29 -164 29h-88q7 141 70.5 226t158.5 85q73 0 122.5 -45.5t49.5 -122.5q0 -67 -47 -143q58 -34 88.5 -96t30.5 -136v-837h-58q-98 125 -243 125q-107 0 -195 -33l-136 -51q-121 -45 -247 -45q-105 0 -165 57.5t-60 142.5q0 78 55.5 137.5
t141.5 59.5q68 0 124.5 -36t85.5 -107l-57 -27q-53 104 -145 104q-67 0 -103.5 -39.5t-36.5 -87.5q0 -60 41 -99.5t101 -39.5q75 0 138.5 21.5t123.5 46.5q175 82 297 82q143 0 254 -90v499q-67 -69 -177 -103t-263 -34q-177 0 -277 41t-168 139q-22 -81 -78.5 -130.5
t-138.5 -49.5q-71 0 -124.5 36t-90.5 109q-36 -70 -95.5 -107.5t-121.5 -37.5q-57 0 -92.5 17.5t-71.5 56.5q-30 32 -49 32q-42 0 -78 -79zM516 608q48 17 119 29t117 12q115 0 197.5 -41.5t131.5 -124.5q35 81 117.5 123.5t190.5 42.5h67q29 0 29 19q0 11 -29.5 40.5
t-120.5 60t-237 30.5q-151 0 -308 -49.5t-274 -141.5zM1681 649h17q121 0 209 -35q16 36 16 54q0 33 -31.5 55t-81.5 22q-57 0 -86.5 -22t-42.5 -74zM717 442q0 -127 51.5 -200.5t130.5 -73.5q74 0 115 48t41 120q0 103 -76.5 175.5t-218.5 72.5q-145 0 -346 -74
q-109 -130 -191 -344q46 18 72 18q35 0 75 -8q39 -8 81 -8q96 0 146 68.5t54 205.5h66zM1382 397q0 -30 46.5 -44.5t140.5 -14.5q99 0 148.5 15.5t49.5 47.5q0 35 -43.5 49.5t-140.5 14.5q-115 0 -158 -15.5t-43 -52.5z" />
    <glyph glyph-name="uni0D9B0DCA" 
d="M866 45q-28 0 -61 5q-34 5 -60 5q-97 0 -163 -114l-50 34q64 102 177 199q75 65 106 120.5t31 115.5q0 106 -74 151t-237 45q-177 0 -267 -71t-90 -177q0 -53 13 -102t40 -94q10 63 48.5 95t89.5 32q58 0 101.5 -39.5t43.5 -97.5q0 -62 -42.5 -107t-102.5 -45
q-122 0 -189 117.5t-67 271.5q0 177 109.5 281t312.5 104q190 0 287.5 -96t97.5 -236q0 -92 -34 -162.5t-101 -120.5q-39 -29 -60 -50q14 6 30 11q175 51 285.5 203t110.5 291q0 97 -81.5 185t-209 140t-246.5 52q-105 0 -174.5 -16.5t-158.5 -52.5l-33 53q30 15 104 43
q-59 66 -59 96q0 44 93.5 76.5t207.5 32.5q306 0 476.5 -191.5t170.5 -451.5q0 -157 -44.5 -281.5t-135 -189t-195.5 -64.5zM422 1036q124 21 190 21q142 0 280 -57.5t232 -165.5q-24 63 -99.5 149.5t-185.5 130t-245 43.5q-78 0 -153.5 -15.5t-75.5 -29.5q0 -10 18 -35.5
t39 -40.5zM289 145q0 -38 22.5 -58.5t57.5 -20.5q34 0 57 23t23 61q0 29 -21.5 51t-58.5 22q-32 0 -56 -23t-24 -55z" />
    <glyph glyph-name="uni0D9B0DD2" 
d="M866 45q-28 0 -61 5q-34 5 -60 5q-97 0 -163 -114l-50 34q64 102 177 199q75 65 106 120.5t31 115.5q0 106 -74 151t-237 45q-177 0 -267 -71t-90 -177q0 -53 13 -102t40 -94q10 63 48.5 95t89.5 32q58 0 101.5 -39.5t43.5 -97.5q0 -62 -42.5 -107t-102.5 -45
q-122 0 -189 117.5t-67 271.5q0 177 109.5 281t312.5 104q190 0 287.5 -96t97.5 -236q0 -92 -34 -162.5t-101 -120.5q-39 -29 -60 -50q14 6 30 11q190 54 287 239.5t97 310.5q0 60 -31.5 114.5t-99.5 97t-142.5 60t-181.5 22.5q-308 12 -384.5 54t-76.5 141q0 106 116 166.5
t327 60.5q199 0 342 -73.5t143 -190.5q0 -59 -41.5 -103t-103.5 -56q117 -65 176 -175.5t59 -267.5q0 -231 -120 -353t-255 -122zM301 1143q0 -51 63.5 -76.5t231.5 -32.5q43 -1 178 -10q121 -8 150 -8q75 0 113 25t38 61q0 58 -126.5 87.5t-379.5 29.5q-136 0 -202 -15
t-66 -61zM289 145q0 -38 22.5 -58.5t57.5 -20.5q34 0 57 23t23 61q0 29 -21.5 51t-58.5 22q-32 0 -56 -23t-24 -55z" />
    <glyph glyph-name="uni0D9B0DD3" 
d="M866 45q-28 0 -61 5q-34 5 -60 5q-97 0 -163 -114l-50 34q64 102 177 199q75 65 106 120.5t31 115.5q0 106 -74 151t-237 45q-177 0 -267 -71t-90 -177q0 -53 13 -102t40 -94q10 63 48.5 95t89.5 32q58 0 101.5 -39.5t43.5 -97.5q0 -62 -42.5 -107t-102.5 -45
q-122 0 -189 117.5t-67 271.5q0 177 109.5 281t312.5 104q190 0 287.5 -96t97.5 -236q0 -92 -34 -162.5t-101 -120.5q-39 -29 -60 -50q14 6 30 11q188 53 286 236.5t98 313.5q0 125 -118 205t-355 89q-292 13 -367.5 55.5t-75.5 133.5q0 106 113 169.5t330 63.5
q187 0 336 -74.5t149 -189.5q0 -59 -41.5 -103t-103.5 -56q126 -68 180.5 -176.5t54.5 -266.5q0 -232 -120.5 -353.5t-254.5 -121.5zM811 1022q-53 33 -53 100q0 57 45 88q-81 9 -234 9q-151 0 -209.5 -19.5t-58.5 -64.5t63 -70t204 -30q120 -4 243 -13zM1075 1102
q0 40 -38.5 69t-110.5 29q-103 0 -103 -78q0 -42 44 -69t106 -27q49 0 75.5 24t26.5 52zM289 145q0 -38 22.5 -58.5t57.5 -20.5q34 0 57 23t23 61q0 29 -21.5 51t-58.5 22q-32 0 -56 -23t-24 -55z" />
    <glyph glyph-name="uni0D9B0DD4" 
d="M866 45q-28 0 -61 5q-34 5 -60 5q-97 0 -163 -114l-50 34q64 102 177 199q75 65 106 120.5t31 115.5q0 106 -74 151t-237 45q-177 0 -267 -71t-90 -177q0 -53 13 -102t40 -94q10 63 48.5 95t89.5 32q58 0 101.5 -39.5t43.5 -97.5q0 -62 -42.5 -107t-102.5 -45
q-122 0 -189 117.5t-67 271.5q0 177 109.5 281t312.5 104q190 0 287.5 -96t97.5 -236q0 -92 -34 -162.5t-101 -120.5q-39 -29 -60 -50q14 6 30 11q176 51 274.5 218.5t98.5 343.5q0 229 -157 352t-326 123q-126 0 -243 -54t-199 -159l-51 43q89 110 214 173t273 63
q248 0 425 -182.5t177 -479.5v-1032h-909q-89 0 -142 50.5t-53 135.5q0 83 57.5 140t139.5 57q148 0 211 -143l-58 -27q-55 104 -143 104q-62 0 -101.5 -37t-39.5 -92q0 -60 35 -91.5t94 -31.5h825v619q-51 -82 -129 -125t-162 -43zM449 150q0 29 -21.5 51t-58.5 22
q-32 0 -56 -23t-24 -55q0 -38 22.5 -58.5t57.5 -20.5q34 0 57 23t23 61z" />
    <glyph glyph-name="uni0D9B0DD6" 
d="M866 45q-28 0 -61 5q-34 5 -60 5q-97 0 -163 -114l-50 34q64 102 177 199q75 65 106 120.5t31 115.5q0 106 -74 151t-237 45q-177 0 -267 -71t-90 -177q0 -53 13 -102t40 -94q10 63 48.5 95t89.5 32q58 0 101.5 -39.5t43.5 -97.5q0 -62 -42.5 -107t-102.5 -45
q-122 0 -189 117.5t-67 271.5q0 177 109.5 281t312.5 104q190 0 287.5 -96t97.5 -236q0 -92 -34 -162.5t-101 -120.5q-39 -29 -60 -50q14 6 30 11q176 51 274.5 218.5t98.5 343.5q0 229 -157 352t-326 123q-126 0 -243 -54t-199 -159l-51 43q89 110 214 173t273 63
q248 0 425 -182.5t177 -479.5v-1044h-57q-99 125 -244 125q-107 0 -194 -33l-137 -51q-121 -45 -247 -45q-104 0 -164.5 57.5t-60.5 142.5q0 78 55.5 137.5t141.5 59.5q148 0 211 -143l-58 -27q-51 104 -145 104q-66 0 -102.5 -40t-36.5 -87q0 -60 41 -99.5t100 -39.5
q75 0 138.5 21.5t123.5 46.5q175 82 297 82q143 0 254 -90v575q-51 -82 -129 -125t-162 -43zM449 150q0 29 -21.5 51t-58.5 22q-32 0 -56 -23t-24 -55q0 -38 22.5 -58.5t57.5 -20.5q34 0 57 23t23 61z" />
    <glyph glyph-name="uni0D9B.rakar" 
d="M866 45q-28 0 -61 5q-34 5 -60 5q-97 0 -163 -114l-50 34q64 102 177 199q75 65 106 120.5t31 115.5q0 106 -74 151t-237 45q-177 0 -267 -71t-90 -177q0 -53 13 -102t40 -94q10 63 48.5 95t89.5 32q58 0 101.5 -39.5t43.5 -97.5q0 -62 -42.5 -107t-102.5 -45
q-122 0 -189 117.5t-67 271.5q0 177 109.5 281t312.5 104q190 0 287.5 -96t97.5 -236q0 -92 -34 -162.5t-101 -120.5q-39 -29 -60 -50q14 6 30 11q176 51 274.5 218.5t98.5 343.5q0 229 -157 352t-326 123q-126 0 -243 -54t-199 -159l-51 43q89 110 214 173t273 63
q254 0 428 -185.5t174 -517.5q0 -359 -97.5 -593.5t-243 -328.5t-269.5 -94q-158 0 -278.5 87t-229.5 257l51 43q83 -105 186.5 -162t247.5 -57q99 0 205 48.5t188 144.5t114 196.5t32 135.5q-43 -64 -118 -108t-163 -44zM449 150q0 29 -21.5 51t-58.5 22q-32 0 -56 -23
t-24 -55q0 -38 22.5 -58.5t57.5 -20.5q34 0 57 23t23 61z" />
    <glyph glyph-name="uni0D9B0DCA.rakar" 
d="M866 45q-28 0 -61 5q-34 5 -60 5q-97 0 -163 -114l-50 34q64 102 177 199q75 65 106 120.5t31 115.5q0 106 -74 151t-237 45q-177 0 -267 -71t-90 -177q0 -53 13 -102t40 -94q10 63 48.5 95t89.5 32q58 0 101.5 -39.5t43.5 -97.5q0 -62 -42.5 -107t-102.5 -45
q-122 0 -189 117.5t-67 271.5q0 177 109.5 281t312.5 104q190 0 287.5 -96t97.5 -236q0 -92 -34 -162.5t-101 -120.5q-39 -29 -60 -50q14 6 30 11q175 51 285.5 203t110.5 291q0 97 -81.5 185t-209 140t-246.5 52q-105 0 -174.5 -16.5t-158.5 -52.5l-33 53q30 15 104 43
q-59 66 -59 96q0 44 93.5 76.5t207.5 32.5q209 0 354.5 -88.5t219 -248t73.5 -329.5q0 -350 -81.5 -587.5t-232.5 -351.5t-296 -114q-158 0 -278.5 87t-229.5 257l51 43q83 -105 186.5 -162t247.5 -57q187 0 348.5 146.5t190.5 378.5l-37 -45q-105 -107 -244 -107zM422 1036
q124 21 190 21q142 0 280 -57.5t232 -165.5q-24 63 -99.5 149.5t-185.5 130t-245 43.5q-78 0 -153.5 -15.5t-75.5 -29.5q0 -10 18 -35.5t39 -40.5zM289 145q0 -38 22.5 -58.5t57.5 -20.5q34 0 57 23t23 61q0 29 -21.5 51t-58.5 22q-32 0 -56 -23t-24 -55z" />
    <glyph glyph-name="uni0D9B0DD2.rakar" 
d="M866 45q-28 0 -61 5q-34 5 -60 5q-97 0 -163 -114l-50 34q64 102 177 199q75 65 106 120.5t31 115.5q0 106 -74 151t-237 45q-177 0 -267 -71t-90 -177q0 -53 13 -102t40 -94q10 63 48.5 95t89.5 32q58 0 101.5 -39.5t43.5 -97.5q0 -62 -42.5 -107t-102.5 -45
q-122 0 -189 117.5t-67 271.5q0 177 109.5 281t312.5 104q190 0 287.5 -96t97.5 -236q0 -92 -34 -162.5t-101 -120.5q-39 -29 -60 -50q14 6 30 11q190 54 287 239.5t97 310.5q0 60 -31.5 114.5t-99.5 97t-142.5 60t-181.5 22.5q-308 12 -384.5 54t-76.5 141q0 106 116 166.5
t327 60.5q199 0 342 -73.5t143 -190.5q0 -59 -41.5 -103t-103.5 -56q117 -65 176 -175.5t59 -267.5q0 -341 -95 -582t-242 -337.5t-273 -96.5q-158 0 -278.5 87t-229.5 257l51 43q83 -105 186.5 -162t247.5 -57q99 0 205 48.5t188 144t114 196.5t32 134q-64 -74 -133.5 -112
t-147.5 -38zM301 1143q0 -51 63.5 -76.5t231.5 -32.5q43 -1 178 -10q121 -8 150 -8q75 0 113 25t38 61q0 58 -126.5 87.5t-379.5 29.5q-136 0 -202 -15t-66 -61zM289 145q0 -38 22.5 -58.5t57.5 -20.5q34 0 57 23t23 61q0 29 -21.5 51t-58.5 22q-32 0 -56 -23t-24 -55z" />
    <glyph glyph-name="uni0D9B0DD3.rakar" 
d="M866 45q-28 0 -61 5q-34 5 -60 5q-97 0 -163 -114l-50 34q64 102 177 199q75 65 106 120.5t31 115.5q0 106 -74 151t-237 45q-177 0 -267 -71t-90 -177q0 -53 13 -102t40 -94q10 63 48.5 95t89.5 32q58 0 101.5 -39.5t43.5 -97.5q0 -62 -42.5 -107t-102.5 -45
q-122 0 -189 117.5t-67 271.5q0 177 109.5 281t312.5 104q190 0 287.5 -96t97.5 -236q0 -92 -34 -162.5t-101 -120.5q-39 -29 -60 -50q14 6 30 11q188 53 286 236.5t98 313.5q0 125 -118 205t-355 89q-292 13 -367.5 55.5t-75.5 133.5q0 106 113 169.5t330 63.5
q187 0 336 -74.5t149 -189.5q0 -59 -41.5 -103t-103.5 -56q126 -68 180.5 -176.5t54.5 -266.5q0 -341 -95 -582t-242 -337.5t-273 -96.5q-158 0 -278.5 87t-229.5 257l51 43q83 -105 186.5 -162t247.5 -57q99 0 205 48.5t188 144.5t114 197t32 134q-71 -80 -138.5 -115.5
t-142.5 -35.5zM811 1022q-53 33 -53 100q0 57 45 88q-81 9 -234 9q-151 0 -209.5 -19.5t-58.5 -64.5t63 -70t204 -30q120 -4 243 -13zM1075 1102q0 40 -38.5 69t-110.5 29q-103 0 -103 -78q0 -42 44 -69t106 -27q49 0 75.5 24t26.5 52zM289 145q0 -38 22.5 -58.5t57.5 -20.5
q34 0 57 23t23 61q0 29 -21.5 51t-58.5 22q-32 0 -56 -23t-24 -55z" />
    <glyph glyph-name="uni0D9C0DCA" horiz-adv-x="1444" 
d="M748 14l16 64q49 -12 90 -12q131 0 208 100t77 246q0 162 -85 254t-202 92q-87 0 -154.5 -66.5t-115.5 -199.5l9 2q10 2 19 2q70 0 111 -57t41 -140q0 -103 -84.5 -201t-233.5 -98q-144 0 -237.5 122t-93.5 292q0 210 113 346.5t274 136.5q68 0 96 -8l-4 -66q-37 8 -72 8
q-142 0 -225.5 -94t-83.5 -243q0 -140 86.5 -237t212.5 -97q71 0 118.5 42.5t47.5 119.5q0 57 -21 82.5t-49 25.5q-54 0 -76 -59l-49 18q81 274 184 391t250 117q105 0 191 -70v568h61q42 -35 119 -76q76 -39 111 -85.5t35 -111.5t-45.5 -112t-118.5 -47q-38 0 -97 18v-225
q34 -54 51 -118.5t17 -139.5q0 -197 -104.5 -347.5t-280.5 -150.5q-62 0 -106 14zM1171 1051q40 -17 76 -17q42 0 68 27t26 67q0 53 -29.5 88.5t-103.5 76.5q-18 9 -37 20v-262z" />
    <glyph glyph-name="uni0D9C0DD2" 
d="M748 14l16 64q49 -12 90 -12q131 0 208 100t77 246q0 162 -85 254t-202 92q-87 0 -154.5 -66.5t-115.5 -199.5l9 2q10 2 19 2q70 0 111 -57t41 -140q0 -103 -84.5 -201t-233.5 -98q-144 0 -237.5 122t-93.5 292q0 182 82.5 307t216.5 164l30 -62q-104 -23 -167.5 -111
t-63.5 -218q0 -140 86.5 -237t212.5 -97q71 0 118.5 42.5t47.5 119.5q0 57 -21 82.5t-49 25.5q-54 0 -76 -59l-49 18q47 157 101 262.5t114 159.5q-142 21 -213 88t-71 180q0 124 108.5 215.5t298.5 91.5q201 0 309.5 -86t108.5 -221q0 -81 -39.5 -138.5t-118.5 -92.5
q80 -54 120 -141.5t40 -208.5q0 -197 -104.5 -347.5t-280.5 -150.5q-62 0 -106 14zM780 868q64 29 135 29q22 0 66 -8q90 24 135 67t45 105q0 79 -85.5 118.5t-256.5 39.5q-166 0 -249 -39.5t-83 -118.5q0 -83 78.5 -133.5t214.5 -59.5z" />
    <glyph glyph-name="uni0D9C0DD3" 
d="M748 14l16 64q49 -12 90 -12q131 0 208 100t77 246q0 162 -85 254t-202 92q-87 0 -154.5 -66.5t-115.5 -199.5l9 2q10 2 19 2q70 0 111 -57t41 -140q0 -103 -84.5 -201t-233.5 -98q-144 0 -237.5 122t-93.5 292q0 182 82.5 307t216.5 164l30 -62q-104 -23 -167.5 -111
t-63.5 -218q0 -140 86.5 -237t212.5 -97q71 0 118.5 42.5t47.5 119.5q0 57 -21 82.5t-49 25.5q-54 0 -76 -59l-49 18q47 159 101 264.5t116 157.5q-148 22 -217 93.5t-69 174.5q0 124 108 215.5t299 91.5q203 0 310.5 -88t107.5 -206q0 -90 -39 -151t-117 -93
q79 -54 118.5 -141.5t39.5 -208.5q0 -197 -104.5 -347.5t-280.5 -150.5q-62 0 -106 14zM782 868q58 29 142 29q-31 40 -31 92q0 56 33 117t82 94q-78 19 -189 19q-332 0 -332 -158q0 -83 79 -133t216 -60zM1081 1178q-55 -32 -89 -84t-34 -97q0 -88 80 -88q49 0 86 47.5
t37 100.5q0 96 -80 121z" />
    <glyph glyph-name="uni0D9C0DD4" 
d="M846 45q80 14 118.5 28t81 57t68 115.5t25.5 166.5q0 162 -85 254t-202 92q-87 0 -154.5 -66.5t-115.5 -199.5l9 2q10 2 19 2q70 0 111 -57t41 -140q0 -108 -87.5 -203.5t-230.5 -95.5q-144 0 -237.5 122t-93.5 292q0 210 113 346.5t274 136.5q68 0 96 -8l-4 -66
q-37 8 -72 8q-142 0 -225.5 -94t-83.5 -243q0 -140 86.5 -237t212.5 -97q71 0 118.5 42.5t47.5 119.5q0 57 -21 82.5t-49 25.5q-54 0 -76 -59l-49 18q81 274 184 391t250 117q137 0 230.5 -107.5t93.5 -291.5q0 -92 -20 -176.5t-59 -150t-87.5 -106.5t-94 -57t-126.5 -28
q-79 -11 -114.5 -35t-35.5 -76q0 -55 46.5 -85t164.5 -30q81 0 134 21.5t53 66.5q0 28 -17 62l54 12q28 -40 28 -90q0 -87 -70 -144t-177 -57q-130 0 -205.5 57.5t-75.5 157.5q0 96 50.5 142t158.5 63z" />
    <glyph glyph-name="uni0D9C0DD6" 
d="M807 80l43 51q40 -47 90 -47q77 0 138 95.5t61 230.5q0 164 -86 256t-201 92q-87 0 -154.5 -66.5t-115.5 -199.5l9 2q10 2 19 2q70 0 111 -57t41 -140q0 -103 -84.5 -201t-233.5 -98q-144 0 -237.5 122t-93.5 292q0 210 113 346.5t274 136.5q68 0 96 -8l-4 -66
q-37 8 -72 8q-142 0 -225.5 -94t-83.5 -243q0 -140 86.5 -237t212.5 -97q71 0 118.5 42.5t47.5 119.5q0 57 -21 82.5t-49 25.5q-54 0 -76 -59l-49 18q81 274 184 391t250 117q134 0 229 -109.5t95 -295.5q0 -176 -78 -313.5t-188 -158.5l80 -67l-27 -51q-61 20 -90 20
q-57 0 -57 -28q0 -20 16 -37t94 -50l-28 -59q-56 27 -93 27q-28 0 -48.5 -13.5t-20.5 -31.5q0 -38 38 -57t115 -19q96 0 141.5 30t45.5 101l65 4q17 -34 17 -82q0 -84 -74 -143.5t-180 -59.5q-109 0 -184.5 56t-75.5 151q0 42 34.5 77.5t94.5 39.5q-29 31 -29 68q0 35 30 59
t83 29q-29 26 -58 49q-29 22 -55 47z" />
    <glyph glyph-name="uni0D9C.reph" 
d="M748 14l16 64q49 -12 90 -12q131 0 208 100t77 246q0 162 -85 254t-202 92q-87 0 -154.5 -66.5t-115.5 -199.5l9 2q10 2 19 2q70 0 111 -57t41 -140q0 -103 -84.5 -201t-233.5 -98q-144 0 -237.5 122t-93.5 292q0 171 79.5 300t208.5 167q-75 67 -75 149q0 96 81.5 155.5
t213.5 59.5q137 0 214.5 -59t77.5 -156q0 -65 -41 -135l20 2q53 5 135 -22t147 -125t65 -252q0 -197 -104.5 -347.5t-280.5 -150.5q-62 0 -106 14zM530 371l-49 18q55 189 126.5 307.5t160.5 167.5q32 19 56 65t24 101q0 61 -66 105.5t-161 44.5q-103 0 -166.5 -43.5
t-63.5 -102.5q0 -48 31.5 -85.5t99.5 -49.5q-45 38 -45 100q0 57 42.5 95.5t105.5 38.5q61 0 102 -39.5t41 -94.5q0 -73 -69 -118t-177 -45q-133 0 -222 -94t-89 -248q0 -140 86.5 -237t212.5 -97q71 0 118.5 42.5t47.5 119.5q0 57 -21 82.5t-49 25.5q-54 0 -76 -59z
M543 1001q0 -37 24 -53t56 -16q35 0 57 17.5t22 51.5q0 29 -21.5 47.5t-55.5 18.5q-82 0 -82 -66z" />
    <glyph glyph-name="uni0D9C.rakar" 
d="M748 14l16 64q49 -12 90 -12q131 0 208 100t77 246q0 162 -85 254t-202 92q-87 0 -154.5 -66.5t-115.5 -199.5l9 2q10 2 19 2q70 0 111 -57t41 -140q0 -103 -84.5 -201t-233.5 -98q-144 0 -237.5 122t-93.5 292q0 210 113 346.5t274 136.5q68 0 96 -8l-4 -66q-37 8 -72 8
q-142 0 -225.5 -94t-83.5 -243q0 -140 86.5 -237t212.5 -97q71 0 118.5 42.5t47.5 119.5q0 57 -21 82.5t-49 25.5q-54 0 -76 -59l-49 18q81 274 184 391t250 117q137 0 230.5 -107.5t93.5 -291.5q0 -367 -103.5 -593.5t-246 -313.5t-260.5 -87q-158 0 -278.5 87t-229.5 257
l51 43q83 -105 186.5 -162t247.5 -57q172 0 327.5 128.5t205.5 353.5q-110 -154 -285 -154q-62 0 -106 14z" />
    <glyph glyph-name="uni0D9C0DCA.rakar" horiz-adv-x="1444" 
d="M748 14l16 64q49 -12 90 -12q131 0 208 100t77 246q0 162 -85 254t-202 92q-87 0 -154.5 -66.5t-115.5 -199.5l9 2q10 2 19 2q70 0 111 -57t41 -140q0 -103 -84.5 -201t-233.5 -98q-144 0 -237.5 122t-93.5 292q0 210 113 346.5t274 136.5q68 0 96 -8l-4 -66q-37 8 -72 8
q-142 0 -225.5 -94t-83.5 -243q0 -140 86.5 -237t212.5 -97q71 0 118.5 42.5t47.5 119.5q0 57 -21 82.5t-49 25.5q-54 0 -76 -59l-49 18q81 274 184 391t250 117q105 0 191 -70v568h61q42 -35 119 -76q76 -39 111 -85.5t35 -111.5t-45.5 -112t-118.5 -47q-38 0 -97 18v-225
q34 -54 51 -118.5t17 -139.5q0 -367 -103.5 -593.5t-246 -313.5t-260.5 -87q-158 0 -278.5 87t-229.5 257l51 43q83 -105 186.5 -162t247.5 -57q172 0 327.5 128.5t205.5 353.5q-110 -154 -285 -154q-62 0 -106 14zM1171 1051q40 -17 76 -17q42 0 68 27t26 67
q0 53 -29.5 88.5t-103.5 76.5q-18 9 -37 20v-262z" />
    <glyph glyph-name="uni0D9C0DD2.rakar" 
d="M748 14l16 64q49 -12 90 -12q131 0 208 100t77 246q0 162 -85 254t-202 92q-87 0 -154.5 -66.5t-115.5 -199.5l9 2q10 2 19 2q70 0 111 -57t41 -140q0 -103 -84.5 -201t-233.5 -98q-144 0 -237.5 122t-93.5 292q0 182 82.5 307t216.5 164l30 -62q-104 -23 -167.5 -111
t-63.5 -218q0 -140 86.5 -237t212.5 -97q71 0 118.5 42.5t47.5 119.5q0 57 -21 82.5t-49 25.5q-54 0 -76 -59l-49 18q47 157 101 262.5t114 159.5q-142 21 -213 88t-71 180q0 124 108.5 215.5t298.5 91.5q201 0 309.5 -86t108.5 -221q0 -81 -39.5 -138.5t-118.5 -92.5
q80 -54 120 -141.5t40 -208.5q0 -367 -103.5 -593.5t-246 -313.5t-260.5 -87q-158 0 -278.5 87t-229.5 257l51 43q83 -105 186.5 -162t247.5 -57q172 0 327.5 128.5t205.5 353.5q-110 -154 -285 -154q-62 0 -106 14zM780 868q64 29 135 29q22 0 66 -8q90 24 135 67t45 105
q0 79 -85.5 118.5t-256.5 39.5q-166 0 -249 -39.5t-83 -118.5q0 -83 78.5 -133.5t214.5 -59.5z" />
    <glyph glyph-name="uni0D9C0DD3.rakar" 
d="M748 14l16 64q49 -12 90 -12q131 0 208 100t77 246q0 162 -85 254t-202 92q-87 0 -154.5 -66.5t-115.5 -199.5l9 2q10 2 19 2q70 0 111 -57t41 -140q0 -103 -84.5 -201t-233.5 -98q-144 0 -237.5 122t-93.5 292q0 182 82.5 307t216.5 164l30 -62q-104 -23 -167.5 -111
t-63.5 -218q0 -140 86.5 -237t212.5 -97q71 0 118.5 42.5t47.5 119.5q0 57 -21 82.5t-49 25.5q-54 0 -76 -59l-49 18q47 157 101 262.5t116 159.5q-143 23 -214.5 90t-71.5 178q0 124 108 215.5t299 91.5q203 0 310.5 -88t107.5 -206q0 -87 -42.5 -153.5t-115.5 -90.5
q80 -51 120 -138.5t40 -211.5q0 -367 -103.5 -593.5t-246 -313.5t-260.5 -87q-158 0 -278.5 87t-229.5 257l51 43q83 -105 186.5 -162t247.5 -57q172 0 327.5 128.5t205.5 353.5q-110 -154 -285 -154q-62 0 -106 14zM782 868q60 29 142 29q-31 40 -31 92q0 56 33 117t82 94
q-78 19 -189 19q-332 0 -332 -158q0 -84 80.5 -135t214.5 -58zM1081 1178q-55 -32 -89 -84t-34 -97q0 -88 80 -88q49 0 86 47.5t37 100.5q0 96 -80 121z" />
    <glyph glyph-name="uni0D9D0DCA" 
d="M911 0q-67 0 -113 26.5t-46 71.5q0 20 22 72q21 45 21 61q0 39 -33 62.5t-92 23.5q-61 0 -93 -25.5t-32 -60.5q0 -29 24 -71q21 -37 21 -62q0 -46 -44.5 -72t-115.5 -26q-149 0 -233 107t-84 247q0 139 96 224h-121v65h461q-3 80 -37.5 119t-81.5 39q-33 0 -56 -34
l-31 -42q-30 -41 -71 -41q-73 0 -73 76q0 48 51 92.5t127 44.5q117 0 178 -80t66 -239h-191q-115 0 -174 -49t-59 -138q0 -94 55 -158.5t160 -64.5q35 0 75 6q-8 26 -8 53q0 73 47 114.5t144 41.5q79 0 134.5 -43t55.5 -113q0 -27 -8 -53q33 -6 66 -6q104 0 169.5 61
t65.5 166q0 89 -58.5 136t-170.5 47h-209q6 159 69 239t183 80q19 0 39 -4v502h61q37 -32 119 -76q77 -40 111 -86.5t34 -110.5q0 -67 -45 -113t-119 -46q-37 0 -96 18v-113q34 -21 51 -50t17 -66q0 -73 -37 -144q62 -39 99.5 -104.5t37.5 -143.5q0 -137 -92 -248.5
t-236 -111.5zM1071 1051q40 -17 76 -17q42 0 68 27t26 67q0 53 -29.5 88.5t-103.5 76.5q-18 9 -37 20v-262zM786 643q222 0 256 -10q9 12 9 37q0 33 -32 55.5t-77 22.5q-72 0 -112 -28t-44 -77z" />
    <glyph glyph-name="uni0D9D0DD2" 
d="M911 0q-67 0 -113 26.5t-46 71.5q0 26 22 72q21 39 21 61q0 39 -33 62.5t-92 23.5q-61 0 -93 -25.5t-32 -60.5q0 -29 24 -71q21 -37 21 -62q0 -46 -44.5 -72t-115.5 -26q-149 0 -233 107t-84 247q0 139 96 224h-121v65h461q-3 80 -37.5 119t-81.5 39q-33 0 -56 -34
l-31 -42q-30 -41 -71 -41q-73 0 -73 76q0 34 29 71t81 56q-46 35 -75 87.5t-29 104.5q0 144 120.5 225.5t358.5 81.5q237 0 359 -79.5t122 -227.5q0 -47 -31 -103t-83 -97q44 -21 66 -53t22 -74q0 -73 -37 -144q67 -42 102 -106.5t35 -151.5q0 -122 -91.5 -236t-236.5 -114z
M715 578q5 159 68.5 239t185.5 80q121 90 121 164q0 82 -92.5 120t-313.5 38q-216 0 -309.5 -38.5t-93.5 -119.5q0 -57 35 -102t100 -61q56 -15 82 -29t54.5 -48.5t47.5 -95t21 -147.5h-191q-115 0 -174 -49t-59 -138q0 -94 55 -158.5t160 -64.5q35 0 75 6q-8 26 -8 53
q0 73 47 114.5t144 41.5q79 0 134.5 -43t55.5 -113q0 -27 -8 -53q33 -6 66 -6q104 0 169.5 61t65.5 166q0 89 -58.5 136t-170.5 47h-209zM786 643q222 0 256 -10q9 12 9 37q0 33 -32 55.5t-77 22.5q-72 0 -112 -28t-44 -77z" />
    <glyph glyph-name="uni0D9D0DD3" 
d="M911 0q-67 0 -113 26.5t-46 71.5q0 31 22 72q21 39 21 61q0 39 -33 62.5t-92 23.5q-61 0 -93 -25.5t-32 -60.5q0 -29 24 -71q21 -37 21 -62q0 -46 -44.5 -72t-115.5 -26q-149 0 -233 107t-84 247q0 139 96 224h-121v65h461q-3 80 -37.5 119t-81.5 39q-33 0 -56 -34
l-31 -42q-30 -41 -71 -41q-73 0 -73 76q0 32 26 67.5t74 55.5q-51 38 -80 92t-29 104q0 141 125 224t365 83q245 0 371.5 -83.5t126.5 -210.5q0 -68 -31 -129.5t-80 -92.5q36 -21 54 -50.5t18 -67.5q0 -73 -37 -144q62 -37 99.5 -107.5t37.5 -160.5q0 -112 -91.5 -226
t-236.5 -114zM715 578q3 121 40.5 196.5t110.5 104.5q-45 41 -45 110q0 56 33 117t82 94q-92 19 -309 19q-181 0 -271 -39.5t-90 -118.5q0 -55 36 -100.5t142 -73.5q68 -21 100 -56.5t53.5 -98t23.5 -154.5h-191q-115 0 -174 -49t-59 -138q0 -94 55 -158.5t160 -64.5
q35 0 75 6q-8 26 -8 53q0 73 47 114.5t144 41.5q79 0 134.5 -43t55.5 -113q0 -27 -8 -53q33 -6 66 -6q104 0 169.5 61t65.5 166q0 89 -58.5 136t-170.5 47h-209zM1010 1178q-55 -32 -89 -84t-34 -97q0 -88 82 -88q50 0 85.5 48.5t35.5 99.5q0 40 -19 74t-61 47zM786 643
q222 0 256 -10q9 12 9 37q0 33 -32 55.5t-77 22.5q-72 0 -112 -28t-44 -77zM407 897z" />
    <glyph glyph-name="uni0D9D0DD4" 
d="M911 0q-67 0 -113 26.5t-46 71.5q0 20 22 72q21 45 21 61q0 39 -33 62.5t-92 23.5q-61 0 -93 -25.5t-32 -60.5q0 -29 24 -71q21 -37 21 -62q0 -46 -44.5 -72t-115.5 -26q-149 0 -233 107t-84 247q0 139 96 224h-121v65h461q-3 80 -37.5 119t-81.5 39q-33 0 -56 -34
l-31 -42q-30 -41 -71 -41q-73 0 -73 76q0 48 51 92.5t127 44.5q117 0 178 -80t66 -239h-191q-115 0 -174 -49t-59 -138q0 -94 55 -158.5t160 -64.5q35 0 75 6q-8 26 -8 53q0 73 47 114.5t144 41.5q79 0 134.5 -43t55.5 -113q0 -27 -8 -53q33 -6 66 -6q104 0 169.5 61
t65.5 166q0 89 -58.5 136t-170.5 47h-209q6 159 69 239t183 80q71 0 121.5 -40.5t50.5 -104.5q0 -73 -37 -144q62 -39 99.5 -104.5t37.5 -143.5v-831h-909q-89 0 -142 50.5t-53 135.5q0 83 57.5 140t139.5 57q148 0 211 -143l-58 -27q-55 104 -143 104q-62 0 -101.5 -37
t-39.5 -92q0 -60 35 -91.5t94 -31.5h825v525q-97 -119 -244 -119zM786 643q222 0 256 -10q9 12 9 37q0 33 -32 55.5t-77 22.5q-72 0 -112 -28t-44 -77z" />
    <glyph glyph-name="uni0D9D0DD6" 
d="M911 0q-67 0 -113 26.5t-46 71.5q0 20 22 72q21 45 21 61q0 39 -33 62.5t-92 23.5q-61 0 -93 -25.5t-32 -60.5q0 -29 24 -71q21 -37 21 -62q0 -46 -44.5 -72t-115.5 -26q-149 0 -233 107t-84 247q0 139 96 224h-121v65h461q-3 80 -37.5 119t-81.5 39q-33 0 -56 -34
l-31 -42q-30 -41 -71 -41q-73 0 -73 76q0 48 51 92.5t127 44.5q117 0 178 -80t66 -239h-191q-115 0 -174 -49t-59 -138q0 -94 55 -158.5t160 -64.5q35 0 75 6q-8 26 -8 53q0 73 47 114.5t144 41.5q79 0 134.5 -43t55.5 -113q0 -27 -8 -53q33 -6 66 -6q104 0 169.5 61
t65.5 166q0 89 -58.5 136t-170.5 47h-209q6 159 69 239t183 80q71 0 121.5 -40.5t50.5 -104.5q0 -73 -37 -144q62 -39 99.5 -104.5t37.5 -143.5v-843h-57q-99 125 -244 125q-107 0 -194 -33l-137 -51q-121 -45 -247 -45q-104 0 -164.5 57.5t-60.5 142.5q0 78 55.5 137.5
t141.5 59.5q148 0 211 -143l-58 -27q-51 104 -145 104q-66 0 -102.5 -38.5t-36.5 -88.5q0 -60 41 -99.5t100 -39.5q75 0 138.5 21.5t123.5 46.5q175 82 297 82q143 0 254 -90v481q-97 -119 -244 -119zM786 643q222 0 256 -10q9 12 9 37q0 33 -32 55.5t-77 22.5
q-72 0 -112 -28t-44 -77z" />
    <glyph glyph-name="uni0D9D.reph" 
d="M911 0q-67 0 -113 26.5t-46 71.5q0 26 22 72q21 39 21 61q0 39 -33 62.5t-92 23.5q-61 0 -93 -25.5t-32 -60.5q0 -29 24 -71q21 -37 21 -62q0 -46 -44.5 -72t-115.5 -26q-149 0 -233 107t-84 247q0 139 96 224h-121v65h461q-3 80 -37.5 119t-81.5 39q-33 0 -56 -34
l-31 -42q-30 -41 -71 -41q-73 0 -73 76q0 48 51 92.5t127 44.5q42 0 76 -12q-68 64 -68 145q0 94 80.5 154.5t214.5 60.5q138 0 215.5 -58.5t77.5 -156.5q0 -65 -41 -135q16 2 34 2q69 0 121 -39.5t52 -105.5q0 -73 -37 -144q62 -39 99.5 -104.5t37.5 -143.5
q0 -137 -92 -248.5t-236 -111.5zM715 578q0 77 20.5 134.5t97.5 138.5q74 85 74 179q0 61 -66 105.5t-161 44.5q-104 0 -166.5 -44t-62.5 -102q0 -48 31.5 -85.5t99.5 -49.5q-45 36 -45 100q0 56 41.5 95t105.5 39q61 0 102 -39.5t41 -94.5q0 -73 -63 -118t-152 -45
q-44 0 -84 10q41 -35 64.5 -102t28.5 -166h-191q-115 0 -174 -49t-59 -138q0 -94 55 -158.5t160 -64.5q35 0 75 6q-8 26 -8 53q0 73 47 114.5t144 41.5q79 0 134.5 -43t55.5 -113q0 -27 -8 -53q33 -6 66 -6q104 0 169.5 61t65.5 166q0 89 -58.5 136t-170.5 47h-209z
M602 1001q0 -37 24 -53t56 -16q35 0 57.5 17.5t22.5 51.5q0 29 -22 47.5t-56 18.5q-82 0 -82 -66zM786 643q222 0 256 -10q9 12 9 37q0 33 -32 55.5t-77 22.5q-72 0 -112 -28t-44 -77z" />
    <glyph glyph-name="uni0D9D.rakar" 
d="M911 0q-67 0 -113 26.5t-46 71.5q0 20 22 72q21 45 21 61q0 39 -33 62.5t-92 23.5q-61 0 -93 -25.5t-32 -60.5q0 -29 24 -71q21 -37 21 -62q0 -46 -44.5 -72t-115.5 -26q-149 0 -233 107t-84 247q0 139 96 224h-121v65h461q-3 80 -37.5 119t-81.5 39q-33 0 -56 -34
l-31 -42q-30 -41 -71 -41q-73 0 -73 76q0 48 51 92.5t127 44.5q117 0 178 -80t66 -239h-191q-115 0 -174 -49t-59 -138q0 -94 55 -158.5t160 -64.5q35 0 75 6q-8 26 -8 53q0 73 47 114.5t144 41.5q79 0 134.5 -43t55.5 -113q0 -27 -8 -53q33 -6 66 -6q104 0 169.5 61
t65.5 166q0 89 -58.5 136t-170.5 47h-209q6 159 69 239t183 80q71 0 121.5 -40.5t50.5 -104.5q0 -73 -37 -144q68 -44 102.5 -111t34.5 -157q0 -235 -108 -452.5t-247.5 -300.5t-254.5 -83q-158 0 -278.5 87t-229.5 257l51 43q83 -105 186.5 -162t247.5 -57
q158 0 304.5 110.5t207.5 297.5q-86 -80 -207 -80zM786 643q222 0 256 -10q9 12 9 37q0 33 -32 55.5t-77 22.5q-72 0 -112 -28t-44 -77z" />
    <glyph glyph-name="uni0D9D0DD2.rakar" 
d="M911 0q-67 0 -113 26.5t-46 71.5q0 26 22 72q21 39 21 61q0 39 -33 62.5t-92 23.5q-61 0 -93 -25.5t-32 -60.5q0 -29 24 -71q21 -37 21 -62q0 -46 -44.5 -72t-115.5 -26q-149 0 -233 107t-84 247q0 139 96 224h-121v65h461q-3 80 -37.5 119t-81.5 39q-33 0 -56 -34
l-31 -42q-30 -41 -71 -41q-73 0 -73 76q0 34 29 71t81 56q-46 35 -75 87.5t-29 104.5q0 144 120.5 225.5t358.5 81.5q237 0 359 -79.5t122 -227.5q0 -47 -31 -103t-83 -97q44 -21 66 -53t22 -74q0 -73 -37 -144q68 -43 102.5 -110t34.5 -158q0 -235 -108 -452.5
t-247.5 -300.5t-254.5 -83q-158 0 -278.5 87t-229.5 257l51 43q83 -105 186.5 -162t247.5 -57q158 0 304.5 110.5t207.5 297.5q-88 -80 -207 -80zM715 578q5 159 68.5 239t185.5 80q121 90 121 164q0 82 -92.5 120t-313.5 38q-216 0 -309.5 -38.5t-93.5 -119.5
q0 -57 35 -102t100 -61q56 -15 82 -29t54.5 -48.5t47.5 -95t21 -147.5h-191q-115 0 -174 -49t-59 -138q0 -94 55 -158.5t160 -64.5q35 0 75 6q-8 26 -8 53q0 73 47 114.5t144 41.5q79 0 134.5 -43t55.5 -113q0 -27 -8 -53q33 -6 66 -6q104 0 169.5 61t65.5 166
q0 89 -58.5 136t-170.5 47h-209zM786 643q222 0 256 -10q9 12 9 37q0 33 -32 55.5t-77 22.5q-72 0 -112 -28t-44 -77z" />
    <glyph glyph-name="uni0D9D0DD3.rakar" 
d="M911 0q-67 0 -113 26.5t-46 71.5q0 31 22 72q21 39 21 61q0 39 -33 62.5t-92 23.5q-61 0 -93 -25.5t-32 -60.5q0 -29 24 -71q21 -37 21 -62q0 -46 -44.5 -72t-115.5 -26q-149 0 -233 107t-84 247q0 139 96 224h-121v65h461q-3 80 -37.5 119t-81.5 39q-33 0 -56 -34
l-31 -42q-30 -41 -71 -41q-73 0 -73 76q0 32 26 67.5t74 55.5q-51 38 -80 92t-29 104q0 141 125 224t365 83q245 0 371.5 -83.5t126.5 -210.5q0 -68 -31 -129.5t-80 -92.5q36 -21 54 -50.5t18 -67.5q0 -73 -37 -144q62 -37 99.5 -107.5t37.5 -160.5q0 -235 -108 -452.5
t-247.5 -300.5t-254.5 -83q-158 0 -278.5 87t-229.5 257l51 43q83 -105 186.5 -162t247.5 -57q158 0 304.5 110.5t207.5 297.5q-88 -80 -207 -80zM715 578q3 121 40.5 196.5t110.5 104.5q-45 41 -45 110q0 56 33 117t82 94q-92 19 -309 19q-181 0 -271 -39.5t-90 -118.5
q0 -55 36 -100.5t142 -73.5q68 -21 100 -56.5t53.5 -98t23.5 -154.5h-191q-115 0 -174 -49t-59 -138q0 -94 55 -158.5t160 -64.5q35 0 75 6q-8 26 -8 53q0 73 47 114.5t144 41.5q79 0 134.5 -43t55.5 -113q0 -27 -8 -53q33 -6 66 -6q104 0 169.5 61t65.5 166q0 89 -58.5 136
t-170.5 47h-209zM1010 1178q-55 -32 -89 -84t-34 -97q0 -88 82 -88q50 0 85.5 48.5t35.5 99.5q0 40 -19 74t-61 47zM786 643q222 0 256 -10q9 12 9 37q0 33 -32 55.5t-77 22.5q-72 0 -112 -28t-44 -77zM407 897z" />
    <glyph glyph-name="uni0D9E0DCA" 
d="M911 0q-77 0 -136 36t-99 109q-47 -73 -108.5 -109t-137.5 -36q-139 0 -224 106.5t-85 251.5q0 70 23.5 124t70.5 93q-63 9 -99 51.5t-36 92.5q0 87 77 132.5t201 45.5q146 0 241 -74.5t95 -156.5q0 -39 -26 -60.5t-74 -21.5h-186q-93 0 -150 -56t-57 -131
q0 -110 57 -169.5t172 -59.5q94 0 153.5 81t59.5 193h66q0 -112 55.5 -193t146.5 -81q126 0 195.5 102t69.5 265q0 106 -35.5 171t-112 136t-191.5 110t-223 39q-140 0 -315 -65l-29 61q40 17 82 31q-59 66 -59 96q0 44 93.5 76.5t207.5 32.5q211 0 357 -91t218 -257.5
t72 -358.5q0 -234 -87 -375t-243 -141zM422 1036q121 21 182 21q154 0 280.5 -51t225.5 -152q-75 137 -147.5 192t-164.5 83t-204 28q-78 0 -153.5 -15.5t-75.5 -29.5q0 -10 18 -35.5t39 -40.5zM600 649q14 0 21.5 3t7.5 16q0 54 -73.5 108.5t-190.5 54.5q-23 0 -41 -6
q45 -44 45 -112q0 -36 -27 -74q48 10 111 10h147zM145 721q0 -32 19 -58t61 -26q31 0 54.5 24.5t23.5 59.5q0 31 -21 54.5t-51 23.5q-39 0 -62.5 -25.5t-23.5 -52.5z" />
    <glyph glyph-name="uni0D9E0DD2" 
d="M911 0q-77 0 -136 36t-99 109q-47 -73 -108.5 -109t-137.5 -36q-139 0 -224 106.5t-85 251.5q0 70 23.5 124t70.5 93q-63 9 -99 51.5t-36 92.5q0 87 77 132.5t201 45.5q146 0 241 -74.5t95 -156.5q0 -39 -26 -60.5t-74 -21.5h-186q-93 0 -150 -56t-57 -131
q0 -110 57 -169.5t172 -59.5q94 0 153.5 81t59.5 193h66q0 -112 55.5 -193t146.5 -81q123 0 194 104t71 273q0 111 -40 194t-112 132.5t-150 68.5t-248 27q-255 12 -329 52.5t-74 139.5q0 106 116 166.5t327 60.5q199 0 342 -73.5t143 -190.5q0 -59 -41.5 -103t-103.5 -56
q102 -51 168.5 -154.5t66.5 -302.5q0 -220 -86.5 -363t-243.5 -143zM301 1143q0 -51 63.5 -76.5t231.5 -32.5q43 -1 178 -10q121 -8 150 -8q75 0 113 25t38 61q0 58 -126.5 87.5t-379.5 29.5q-136 0 -202 -15t-66 -61zM600 649q14 0 21.5 3t7.5 16q0 54 -73.5 108.5
t-190.5 54.5q-23 0 -41 -6q45 -44 45 -112q0 -36 -27 -74q48 10 111 10h147zM145 721q0 -32 19 -58t61 -26q31 0 54.5 24.5t23.5 59.5q0 31 -21 54.5t-51 23.5q-39 0 -62.5 -25.5t-23.5 -52.5z" />
    <glyph glyph-name="uni0D9E0DD3" 
d="M911 0q-77 0 -136 36t-99 109q-47 -73 -108.5 -109t-137.5 -36q-139 0 -224 106.5t-85 251.5q0 70 23.5 124t70.5 93q-63 9 -99 51.5t-36 92.5q0 87 77 132.5t201 45.5q146 0 241 -74.5t95 -156.5q0 -39 -26 -60.5t-74 -21.5h-186q-93 0 -150 -56t-57 -131
q0 -110 57 -169.5t172 -59.5q94 0 153.5 81t59.5 193h66q0 -112 55.5 -193t146.5 -81q127 0 196 106t69 281q0 113 -43.5 195.5t-127.5 132.5t-159.5 63t-243.5 21q-155 9 -226 25t-112 57t-41 110q0 103 119 165t324 62q187 0 336 -74.5t149 -189.5q0 -59 -41.5 -103
t-103.5 -56q117 -64 176 -173.5t59 -265.5q0 -236 -87.5 -380t-242.5 -144zM811 1022q-53 33 -53 100q0 57 45 88q-81 9 -234 9q-134 0 -201 -19t-67 -57q0 -51 62.5 -76.5t207.5 -31.5zM1075 1102q0 40 -38.5 69t-110.5 29q-103 0 -103 -78q0 -42 44 -69t106 -27
q49 0 75.5 24t26.5 52zM600 649q14 0 21.5 3t7.5 16q0 54 -73.5 108.5t-190.5 54.5q-23 0 -41 -6q45 -44 45 -112q0 -36 -27 -74q48 10 111 10h147zM145 721q0 -32 19 -58t61 -26q31 0 54.5 24.5t23.5 59.5q0 31 -21 54.5t-51 23.5q-39 0 -62.5 -25.5t-23.5 -52.5z" />
    <glyph glyph-name="uni0D9E0DD4" 
d="M911 0q-77 0 -136 36t-99 109q-47 -73 -108.5 -109t-137.5 -36q-139 0 -224 106.5t-85 251.5q0 70 23.5 124t70.5 93q-63 9 -99 51.5t-36 92.5q0 87 77 132.5t201 45.5q146 0 241 -74.5t95 -156.5q0 -39 -26 -60.5t-74 -21.5h-186q-93 0 -150 -56t-57 -131
q0 -110 57 -169.5t172 -59.5q94 0 153.5 81t59.5 193h66q0 -112 55.5 -193t146.5 -81q126 0 195.5 102t69.5 265q0 284 -162.5 453t-390.5 169q-117 0 -226.5 -55.5t-185.5 -157.5l-51 37q85 121 203.5 181.5t271.5 60.5q155 0 299.5 -82t225.5 -241.5t81 -383.5v-987h-909
q-89 0 -142 50.5t-53 135.5q0 83 57.5 140t139.5 57q148 0 211 -143l-58 -27q-55 104 -143 104q-62 0 -101.5 -37t-39.5 -92q0 -60 35 -91.5t94 -31.5h825v551q-44 -73 -105.5 -109t-140.5 -36zM600 649q14 0 21.5 3t7.5 16q0 54 -73.5 108.5t-190.5 54.5q-23 0 -41 -6
q45 -44 45 -112q0 -36 -27 -74q48 10 111 10h147zM145 721q0 -32 19 -58t61 -26q31 0 54.5 24.5t23.5 59.5q0 31 -21 54.5t-51 23.5q-39 0 -62.5 -25.5t-23.5 -52.5z" />
    <glyph glyph-name="uni0D9E0DD6" 
d="M911 0q-77 0 -136 36t-99 109q-47 -73 -108.5 -109t-137.5 -36q-139 0 -224 106.5t-85 251.5q0 70 23.5 124t70.5 93q-63 9 -99 51.5t-36 92.5q0 87 77 132.5t201 45.5q146 0 241 -74.5t95 -156.5q0 -39 -26 -60.5t-74 -21.5h-186q-93 0 -150 -56t-57 -131
q0 -110 57 -169.5t172 -59.5q94 0 153.5 81t59.5 193h66q0 -112 55.5 -193t146.5 -81q126 0 195.5 102t69.5 265q0 284 -162.5 453t-390.5 169q-117 0 -226.5 -55.5t-185.5 -157.5l-51 37q85 121 203.5 181.5t271.5 60.5q155 0 299.5 -82t225.5 -241.5t81 -383.5v-999h-57
q-99 125 -244 125q-107 0 -194 -33l-137 -51q-121 -45 -247 -45q-104 0 -164.5 57.5t-60.5 142.5q0 78 55.5 137.5t141.5 59.5q148 0 211 -143l-58 -27q-51 104 -145 104q-66 0 -102.5 -40t-36.5 -87q0 -60 41 -99.5t100 -39.5q75 0 138.5 21.5t123.5 46.5q175 82 297 82
q143 0 254 -90v507q-44 -73 -105.5 -109t-140.5 -36zM600 649q14 0 21.5 3t7.5 16q0 54 -73.5 108.5t-190.5 54.5q-23 0 -41 -6q45 -44 45 -112q0 -36 -27 -74q48 10 111 10h147zM145 721q0 -32 19 -58t61 -26q31 0 54.5 24.5t23.5 59.5q0 31 -21 54.5t-51 23.5
q-39 0 -62.5 -25.5t-23.5 -52.5z" />
    <glyph glyph-name="uni0D9E.rakar" 
d="M911 0q-77 0 -136 36t-99 109q-47 -73 -108.5 -109t-137.5 -36q-139 0 -224 106.5t-85 251.5q0 70 23.5 124t70.5 93q-63 9 -99 51.5t-36 92.5q0 87 77 132.5t201 45.5q146 0 241 -74.5t95 -156.5q0 -39 -26 -60.5t-74 -21.5h-186q-93 0 -150 -56t-57 -131
q0 -110 57 -169.5t172 -59.5q94 0 153.5 81t59.5 193h66q0 -112 55.5 -193t146.5 -81q126 0 195.5 102t69.5 265q0 284 -162.5 453t-390.5 169q-117 0 -226.5 -55.5t-185.5 -157.5l-51 37q85 121 203.5 181.5t271.5 60.5q155 0 299.5 -82t225.5 -241.5t81 -383.5
q0 -311 -95 -567t-243 -350.5t-272 -94.5q-158 0 -278.5 87t-229.5 257l51 43q83 -105 186.5 -162t247.5 -57q158 0 310.5 115.5t209.5 316.5q-42 -52 -96.5 -78t-120.5 -26zM600 649q14 0 21.5 3t7.5 16q0 54 -73.5 108.5t-190.5 54.5q-23 0 -41 -6q45 -44 45 -112
q0 -36 -27 -74q48 10 111 10h147zM145 721q0 -32 19 -58t61 -26q31 0 54.5 24.5t23.5 59.5q0 31 -21 54.5t-51 23.5q-39 0 -62.5 -25.5t-23.5 -52.5z" />
    <glyph glyph-name="uni0D9E0DCA.rakar" 
d="M911 0q-77 0 -136 36t-99 109q-47 -73 -108.5 -109t-137.5 -36q-139 0 -224 106.5t-85 251.5q0 70 23.5 124t70.5 93q-63 9 -99 51.5t-36 92.5q0 87 77 132.5t201 45.5q146 0 241 -74.5t95 -156.5q0 -39 -26 -60.5t-74 -21.5h-186q-93 0 -150 -56t-57 -131
q0 -110 57 -169.5t172 -59.5q94 0 153.5 81t59.5 193h66q0 -112 55.5 -193t146.5 -81q126 0 195.5 102t69.5 265q0 106 -35.5 171t-112 136t-191.5 110t-223 39q-140 0 -315 -65l-29 61q40 17 82 31q-59 66 -59 96q0 44 93.5 76.5t207.5 32.5q211 0 357 -91t218 -257.5
t72 -358.5q0 -305 -94 -563t-242.5 -353.5t-273.5 -95.5q-158 0 -278.5 87t-229.5 257l51 43q83 -105 186.5 -162t247.5 -57q158 0 310.5 115.5t209.5 316.5q-42 -52 -96.5 -78t-120.5 -26zM422 1036q121 21 182 21q154 0 280.5 -51t225.5 -152q-75 137 -147.5 192
t-164.5 83t-204 28q-78 0 -153.5 -15.5t-75.5 -29.5q0 -10 18 -35.5t39 -40.5zM600 649q14 0 21.5 3t7.5 16q0 54 -73.5 108.5t-190.5 54.5q-23 0 -41 -6q45 -44 45 -112q0 -36 -27 -74q48 10 111 10h147zM145 721q0 -32 19 -58t61 -26q31 0 54.5 24.5t23.5 59.5
q0 31 -21 54.5t-51 23.5q-39 0 -62.5 -25.5t-23.5 -52.5z" />
    <glyph glyph-name="uni0D9E0DD2.rakar" 
d="M911 0q-77 0 -136 36t-99 109q-47 -73 -108.5 -109t-137.5 -36q-139 0 -224 106.5t-85 251.5q0 70 23.5 124t70.5 93q-63 9 -99 51.5t-36 92.5q0 87 77 132.5t201 45.5q146 0 241 -74.5t95 -156.5q0 -39 -26 -60.5t-74 -21.5h-186q-93 0 -150 -56t-57 -131
q0 -110 57 -169.5t172 -59.5q94 0 153.5 81t59.5 193h66q0 -112 55.5 -193t146.5 -81q127 0 196 106t69 281q0 103 -41 186.5t-113.5 132.5t-150.5 67.5t-246 25.5q-223 6 -312.5 46.5t-89.5 145.5q0 106 116 166.5t327 60.5q199 0 342 -73.5t143 -190.5q0 -59 -40 -102
t-103 -58q116 -62 174.5 -169.5t58.5 -276.5q0 -314 -95.5 -568.5t-243 -349t-271.5 -94.5q-158 0 -278.5 87t-229.5 257l51 43q83 -105 186.5 -162t247.5 -57q158 0 313 119.5t209 317.5q-42 -55 -97 -82t-122 -27zM600 649q14 0 21.5 3t7.5 16q0 54 -73.5 108.5
t-190.5 54.5q-23 0 -41 -6q45 -44 45 -112q0 -36 -27 -74q48 10 111 10h147zM145 721q0 -32 19 -58t61 -26q31 0 54.5 24.5t23.5 59.5q0 31 -21 54.5t-51 23.5q-39 0 -62.5 -25.5t-23.5 -52.5zM301 1143q0 -51 63.5 -76.5t231.5 -32.5q43 -1 178 -10q121 -8 150 -8
q75 0 113 25t38 61q0 58 -126.5 87.5t-379.5 29.5q-136 0 -202 -15t-66 -61z" />
    <glyph glyph-name="uni0D9E0DD3.rakar" 
d="M911 0q-77 0 -136 36t-99 109q-47 -73 -108.5 -109t-137.5 -36q-139 0 -224 106.5t-85 251.5q0 70 23.5 124t70.5 93q-63 9 -99 51.5t-36 92.5q0 87 77 132.5t201 45.5q146 0 241 -74.5t95 -156.5q0 -39 -26 -60.5t-74 -21.5h-186q-93 0 -150 -56t-57 -131
q0 -110 57 -169.5t172 -59.5q94 0 153.5 81t59.5 193h66q0 -112 55.5 -193t146.5 -81q127 0 196 106t69 281q0 112 -42.5 193t-118.5 129t-155 66t-258 24q-89 3 -187.5 18.5t-145 57t-46.5 116.5q0 103 119 165t324 62q187 0 336 -74.5t149 -189.5q0 -59 -41.5 -103
t-103.5 -56q117 -63 176 -175t59 -272q0 -314 -95.5 -568.5t-243 -349t-271.5 -94.5q-158 0 -278.5 87t-229.5 257l51 43q83 -105 186.5 -162t247.5 -57q158 0 313 119.5t209 317.5q-41 -55 -95.5 -82t-123.5 -27zM1075 1102q0 40 -38.5 69t-110.5 29q-103 0 -103 -78
q0 -42 44 -69t106 -27q49 0 75.5 24t26.5 52zM600 649q14 0 21.5 3t7.5 16q0 54 -73.5 108.5t-190.5 54.5q-23 0 -41 -6q45 -44 45 -112q0 -36 -27 -74q48 10 111 10h147zM145 721q0 -32 19 -58t61 -26q31 0 54.5 24.5t23.5 59.5q0 31 -21 54.5t-51 23.5q-39 0 -62.5 -25.5
t-23.5 -52.5zM811 1022q-53 33 -53 100q0 57 45 88q-81 9 -234 9q-134 0 -201 -19t-67 -57q0 -51 62.5 -76.5t207.5 -31.5z" />
    <glyph glyph-name="uni0D9F0DCA" horiz-adv-x="1655" 
d="M950 14l17 64q49 -12 90 -12q132 0 208 100.5t76 245.5q0 159 -96.5 252.5t-218.5 93.5q-88 0 -165.5 -67.5t-125.5 -198.5q6 2 13 3t16 1q70 0 109.5 -58t39.5 -139q0 -128 -88.5 -213.5t-244.5 -85.5q-215 0 -341 127.5t-126 361.5q0 185 90.5 296.5t216.5 111.5
q108 0 162.5 -77t54.5 -230q-129 0 -212 -54t-83 -149q0 -84 81.5 -151.5t199.5 -67.5q79 0 142.5 40.5t63.5 113.5q0 57 -20.5 82.5t-48.5 25.5q-55 0 -76 -59l-49 18q77 257 188.5 382.5t266.5 125.5q127 0 227 -90v588h61q37 -32 119 -76q77 -40 111 -86.5t34 -110.5
q0 -67 -45.5 -113t-117.5 -46q-38 0 -97 18v-252q30 -49 45 -107t15 -124q0 -197 -104.5 -347.5t-280.5 -150.5q-61 0 -107 14zM1382 1051q40 -17 76 -17q42 0 68 27t26 67q0 53 -29.5 88.5t-103.5 76.5q-18 9 -37 20v-262zM569 649q-2 62 -20 106t-39 44q-23 0 -48 -47
q-36 -66 -83 -66q-37 0 -56.5 22t-19.5 54q0 17 4 31q-65 -44 -97 -121.5t-32 -188.5q0 -87 30 -176t83 -139q-41 86 -41 180q0 129 85 211.5t234 89.5z" />
    <glyph glyph-name="uni0D9F0DD2" horiz-adv-x="1479" 
d="M883 14l16 64q49 -12 90 -12q131 0 208 100t77 246q0 161 -85.5 253.5t-203.5 92.5q-87 0 -154.5 -66.5t-115.5 -199.5q6 2 13 3t15 1q70 0 110 -57.5t40 -139.5q0 -105 -83 -202t-230 -97q-212 0 -339.5 127t-127.5 362q0 185 90.5 296.5t216.5 111.5q108 0 162.5 -77
t54.5 -230q-129 0 -212 -54t-83 -149q0 -84 81.5 -151.5t199.5 -67.5q77 0 131.5 40.5t54.5 113.5q0 57 -21 82.5t-49 25.5q-55 0 -75 -59l-50 18q47 157 100.5 262t112.5 158q-147 17 -224 87.5t-77 182.5q0 124 109.5 215.5t298.5 91.5q202 0 310 -87t108 -220
q0 -79 -37 -136t-111 -91q82 -50 126 -142t44 -212q0 -197 -104 -347.5t-281 -150.5q-60 0 -106 14zM913 868q60 29 136 29q27 0 55 -6q86 25 129 67.5t43 102.5q0 79 -85.5 118.5t-256.5 39.5q-166 0 -249 -39.5t-83 -118.5q0 -87 83 -137t228 -56zM569 649q-2 62 -20 106
t-39 44q-23 0 -48 -47q-36 -66 -83 -66q-37 0 -56.5 22t-19.5 54q0 17 4 31q-65 -44 -97 -121.5t-32 -188.5q0 -87 30 -176t83 -139q-41 86 -41 180q0 129 85 211.5t234 89.5z" />
    <glyph glyph-name="uni0D9F0DD3" horiz-adv-x="1479" 
d="M883 14l16 64q49 -12 90 -12q131 0 208 100t77 246q0 161 -85.5 253.5t-203.5 92.5q-87 0 -154.5 -66.5t-115.5 -199.5q6 2 13 3t15 1q70 0 110 -57.5t40 -139.5q0 -103 -81.5 -201t-227.5 -98q-217 0 -344 127t-127 362q0 185 90.5 296.5t216.5 111.5q108 0 162.5 -77
t54.5 -230q-129 0 -212 -54t-83 -149q0 -84 81.5 -151.5t199.5 -67.5q77 0 131.5 40.5t54.5 113.5q0 57 -21 82.5t-49 25.5q-55 0 -75 -59l-50 18q46 154 98.5 258.5t112.5 159.5q-143 20 -221 89t-78 183q0 124 109 215.5t301 91.5q203 0 310.5 -88t107.5 -206
q0 -87 -37 -147t-111 -93q84 -52 126 -140.5t42 -213.5q0 -197 -104 -347.5t-281 -150.5q-60 0 -106 14zM913 868q57 26 127 29q-30 41 -30 92q0 60 34.5 120.5t79.5 90.5q-64 19 -188 19q-167 0 -250.5 -39.5t-83.5 -118.5q0 -85 86.5 -137t224.5 -56zM1198 1178
q-55 -32 -89 -84t-34 -97q0 -88 80 -88q49 0 86 47.5t37 100.5q0 96 -80 121zM569 649q-2 62 -20 106t-39 44q-23 0 -48 -47q-36 -66 -83 -66q-37 0 -56.5 22t-19.5 54q0 17 4 31q-65 -44 -97 -121.5t-32 -188.5q0 -87 30 -176t83 -139q-41 86 -41 180q0 129 85 211.5
t234 89.5z" />
    <glyph glyph-name="uni0D9F0DD4" horiz-adv-x="1479" 
d="M981 45q80 14 118.5 28t81 57t68 115.5t25.5 166.5q0 161 -85.5 253.5t-203.5 92.5q-87 0 -154.5 -66.5t-115.5 -199.5l9 2q10 2 19 2q70 0 110 -57.5t40 -139.5q0 -104 -81 -201.5t-225 -97.5q-217 0 -345.5 126t-128.5 363q0 185 90.5 296.5t216.5 111.5
q108 0 162.5 -77t54.5 -230q-129 0 -212 -54t-83 -149q0 -84 81.5 -151.5t199.5 -67.5q77 0 131.5 40.5t54.5 113.5q0 57 -21 82.5t-49 25.5q-55 0 -75 -59l-50 18q81 273 184 390.5t251 117.5q136 0 230.5 -108t94.5 -291q0 -92 -20 -176.5t-59 -150t-87.5 -106.5t-94 -57
t-126.5 -28q-78 -11 -113.5 -35t-35.5 -76q0 -55 45.5 -85t165.5 -30q80 0 133 21.5t53 66.5q0 30 -16 62l53 12q28 -40 28 -90q0 -87 -70 -144t-177 -57q-130 0 -205.5 57.5t-75.5 157.5q0 96 50.5 142t158.5 63zM569 649q-2 62 -20 106t-39 44q-23 0 -48 -47
q-36 -66 -83 -66q-37 0 -56.5 22t-19.5 54q0 17 4 31q-65 -44 -97 -121.5t-32 -188.5q0 -87 30 -176t83 -139q-41 86 -41 180q0 129 85 211.5t234 89.5z" />
    <glyph glyph-name="uni0D9F0DD6" horiz-adv-x="1479" 
d="M942 80l43 51q42 -47 90 -47q76 0 137.5 94.5t61.5 233.5q0 161 -85.5 253.5t-203.5 92.5q-87 0 -154.5 -66.5t-115.5 -199.5l9 2q10 2 19 2q70 0 110 -57.5t40 -139.5q0 -104 -81 -201.5t-225 -97.5q-217 0 -345.5 126t-128.5 363q0 185 90.5 296.5t216.5 111.5
q108 0 162.5 -77t54.5 -230q-129 0 -212 -54t-83 -149q0 -84 81.5 -151.5t199.5 -67.5q77 0 131.5 40.5t54.5 113.5q0 57 -21 82.5t-49 25.5q-55 0 -75 -59l-50 18q81 273 184 390.5t251 117.5q136 0 230.5 -108t94.5 -291q0 -177 -78 -317t-188 -161q26 -23 49 -41
q22 -18 31 -26l-27 -51q-61 20 -90 20q-57 0 -57 -28q0 -20 16 -37t94 -50l-28 -59q-56 27 -92 27q-28 0 -49 -13.5t-21 -31.5q0 -76 153 -76q96 0 141.5 30t45.5 101l65 4q17 -34 17 -82q0 -84 -74 -143.5t-180 -59.5q-109 0 -184.5 56t-75.5 151q0 42 34.5 77.5t94.5 39.5
q-29 31 -29 68q0 35 30 59t83 29q-29 26 -58 49q-29 22 -55 47zM569 649q-2 62 -20 106t-39 44q-23 0 -48 -47q-36 -66 -83 -66q-37 0 -56.5 22t-19.5 54q0 17 4 31q-65 -44 -97 -121.5t-32 -188.5q0 -87 30 -176t83 -139q-41 86 -41 180q0 129 85 211.5t234 89.5z" />
    <glyph glyph-name="uni0D9F.rakar" horiz-adv-x="1479" 
d="M883 14l16 64q49 -12 90 -12q131 0 208 100t77 246q0 161 -85.5 253.5t-203.5 92.5q-87 0 -154.5 -66.5t-115.5 -199.5l9 2q10 2 19 2q70 0 110 -57.5t40 -139.5q0 -104 -81 -201.5t-225 -97.5q-217 0 -345.5 126t-128.5 363q0 185 90.5 296.5t216.5 111.5
q108 0 162.5 -77t54.5 -230q-129 0 -212 -54t-83 -149q0 -84 81.5 -151.5t199.5 -67.5q77 0 131.5 40.5t54.5 113.5q0 57 -21 82.5t-49 25.5q-55 0 -75 -59l-50 18q81 273 184 390.5t251 117.5q136 0 230.5 -108t94.5 -291q0 -367 -103.5 -593.5t-246 -313.5t-260.5 -87
q-158 0 -278.5 87t-229.5 257l51 43q83 -105 186.5 -162t247.5 -57q172 0 327.5 128.5t205.5 353.5q-110 -154 -285 -154q-60 0 -106 14zM569 649q-2 62 -20 106t-39 44q-23 0 -48 -47q-36 -66 -83 -66q-37 0 -56.5 22t-19.5 54q0 17 4 31q-65 -44 -97 -121.5t-32 -188.5
q0 -87 30 -176t83 -139q-41 86 -41 180q0 129 85 211.5t234 89.5z" />
    <glyph glyph-name="uni0D9F0DD2.rakar" horiz-adv-x="1479" 
d="M883 14l16 64q49 -12 90 -12q131 0 208 100t77 246q0 161 -85.5 253.5t-203.5 92.5q-87 0 -154.5 -66.5t-115.5 -199.5l9 2q10 2 19 2q70 0 110 -57.5t40 -139.5q0 -104 -81 -201.5t-225 -97.5q-217 0 -345.5 126t-128.5 363q0 185 90.5 296.5t216.5 111.5
q108 0 162.5 -77t54.5 -230q-129 0 -212 -54t-83 -149q0 -84 81.5 -151.5t199.5 -67.5q77 0 131.5 40.5t54.5 113.5q0 57 -21 82.5t-49 25.5q-55 0 -75 -59l-50 18q47 157 100.5 262t112.5 158q-147 17 -224 87.5t-77 182.5q0 124 109.5 215.5t298.5 91.5q202 0 310 -87
t108 -220q0 -79 -37 -136t-111 -91q82 -50 126 -142t44 -212q0 -353 -99.5 -582t-243.5 -320.5t-267 -91.5q-158 0 -278.5 87t-229.5 257l51 43q83 -105 186.5 -162t247.5 -57q172 0 327.5 128.5t205.5 353.5q-110 -154 -285 -154q-60 0 -106 14zM913 868q60 29 136 29
q27 0 55 -6q86 25 129 67.5t43 102.5q0 79 -85.5 118.5t-256.5 39.5q-166 0 -249 -39.5t-83 -118.5q0 -87 83 -137t228 -56zM569 649q-2 62 -20 106t-39 44q-23 0 -48 -47q-36 -66 -83 -66q-37 0 -56.5 22t-19.5 54q0 17 4 31q-65 -44 -97 -121.5t-32 -188.5q0 -87 30 -176
t83 -139q-41 86 -41 180q0 129 85 211.5t234 89.5z" />
    <glyph glyph-name="uni0D9F0DD3.rakar" horiz-adv-x="1479" 
d="M883 14l16 64q49 -12 90 -12q131 0 208 100t77 246q0 161 -85.5 253.5t-203.5 92.5q-87 0 -154.5 -66.5t-115.5 -199.5l9 2q10 2 19 2q70 0 110 -57.5t40 -139.5q0 -104 -81 -201.5t-225 -97.5q-217 0 -345.5 126t-128.5 363q0 185 90.5 296.5t216.5 111.5
q108 0 162.5 -77t54.5 -230q-129 0 -212 -54t-83 -149q0 -84 81.5 -151.5t199.5 -67.5q77 0 131.5 40.5t54.5 113.5q0 57 -21 82.5t-49 25.5q-55 0 -75 -59l-50 18q46 154 98.5 258.5t112.5 159.5q-143 20 -221 89t-78 183q0 124 109 215.5t301 91.5q203 0 310.5 -88
t107.5 -206q0 -87 -37 -147t-111 -93q84 -52 126 -140.5t42 -213.5q0 -353 -99.5 -582t-243.5 -320.5t-267 -91.5q-158 0 -278.5 87t-229.5 257l51 43q83 -105 186.5 -162t247.5 -57q172 0 327.5 128.5t205.5 353.5q-110 -154 -285 -154q-60 0 -106 14zM913 868
q57 26 127 29q-30 41 -30 92q0 60 34.5 120.5t79.5 90.5q-75 19 -188 19q-167 0 -250.5 -39.5t-83.5 -118.5q0 -85 86.5 -137t224.5 -56zM1198 1178q-55 -32 -89 -84t-34 -97q0 -88 80 -88q49 0 86 47.5t37 100.5q0 96 -80 121zM569 649q-2 62 -20 106t-39 44q-23 0 -48 -47
q-36 -66 -83 -66q-37 0 -56.5 22t-19.5 54q0 17 4 31q-65 -44 -97 -121.5t-32 -188.5q0 -87 30 -176t83 -139q-41 86 -41 180q0 129 85 211.5t234 89.5z" />
    <glyph glyph-name="uni0DA00DCA" horiz-adv-x="1237" 
d="M578 0q-217 0 -341 96.5t-124 257.5q0 139 96 224h-121v65h461q-3 80 -37.5 119t-81.5 39q-33 0 -56 -34l-31 -42q-30 -41 -71 -41q-73 0 -73 76q0 48 51 92.5t127 44.5q117 0 178 -80t66 -239h-191q-116 0 -173.5 -48t-57.5 -143q0 -119 97 -169t298 -50
q232 0 353.5 111t121.5 305q0 84 -28.5 137.5t-97.5 120.5t-183 108t-232 41q-140 0 -315 -65l-29 61q40 17 82 31q-59 66 -59 96q0 44 93.5 76.5t207.5 32.5q206 0 351.5 -88t210.5 -244t65 -311q0 -281 -159 -430.5t-398 -149.5zM340 1036q121 21 182 21q153 0 278.5 -51
t223.5 -152q-96 180 -225 241.5t-287 61.5q-77 0 -153 -15.5t-76 -29.5q0 -10 18 -35.5t39 -40.5z" />
    <glyph glyph-name="uni0DA00DD2" horiz-adv-x="1237" 
d="M578 0q-217 0 -341 96.5t-124 257.5q0 139 96 224h-121v65h461q-3 80 -37.5 119t-81.5 39q-33 0 -56 -34l-31 -42q-30 -41 -71 -41q-73 0 -73 76q0 48 51 92.5t127 44.5q117 0 178 -80t66 -239h-191q-116 0 -173.5 -48t-57.5 -143q0 -119 97 -169t298 -50
q226 0 350.5 108.5t124.5 320.5q0 94 -43.5 171.5t-115.5 121.5t-146.5 57.5t-216.5 21.5q-149 11 -211 25.5t-99.5 54t-37.5 106.5q0 105 105.5 168t295.5 63q185 0 325 -74t140 -190q0 -60 -40 -103t-105 -54q102 -52 158.5 -156.5t56.5 -228.5q0 -281 -159 -430.5
t-398 -149.5zM276 1139q0 -22 13 -40t55.5 -35t133.5 -23l207 -15q114 -8 153 -8q76 0 113.5 24t37.5 60q0 58 -121.5 87.5t-363.5 29.5q-115 0 -171.5 -17t-56.5 -63z" />
    <glyph glyph-name="uni0DA00DD3" horiz-adv-x="1237" 
d="M578 0q-217 0 -341 96.5t-124 257.5q0 139 96 224h-121v65h461q-3 80 -37.5 119t-81.5 39q-33 0 -56 -34l-31 -42q-30 -41 -71 -41q-73 0 -73 76q0 48 51 92.5t127 44.5q117 0 178 -80t66 -239h-191q-116 0 -173.5 -48t-57.5 -143q0 -119 97 -169t298 -50
q232 0 353.5 111t121.5 305q0 102 -42.5 182.5t-114.5 124.5t-143.5 57t-225.5 21q-215 12 -279.5 56t-64.5 134q0 103 107 165t294 62q185 0 325 -74t140 -190q0 -59 -41.5 -103t-103.5 -56q103 -53 159 -157t56 -226q0 -281 -159 -430.5t-398 -149.5zM725 1022
q-53 33 -53 100q0 57 45 88q-97 9 -213 9q-118 0 -173 -18t-55 -58q0 -51 52.5 -73.5t163.5 -28.5q112 -7 233 -19zM989 1102q0 40 -38.5 69t-110.5 29q-103 0 -103 -78q0 -42 44 -69t106 -27q49 0 75.5 24t26.5 52z" />
    <glyph glyph-name="uni0DA00DD4" horiz-adv-x="1237" 
d="M578 0q-217 0 -341 96.5t-124 257.5q0 139 96 224h-121v65h461q-3 80 -37.5 119t-81.5 39q-33 0 -56 -34l-31 -42q-30 -41 -71 -41q-73 0 -73 76q0 48 51 92.5t127 44.5q117 0 178 -80t66 -239h-191q-116 0 -173.5 -48t-57.5 -143q0 -119 97 -169t298 -50
q232 0 353.5 111t121.5 305q0 168 -66 297.5t-183.5 200.5t-235.5 71t-223 -57t-181 -164l-55 35q78 120 199.5 186t255.5 66q235 0 395 -183t160 -456v-1051h-807q-89 0 -142 50.5t-53 135.5q0 83 57.5 140t139.5 57q148 0 211 -143l-58 -27q-55 104 -143 104
q-62 0 -101.5 -37t-39.5 -92q0 -60 35 -91.5t94 -31.5h723v648q-67 -112 -194 -177t-279 -65z" />
    <glyph glyph-name="uni0DA00DD6" horiz-adv-x="1237" 
d="M578 0q-217 0 -341 96.5t-124 257.5q0 139 96 224h-121v65h461q-3 80 -37.5 119t-81.5 39q-33 0 -56 -34l-31 -42q-30 -41 -71 -41q-73 0 -73 76q0 48 51 92.5t127 44.5q117 0 178 -80t66 -239h-191q-116 0 -173.5 -48t-57.5 -143q0 -119 97 -169t298 -50
q232 0 353.5 111t121.5 305q0 168 -66 297.5t-183.5 200.5t-235.5 71t-223 -57t-181 -164l-55 35q78 120 199.5 186t255.5 66q235 0 395 -183t160 -456v-1063h-58q-99 125 -203 125q-63 0 -105.5 -13t-194.5 -71q-116 -45 -240 -45q-105 0 -165 57.5t-60 142.5q0 77 55 137
t141 60q148 0 211 -143l-57 -27q-53 104 -146 104q-66 0 -102.5 -40t-36.5 -87q0 -60 41 -99.5t100 -39.5q94 0 195 44l59 24l62 30q109 52 207 52q110 0 213 -90v604q-67 -112 -194 -177t-279 -65z" />
    <glyph glyph-name="uni0DA0.reph" horiz-adv-x="1237" 
d="M578 0q-217 0 -341 96.5t-124 257.5q0 139 96 224h-121v65h461q-3 80 -37.5 119t-81.5 39q-33 0 -56 -34l-31 -42q-30 -41 -71 -41q-73 0 -73 76q0 48 51 92.5t127 44.5q117 0 178 -80t66 -239h-191q-116 0 -173.5 -48t-57.5 -143q0 -119 97 -169t298 -50
q232 0 353.5 111t121.5 305q0 123 -36.5 226t-108.5 185q-7 -15 -12 -28q-6 -14 -11 -23q-54 27 -59 27q6 11 17 28q10 17 18 41q-35 29 -68 47v-12q0 -72 -63.5 -118t-136.5 -46q-97 0 -159 42.5t-83 146.5q-101 -53 -187 -168l-55 35q95 147 250 211q27 75 104.5 116
t182.5 41q137 0 214.5 -59t77.5 -156q0 -30 -8 -53q94 -96 141.5 -217.5t47.5 -269.5q0 -281 -159 -430.5t-398 -149.5zM889 1116q0 64 -64.5 109t-162.5 45q-124 0 -191 -64q61 13 109 13q86 0 163 -26t146 -77zM543 1151q-67 -7 -111 -25v-2q0 -53 34.5 -95.5t96.5 -53.5
q-45 38 -45 100q0 42 25 76zM666 1143q-82 0 -82 -66q0 -37 24 -53t56 -16q35 0 57 17.5t22 51.5q0 32 -24 49t-53 17z" />
    <glyph glyph-name="uni0DA0.rakar" horiz-adv-x="1237" 
d="M578 0q-217 0 -341 96.5t-124 257.5q0 139 96 224h-121v65h461q-3 80 -37.5 119t-81.5 39q-33 0 -56 -34l-31 -42q-30 -41 -71 -41q-73 0 -73 76q0 48 51 92.5t127 44.5q117 0 178 -80t66 -239h-191q-116 0 -173.5 -48t-57.5 -143q0 -119 97 -169t298 -50
q232 0 353.5 111t121.5 305q0 168 -66 297.5t-183.5 200.5t-235.5 71t-223 -57t-181 -164l-55 35q78 120 199.5 186t255.5 66q235 0 395 -185t160 -463q0 -434 -103.5 -664t-246.5 -316.5t-261 -86.5q-158 0 -278.5 87t-229.5 257l52 43q82 -104 185 -161.5t249 -57.5
q182 0 343.5 144.5t205.5 425.5q-67 -112 -194 -177t-279 -65z" />
    <glyph glyph-name="uni0DA00DCA.rakar" horiz-adv-x="1237" 
d="M578 0q-217 0 -341 96.5t-124 257.5q0 139 96 224h-121v65h461q-3 80 -37.5 119t-81.5 39q-33 0 -56 -34l-31 -42q-30 -41 -71 -41q-73 0 -73 76q0 48 51 92.5t127 44.5q117 0 178 -80t66 -239h-191q-116 0 -173.5 -48t-57.5 -143q0 -119 97 -169t298 -50
q232 0 353.5 111t121.5 305q0 84 -28.5 137.5t-97.5 120.5t-183 108t-232 41q-140 0 -315 -65l-29 61q40 17 82 31q-59 66 -59 96q0 44 93.5 76.5t207.5 32.5q208 0 354 -89t209.5 -249.5t63.5 -313.5q0 -422 -101.5 -656t-246 -322.5t-263.5 -88.5q-158 0 -278.5 87
t-229.5 257l52 43q82 -104 185 -161.5t249 -57.5q184 0 353 152.5t189 406.5q-71 -110 -195 -170.5t-271 -60.5zM340 1036q121 21 182 21q153 0 278.5 -51t223.5 -152q-96 180 -225 241.5t-287 61.5q-77 0 -153 -15.5t-76 -29.5q0 -10 18 -35.5t39 -40.5z" />
    <glyph glyph-name="uni0DA00DD2.rakar" horiz-adv-x="1237" 
d="M578 0q-217 0 -341 96.5t-124 257.5q0 139 96 224h-121v65h461q-3 80 -37.5 119t-81.5 39q-33 0 -56 -34l-31 -42q-30 -41 -71 -41q-73 0 -73 76q0 48 51 92.5t127 44.5q117 0 178 -80t66 -239h-191q-116 0 -173.5 -48t-57.5 -143q0 -119 97 -169t298 -50
q226 0 350.5 108t124.5 321q0 93 -42.5 169.5t-112.5 122t-147 59.5t-225 21q-218 13 -280.5 57.5t-62.5 132.5q0 104 107.5 165.5t293.5 61.5q190 0 327.5 -75t137.5 -194q0 -56 -40.5 -98.5t-105.5 -53.5q102 -50 159 -156.5t57 -237.5q0 -425 -102 -658t-246 -321
t-263 -88q-158 0 -278.5 87t-229.5 257l52 43q82 -104 185 -161.5t249 -57.5q184 0 353 152.5t189 406.5q-71 -110 -195 -170.5t-271 -60.5zM276 1139q0 -22 13 -40t55.5 -35t133.5 -23l207 -15q114 -8 153 -8q76 0 113.5 24t37.5 60q0 58 -121.5 87.5t-363.5 29.5
q-115 0 -171.5 -17t-56.5 -63z" />
    <glyph glyph-name="uni0DA00DD3.rakar" horiz-adv-x="1237" 
d="M578 0q-217 0 -341 96.5t-124 257.5q0 139 96 224h-121v65h461q-3 80 -37.5 119t-81.5 39q-33 0 -56 -34l-31 -42q-30 -41 -71 -41q-73 0 -73 76q0 48 51 92.5t127 44.5q117 0 178 -80t66 -239h-191q-116 0 -173.5 -48t-57.5 -143q0 -119 97 -169t298 -50
q232 0 353.5 111t121.5 305q0 102 -42 181.5t-108 121.5t-137.5 57.5t-224.5 24.5q-219 9 -288.5 54.5t-69.5 131.5q0 105 105.5 168t295.5 63q185 0 325 -74t140 -190q0 -59 -41.5 -103t-103.5 -56q101 -52 158 -155t57 -237q0 -422 -101.5 -656t-246 -322.5t-263.5 -88.5
q-158 0 -278.5 87t-229.5 257l52 43q82 -104 185 -161.5t249 -57.5q184 0 353 152.5t189 406.5q-71 -110 -195 -170.5t-271 -60.5zM989 1102q0 40 -38.5 69t-110.5 29q-103 0 -103 -78q0 -42 44 -69t106 -27q49 0 75.5 24t26.5 52zM725 1022q-53 33 -53 100q0 57 45 88
q-97 9 -213 9q-118 0 -173 -18t-55 -58q0 -51 52.5 -73.5t163.5 -28.5q112 -7 233 -19z" />
    <glyph glyph-name="uni0DA10DCA" horiz-adv-x="1237" 
d="M604 0q-240 0 -365.5 99t-125.5 257q0 126 98 209.5t281 83.5h22q-6 71 -31 110.5t-59 39.5q-31 0 -50.5 -15.5t-41.5 -56.5q-21 -43 -41.5 -57.5t-46.5 -14.5q-35 0 -55.5 24t-20.5 60q0 61 55 109.5t137 48.5q100 0 161 -79.5t61 -231.5q-228 0 -301.5 -59.5
t-73.5 -141.5q0 -118 99.5 -167.5t297.5 -49.5q227 0 335 48t108 163q0 38 -15 71t-45 62q-33 -65 -85 -104t-109 -39q-75 0 -116.5 52.5t-41.5 141.5q0 51 12 103v729h62q38 -33 118 -76q78 -42 108 -83t36 -85q46 35 84.5 52.5t68.5 17.5q31 0 42.5 -15t11.5 -30
q0 -31 -16.5 -44t-47.5 -24q-122 -41 -211.5 -120t-146.5 -197q64 57 133 57q56 0 94.5 -43.5t38.5 -128.5q0 -35 -10 -84q55 -37 86.5 -102t31.5 -136q0 -165 -132.5 -259.5t-393.5 -94.5zM713 1051q38 -17 75 -17q42 0 68.5 27t26.5 67q0 56 -32.5 91.5t-101.5 73.5
q-18 9 -36 20v-262zM713 840q35 70 73 123q-42 7 -73 18v-141zM711 649q181 -5 239 -31q6 20 6 39q0 44 -26.5 66t-79.5 22q-50 0 -88.5 -26t-50.5 -70zM698 584q1 -57 27 -85t76 -28q35 0 70.5 22t52.5 60q-59 27 -170 31h-56z" />
    <glyph glyph-name="uni0DA10DD2" horiz-adv-x="1237" 
d="M604 0q-240 0 -365.5 99t-125.5 257q0 126 98 209.5t281 83.5h22q-6 71 -31 110.5t-59 39.5q-31 0 -50.5 -15.5t-41.5 -56.5q-21 -43 -41.5 -57.5t-46.5 -14.5q-35 0 -55.5 24t-20.5 60q0 61 55 109.5t137 48.5q100 0 161 -79.5t61 -231.5q-228 0 -301.5 -59.5
t-73.5 -141.5q0 -118 99.5 -167.5t297.5 -49.5q227 0 335 48t108 163q0 38 -15 71t-45 62q-33 -65 -85 -104t-109 -39q-75 0 -116.5 52.5t-41.5 141.5q0 85 37 187q-59 76 -74 100l-46 63q-87 114 -87 230q0 108 76 175.5t217 67.5q105 0 188.5 -55t93.5 -135q54 25 84 25
q31 0 42.5 -15t11.5 -30q0 -31 -16.5 -44t-47.5 -24q-61 -20 -104 -42.5t-96 -68.5t-92.5 -99t-65.5 -107q64 57 133 57q56 0 94.5 -43.5t38.5 -128.5q0 -35 -10 -84q55 -37 86.5 -102t31.5 -136q0 -165 -132.5 -259.5t-393.5 -94.5zM979 1157q-4 26 -41.5 44t-171.5 18
q-97 0 -151 -42.5t-54 -111.5q0 -43 35 -104t106 -140q53 108 122.5 192t154.5 144zM711 649q181 -5 239 -31q6 20 6 39q0 44 -26.5 66t-79.5 22q-50 0 -88.5 -26t-50.5 -70zM698 584q1 -57 27 -85t76 -28q35 0 70.5 22t52.5 60q-59 27 -170 31h-56z" />
    <glyph glyph-name="uni0DA10DD3" horiz-adv-x="1237" 
d="M604 0q-240 0 -365.5 99t-125.5 257q0 126 98 209.5t281 83.5h22q-6 71 -31 110.5t-59 39.5q-31 0 -50.5 -15.5t-41.5 -56.5q-21 -43 -41.5 -57.5t-46.5 -14.5q-35 0 -55.5 24t-20.5 60q0 61 55 109.5t137 48.5q100 0 161 -79.5t61 -231.5q-228 0 -301.5 -59.5
t-73.5 -141.5q0 -118 99.5 -167.5t297.5 -49.5q227 0 335 48t108 163q0 38 -15 71t-45 62q-33 -65 -85 -104t-109 -39q-75 0 -116.5 52.5t-41.5 141.5q0 85 37 187q-59 77 -74 100l-46 63q-87 111 -87 230q0 108 76 175.5t217 67.5q105 0 188.5 -55t93.5 -135q54 25 84 25
q31 0 42.5 -15t11.5 -30q0 -31 -16.5 -44t-47.5 -24q-61 -20 -104 -42.5t-96 -68.5t-92.5 -99t-65.5 -107q64 57 133 57q56 0 94.5 -43.5t38.5 -128.5q0 -35 -10 -84q55 -37 86.5 -102t31.5 -136q0 -165 -132.5 -259.5t-393.5 -94.5zM758 1219q-94 -2 -145.5 -44.5
t-51.5 -109.5q0 -43 35 -104t106 -140q48 103 132 205q-99 33 -99 123q0 41 23 70zM979 1157q-6 24 -32.5 39.5t-55.5 15.5q-90 0 -90 -67q0 -56 90 -60q26 26 88 72zM711 649q181 -5 239 -31q6 20 6 39q0 44 -26.5 66t-79.5 22q-50 0 -88.5 -26t-50.5 -70zM698 584
q1 -57 27 -85t76 -28q35 0 70.5 22t52.5 60q-59 27 -170 31h-56z" />
    <glyph glyph-name="uni0DA10DD4" horiz-adv-x="1237" 
d="M604 0q-240 0 -365.5 99t-125.5 257q0 126 98 209.5t281 83.5h22q-6 71 -31 110.5t-59 39.5q-31 0 -50.5 -15.5t-41.5 -56.5q-21 -43 -41.5 -57.5t-46.5 -14.5q-35 0 -55.5 24t-20.5 60q0 61 55 109.5t137 48.5q100 0 161 -79.5t61 -231.5q-228 0 -301.5 -59.5
t-73.5 -141.5q0 -118 99.5 -167.5t297.5 -49.5q227 0 335 48t108 163q0 38 -15 71t-45 62q-33 -65 -85 -104t-109 -39q-75 0 -116.5 52.5t-41.5 141.5q0 132 88 296.5t210 263t191 98.5q31 0 42.5 -15t11.5 -30q0 -31 -16.5 -44t-47.5 -24q-61 -20 -104 -42.5t-96 -68.5
t-92.5 -99t-65.5 -107q64 57 133 57q56 0 94.5 -43.5t38.5 -128.5q0 -35 -10 -84q55 -37 86.5 -102t31.5 -136v-825h-819q-88 0 -141 50.5t-53 135.5q0 84 57.5 140.5t138.5 56.5q148 0 211 -143l-57 -27q-58 104 -143 104q-61 0 -101.5 -37t-40.5 -92q0 -60 35 -91.5
t94 -31.5h736v541q-130 -135 -443 -135zM711 649q181 -5 239 -31q6 20 6 39q0 44 -26.5 66t-79.5 22q-50 0 -88.5 -26t-50.5 -70zM698 584q3 -113 103 -113q35 0 70.5 22t52.5 60q-59 27 -170 31h-56z" />
    <glyph glyph-name="uni0DA10DD6" horiz-adv-x="1237" 
d="M604 0q-240 0 -365.5 99t-125.5 257q0 126 98 209.5t281 83.5h22q-6 71 -31 110.5t-59 39.5q-31 0 -50.5 -15.5t-41.5 -56.5q-21 -43 -41.5 -57.5t-46.5 -14.5q-35 0 -55.5 24t-20.5 60q0 61 55 109.5t137 48.5q100 0 161 -79.5t61 -231.5q-228 0 -301.5 -59.5
t-73.5 -141.5q0 -118 99.5 -167.5t297.5 -49.5q227 0 335 48t108 163q0 38 -15 71t-45 62q-33 -65 -85 -104t-109 -39q-75 0 -116.5 52.5t-41.5 141.5q0 132 88 296.5t210 263t191 98.5q31 0 42.5 -15t11.5 -30q0 -31 -16.5 -45t-47.5 -23q-106 -26 -203.5 -113t-154.5 -204
q64 57 133 57q56 0 94.5 -43.5t38.5 -128.5q0 -35 -10 -84q55 -37 86.5 -102t31.5 -136v-837h-57q-99 125 -203 125q-63 0 -118 -17t-117 -43q-90 -38 -156 -53.5t-149 -15.5q-105 0 -165.5 57.5t-60.5 142.5q0 78 55.5 137.5t141.5 59.5q148 0 211 -143l-57 -27
q-53 104 -146 104q-66 0 -102.5 -40t-36.5 -87q0 -60 41 -99.5t100 -39.5q67 0 125 16.5t190 81.5q106 52 208 52q110 0 213 -90v497q-130 -135 -443 -135zM711 649q181 -5 239 -31q6 20 6 39q0 44 -26.5 66t-79.5 22q-50 0 -88.5 -26t-50.5 -70zM698 584q1 -57 27 -85
t76 -28q35 0 70.5 22t52.5 60q-59 27 -170 31h-56z" />
    <glyph glyph-name="uni0DA1.rakar" horiz-adv-x="1237" 
d="M604 0q-240 0 -365.5 99t-125.5 257q0 126 98 209.5t281 83.5h22q-6 71 -31 110.5t-59 39.5q-31 0 -50.5 -15.5t-41.5 -56.5q-21 -43 -41.5 -57.5t-46.5 -14.5q-35 0 -55.5 24t-20.5 60q0 61 55 109.5t137 48.5q100 0 161 -79.5t61 -231.5q-228 0 -301.5 -59.5
t-73.5 -141.5q0 -118 99.5 -167.5t297.5 -49.5q227 0 335 48t108 163q0 38 -15 71t-45 62q-33 -65 -85 -104t-109 -39q-75 0 -116.5 52.5t-41.5 141.5q0 132 88 296.5t210 263t191 98.5q31 0 42.5 -15t11.5 -30q0 -31 -16.5 -44t-47.5 -24q-61 -20 -104 -42.5t-96 -68.5
t-92.5 -99t-65.5 -107q64 57 133 57q56 0 94.5 -43.5t38.5 -128.5q0 -35 -10 -84q59 -39 88.5 -109t29.5 -172q0 -190 -67 -386t-191 -308.5t-290 -112.5q-148 0 -263 86t-225 258l53 37q89 -111 186.5 -162t248.5 -51q166 0 288 120.5t177 342.5q-130 -135 -443 -135z
M711 649q181 -5 239 -31q6 20 6 39q0 44 -26.5 66t-79.5 22q-50 0 -88.5 -26t-50.5 -70zM698 584q1 -57 27 -85t76 -28q35 0 70.5 22t52.5 60q-59 27 -170 31h-56z" />
    <glyph glyph-name="uni0DA10DD2.rakar" horiz-adv-x="1237" 
d="M604 0q-240 0 -365.5 99t-125.5 257q0 126 98 209.5t281 83.5h22q-6 71 -31 110.5t-59 39.5q-31 0 -50.5 -15.5t-41.5 -56.5q-21 -43 -41.5 -57.5t-46.5 -14.5q-35 0 -55.5 24t-20.5 60q0 61 55 109.5t137 48.5q100 0 161 -79.5t61 -231.5q-228 0 -301.5 -59.5
t-73.5 -141.5q0 -118 99.5 -167.5t297.5 -49.5q227 0 335 48t108 163q0 38 -15 71t-45 62q-33 -65 -85 -104t-109 -39q-75 0 -116.5 52.5t-41.5 141.5q0 85 37 187q-59 76 -74 100l-46 63q-87 114 -87 230q0 108 76 175.5t217 67.5q105 0 188.5 -55t93.5 -135q54 25 84 25
q31 0 42.5 -15t11.5 -30q0 -31 -16.5 -44t-47.5 -24q-61 -20 -104 -42.5t-96 -68.5t-92.5 -99t-65.5 -107q64 57 133 57q56 0 94.5 -43.5t38.5 -128.5q0 -35 -10 -84q61 -41 89.5 -106.5t28.5 -174.5q0 -190 -67 -386t-191 -308.5t-290 -112.5q-155 0 -266.5 86t-221.5 258
l53 37q90 -112 186 -162.5t249 -50.5q166 0 288 120.5t177 342.5q-130 -135 -443 -135zM979 1157q-4 26 -41.5 44t-171.5 18q-97 0 -151 -42.5t-54 -111.5q0 -43 35 -104t106 -140q53 108 122.5 192t154.5 144zM711 649q181 -5 239 -31q6 20 6 39q0 44 -26.5 66t-79.5 22
q-50 0 -88.5 -26t-50.5 -70zM698 584q1 -57 27 -85t76 -28q35 0 70.5 22t52.5 60q-59 27 -170 31h-56z" />
    <glyph glyph-name="uni0DA10DD3.rakar" horiz-adv-x="1237" 
d="M604 0q-240 0 -365.5 99t-125.5 257q0 126 98 209.5t281 83.5h22q-6 71 -31 110.5t-59 39.5q-31 0 -50.5 -15.5t-41.5 -56.5q-21 -43 -41.5 -57.5t-46.5 -14.5q-35 0 -55.5 24t-20.5 60q0 61 55 109.5t137 48.5q100 0 161 -79.5t61 -231.5q-228 0 -301.5 -59.5
t-73.5 -141.5q0 -118 99.5 -167.5t297.5 -49.5q227 0 335 48t108 163q0 38 -15 71t-45 62q-33 -65 -85 -104t-109 -39q-75 0 -116.5 52.5t-41.5 141.5q0 85 37 187q-59 77 -74 100l-46 63q-87 111 -87 230q0 108 76 175.5t217 67.5q105 0 188.5 -55t93.5 -135q54 25 84 25
q31 0 42.5 -15t11.5 -30q0 -31 -16.5 -44t-47.5 -24q-61 -20 -104 -42.5t-96 -68.5t-92.5 -99t-65.5 -107q64 57 133 57q56 0 94.5 -43.5t38.5 -128.5q0 -35 -10 -84q59 -40 88.5 -110.5t29.5 -170.5q0 -205 -67 -397.5t-191 -301t-290 -108.5q-155 0 -266.5 86t-221.5 258
l53 37q90 -112 186 -162.5t249 -50.5q166 0 288 120.5t177 342.5q-130 -135 -443 -135zM758 1219q-94 -2 -145.5 -44.5t-51.5 -109.5q0 -43 35 -104t106 -140q48 103 132 205q-99 33 -99 123q0 41 23 70zM979 1157q-6 24 -32.5 39.5t-55.5 15.5q-90 0 -90 -67q0 -56 90 -60
q26 26 88 72zM711 649q181 -5 239 -31q6 20 6 39q0 44 -26.5 66t-79.5 22q-50 0 -88.5 -26t-50.5 -70zM698 584q1 -57 27 -85t76 -28q35 0 70.5 22t52.5 60q-59 27 -170 31h-56z" />
    <glyph glyph-name="uni0DA20DCA" horiz-adv-x="1237" 
d="M616 0q-246 0 -374.5 96.5t-128.5 257.5q0 126 97.5 210.5t281.5 84.5h22q-6 71 -31 110.5t-59 39.5q-31 0 -50.5 -15.5t-41.5 -56.5q-21 -43 -41.5 -57.5t-46.5 -14.5q-35 0 -55.5 24t-20.5 60q0 61 55 109.5t137 48.5q100 0 161 -79.5t61 -231.5q-228 0 -301.5 -59.5
t-73.5 -141.5q0 -127 98 -172t311 -45q216 0 323.5 49.5t107.5 157.5q0 95 -81.5 153t-220.5 58h-88v809h62q37 -32 119 -76q78 -42 111.5 -88t33.5 -109v-12q62 61 104 92t64 31q39 0 39 -39q0 -19 -19.5 -35.5t-48.5 -36.5q-187 -129 -233 -223h16q67 0 114.5 -44
t47.5 -112q0 -45 -26 -82t-74 -53q90 -39 126.5 -105.5t36.5 -148.5q0 -157 -129 -255.5t-385 -98.5zM723 1051q40 -17 76 -17q42 0 68 27t26 67q0 53 -29.5 88.5t-103.5 76.5q-18 9 -37 20v-262zM799 872q17 45 53 93l-16 -2q-39 -5 -113 18v-176q27 42 76 67zM854 821
q-14 -24 -14 -73q0 -39 25 -60.5t59 -21.5q37 0 57 23t20 59q0 34 -25 60t-69 26q-25 0 -53 -13zM745 649q34 0 70 -4q-41 46 -41 107v14q-40 -67 -43 -117h14z" />
    <glyph glyph-name="uni0DA20DD2" horiz-adv-x="1237" 
d="M616 0q-241 0 -372 95.5t-131 260.5q0 126 98 209.5t281 83.5h22q-6 71 -31 110.5t-59 39.5q-31 0 -50.5 -15.5t-41.5 -56.5q-21 -43 -41.5 -57.5t-46.5 -14.5q-35 0 -55.5 24t-20.5 60q0 61 55 109.5t137 48.5q100 0 161 -79.5t61 -231.5q-228 0 -301.5 -59.5
t-73.5 -141.5q0 -78 34.5 -122.5t123.5 -69.5t251 -25q221 0 326 49.5t105 161.5q0 93 -82.5 150t-219.5 57h-88q4 83 29 151l-21 25q-50 56 -67 82l-46 64q-87 118 -87 235q0 112 78 177.5t225 65.5q126 0 199 -55t73 -135q0 -28 -4 -37q43 37 71.5 55.5t43.5 18.5
q39 0 39 -39q0 -19 -19.5 -35.5t-48.5 -36.5q-187 -129 -233 -223h16q67 0 114.5 -44t47.5 -112q0 -45 -26 -82t-74 -53l47 -24q45 -23 80.5 -83.5t35.5 -146.5q0 -165 -134 -259.5t-380 -94.5zM799 872q33 82 153 207q27 31 27 64q0 48 -55 62t-133 14q-111 0 -170.5 -42
t-59.5 -112q0 -46 39.5 -112t118.5 -152q36 48 80 71zM854 821q-14 -24 -14 -73q0 -39 25 -60.5t59 -21.5q37 0 57 23t20 59q0 34 -25 60t-69 26q-25 0 -53 -13zM745 649q34 0 70 -4q-41 46 -41 107v14q-40 -67 -43 -117h14z" />
    <glyph glyph-name="uni0DA20DD3" horiz-adv-x="1237" 
d="M616 0q-241 0 -372 95.5t-131 260.5q0 126 98 209.5t281 83.5h22q-6 71 -31 110.5t-59 39.5q-31 0 -50.5 -15.5t-41.5 -56.5q-21 -43 -41.5 -57.5t-46.5 -14.5q-35 0 -55.5 24t-20.5 60q0 61 55 109.5t137 48.5q100 0 161 -79.5t61 -231.5q-228 0 -301.5 -59.5
t-73.5 -141.5q0 -78 34.5 -122.5t123.5 -69.5t251 -25q221 0 326 49.5t105 161.5q0 93 -82.5 150t-219.5 57h-88q4 83 29 151l-21 25q-50 56 -67 82l-46 64q-87 118 -87 235q0 112 78 177.5t225 65.5q126 0 199 -55t73 -135q0 -28 -4 -37q43 37 71.5 55.5t43.5 18.5
q39 0 39 -39q0 -19 -19.5 -35.5t-48.5 -36.5q-187 -129 -233 -223h16q67 0 114.5 -44t47.5 -112q0 -45 -26 -82t-74 -53l47 -24q45 -23 80.5 -83.5t35.5 -146.5q0 -165 -134 -259.5t-380 -94.5zM743 1217q-92 -10 -137 -53t-45 -99q0 -46 39.5 -112t118.5 -152q36 48 80 71
q26 68 92 142q-81 0 -128.5 36.5t-47.5 88.5t28 78zM883 1214q-57 0 -80 -21.5t-23 -47.5q0 -38 30 -56t71 -18q42 0 70 21.5t28 52.5q0 28 -27 48.5t-69 20.5zM854 821q-14 -24 -14 -73q0 -39 25 -60.5t59 -21.5q37 0 57 23t20 59q0 34 -25 60t-69 26q-25 0 -53 -13z
M745 649q34 0 70 -4q-41 46 -41 107v14q-40 -67 -43 -117h14z" />
    <glyph glyph-name="uni0DA20DD4" horiz-adv-x="1237" 
d="M616 0q-241 0 -372 95.5t-131 260.5q0 126 98 209.5t281 83.5h22q-6 71 -31 110.5t-59 39.5q-31 0 -50.5 -15.5t-41.5 -56.5q-21 -43 -41.5 -57.5t-46.5 -14.5q-35 0 -55.5 24t-20.5 60q0 61 55 109.5t137 48.5q100 0 161 -79.5t61 -231.5q-228 0 -301.5 -59.5
t-73.5 -141.5q0 -78 34.5 -122.5t123.5 -69.5t251 -25q221 0 326 49.5t105 161.5q0 93 -82.5 150t-219.5 57h-88q6 109 41.5 180.5t100.5 105.5q37 92 172.5 226.5t179.5 134.5q39 0 39 -39q0 -19 -19.5 -35.5t-48.5 -36.5q-187 -129 -233 -223h16q67 0 114.5 -44t47.5 -112
q0 -45 -26 -82t-74 -53q81 -35 122 -98.5t41 -155.5v-825h-819q-88 0 -141 50.5t-53 135.5q0 84 57.5 140.5t138.5 56.5q148 0 211 -143l-57 -27q-58 104 -143 104q-61 0 -101.5 -37t-40.5 -92q0 -60 35 -91.5t94 -31.5h736v543q-133 -137 -431 -137zM854 821
q-14 -24 -14 -73q0 -39 25 -60.5t59 -21.5q37 0 57 23t20 59q0 34 -25 60t-69 26q-25 0 -53 -13zM745 649q34 0 70 -4q-41 46 -41 107v14q-20 -34 -31 -63t-12 -54h14z" />
    <glyph glyph-name="uni0DA20DD6" horiz-adv-x="1237" 
d="M616 0q-241 0 -372 95.5t-131 260.5q0 126 98 209.5t281 83.5h22q-6 71 -31 110.5t-59 39.5q-31 0 -50.5 -15.5t-41.5 -56.5q-21 -43 -41.5 -57.5t-46.5 -14.5q-35 0 -55.5 24t-20.5 60q0 61 55 109.5t137 48.5q100 0 161 -79.5t61 -231.5q-228 0 -301.5 -59.5
t-73.5 -141.5q0 -78 34.5 -122.5t123.5 -69.5t251 -25q221 0 326 49.5t105 161.5q0 93 -82.5 150t-219.5 57h-88q6 109 41.5 180.5t100.5 105.5q37 92 172.5 226.5t179.5 134.5q39 0 39 -39q0 -19 -19.5 -35.5t-48.5 -36.5q-187 -129 -233 -223h16q67 0 114.5 -44t47.5 -112
q0 -45 -26 -82t-74 -53q81 -35 122 -98.5t41 -155.5v-837h-57q-99 125 -199 125q-61 0 -99 -11.5t-197 -72.5q-116 -45 -240 -45q-105 0 -165 57.5t-60 142.5q0 77 55 137t141 60q148 0 211 -143l-57 -27q-53 104 -146 104q-66 0 -102.5 -40t-36.5 -87q0 -60 41.5 -99.5
t99.5 -39.5q94 0 195 44l59 24l62 30q106 52 203 52q60 0 108 -22t101 -68v499q-133 -137 -431 -137zM854 821q-14 -24 -14 -73q0 -39 25 -60.5t59 -21.5q37 0 57 23t20 59q0 34 -25 60t-69 26q-25 0 -53 -13zM745 649q34 0 70 -4q-41 46 -41 107v14q-20 -34 -31 -63
t-12 -54h14z" />
    <glyph glyph-name="uni0DA2.reph" horiz-adv-x="1237" 
d="M616 0q-241 0 -372 95.5t-131 260.5q0 126 98 209.5t281 83.5h22q-6 71 -31 110.5t-59 39.5q-31 0 -50.5 -15.5t-41.5 -56.5q-21 -43 -41.5 -57.5t-46.5 -14.5q-35 0 -55.5 24t-20.5 60q0 61 55 109.5t137 48.5h10q4 0 9 -2q-55 63 -55 135q0 96 81.5 155.5t212.5 59.5
q134 0 212 -57t81 -152q91 98 151 147.5t89 49.5q39 0 39 -39q0 -19 -19.5 -35.5t-48.5 -36.5q-187 -129 -233 -223h16q67 0 114.5 -44t47.5 -112q0 -45 -26 -82t-74 -53q81 -35 122 -98.5t41 -155.5q0 -165 -134 -259.5t-380 -94.5zM799 872q2 5 10 20q37 67 37 138
q0 61 -66 105.5t-162 44.5q-103 0 -166 -43.5t-63 -102.5q0 -48 31.5 -85.5t99.5 -49.5q-45 38 -45 100q0 57 41.5 95.5t106.5 38.5q61 0 102 -39.5t41 -94.5q0 -74 -63.5 -118.5t-151.5 -44.5h-21q-14 0 -28 2q40 -42 60 -105t20 -147q-228 0 -301.5 -59.5t-73.5 -141.5
q0 -78 34.5 -122.5t123.5 -69.5t251 -25q221 0 326 49.5t105 161.5q0 93 -82.5 150t-219.5 57h-88q6 111 41.5 182.5t100.5 103.5zM541 1001q0 -37 24 -53t56 -16q35 0 57 17.5t22 51.5q0 29 -21.5 47.5t-55.5 18.5q-82 0 -82 -66zM854 821q-14 -24 -14 -73q0 -39 25 -60.5
t59 -21.5q37 0 57 23t20 59q0 34 -25 60t-69 26q-25 0 -53 -13zM745 649q34 0 70 -4q-41 46 -41 107v14q-40 -67 -43 -117h14z" />
    <glyph glyph-name="uni0DA2.rakar" horiz-adv-x="1237" 
d="M616 0q-241 0 -372 95.5t-131 260.5q0 126 98 209.5t281 83.5h22q-6 71 -31 110.5t-59 39.5q-31 0 -50.5 -15.5t-41.5 -56.5q-21 -43 -41.5 -57.5t-46.5 -14.5q-35 0 -55.5 24t-20.5 60q0 61 55 109.5t137 48.5q100 0 161 -79.5t61 -231.5q-228 0 -301.5 -59.5
t-73.5 -141.5q0 -78 34.5 -122.5t123.5 -69.5t251 -25q221 0 326 49.5t105 161.5q0 93 -82.5 150t-219.5 57h-88q6 109 41.5 180.5t100.5 105.5q37 92 172.5 226.5t179.5 134.5q39 0 39 -39q0 -19 -19.5 -35.5t-48.5 -36.5q-187 -129 -233 -223h16q67 0 114.5 -44t47.5 -112
q0 -45 -26 -82t-74 -53q76 -32 119.5 -96t43.5 -150q0 -357 -145.5 -607.5t-402.5 -250.5q-155 0 -266.5 86t-221.5 258l53 37q90 -112 186 -162.5t249 -50.5q167 0 288 119.5t177 345.5q-133 -137 -431 -137zM854 821q-14 -24 -14 -73q0 -39 25 -60.5t59 -21.5q37 0 57 23
t20 59q0 34 -25 60t-69 26q-25 0 -53 -13zM745 649q34 0 70 -4q-41 46 -41 107v14q-20 -34 -31 -63t-12 -54h14z" />
    <glyph glyph-name="uni0DA20DD2.rakar" horiz-adv-x="1237" 
d="M616 0q-241 0 -372 95.5t-131 260.5q0 126 98 209.5t281 83.5h22q-6 71 -31 110.5t-59 39.5q-31 0 -50.5 -15.5t-41.5 -56.5q-21 -43 -41.5 -57.5t-46.5 -14.5q-35 0 -55.5 24t-20.5 60q0 61 55 109.5t137 48.5q100 0 161 -79.5t61 -231.5q-228 0 -301.5 -59.5
t-73.5 -141.5q0 -78 34.5 -122.5t123.5 -69.5t251 -25q221 0 326 49.5t105 161.5q0 93 -82.5 150t-219.5 57h-88q4 83 29 151l-21 25q-50 56 -67 82l-46 64q-87 118 -87 235q0 112 78 177.5t225 65.5q126 0 199 -55t73 -135q0 -28 -4 -37q43 37 71.5 55.5t43.5 18.5
q39 0 39 -39q0 -19 -19.5 -35.5t-48.5 -36.5q-187 -129 -233 -223h16q67 0 114.5 -44t47.5 -112q0 -45 -26 -82t-74 -53l47 -24q45 -23 80.5 -83.5t35.5 -146.5q0 -212 -64.5 -416.5t-189 -319t-294.5 -114.5q-155 0 -266.5 86t-221.5 258l53 37q90 -112 186 -162.5
t249 -50.5q167 0 288 119.5t177 345.5q-133 -137 -431 -137zM799 872q33 82 153 207q27 31 27 64q0 48 -55 62t-133 14q-111 0 -170.5 -42t-59.5 -112q0 -46 39.5 -112t118.5 -152q36 48 80 71zM854 821q-14 -24 -14 -73q0 -39 25 -60.5t59 -21.5q37 0 57 23t20 59
q0 34 -25 60t-69 26q-25 0 -53 -13zM745 649q34 0 70 -4q-41 46 -41 107v14q-40 -67 -43 -117h14z" />
    <glyph glyph-name="uni0DA20DD3.rakar" horiz-adv-x="1237" 
d="M616 0q-241 0 -372 95.5t-131 260.5q0 126 98 209.5t281 83.5h22q-6 71 -31 110.5t-59 39.5q-31 0 -50.5 -15.5t-41.5 -56.5q-21 -43 -41.5 -57.5t-46.5 -14.5q-35 0 -55.5 24t-20.5 60q0 61 55 109.5t137 48.5q100 0 161 -79.5t61 -231.5q-228 0 -301.5 -59.5
t-73.5 -141.5q0 -78 34.5 -122.5t123.5 -69.5t251 -25q221 0 326 49.5t105 161.5q0 93 -82.5 150t-219.5 57h-88q4 83 29 151l-21 25q-50 56 -67 82l-46 64q-87 118 -87 235q0 112 78 177.5t225 65.5q126 0 199 -55t73 -135q0 -28 -4 -37q43 37 71.5 55.5t43.5 18.5
q39 0 39 -39q0 -19 -19.5 -35.5t-48.5 -36.5q-187 -129 -233 -223h16q67 0 114.5 -44t47.5 -112q0 -45 -26 -82t-74 -53l47 -24q45 -23 80.5 -83.5t35.5 -146.5q0 -212 -64.5 -416.5t-189 -319t-294.5 -114.5q-155 0 -266.5 86t-221.5 258l53 37q90 -112 186 -162.5
t249 -50.5q167 0 288 119.5t177 345.5q-133 -137 -431 -137zM743 1217q-92 -10 -137 -53t-45 -99q0 -46 39.5 -112t118.5 -152q36 48 80 71q26 68 92 142q-81 0 -128.5 36.5t-47.5 88.5t28 78zM883 1214q-57 0 -80 -21.5t-23 -47.5q0 -38 30 -56t71 -18q42 0 70 21.5
t28 52.5q0 28 -27 48.5t-69 20.5zM854 821q-14 -24 -14 -73q0 -39 25 -60.5t59 -21.5q37 0 57 23t20 59q0 34 -25 60t-69 26q-25 0 -53 -13zM745 649q34 0 70 -4q-41 46 -41 107v14q-40 -67 -43 -117h14z" />
    <glyph glyph-name="uni0DA30DCA" horiz-adv-x="2308" 
d="M174 27l-61 22q91 263 173.5 393t198.5 226q-8 71 -38 108t-68 37q-57 0 -94 -94q-18 -49 -27.5 -64.5t-30.5 -28t-45 -12.5q-38 0 -59 24.5t-21 66.5q0 59 62.5 125.5t159.5 66.5q177 0 213 -190q93 72 262 131t313 59q179 0 308.5 -69t129.5 -162q0 -39 -26 -60.5
t-74 -21.5h-86q-113 0 -172 -51t-59 -136q0 -110 57 -169.5t172 -59.5q100 0 173 87t73 187h65q0 -109 55 -191.5t148 -82.5q126 0 195 102.5t69 264.5q0 100 -31.5 162t-104.5 135t-190.5 116t-234.5 43q-49 0 -138 -16t-147 -39l-32 59q31 16 55 23q-60 67 -60 96
q0 44 93.5 76.5t208.5 32.5q212 0 358 -92.5t217.5 -257.5t71.5 -357q0 -234 -87 -375t-243 -141q-155 0 -236 145q-42 -65 -121.5 -105t-156.5 -40q-83 0 -145.5 37.5t-104.5 112.5q-29 -75 -82.5 -112.5t-132.5 -37.5q-71 0 -124.5 36t-90.5 109q-36 -70 -95.5 -107.5
t-121.5 -37.5q-57 0 -92.5 17.5t-71.5 56.5q-30 32 -49 32q-42 0 -78 -79zM1386 1036q123 21 183 21q154 0 280.5 -51t225.5 -152q-67 121 -133 179t-164 91t-219 33q-77 0 -153.5 -15.5t-76.5 -29.5q0 -11 20 -37.5t37 -38.5zM516 608q48 17 119 29t117 12
q115 0 197.5 -41.5t131.5 -124.5q30 83 107 124.5t201 41.5h67q29 0 29 19q0 11 -29.5 40.5t-120.5 60t-237 30.5q-151 0 -308 -49.5t-274 -141.5zM717 442q0 -127 51.5 -200.5t130.5 -73.5q74 0 115 48t41 120q0 103 -76.5 175.5t-218.5 72.5q-145 0 -346 -74
q-109 -130 -191 -344q46 18 72 18q35 0 75 -8q39 -8 81 -8q96 0 146 68.5t54 205.5h66z" />
    <glyph glyph-name="uni0DA30DD2" horiz-adv-x="2308" 
d="M174 27l-61 22q91 263 173.5 393t198.5 226q-8 71 -38 108t-68 37q-57 0 -94 -94q-18 -49 -27.5 -64.5t-30.5 -28t-45 -12.5q-38 0 -59 24.5t-21 66.5q0 59 62.5 125.5t159.5 66.5q177 0 213 -190q93 72 262 131t313 59q179 0 308.5 -69t129.5 -162q0 -39 -26 -60.5
t-74 -21.5h-86q-113 0 -172 -51t-59 -136q0 -110 57 -169.5t172 -59.5q100 0 173 87t73 187h65q0 -109 55 -191.5t148 -82.5q129 0 196.5 78t67.5 207q0 145 -71.5 246t-179.5 141.5t-343 56.5q-179 13 -268.5 70.5t-89.5 158.5q0 126 123.5 193t314.5 67q228 0 359 -78.5
t131 -228.5q0 -126 -136 -215q123 -67 174.5 -172.5t51.5 -257.5q0 -201 -87 -317.5t-243 -116.5q-155 0 -236 145q-42 -65 -121.5 -105t-156.5 -40q-83 0 -145.5 37.5t-104.5 112.5q-29 -75 -82.5 -112.5t-132.5 -37.5q-71 0 -124.5 36t-90.5 109q-36 -70 -95.5 -107.5
t-121.5 -37.5q-57 0 -92.5 17.5t-71.5 56.5q-30 32 -49 32q-42 0 -78 -79zM1266 1110q0 -56 68.5 -94.5t205.5 -50.5q46 -3 198 -21q121 -14 167 -14q62 0 98.5 40.5t36.5 90.5q0 88 -103.5 123t-320.5 35q-140 0 -215.5 -11t-105 -33.5t-29.5 -64.5zM516 608q48 17 119 29
t117 12q115 0 197.5 -41.5t131.5 -124.5q30 83 107 124.5t201 41.5h67q29 0 29 19q0 11 -29.5 40.5t-120.5 60t-237 30.5q-151 0 -308 -49.5t-274 -141.5zM717 442q0 -127 51.5 -200.5t130.5 -73.5q74 0 115 48t41 120q0 103 -76.5 175.5t-218.5 72.5q-145 0 -346 -74
q-109 -130 -191 -344q46 18 72 18q35 0 75 -8q39 -8 81 -8q96 0 146 68.5t54 205.5h66z" />
    <glyph glyph-name="uni0DA30DD3" horiz-adv-x="2308" 
d="M174 27l-61 22q91 263 173.5 393t198.5 226q-8 71 -38 108t-68 37q-57 0 -94 -94q-18 -49 -27.5 -64.5t-30.5 -28t-45 -12.5q-38 0 -59 24.5t-21 66.5q0 59 62.5 125.5t159.5 66.5q177 0 213 -190q93 72 262 131t313 59q179 0 308.5 -69t129.5 -162q0 -39 -26 -60.5
t-74 -21.5h-86q-113 0 -172 -51t-59 -136q0 -110 57 -169.5t172 -59.5q100 0 173 87t73 187h65q0 -109 55 -191.5t148 -82.5q123 0 193.5 76t70.5 209q0 109 -38.5 192t-114.5 139.5t-164.5 77.5t-276.5 35q-179 14 -268.5 71.5t-89.5 157.5q0 126 125.5 193t337.5 67
q226 0 347.5 -88t121.5 -206q0 -73 -33.5 -137t-89.5 -91q104 -65 156.5 -172.5t52.5 -257.5q0 -197 -85 -315.5t-245 -118.5q-155 0 -236 145q-42 -65 -121.5 -105t-156.5 -40q-83 0 -145.5 37.5t-104.5 112.5q-29 -75 -82.5 -112.5t-132.5 -37.5q-71 0 -124.5 36
t-90.5 109q-36 -70 -95.5 -107.5t-121.5 -37.5q-57 0 -92.5 17.5t-71.5 56.5q-30 32 -49 32q-42 0 -78 -79zM1769 940q-6 24 -6 49q0 56 33 117t82 94q-102 19 -283 19q-192 0 -260.5 -24t-68.5 -85q0 -69 87.5 -104t233.5 -45q139 -14 182 -21zM1952 1178q-55 -32 -89 -84
t-34 -97q0 -88 82 -88q50 0 85.5 48.5t35.5 99.5q0 40 -19 74t-61 47zM516 608q48 17 119 29t117 12q115 0 197.5 -41.5t131.5 -124.5q30 83 107 124.5t201 41.5h67q29 0 29 19q0 11 -29.5 40.5t-120.5 60t-237 30.5q-151 0 -308 -49.5t-274 -141.5zM717 442
q0 -127 51.5 -200.5t130.5 -73.5q74 0 115 48t41 120q0 103 -76.5 175.5t-218.5 72.5q-145 0 -346 -74q-109 -130 -191 -344q46 18 72 18q35 0 75 -8q39 -8 81 -8q96 0 146 68.5t54 205.5h66z" />
    <glyph glyph-name="uni0DA30DD4" horiz-adv-x="2308" 
d="M174 27l-61 22q91 263 173.5 393t198.5 226q-8 71 -38 108t-68 37q-57 0 -94 -94q-18 -49 -27.5 -64.5t-30.5 -28t-45 -12.5q-38 0 -59 24.5t-21 66.5q0 59 62.5 125.5t159.5 66.5q177 0 213 -190q93 72 262 131t313 59q179 0 308.5 -69t129.5 -162q0 -39 -26 -60.5
t-74 -21.5h-86q-113 0 -172 -51t-59 -136q0 -110 57 -169.5t172 -59.5q100 0 173 87t73 187h65q0 -109 55 -191.5t148 -82.5q126 0 195 102.5t69 264.5q0 284 -162.5 453t-390.5 169q-121 0 -220 -48t-177 -144l-51 36q82 107 193 164.5t267 57.5q157 0 301.5 -82.5
t225 -242t80.5 -382.5v-987h-910q-88 0 -141 50.5t-53 135.5q0 84 57.5 140.5t138.5 56.5q69 0 125.5 -36t85.5 -107l-57 -27q-58 104 -143 104q-61 0 -101.5 -37t-40.5 -92q0 -60 35 -91.5t94 -31.5h826v551q-45 -73 -106.5 -109t-139.5 -36q-155 0 -236 145
q-42 -65 -121.5 -105t-156.5 -40q-83 0 -145.5 37.5t-104.5 112.5q-29 -75 -82.5 -112.5t-132.5 -37.5q-71 0 -124.5 36t-90.5 109q-36 -70 -95.5 -107.5t-121.5 -37.5q-57 0 -92.5 17.5t-71.5 56.5q-30 32 -49 32q-42 0 -78 -79zM516 608q48 17 119 29t117 12
q115 0 197.5 -41.5t131.5 -124.5q30 83 107 124.5t201 41.5h67q29 0 29 19q0 11 -29.5 40.5t-120.5 60t-237 30.5q-151 0 -308 -49.5t-274 -141.5zM717 442q0 -127 51.5 -200.5t130.5 -73.5q74 0 115 48t41 120q0 103 -76.5 175.5t-218.5 72.5q-145 0 -346 -74
q-109 -130 -191 -344q46 18 72 18q35 0 75 -8q39 -8 81 -8q96 0 146 68.5t54 205.5h66z" />
    </font>
</defs>
</svg>
