<?xml version="1.0" standalone="no"?>
<!DOCTYPE svg PUBLIC "-//W3C//DTD SVG 1.1//EN" "http://www.w3.org/Graphics/SVG/1.1/DTD/svg11.dtd" >
<svg>
<metadata>
Created by FontForge 20090622 at Sat May 25 09:41:49 2019
 By deploy user
&#194;&#169; 2006 Microsoft Corporation. All rights reserved.
</metadata>
<defs>
<font id="MicrosoftHimalaya" horiz-adv-x="873" >
  <font-face 
    font-family="Microsoft Himalaya"
    font-weight="400"
    font-stretch="normal"
    units-per-em="2048"
    panose-1="1 1 1 0 1 1 1 1 1 1"
    ascent="1212"
    descent="-836"
    x-height="614"
    cap-height="909"
    bbox="-957 -837 1968 1212"
    underline-thickness="102"
    underline-position="0"
    unicode-range="U+0020-U+301F"
  />
<missing-glyph horiz-adv-x="1004" 
d="M736 -248h-414v1160h414v-1160zM686 -198v1058h-314v-1058h314z" />
    <glyph glyph-name=".notdef" horiz-adv-x="1004" 
d="M736 -248h-414v1160h414v-1160zM686 -198v1058h-314v-1058h314z" />
    <glyph glyph-name=".null" horiz-adv-x="0" 
 />
    <glyph glyph-name="nonmarkingreturn" horiz-adv-x="1024" 
 />
    <glyph glyph-name="space" unicode=" " horiz-adv-x="343" 
 />
    <glyph glyph-name="exclam" unicode="!" horiz-adv-x="457" 
d="M241 241h-25l-59 542q-2 18 -3 31.5t-1 21.5q0 42 22 67.5t54 25.5t53.5 -25t21.5 -76q0 -15 -3 -45zM228 129q30 0 52 -22t22 -51q0 -31 -21.5 -53t-52.5 -22t-53 22t-22 53q0 30 22.5 51.5t52.5 21.5z" />
    <glyph glyph-name="quotedbl" unicode="&#x22;" horiz-adv-x="560" 
d="M386 538l-51 277q-1 8 -1 16v17q0 42 18.5 61.5t49.5 19.5q29 0 48 -19.5t19 -51.5q0 -59 -13 -124l-38 -196h-32zM141 538l-37 198q-15 82 -15 112q0 42 18 61.5t48 19.5q29 0 48.5 -20t19.5 -52q0 -24 -17 -121l-36 -198h-29z" />
    <glyph glyph-name="numbersign" unicode="#" horiz-adv-x="686" 
d="M77 -19l62 305h-114v55h125l46 230h-171v53h184l61 305h56l-61 -305h225l65 305h56l-64 -305h114v-53h-124l-47 -230h171v-55h-182l-62 -305h-55l61 305h-227l-63 -305h-56zM206 341h227l49 230h-229z" />
    <glyph glyph-name="dollar" unicode="$" horiz-adv-x="686" 
d="M72 224h30q8 -93 57.5 -141t150.5 -58v391q-152 93 -201 165q-36 51 -36 124q0 41 15.5 78t45.5 66t74.5 48.5t101.5 25.5v62h42v-62q55 -3 93 -12q10 -3 41.5 -15l87.5 -32v-200h-27q-9 106 -55 155.5t-140 58.5v-340q85 -59 139 -102.5t78 -71.5q47 -57 48 -139
q0 -45 -18 -87t-52 -75t-83 -54.5t-112 -27.5v-86h-42v86q-33 1 -61.5 4.5t-57 9.5t-57.5 15.5t-62 23.5v190zM352 25q78 14 118.5 59t40.5 108q0 22 -4.5 41.5t-21 41t-48 48.5t-85.5 64v-362zM310 566v312q-68 -8 -100 -42.5t-32 -87.5q0 -24 6.5 -46.5t22 -44.5
t40.5 -44.5t63 -46.5z" />
    <glyph glyph-name="percent" unicode="%" horiz-adv-x="1143" 
d="M244 929q46 0 81.5 -21t59.5 -55.5t36.5 -79t12.5 -91.5q0 -59 -15.5 -104t-41.5 -76.5t-60.5 -47.5t-73.5 -16q-38 0 -73.5 16.5t-62.5 48t-43 76.5t-16 103q0 60 17 106t45 77.5t63 47.5t71 16zM902 451q42 0 77.5 -19.5t61 -52.5t40 -77.5t14.5 -95.5
q0 -59 -15.5 -104.5t-42 -76.5t-61 -47t-72.5 -16q-41 0 -76 18.5t-61.5 51t-41.5 77t-15 97.5q0 60 17 105.5t44 76.5t61.5 47t69.5 16zM242 892q-17 0 -33 -8.5t-28 -31.5t-19 -63.5t-7 -105.5q0 -99 19 -155t66 -56q40 0 64 52.5t24 154.5q0 106 -22.5 159.5t-63.5 53.5z
M902 415q-19 0 -34.5 -11.5t-27 -36.5t-17.5 -66t-6 -99q0 -105 23 -153.5t62 -48.5q37 0 62.5 50t25.5 155q0 106 -23 158t-65 52zM933 929l-662 -967h-60l662 967h60z" />
    <glyph glyph-name="ampersand" unicode="&#x26;" horiz-adv-x="1067" 
d="M700 585h282v-25q-58 -4 -87 -26q-11 -9 -34 -45l-52.5 -84.5l-64 -101.5t-68.5 -95q60 -70 106.5 -98t94.5 -28q47 0 78.5 25.5t45.5 74.5l25 -19q-25 -94 -80 -139t-128 -45q-55 0 -111.5 30t-123.5 101q-42 -37 -78 -62t-70.5 -40.5t-69.5 -22t-74 -6.5
q-56 0 -100.5 16t-75.5 43.5t-48 63.5t-17 77q0 81 59 161q29 41 83 82.5t136 85.5q-16 36 -26.5 63.5t-17 50.5t-9 44t-2.5 42q0 50 18.5 91t50 70t74 44.5t91.5 15.5q39 0 72 -12.5t57 -34.5t37.5 -52t13.5 -64q0 -36 -11 -66.5t-37 -59t-68 -56.5t-104 -60
q43 -76 87 -145t91 -132q117 139 117 237q0 26 -15 49t-47 27v25zM548 149l-75.5 104t-47.5 72q-33 55 -75 138q-161 -93 -161 -222q0 -35 12 -68t34 -58t54 -40t71 -15q21 0 40.5 3.5t41 13t47 27t59.5 45.5zM444 567q166 79 166 202q0 48 -29.5 79.5t-74.5 31.5
q-30 0 -52 -11.5t-36.5 -29.5t-22 -39t-7.5 -40q0 -17 2.5 -34t8.5 -38.5t17 -50.5t28 -70z" />
    <glyph glyph-name="quotesingle" unicode="'" horiz-adv-x="247" 
d="M106 538l-36 198q-8 42 -12 69.5t-4 42.5q0 42 17.5 61.5t47.5 19.5t50 -19.5t20 -51.5q-1 -13 -4.5 -43t-12.5 -79l-37 -198h-29z" />
    <glyph glyph-name="parenleft" unicode="(" horiz-adv-x="457" 
d="M426 -269v-24q-175 88 -267 243q-50 87 -76.5 183t-26.5 196q0 209 103 379q102 172 267 245v-28q-75 -42 -122.5 -107t-73.5 -148q-25 -78 -34.5 -158.5t-9.5 -165.5q0 -102 9.5 -194t40.5 -180q12 -36 29 -67t39.5 -59.5t52.5 -56.5t69 -58z" />
    <glyph glyph-name="parenright" unicode=")" horiz-adv-x="457" 
d="M406 329q0 -100 -26.5 -196t-76.5 -183q-46 -80 -113 -139.5t-154 -103.5v24q39 30 69 58t52.5 56.5t39.5 59.5t29 67q31 88 40.5 180t9.5 194q0 85 -9.5 165.5t-34.5 158.5q-26 83 -73.5 148t-122.5 107v28q165 -73 267 -245q103 -170 103 -379z" />
    <glyph glyph-name="asterisk" unicode="*" horiz-adv-x="686" 
d="M331 699q-2 27 -8.5 55.5t-14 54l-13.5 45t-6 28.5q0 35 16.5 53t40.5 18q21 0 36.5 -18t15.5 -52q0 -14 -5.5 -36l-12.5 -48l-13.5 -52.5t-8.5 -47.5q40 25 67 57q23 27 39 42.5t28 24t22.5 10.5t22.5 2q23 0 38 -15.5t15 -35.5q0 -12 -4 -23t-17.5 -21t-40 -19.5
t-71.5 -19.5q-49 -12 -86 -26q18 -9 39 -16t46 -12q42 -8 67.5 -17t40 -20t19.5 -23t5 -25q0 -20 -15.5 -34.5t-35.5 -14.5q-10 0 -20.5 2.5t-23.5 10.5t-29 23t-37 41q-26 32 -69 61q2 -40 16 -83q24 -80 24 -108q0 -26 -16 -44.5t-34 -18.5q-10 0 -20.5 3t-19 10.5t-14 20
t-5.5 30.5q0 14 5 35t11 42t11.5 38t7.5 24q2 9 3.5 21.5l3.5 29.5q-40 -26 -69 -58q-22 -24 -37.5 -39.5t-28 -24.5t-23 -12.5t-21.5 -3.5q-23 0 -39 15t-16 34q0 15 6 27t21 22.5t41.5 19.5t68.5 18q21 5 41.5 11t40.5 15q-37 18 -87 28q-47 9 -73.5 18.5t-39.5 19.5
t-16 21.5t-3 25.5q0 18 15 33t35 15q23 0 47 -14t62 -57q37 -42 75 -66z" />
    <glyph glyph-name="plus" unicode="+" horiz-adv-x="774" 
d="M358 94v335h-333v55h333v333h54v-333h335v-55h-335v-335h-54z" />
    <glyph glyph-name="comma" unicode="," horiz-adv-x="343" 
d="M74 -228v29q69 23 106.5 71t37.5 101q0 11 -4.5 19.5t-10.5 8.5q-5 0 -22 -10t-36 -10q-32 0 -51.5 19.5t-19.5 53.5q0 16 7 31t18.5 25.5t27 17t33.5 6.5q22 0 42 -10t36 -28.5t25.5 -44.5t9.5 -58q0 -69 -47.5 -128t-151.5 -93z" />
    <glyph glyph-name="hyphen" unicode="-" horiz-adv-x="457" 
d="M56 358h346v-101h-346v101z" />
    <glyph glyph-name="period" unicode="." horiz-adv-x="343" 
d="M172 130q30 0 52 -21.5t22 -52.5t-22 -53t-52 -22q-31 0 -53 22t-22 53q0 32 22 53t53 21z" />
    <glyph glyph-name="slash" unicode="/" horiz-adv-x="381" 
d="M385 953l-329 -972h-54l329 972h54z" />
    <glyph glyph-name="zero" unicode="0" horiz-adv-x="686" 
d="M50 449q0 157 46 267q42 99 108.5 155t141.5 56q60 0 112.5 -35t92.5 -97.5t63 -147.5t23 -184q0 -158 -45 -269q-23 -54 -53 -94t-63 -65.5t-68.5 -38t-68.5 -12.5q-59 0 -111.5 35t-92 97.5t-62.5 147.5t-23 185zM181 432q0 -83 9.5 -157t29 -129.5t49.5 -87.5t72 -32
q39 0 69.5 26.5t51.5 83t32.5 145t11.5 211.5q0 88 -10 160.5t-30.5 123.5t-50.5 79t-70 28q-45 0 -76 -36t-50.5 -98t-28.5 -144t-9 -173z" />
    <glyph glyph-name="one" unicode="1" horiz-adv-x="686" 
d="M161 819l221 108h22v-767q0 -40 1 -62.5t5 -34.5t10 -17t17 -10q20 -11 82 -11v-25h-342v25q33 0 53 3t31 7.5t16.5 11.5t8.5 15q7 15 7 98v491q0 58 -2.5 91.5t-8.5 49.5t-16 20.5t-26 4.5q-28 0 -69 -18z" />
    <glyph glyph-name="two" unicode="2" horiz-adv-x="686" 
d="M629 175l-64 -175h-536v25q233 221 333 352q97 136 97 250q0 43 -14.5 79.5t-39 62.5t-57 41t-69.5 15q-67 0 -120 -39t-79 -115h-24q17 125 85.5 190.5t173.5 65.5q55 0 102.5 -19.5t82 -52.5t54.5 -76t20 -90q0 -69 -24.5 -127t-50 -94.5t-73.5 -97.5l-145.5 -160
t-108.5 -109h237q45 0 76 2t52.5 9.5t36.5 22.5t30 40h25z" />
    <glyph glyph-name="three" unicode="3" horiz-adv-x="686" 
d="M70 736q38 92 97.5 141.5t148.5 49.5q46 0 85 -15t67 -40.5t43.5 -59t15.5 -69.5q0 -100 -124 -205q85 -33 127 -93.5t42 -143.5q0 -69 -25.5 -127t-72.5 -100.5t-113 -66t-147 -23.5q-47 0 -77.5 6.5t-48.5 17t-25 23t-7 25.5q0 24 18.5 36.5t44.5 12.5q6 0 11 -1
t12.5 -4t19.5 -9l33 -17q24 -13 39 -19.5t26 -9.5t20 -3h24q34 0 64.5 14.5t54 39t37 57t13.5 67.5q0 22 -5 45.5t-13.5 45.5t-19.5 40t-24 30q-14 13 -35 25.5t-45 22.5t-50 16t-51 6h-22v20q51 7 90 27.5t65 49t39.5 63.5t13.5 71q0 34 -12 62.5t-32 49t-48 31.5t-59 11
q-104 0 -173 -111z" />
    <glyph glyph-name="four" unicode="4" horiz-adv-x="686" 
d="M639 335v-95h-122v-240h-111v240h-385v86l422 601h74v-592h122zM406 335v451l-319 -451h319z" />
    <glyph glyph-name="five" unicode="5" horiz-adv-x="686" 
d="M596 909l-53 -114h-273l-60 -122q81 -12 149.5 -42.5t117.5 -75.5t76.5 -103.5t27.5 -125.5q0 -83 -35 -146.5t-88.5 -107t-116.5 -66t-119 -22.5q-42 0 -71.5 7.5t-48 20.5t-27.5 28.5t-9 32.5q0 19 15 33.5t39 14.5q9 0 16 -1t14.5 -4.5t18 -10t26.5 -17.5
q25 -18 50.5 -26.5t51.5 -8.5q39 0 74.5 16t62.5 43.5t43.5 64.5t16.5 80q0 41 -14 80t-40 73.5t-62.5 62.5t-82.5 48q-37 16 -86.5 23.5t-112.5 10.5l174 354h326z" />
    <glyph glyph-name="six" unicode="6" horiz-adv-x="686" 
d="M615 927v-25q-45 -5 -79.5 -12.5t-64 -21t-56 -33.5t-55.5 -48q-56 -55 -91 -121.5t-59 -158.5q97 67 193 67q46 0 88 -20t73.5 -55.5t50 -85t18.5 -107.5q0 -64 -22 -122.5t-61 -102.5t-92 -70.5t-114 -26.5q-68 0 -121 33.5t-89.5 86.5t-55.5 119.5t-19 132.5
q0 123 48.5 232.5t139.5 194.5q46 43 90 71t85.5 44t80 22.5t73.5 6.5h39zM198 458q-12 -90 -12 -146q0 -42 11 -93t33 -95t55.5 -73.5t78.5 -29.5q29 0 56 14t48 41t33.5 66.5t12.5 90.5q0 56 -11.5 107t-33.5 90t-55 62t-75 23q-14 0 -26.5 -2t-28 -8t-36 -17.5z" />
    <glyph glyph-name="seven" unicode="7" horiz-adv-x="686" 
d="M138 909h487v-26l-303 -902h-75l272 818h-250q-46 0 -77.5 -8t-54 -22.5t-38 -35.5t-29.5 -47l-19 7z" />
    <glyph glyph-name="eight" unicode="8" horiz-adv-x="686" 
d="M263 458q-54 45 -87.5 79t-52 62.5t-24.5 55t-6 56.5q0 43 18 82.5t51 69t79 47t102 17.5q54 0 99 -16.5t77.5 -43.5t50 -62.5t17.5 -72.5q0 -27 -7.5 -52.5t-28.5 -52.5t-57.5 -57.5t-93.5 -66.5q59 -46 98 -81.5t58 -61.5q51 -69 51 -144q0 -47 -19 -89.5t-54 -74
t-84 -50t-108 -18.5q-57 0 -104.5 18t-82 49t-53.5 71t-19 85q0 61 41 120.5t139 130.5zM295 432q-57 -47 -83 -102t-26 -120q0 -43 12.5 -78t34.5 -60t52.5 -38.5t67.5 -13.5q36 0 65.5 11t50.5 30t32.5 44.5t11.5 54.5q0 31 -12.5 60t-38.5 60.5t-67.5 68.5t-99.5 83z
M368 529q42 38 66.5 65t37.5 50t16.5 45t3.5 49q0 71 -39.5 110.5t-108.5 39.5q-34 0 -62 -10.5t-48.5 -28.5t-32 -42t-11.5 -51q0 -35 18 -69.5t51 -66.5z" />
    <glyph glyph-name="nine" unicode="9" horiz-adv-x="686" 
d="M72 -19v25q45 1 85.5 10.5t78 30.5t73 54.5t70.5 82.5t59.5 102t38.5 113q-106 -68 -190 -68q-48 0 -90.5 19.5t-74 55t-50 85.5t-18.5 111q0 66 22 125.5t60.5 103.5t90.5 70t111 26q64 0 117 -31.5t91.5 -83.5t59.5 -119.5t21 -140.5q0 -150 -74 -283
q-38 -66 -89.5 -119.5t-117.5 -97.5q-109 -71 -235 -71h-39zM488 448q12 88 12 140q0 64 -14.5 118t-38.5 93.5t-56 62t-68 22.5q-29 0 -56 -13.5t-47.5 -40t-33 -66.5t-12.5 -93q0 -59 11.5 -110t33 -88.5t52 -59t69.5 -21.5q15 0 34.5 4t39.5 11t39 17.5t35 23.5z" />
    <glyph glyph-name="colon" unicode=":" horiz-adv-x="381" 
d="M192 131q32 0 53.5 -22.5t21.5 -52.5q0 -31 -22 -53t-53 -22t-52.5 22t-21.5 53q0 30 21.5 52.5t52.5 22.5zM194 632q30 0 52 -21.5t22 -52.5t-22 -52.5t-52 -21.5q-31 0 -53 21.5t-22 52.5t22 52.5t53 21.5z" />
    <glyph glyph-name="semicolon" unicode=";" horiz-adv-x="381" 
d="M95 -228v29q69 23 107 71t38 101q0 11 -5 19.5t-11 8.5q-5 0 -21.5 -10t-35.5 -10q-33 0 -52.5 19.5t-19.5 53.5q0 33 25.5 56.5t61.5 23.5q21 0 41.5 -10t36.5 -28.5t25.5 -44.5t9.5 -58q0 -34 -11.5 -66.5t-36 -61t-62.5 -52.5t-90 -41zM189 633q31 0 52.5 -21.5
t21.5 -52.5q0 -30 -21.5 -52t-52.5 -22t-52.5 22t-21.5 52q0 31 21.5 52.5t52.5 21.5z" />
    <glyph glyph-name="less" unicode="&#x3c;" horiz-adv-x="774" 
d="M25 473l721 312v-58l-621 -269l621 -272v-61l-721 315v33z" />
    <glyph glyph-name="equal" unicode="=" horiz-adv-x="774" 
d="M25 592h723v-55h-723v55zM25 373h723v-55h-723v55z" />
    <glyph glyph-name="greater" unicode="&#x3e;" horiz-adv-x="774" 
d="M746 438l-721 -313v58l621 269l-621 272v61l721 -315v-32z" />
    <glyph glyph-name="question" unicode="?" horiz-adv-x="609" 
d="M304 214h-27q2 43 7 77.5t13 62.5q6 19 23 56l37 77.5l37.5 78t23.5 58.5q12 40 12 82t-12.5 76.5t-33.5 59t-49.5 37.5t-60.5 13q-29 0 -52.5 -7.5t-39.5 -20t-24.5 -28t-8.5 -31.5q0 -11 6 -27.5t13.5 -33.5l14 -32t6.5 -23q0 -24 -15.5 -40.5t-37.5 -16.5
q-29 0 -51.5 27.5t-22.5 77.5q0 37 16.5 71.5t48 61.5t76 43t100.5 16q59 0 105.5 -16.5t79 -45.5t49.5 -67.5t17 -81.5q0 -25 -5 -49.5t-17 -51t-32 -56t-50 -65.5l-78.5 -94t-41.5 -62q-11 -23 -17 -54t-9 -72zM295 131q32 0 53.5 -21.5t21.5 -53.5q0 -31 -22 -52.5
t-53 -21.5t-53 21.5t-22 52.5q0 32 22.5 53.5t52.5 21.5z" />
    <glyph glyph-name="at" unicode="@" horiz-adv-x="1264" 
d="M1230 115q-62 -185 -219 -297q-159 -114 -362 -114q-101 0 -197.5 31t-174.5 95q-53 41 -92.5 94t-66.5 113.5t-40 126t-13 133.5q0 133 47.5 256t140.5 216q43 43 95.5 77.5t110 58t118.5 36t122 12.5q97 0 188.5 -30t159.5 -98q66 -66 98 -153t32 -178
q0 -79 -21.5 -154t-62.5 -144q-56 -92 -130.5 -133.5t-155.5 -41.5q-102 0 -102 92q0 36 12 98q-51 -62 -90 -99.5t-70 -58t-56 -27t-48 -6.5q-24 0 -45.5 11t-38.5 31.5t-27 49.5t-10 64q0 67 31 144.5t81 146.5q27 38 58.5 70.5t65 56.5t67.5 38t66 14q45 0 74.5 -22.5
t40.5 -70.5l22 74l105 15l-78 -267q-24 -78 -36.5 -122t-18.5 -68.5t-6.5 -37t-0.5 -27.5q0 -22 14 -36.5t36 -14.5q19 0 44 9.5t52.5 28t55.5 46.5t52 66q35 54 57.5 125t22.5 162q0 82 -28.5 154.5t-82.5 128.5q-57 60 -139 95t-184 35q-59 0 -117 -13t-111.5 -38
t-101 -61t-86.5 -82q-78 -93 -118.5 -209t-40.5 -236q0 -59 11 -118t33.5 -113.5t56 -102.5t79.5 -85q71 -59 162 -87.5t183 -28.5q176 0 318 94q144 95 220 276h39zM754 344l42 152l-5 33.5t-12 39t-26 32t-45 13.5q-26 0 -53 -15t-53 -41.5t-50.5 -62.5t-45.5 -78
q-12 -25 -24 -55t-22 -60.5t-16 -58.5t-6 -47q0 -42 23.5 -68.5t53.5 -26.5q23 0 55 16t66 47t65 76t53 104z" />
    <glyph glyph-name="A" unicode="A" horiz-adv-x="991" 
d="M628 304h-352l-62 -143q-22 -53 -22 -79q0 -11 3.5 -20t15 -16.5t32 -13t54.5 -7.5v-25h-286v25q34 5 55 15t36 27.5t27.5 45.5l30.5 69l320 747h23l316 -755q19 -47 35.5 -75.5t34 -44.5t38 -22t49.5 -7v-25h-359v25q54 2 73.5 17.5t19.5 37.5q-1 29 -27 94zM609 354
l-154 367l-158 -367h312z" />
    <glyph glyph-name="B" unicode="B" horiz-adv-x="915" 
d="M634 464q55 -12 94.5 -33t64 -49t36 -62t11.5 -71q0 -34 -11 -67t-31.5 -62.5t-50.5 -53t-68 -38.5q-72 -28 -227 -28h-429v25h34q23 0 41 4t30.5 18t19 41t6.5 73v587q0 48 -7 75t-20 40.5t-31 17t-39 3.5h-34v25h392q189 0 286.5 -64t97.5 -179q0 -69 -42 -122.5
t-123 -79.5zM283 66q76 -18 153 -18q61 0 108 15t78 40.5t47 60t16 73.5q0 43 -17 81t-52.5 66t-89 44t-125.5 16q-42 0 -71 -1t-47 -5v-372zM283 500q25 -5 56.5 -7.5t69.5 -2.5q133 0 191 48t58 133q0 39 -16.5 74.5t-48.5 61.5t-79.5 41.5t-110.5 15.5q-68 0 -120 -15
v-349z" />
    <glyph glyph-name="C" unicode="C" horiz-adv-x="915" 
d="M826 929l21 -309h-21q-42 139 -118.5 200t-184.5 61q-70 0 -129 -26.5t-101.5 -81.5t-66.5 -138t-24 -196q0 -91 22.5 -165t66 -126.5t106.5 -81t145 -28.5q86 0 156 38q67 35 149 150l21 -13q-69 -121 -159.5 -177.5t-216.5 -56.5q-97 0 -178 34t-139.5 95.5t-91.5 146
t-33 185.5q0 137 61 250q60 114 167 176q108 63 234 63q99 0 194 -48q28 -15 40 -15q22 0 36.5 18t20.5 45h23z" />
    <glyph glyph-name="D" unicode="D" horiz-adv-x="991" 
d="M23 0v25h35q23 0 41 4t30 18t18.5 41t6.5 73v587q0 84 -19 106q-26 30 -77 30h-35v25h370q202 0 310 -47q107 -47 171 -154q65 -109 65 -249q0 -101 -32.5 -185t-97 -145t-159.5 -95t-221 -34h-406zM283 66q83 -19 142 -19q77 0 143 28.5t114.5 81t76 127.5t27.5 168
q0 94 -27 169.5t-76 128t-116 80.5t-147 28q-59 0 -137 -20v-772z" />
    <glyph glyph-name="E" unicode="E" horiz-adv-x="838" 
d="M287 859v-359h199q44 0 71 8t42.5 24t21.5 41t8 59h25v-316h-25q-5 39 -11.5 65t-21 41.5t-40.5 22t-70 6.5h-199v-300q0 -34 1 -54t8 -30.5t22 -13.5t44 -3h154q39 0 66 2t46.5 8t34.5 16.5t32 26.5q40 39 85 125h27l-79 -228h-700v25h32q13 0 27 3t26.5 8.5t22.5 14.5
t14 21q8 22 8 88v590q0 87 -17 107q-24 27 -81 27h-32v25h700v-199h-16q-10 49 -21.5 78.5t-30.5 45.5t-48.5 20.5t-75.5 4.5h-249z" />
    <glyph glyph-name="F" unicode="F" horiz-adv-x="763" 
d="M281 859v-357h165q29 0 49.5 5.5t34.5 19.5t22 38t13 61h25v-307h-25q-1 34 -7 58t-19.5 39.5t-36 22.5t-56.5 7h-165v-285q0 -32 1 -52t5 -33t11.5 -20.5t19.5 -14.5q28 -16 61 -16h33v-25h-390v25h32q24 0 42.5 3.5t30.5 17t18.5 41t6.5 74.5v587q0 31 -1.5 51.5
t-5 33.5t-10.5 21t-19 14q-15 8 -30 12t-32 4h-32v25h676v-200h-15q-13 49 -29.5 78.5t-40 45.5t-55.5 21t-77 5h-200z" />
    <glyph glyph-name="G" unicode="G" horiz-adv-x="991" 
d="M842 929l24 -286h-24q-41 126 -116.5 182.5t-183.5 56.5q-80 0 -143 -31.5t-107 -87t-67 -131t-23 -163.5q0 -129 51 -237q25 -54 58.5 -93t72.5 -64.5t81.5 -37.5t85.5 -12q100 0 188 50v263q0 34 -2.5 55.5t-8 34t-13.5 19t-19 12.5q-22 11 -76 11v26h352v-26h-17
q-23 0 -39 -5t-26.5 -19t-15 -40t-4.5 -68v-278q-39 -21 -76.5 -36.5t-75.5 -24.5q-78 -20 -167 -20q-114 0 -206.5 35t-158.5 97t-102 146t-36 183q0 119 58 230q67 130 187 201q100 58 236 58q27 0 48 -1.5t43.5 -6t49 -13t64.5 -22.5q38 -15 51 -14q12 0 21 11.5t11 45.5
h25z" />
    <glyph glyph-name="H" unicode="H" horiz-adv-x="991" 
d="M282 487h422v260q0 32 -1 52.5t-5 33.5t-11.5 20.5t-19.5 14.5q-28 16 -61 16h-32v25h389v-25h-32q-13 0 -27.5 -3t-27 -9t-22.5 -15t-14 -21q-7 -21 -7 -89v-586q0 -32 1.5 -52t5 -33t10.5 -20.5t19 -14.5q28 -16 62 -16h32v-25h-389v25h32q23 0 41 3.5t31 17t19.5 41
t6.5 74.5v277h-422v-277q0 -32 1 -52t5 -33t11.5 -20.5t19.5 -14.5q28 -16 61 -16h33v-25h-390v25h33q55 0 81 33q16 20 16 103v586q0 33 -1 53.5t-5 33t-11 20t-19 14.5q-28 16 -61 16h-33v25h390v-25h-33q-12 0 -26.5 -3t-27 -9t-22.5 -15t-14 -21q-8 -24 -8 -89v-260z
" />
    <glyph glyph-name="I" unicode="I" horiz-adv-x="457" 
d="M423 25v-25h-389v25h32q24 0 42.5 3.5t30.5 17t18.5 41t6.5 74.5v587q0 31 -1.5 51.5t-5 33.5t-10.5 20.5t-19 14.5q-30 16 -62 16h-32v25h389v-25h-32q-24 0 -42.5 -4t-30.5 -17.5t-18.5 -41t-6.5 -73.5v-587q0 -32 1 -52t5 -33t11.5 -20.5t19.5 -14.5q28 -16 61 -16h32
z" />
    <glyph glyph-name="J" unicode="J" horiz-adv-x="534" 
d="M137 884v25h389v-25h-33q-56 0 -81 -33q-16 -20 -16 -103v-444q0 -105 -23 -167q-11 -31 -30.5 -59.5t-46.5 -50.5t-60.5 -35t-72.5 -13q-32 0 -57 8.5t-42 23t-26.5 33t-9.5 38.5q0 38 22 54t46 16q10 0 19.5 -2t19 -11t20 -27t23.5 -49q15 -36 40 -36q18 0 33.5 22
t15.5 78v621q0 32 -1 52t-5 33t-11.5 20.5t-19.5 14.5q-30 16 -60 16h-33z" />
    <glyph glyph-name="K" unicode="K" horiz-adv-x="991" 
d="M410 504l335 -333q42 -42 76 -69.5t64 -44t58.5 -24t58.5 -8.5v-25h-432v25q43 0 58 15t15 32q0 7 -1 12.5t-5.5 12.5t-14.5 18t-27 28l-314 311v-293q0 -32 1.5 -52t5 -33t11 -20.5t19.5 -14.5q29 -16 61 -16h31v-25h-387v25h32q56 0 82 33q16 22 16 103v587
q0 30 -1 50.5t-5 33.5t-11 21.5t-19 14.5q-32 16 -62 16h-32v25h387v-25h-31q-25 0 -52.5 -11t-37.5 -37q-8 -22 -8 -88v-278q1 1 13.5 12.5l28 25.5l30 28t20.5 19l123 115t80 81.5t43 56t13 37.5q0 16 -14 27.5t-48 11.5h-21v25h334v-25q-18 -1 -36.5 -3.5t-41 -12.5
t-51.5 -31t-69 -58q-8 -7 -41 -41.5l-95 -95.5z" />
    <glyph glyph-name="L" unicode="L" horiz-adv-x="838" 
d="M787 251l22 -4l-78 -247h-704v25h35q56 0 82 37q14 22 14 99v587q0 84 -19 106q-26 30 -77 30h-35v25h412v-25q-37 0 -61.5 -3.5t-40.5 -10t-25 -15.5t-15 -20q-10 -20 -10 -103v-571q0 -47 7 -68t28 -29q18 -6 105 -6h66q105 0 147 15q21 7 40 20t37 34t35 51t35 73z
" />
    <glyph glyph-name="M" unicode="M" horiz-adv-x="1220" 
d="M561 0l-351 764v-607q0 -47 6.5 -73.5t19 -39.5t30.5 -16t41 -3h32v-25h-316v25h32q24 0 42 3.5t30 17t18 40t6 71.5v594q0 32 -3 56.5t-15.5 41.5t-38 26t-71.5 9v25h257l330 -711l324 711h257v-25h-31q-25 0 -43 -4t-30 -17.5t-18 -40t-6 -71.5v-594q0 -47 6.5 -73.5
t19 -39.5t30.5 -16t41 -3h31v-25h-386v25h32q24 0 42 4t30.5 17.5t18.5 39.5t6 71v607l-350 -764h-23z" />
    <glyph glyph-name="N" unicode="N" horiz-adv-x="991" 
d="M-18 909h246l556 -682v524q0 46 -6.5 73t-19 40t-30.5 16.5t-41 3.5h-32v25h317v-25h-33q-24 0 -42 -4t-30 -18t-18 -40t-6 -71v-766h-24l-599 732v-560q0 -47 6.5 -73.5t18.5 -39.5t30 -16t41 -3h32v-25h-316v25h32q24 0 42 4t30.5 17.5t18.5 39.5t6 71v632
q-20 24 -33.5 38t-25.5 23t-26 15t-35 13q-20 6 -59 6v25z" />
    <glyph glyph-name="O" unicode="O" horiz-adv-x="991" 
d="M502 929q87 0 166 -36t139 -99t95.5 -148.5t35.5 -185.5q0 -103 -35.5 -191t-96 -152.5t-142 -101t-173.5 -36.5q-93 0 -174 35t-140.5 98.5t-94 151.5t-34.5 194q0 98 34.5 184t95 149.5t143.5 100.5t181 37zM489 880q-69 0 -122.5 -29.5t-90 -84t-55.5 -132t-19 -174.5
q0 -96 18.5 -175.5t55 -137t90.5 -89t124 -31.5q63 0 116.5 24t93.5 74.5t62.5 129t22.5 187.5q0 103 -18.5 184.5t-56 138t-93 86t-128.5 29.5z" />
    <glyph glyph-name="P" unicode="P" horiz-adv-x="763" 
d="M281 425v-264q0 -87 19 -107q26 -29 77 -29h35v-25h-389v25h34q57 0 82 37q14 22 14 99v587q0 85 -18 106q-27 30 -78 30h-34v25h333q120 0 192 -26q35 -12 65.5 -33.5t53 -51t35.5 -65t13 -76.5q0 -55 -19 -101t-55 -79t-88 -51.5t-119 -18.5q-65 0 -153 18zM281 464
q36 -7 63 -10.5t47 -3.5q35 0 66 14.5t54.5 40t37 61.5t13.5 78q0 50 -15 89t-41 66t-61 41t-76 14q-34 0 -88 -12v-378z" />
    <glyph glyph-name="Q" unicode="Q" horiz-adv-x="991" 
d="M604 -10q35 -59 71.5 -102.5t76.5 -71.5q40 -27 85 -43t96 -20v-22q-91 3 -198 38q-107 34 -200 94q-94 59 -162 127q-48 20 -86 40.5t-67 41.5q-83 64 -127.5 159.5t-44.5 224.5q0 101 35.5 187.5t97 150t143.5 99.5t176 36q88 0 167.5 -36.5t140 -100t96 -150.5
t35.5 -188q0 -167 -93 -293t-242 -171zM492 878q-69 0 -123 -28.5t-91 -82.5t-56.5 -132.5t-19.5 -178.5q0 -95 18.5 -174t55.5 -136t91 -89t125 -32q69 0 123 28t92 81t58 129.5t20 173.5q0 108 -21 190.5t-59.5 138t-92.5 84t-120 28.5z" />
    <glyph glyph-name="R" unicode="R" horiz-adv-x="915" 
d="M927 0h-242l-308 425q-17 -1 -30.5 -1.5t-24.5 -0.5q-9 0 -19 0.5t-21 1.5v-264q0 -48 6.5 -75.5t19 -41t30 -16.5t39.5 -3h36v-25h-390v25h35q56 0 82 37q14 22 14 99v587q0 84 -19 106q-26 30 -77 30h-35v25h331q73 0 126 -5.5t87 -16.5t64 -30.5t52.5 -47t35.5 -61.5
t13 -73q0 -85 -54 -146t-169 -87l187 -260q33 -45 58.5 -74t51 -46t54 -25t67.5 -12v-25zM282 467q13 0 22.5 -0.5t15.5 -0.5q65 0 114 15t82 42t49.5 63.5t16.5 79.5q0 42 -14 77.5t-40 61t-62 39.5t-79 14q-41 0 -105 -13v-378z" />
    <glyph glyph-name="S" unicode="S" horiz-adv-x="763" 
d="M629 929v-314h-25q-17 127 -83 194t-168 67q-35 0 -64 -12t-51 -31.5t-34 -44.5t-12 -52q0 -25 10 -47.5t62 -70.5q87 -55 155 -91q64 -35 173 -106q47 -36 72 -85.5t25 -103.5q0 -51 -21 -97t-58.5 -80.5t-90.5 -55t-116 -20.5q-40 0 -74 6q-6 1 -31.5 8.5l-54.5 15.5
l-54 15t-29 7q-17 0 -26.5 -10t-14.5 -42h-25v312h25q18 -96 47 -147q14 -24 37.5 -44.5t53 -36t63.5 -24t69 -8.5q42 0 75.5 12t57 32.5t36 47.5t12.5 57q0 34 -18.5 68t-62.5 67l-102 61q-113 65 -201 125q-49 39 -74.5 85.5t-25.5 103.5q0 48 20 91.5t55.5 76.5t84.5 52
t106 19q72 0 153 -35q19 -8 32 -13t21 -4q18 0 29 10t17 42h25z" />
    <glyph glyph-name="T" unicode="T" horiz-adv-x="838" 
d="M794 909v-214h-15q-11 86 -50.5 121.5t-116.5 35.5h-128v-695q0 -46 6.5 -72.5t18.5 -39.5t30 -16.5t42 -3.5h31v-25h-385v25h32q24 0 42 4t30 17.5t18.5 39.5t6.5 71v695h-109q-41 0 -72.5 -6.5t-54.5 -24t-36.5 -48t-16.5 -78.5h-25v214h752z" />
    <glyph glyph-name="U" unicode="U" horiz-adv-x="991" 
d="M655 884v25h321v-25h-34q-52 0 -82 -45q-14 -20 -14 -97v-368q0 -134 -28 -213q-14 -38 -40 -71t-66 -57.5t-93.5 -39t-122.5 -14.5q-75 0 -131 13t-96 38t-66 60t-42 79q-22 61 -22 224v355q0 42 -5.5 68.5t-17.5 41.5t-30.5 20.5t-43.5 5.5h-35v25h393v-25h-35
q-24 0 -42 -5t-30 -19.5t-18.5 -41t-6.5 -70.5v-396q0 -60 8 -117t33 -101.5t71.5 -71t123.5 -26.5q44 0 85 10.5t74.5 28.5t58.5 43.5t37 55.5q26 59 26 206v368q0 84 -19 106q-26 30 -77 30h-34z" />
    <glyph glyph-name="V" unicode="V" horiz-adv-x="991" 
d="M974 909v-25q-29 -5 -49 -15.5t-35.5 -26.5t-27.5 -38.5t-24 -51.5l-317 -773h-25l-340 783q-15 37 -27.5 59.5t-27.5 35.5t-36 18.5t-53 8.5v25h371v-25q-32 -3 -52 -8.5t-30.5 -13.5t-14 -17.5t-3.5 -21.5q0 -34 31 -105l231 -532l214 526q32 78 32 107q0 21 -22 39.5
t-75 25.5v25h280z" />
    <glyph glyph-name="W" unicode="W" horiz-adv-x="1295" 
d="M1284 909v-25q-27 0 -44.5 -5t-32.5 -22.5t-30 -52t-35 -92.5l-253 -733h-27l-207 581l-205 -581h-25l-270 755l-24 66.5t-14 32.5q-14 26 -36.5 38.5t-62.5 12.5v25h336v-25h-16q-35 0 -54 -16t-19 -39q0 -24 30 -108l179 -510l150 434l-48 137q-11 25 -22 44t-25 32
t-33 19.5t-46 6.5v25h353v-25h-24q-38 0 -55 -16t-17 -44q0 -34 30 -119l174 -494l173 501q14 42 22 70t8 45q0 32 -28 44.5t-73 12.5v25h271z" />
    <glyph glyph-name="X" unicode="X" horiz-adv-x="991" 
d="M560 503l195 -291q42 -62 69.5 -98.5t51 -55.5t46 -25.5t53.5 -7.5v-25h-390v25q55 1 72.5 17t17.5 45q0 5 -1 9.5t-5.5 13t-13.5 21.5t-23 35l-154 233l-191 -244q-16 -20 -24.5 -32t-12.5 -20t-4.5 -14t-0.5 -13q0 -21 18 -35t69 -16v-25h-322v25q33 2 62 13t55.5 29.5
t52.5 46t54 62.5l214 271l-179 262q-37 54 -66.5 87.5t-57 52t-55.5 26t-62 9.5v25h420v-25q-53 -2 -73 -17.5t-20 -34.5q0 -25 32 -72l140 -209l161 205q15 19 23 30.5t12 19t5 13.5t1 14q0 29 -21.5 39t-75.5 12v25h322v-25q-46 -3 -74.5 -17t-54.5 -37q-28 -24 -85 -96z
" />
    <glyph glyph-name="Y" unicode="Y" horiz-adv-x="991" 
d="M654 909h317v-25h-18q-38 0 -82 -34.5t-97 -119.5l-219 -345v-228q0 -46 6.5 -72.5t19 -39.5t31 -16.5t42.5 -3.5h29v-25h-386v25h33q24 0 42 4t30 17.5t18 39.5t6 71v216l-249 380l-37.5 54.5t-22.5 29.5q-4 4 -13.5 12t-23.5 15.5t-31 13.5t-36 6v25h388v-25h-20
q-15 0 -30 -3.5t-27 -10.5t-19.5 -18.5t-7.5 -26.5q-1 -12 10 -33.5t31 -53.5l189 -293l179 280q38 61 40 94q-2 14 -6.5 26t-15 20.5t-27.5 13.5t-43 5v25z" />
    <glyph glyph-name="Z" unicode="Z" horiz-adv-x="838" 
d="M789 909l-597 -854h373q43 0 75 8t57 29t44 58t37 95l22 -4l-43 -241h-740v25l583 829h-290q-55 0 -88 -8.5t-52 -28.5t-28.5 -53.5t-17.5 -82.5h-26l19 228h672z" />
    <glyph glyph-name="bracketleft" unicode="[" horiz-adv-x="457" 
d="M407 -272h-294v1201h294v-53h-194v-1096h194v-52z" />
    <glyph glyph-name="backslash" unicode="\" horiz-adv-x="381" 
d="M56 953l328 -972h-54l-328 972h54z" />
    <glyph glyph-name="bracketright" unicode="]" horiz-adv-x="457" 
d="M50 929h295v-1202h-295v53h195v1096h-195v53z" />
    <glyph glyph-name="asciicircum" unicode="^" horiz-adv-x="644" 
d="M334 927l284 -480h-61l-235 393l-234 -393h-63l289 480h20z" />
    <glyph glyph-name="underscore" unicode="_" horiz-adv-x="686" 
d="M698 -296h-709v56h709v-56z" />
    <glyph glyph-name="grave" unicode="`" horiz-adv-x="457" 
d="M79 931h149l71 -231h-23z" />
    <glyph glyph-name="a" unicode="a" horiz-adv-x="609" 
d="M391 88l-77.5 -57.5t-41.5 -26.5q-37 -17 -77 -17q-32 0 -58.5 11.5t-46 32t-30.5 49.5t-11 65q0 42 16.5 75t51 60.5t89.5 50.5q86 40 185 76v24q0 46 -7.5 77t-22.5 49.5t-36 26t-48 7.5q-43 0 -68 -23t-25 -52l2 -39q0 -31 -15.5 -47.5t-41.5 -16.5q-25 0 -41 17.5
t-16 47.5q0 28 15 55.5t44 49.5t70.5 35.5t95.5 13.5q71 0 120.5 -21t71.5 -72q12 -29 12 -118v-208q0 -53 1.5 -81.5t5.5 -41.5t10 -15.5t15 -2.5q7 0 13 2t14 8t18.5 16.5l27.5 27.5v-38q-75 -100 -143 -100q-32 0 -52 22.5t-20 77.5zM391 132v234q-70 -28 -160 -72
q-33 -17 -51.5 -48t-18.5 -69q0 -24 8 -44.5t21 -35.5t30.5 -23.5t36.5 -8.5q51 0 134 67z" />
    <glyph glyph-name="b" unicode="b" horiz-adv-x="686" 
d="M211 508q91 124 192 124q46 0 89 -21t75.5 -60t52 -95t19.5 -126q0 -75 -26 -138.5t-70 -110.5t-101 -73.5t-120 -26.5q-105 0 -222 78v636q0 63 -2.5 97.5t-7.5 50.5t-14.5 19t-22.5 3q-21 0 -47 -11l-9 24l184 75h30v-445zM211 465v-367q70 -68 145 -68q30 0 60 17
t53.5 50t38.5 82t15 113q0 58 -14.5 104t-39 77t-55.5 47.5t-64 16.5q-16 0 -31 -3t-31.5 -10.5t-35 -22t-41.5 -36.5z" />
    <glyph glyph-name="c" unicode="c" horiz-adv-x="609" 
d="M564 233q-12 -61 -37.5 -108t-60 -79t-75.5 -48.5t-84 -16.5q-51 0 -98 23t-83 65t-57.5 102t-21.5 135q0 72 23.5 132t63.5 103t93 67t113 24q45 0 82.5 -13.5t65.5 -35t43.5 -48t15.5 -51.5q0 -26 -16.5 -41.5t-46.5 -15.5q-31 0 -51 15.5t-24 64.5q-8 80 -91 80
q-40 0 -70.5 -18t-51 -48.5t-31 -71t-10.5 -85.5q0 -53 13.5 -103t39.5 -89t63 -62.5t84 -23.5q28 0 53.5 7t49 24.5t45 48t42.5 77.5z" />
    <glyph glyph-name="d" unicode="d" horiz-adv-x="686" 
d="M476 69q-45 -47 -87.5 -67.5t-92.5 -20.5t-95 22.5t-79.5 62.5t-55 95t-20.5 120q0 64 21.5 126.5t60.5 112.5t93.5 81t120.5 31q81 0 134 -51v113q0 64 -2.5 98.5t-7.5 50.5t-14.5 19t-22.5 3q-20 0 -46 -11l-9 24l183 75h30v-710q0 -64 2 -99t7.5 -51.5t14.5 -20
t23 -3.5q17 0 48 11l7 -23l-182 -76h-31v88zM476 116v316q-3 38 -16.5 67.5t-33.5 50t-44 31t-48 10.5q-35 0 -65 -18.5t-52.5 -52.5t-35.5 -81t-13 -105q0 -68 16.5 -120t43 -87.5t60.5 -53.5t70 -18q61 0 118 61z" />
    <glyph glyph-name="e" unicode="e" horiz-adv-x="609" 
d="M146 383q0 -69 18.5 -123t49 -92t71 -58t85.5 -20q60 0 104.5 33t74.5 114l21 -13q-7 -45 -28 -88.5t-53.5 -78t-75.5 -55.5t-94 -21q-55 0 -103.5 22.5t-85 64t-58 100t-21.5 131.5q0 79 22 141t60 105t89.5 65t111.5 22q51 0 94 -17.5t74.5 -50t49.5 -78.5t18 -103
h-424zM146 421h284q-5 85 -40.5 124.5t-92.5 39.5q-27 0 -53 -11t-46.5 -32t-34.5 -51.5t-17 -69.5z" />
    <glyph glyph-name="f" unicode="f" horiz-adv-x="457" 
d="M283 565v-403q0 -48 6.5 -76t18 -41.5t27 -17t33.5 -3.5h55v-24h-366v24h27q24 0 40.5 6.5t27 22.5t15.5 42.5t5 66.5v403h-119v49h119v40q0 66 18 120.5t51 94t80.5 61t106.5 21.5q26 0 55.5 -8.5t54.5 -23.5t41.5 -36t16.5 -45q0 -20 -17 -37.5t-38 -17.5q-8 0 -15.5 2
t-16.5 8t-19 17.5t-23 30.5q-26 37 -46 49.5t-46 12.5q-31 0 -52.5 -16.5t-30.5 -51.5q-9 -33 -9 -177v-44h158v-49h-158z" />
    <glyph glyph-name="g" unicode="g" horiz-adv-x="686" 
d="M207 224q-57 28 -87 76.5t-30 108.5q0 46 18.5 86.5t51 71t77.5 48t98 17.5q88 0 152 -43h130q15 0 23 -0.5t11.5 -1t4 -2t1.5 -3.5q3 -5 3.5 -13t0.5 -19q0 -14 -6.5 -17.5t-37.5 -3.5h-80q38 -50 38 -124q0 -42 -17 -79.5t-48.5 -66t-76.5 -45t-100 -16.5
q-23 0 -46.5 3t-46.5 10q-30 -26 -40 -44.5t-10 -32.5q0 -11 4 -18t19 -12t44.5 -8t80.5 -4q69 -2 113.5 -5t65.5 -5q63 -8 99.5 -45.5t36.5 -92.5q0 -50 -28.5 -93.5t-76.5 -76t-110 -51.5t-128 -19q-46 0 -94 10t-87 27t-63.5 40.5t-24.5 50.5q0 15 3.5 28t16 31t37 44.5
l65.5 69.5q-35 21 -49 37.5t-14 37.5q0 12 3.5 25t14.5 29.5t32.5 38.5t56.5 51zM200 0q-63 -69 -63 -118q0 -23 18.5 -41t50 -30.5t73.5 -19.5t90 -7q61 0 105 12t73 31.5t43 43t14 47.5q0 17 -7 29t-26.5 20t-53 12t-85.5 6q-149 3 -232 15zM324 600q-49 0 -83 -39.5
t-34 -121.5q0 -45 9 -83.5t26.5 -66.5t42 -43.5t56.5 -15.5q51 0 84 38t33 121q0 45 -9 83.5t-26 67t-42 44.5t-57 16z" />
    <glyph glyph-name="h" unicode="h" horiz-adv-x="686" 
d="M223 953v-449q38 42 66.5 67t52 38.5t44 18t42.5 4.5q52 0 89.5 -28.5t56.5 -90.5q12 -44 12 -157v-217q0 -31 1.5 -52.5t10 -35.5t27 -20.5t52.5 -6.5v-24h-301v24h14q30 0 47 5.5t25.5 18.5t10.5 35.5t2 55.5v217q0 61 -5.5 99t-17 59.5t-30 29t-45.5 7.5
q-17 0 -34 -3.5t-35.5 -13.5t-39 -27t-45.5 -44v-324q0 -33 1.5 -51t5 -28.5t10 -15t16.5 -10.5q19 -10 66 -10v-24h-304v24q25 0 43 3t29.5 14.5t16.5 34.5t5 63v555q0 64 -2.5 98.5t-8 50.5t-14.5 19t-23 3q-17 0 -46 -11l-9 24l183 75h31z" />
    <glyph glyph-name="i" unicode="i" horiz-adv-x="381" 
d="M255 632v-493q0 -44 5 -67.5t16.5 -34t29 -12t42.5 -1.5v-24h-298v24q31 0 49.5 4.5t28.5 17.5t12.5 35.5t2.5 57.5v236q0 58 -2 92t-7 50.5t-14.5 21t-24.5 4.5q-10 0 -20.5 -2.5t-24.5 -7.5l-10 24l185 75h30zM199 953q29 0 48.5 -19.5t19.5 -48.5q0 -28 -19.5 -48
t-48.5 -20t-48.5 20t-19.5 48q0 29 19.5 48.5t48.5 19.5z" />
    <glyph glyph-name="j" unicode="j" horiz-adv-x="381" 
d="M256 632v-618q0 -80 -18 -138t-50 -96.5t-76 -57t-97 -18.5q-31 0 -53.5 6.5t-37.5 16t-22 21.5t-7 24q0 26 18 41t42 15q6 0 12 -1t14 -5t19.5 -12.5t28.5 -23.5q32 -29 55 -29q15 0 26 5.5t19 24t12 54t4 96.5v437q0 60 -2 93.5t-7 50.5t-14.5 21t-24.5 4
q-10 0 -20.5 -2.5t-24.5 -7.5l-10 24l185 75h29zM198 953q29 0 49 -20t20 -49q0 -28 -20 -48t-49 -20q-28 0 -48 20t-20 48q0 29 20 49t48 20z" />
    <glyph glyph-name="k" unicode="k" horiz-adv-x="686" 
d="M224 953v-609l157 140l33.5 32t19 20t8.5 12.5t2 9.5q0 14 -11 23t-37 11v22h267v-22q-28 -1 -50.5 -4.5t-42 -11.5t-38.5 -21.5t-41 -33.5l-157 -146l157 -199q33 -42 55 -67.5t34 -36.5q15 -15 25.5 -24t22.5 -14.5t27 -7.5t39 -2v-24h-298v24q26 1 35 8t9 20
q0 14 -27 49l-189 239v-202q0 -31 2 -49.5t6.5 -29.5t10.5 -16.5t14 -9.5q8 -5 24.5 -6.5t42.5 -2.5v-24h-313v24q31 0 51 4t31.5 16t15.5 33.5t4 57.5v558q0 54 -1 86.5t-3 43.5q-5 25 -16 34t-28 9q-14 0 -42 -12l-12 24l183 75h30z" />
    <glyph glyph-name="l" unicode="l" horiz-adv-x="381" 
d="M254 953v-814q0 -42 4.5 -65t16 -34.5t30.5 -13.5t48 -2v-24h-301v24q30 0 48 4.5t27.5 17.5t12.5 35.5t3 57.5v557q0 63 -2.5 97.5t-8 50.5t-14.5 18.5t-22 2.5q-19 0 -44 -11l-11 24l183 75h30z" />
    <glyph glyph-name="m" unicode="m" horiz-adv-x="1067" 
d="M225 501l53.5 53t25.5 24q30 26 65 40t69 14q58 0 99.5 -33.5t55.5 -97.5q34 40 62.5 66t54 40t49 19.5t48.5 5.5q34 0 63.5 -11.5t51.5 -38t34.5 -70.5t12.5 -109v-264q0 -30 1.5 -52t10.5 -36t27.5 -20.5t52.5 -6.5v-24h-303v24h13q24 0 41 4t27 16t14.5 34.5t4.5 60.5
v264q0 44 -7 72.5t-20 45.5t-32 23.5t-43 6.5q-18 0 -35 -3.5t-35.5 -13t-40 -25.5t-47.5 -49v-321q0 -33 1 -51.5t5 -28t10 -14.5t17 -11q19 -10 66 -10v-24h-310v24q36 0 56.5 5t30 18t11.5 35.5t2 56.5v264q0 43 -7.5 71.5t-21.5 46t-33 25t-42 7.5t-46 -8t-44 -20.5
t-39 -27.5t-29 -29v-329q0 -31 2 -50t6 -30t10.5 -16.5t14.5 -9.5q16 -9 67 -9v-24h-304v24q31 0 49.5 4.5t28.5 17.5t13 35t3 58v234q0 60 -2 94t-7.5 51t-15 21t-24.5 4q-9 0 -20 -2.5t-25 -7.5l-10 24l185 75h29v-131z" />
    <glyph glyph-name="n" unicode="n" horiz-adv-x="686" 
d="M222 502q107 130 205 130q34 0 63 -11.5t50.5 -38t33.5 -71t12 -110.5v-262q0 -40 4.5 -63t15 -34.5t28.5 -14.5t46 -3v-24h-303v24h12q30 0 47.5 5.5t26 18.5t11 35.5t2.5 55.5v251q0 85 -21.5 122t-73.5 37q-81 0 -159 -87v-323q0 -39 2.5 -61.5t12.5 -34.5t30 -15.5
t55 -3.5v-24h-304v24h13q24 0 39.5 5.5t24.5 18.5t12.5 35.5t3.5 55.5v227q0 66 -2 102t-7.5 52.5t-15 19.5t-23.5 3q-10 0 -20.5 -2.5t-24.5 -7.5l-10 24l185 75h29v-130z" />
    <glyph glyph-name="o" unicode="o" horiz-adv-x="686" 
d="M343 632q64 0 118 -25t93.5 -67.5t62 -100t22.5 -121.5q0 -75 -24.5 -137t-66.5 -106.5t-97 -69t-115 -24.5q-63 0 -116.5 26t-92 70t-60 102t-21.5 122q0 66 23 125.5t63 105.5t94 73t117 27zM322 588q-29 0 -56 -12.5t-48 -40t-34 -71.5t-13 -107q0 -65 13.5 -124.5
t38.5 -104.5t61 -72t80 -27q32 0 59.5 12.5t47.5 40.5t31.5 73.5t11.5 111.5t-13 124.5t-37.5 102t-60 69t-81.5 25.5z" />
    <glyph glyph-name="p" unicode="p" horiz-adv-x="686" 
d="M-1 553l189 76h25v-143q48 81 95.5 113.5t100.5 32.5q52 0 94.5 -24t72.5 -65.5t46.5 -96.5t16.5 -117q0 -70 -19.5 -133t-56 -111t-88.5 -76t-116 -28q-23 0 -41.5 2t-35.5 8t-33.5 17t-35.5 28v-187q0 -33 2 -52t6 -30t10.5 -16t15.5 -10q19 -10 70 -10v-24h-322v24h17
q22 0 39 2t28 14t17 36.5t6 69.5v580q0 35 -2.5 56.5t-8.5 33t-16.5 15t-26.5 3.5q-8 0 -18.5 -2.5t-22.5 -7.5zM213 446v-229q0 -74 6 -98q4 -20 16 -37.5t30 -31t41.5 -21.5t50.5 -8q39 0 69.5 18.5t51.5 51t31.5 77.5t10.5 98q0 58 -11.5 107t-33 85t-52 56.5t-67.5 20.5
q-15 0 -28 -1.5t-28 -9.5t-35.5 -26.5t-51.5 -51.5z" />
    <glyph glyph-name="q" unicode="q" horiz-adv-x="686" 
d="M586 632v-789q0 -31 2 -49t6 -28.5t10 -15.5t15 -9q18 -10 67 -10v-24h-309v24h12q23 0 39.5 3t27 14.5t15.5 33.5t5 61v264q-31 -37 -56.5 -61t-49.5 -38.5t-47 -20.5t-48 -6q-44 0 -85.5 21t-73.5 60t-51 94t-19 123q0 78 25 143t68 111.5t100 72.5t122 26
q78 0 128 -43q20 10 38.5 20.5t35.5 22.5h23zM476 149v288q0 32 -8 59.5t-24.5 47t-42 30.5t-61.5 11q-37 0 -70 -15.5t-58 -47.5t-39.5 -80.5t-14.5 -113.5q0 -63 15 -110t40.5 -78.5t59 -47.5t71.5 -16q40 0 70.5 17t61.5 56z" />
    <glyph glyph-name="r" unicode="r" horiz-adv-x="457" 
d="M222 632v-138q78 138 159 138q18 0 33.5 -6t27 -16.5t18 -24t6.5 -28.5q0 -26 -17.5 -44t-41.5 -18q-11 0 -25.5 7t-28 16l-25 16t-17.5 7q-18 0 -42 -29t-47 -74v-295q0 -27 3.5 -49t14.5 -37.5t32.5 -24t57.5 -8.5v-24h-315v24q30 0 48.5 4t29.5 16t15 34.5t4 59.5v238
q0 54 -1.5 85t-3.5 42q-10 40 -45 40q-11 0 -22 -2.5t-25 -7.5l-6 24l185 75h28z" />
    <glyph glyph-name="s" unicode="s" horiz-adv-x="534" 
d="M440 632v-209h-23q-12 49 -28.5 82t-36.5 52t-45.5 27t-55.5 8q-24 0 -43 -7t-33 -18t-21.5 -25t-7.5 -29q0 -19 4.5 -35t16.5 -30t32.5 -28t52.5 -30l98 -48q136 -66 136 -175q0 -42 -17.5 -76.5t-46.5 -58.5t-66 -37.5t-75 -13.5q-29 0 -61 4.5t-68 15.5q-11 3 -20 5
t-16 2q-15 0 -24 -17h-22v219h22q9 -47 28 -82.5t44 -59t55.5 -35.5t62.5 -12q23 0 42 7t33 19.5t22 29.5t8 36q0 23 -7 41.5t-25 36t-49.5 36.5t-81.5 44q-49 24 -79.5 45t-48 42t-23.5 44t-6 52q0 38 13.5 70.5t38.5 56.5t59 37.5t75 13.5q13 0 33 -4t40.5 -9l37.5 -9
t23 -4q11 0 16.5 4.5t13.5 21.5h23z" />
    <glyph glyph-name="t" unicode="t" horiz-adv-x="381" 
d="M221 815v-201h143v-47h-143v-398q0 -30 4.5 -50t13 -31t19.5 -15.5t24 -4.5q23 0 43.5 13.5t31.5 40.5h26q-23 -66 -66 -99t-89 -33q-53 0 -85 37t-32 127v413h-98v22q57 22 102.5 75.5t84.5 150.5h21z" />
    <glyph glyph-name="u" unicode="u" horiz-adv-x="686" 
d="M581 614v-372q0 -63 2.5 -98t7.5 -51.5t14 -20t23 -3.5q19 0 47 11l9 -23l-184 -76h-30v130q-41 -44 -69.5 -70t-51.5 -39.5t-43 -17t-44 -3.5q-84 0 -120.5 62.5t-36.5 176.5v274q0 31 -5 49.5t-16.5 28.5t-29.5 13.5t-45 3.5h-8v25h215v-411q0 -44 8.5 -71.5
t22.5 -42.5t32.5 -20t38.5 -5q29 0 65 18t87 69v347q0 26 -4 43.5t-15 28t-30 15t-49 4.5v25h209z" />
    <glyph glyph-name="v" unicode="v" horiz-adv-x="686" 
d="M11 614h289v-25h-19q-26 0 -39.5 -12.5t-13.5 -34.5q-1 -22 14 -56l143 -339l143 352q15 37 15 57t-16 26.5t-54 6.5v25h200v-25q-21 -2 -34.5 -7.5t-23.5 -15.5t-17 -24.5t-15 -33.5l-218 -527h-27l-219 518q-10 24 -19 40t-21 26t-28 15.5t-40 8.5v25z" />
    <glyph glyph-name="w" unicode="w" horiz-adv-x="991" 
d="M9 614h257v-25q-36 -2 -47 -12.5t-11 -29.5q-1 -11 2.5 -23t9.5 -27l131 -353l132 287l-35 91q-6 17 -13.5 29t-18 20t-26.5 12.5t-39 5.5v25h292v-25q-41 -2 -61.5 -13t-20.5 -39q0 -14 6 -27l139 -353l129 340q14 37 14 58q0 13 -13 22.5t-51 11.5v25h193v-25
q-59 -9 -86 -79l-205 -529h-27l-153 392l-179 -392h-25l-197 516q-9 25 -18 40.5t-20 25.5t-25.5 15.5t-33.5 10.5v25z" />
    <glyph glyph-name="x" unicode="x" horiz-adv-x="686" 
d="M18 614h289v-25q-28 0 -39 -9t-11 -25q0 -14 11.5 -30.5t34.5 -52.5l43 -70l51 70q48 66 48 83q0 14 -11 24t-37 10v25h207v-25q-20 -1 -35.5 -7t-31.5 -19t-35 -35t-44 -56l-84 -112l153 -220q29 -42 47.5 -64.5t32.5 -34t28 -14t34 -3.5v-24h-289v24q25 0 42.5 10
t17.5 28q-2 16 -43 78l-90 131l-99 -131q-23 -31 -34 -49t-11 -23q0 -17 15 -29.5t45 -14.5v-24h-200v24q14 2 25.5 6.5t25.5 17t32 34.5t45 58l128 171l-116 169q-26 37 -44 58.5t-34 32.5t-31.5 14.5t-35.5 3.5v25z" />
    <glyph glyph-name="y" unicode="y" horiz-adv-x="686" 
d="M8 614h286v-25h-14q-30 0 -45 -13t-15 -33q0 -27 22 -72l149 -310l138 339q11 28 11 55q0 16 -10.5 25t-51.5 9v25h200v-25q-18 -2 -29.5 -5t-20.5 -12t-18 -27t-22 -49l-250 -612q-18 -44 -43 -78t-52.5 -56.5t-56.5 -34t-56 -11.5q-20 0 -36.5 6t-28.5 16.5t-18.5 24
t-6.5 28.5q0 28 18.5 45t50.5 17q7 0 21.5 -4l29.5 -8.5t27 -8.5t15 -4q20 0 43.5 21.5t48.5 80.5l44 106l-221 463q-18 41 -43 67t-66 35v25z" />
    <glyph glyph-name="z" unicode="z" horiz-adv-x="609" 
d="M576 188v-188h-549v24l408 543h-201q-33 0 -53.5 -2t-32.5 -6.5t-19 -12t-13 -19.5q-18 -33 -21 -83h-27v170h519v-25l-411 -544h223q36 0 59 2.5t37.5 9t23 16.5t16.5 25q5 11 10 33t8 57h23z" />
    <glyph glyph-name="braceleft" unicode="{" horiz-adv-x="659" 
d="M563 -273v-23q-55 7 -101 31.5t-79.5 59.5t-52 78.5t-18.5 88.5q0 22 4.5 52t10.5 60.5t10.5 57t4.5 42.5q0 24 -10.5 47t-30 42.5t-48 33t-63.5 18.5v27q36 4 64 18t47.5 33.5t30 43t10.5 47.5q0 16 -4.5 42t-10.5 56t-10.5 60t-4.5 53q0 46 18.5 89t52 78t79.5 59
t101 32v-24q-78 -19 -114.5 -61t-36.5 -93q0 -18 4.5 -46t10.5 -58.5t10.5 -60t4.5 -50.5q0 -34 -12.5 -67.5t-37 -63.5t-61.5 -55.5t-86 -43.5q48 -18 85 -44t61.5 -57t37.5 -65t13 -67q0 -21 -4.5 -50t-10.5 -60t-10.5 -58.5t-4.5 -45.5q0 -51 36.5 -93.5t114.5 -62.5z
" />
    <glyph glyph-name="bar" unicode="|" horiz-adv-x="275" 
d="M163 953v-1249h-55v1249h55z" />
    <glyph glyph-name="braceright" unicode="}" horiz-adv-x="659" 
d="M119 929v24q55 -8 101.5 -32t80 -59t52 -78.5t18.5 -88.5q0 -23 -5 -52.5l-10.5 -59.5l-10.5 -56.5t-5 -42.5q0 -24 10.5 -47.5t30 -43t47.5 -33.5t64 -18v-27q-35 -5 -63 -18.5t-48 -32.5t-30.5 -42.5t-10.5 -47.5q0 -16 5 -42.5l10.5 -57l10.5 -60.5t5 -52
q0 -45 -18.5 -88t-52 -78.5t-80 -60t-101.5 -31.5v23q78 20 114.5 62t36.5 94q0 17 -5 45l-10.5 58.5l-10.5 60t-5 49.5q0 34 12.5 68t37.5 64.5t62 55.5t87 43q-48 18 -85 44t-62.5 57t-38.5 65t-13 67q0 21 5 50.5l10.5 60l10.5 58.5t5 46q0 51 -36.5 93t-114.5 61z" />
    <glyph glyph-name="asciitilde" unicode="~" horiz-adv-x="742" 
d="M698 452h30q-2 -44 -15 -78.5t-35 -58t-51.5 -36t-62.5 -12.5q-20 0 -33 1t-35.5 8.5t-64 24l-117.5 47.5q-106 43 -147 43q-47 0 -78.5 -29t-45.5 -94h-30q2 45 15.5 80t35 58.5t49 35.5t57.5 12q42 0 101 -21t142 -57q57 -25 97.5 -36.5t63.5 -11.5q51 0 84.5 32
t39.5 92z" />
    <glyph glyph-name="quotesinglbase" unicode="&#x201a;" horiz-adv-x="457" 
d="M136 -228v29q69 23 106.5 71t37.5 101q0 11 -4.5 19.5t-10.5 8.5q-5 0 -22 -10t-36 -10q-32 0 -51.5 19.5t-19.5 53.5q0 16 7 31t18.5 25.5t27 17t33.5 6.5q22 0 42 -10t36 -28.5t25.5 -44.5t9.5 -58q0 -69 -47.5 -128t-151.5 -93z" />
    <glyph glyph-name="florin" unicode="&#x192;" horiz-adv-x="686" 
d="M460 586h120l-12 -44h-116q-18 -91 -46.5 -208.5t-69.5 -265.5q-29 -103 -59 -171.5t-61.5 -110t-65 -58.5t-67.5 -17q-38 0 -60 20.5t-22 50.5q0 26 16 42.5t36 16.5q17 0 30 -11.5t13 -25.5t-8 -23.5t-8 -15.5q0 -5 4.5 -9.5t12.5 -4.5q14 0 27.5 7t36.5 47
q27 46 38 90.5t43 185.5q31 166 46.5 233l53.5 228h-119l10 44q35 3 54.5 5t30.5 5.5t16 8.5t11 13q16 21 40 90q25 72 47.5 115.5t46 67t47.5 31t52 7.5q42 0 66.5 -22t24.5 -53q0 -23 -13 -37t-32 -14q-18 0 -30 11.5t-12 25.5q0 11 7 23.5t7 17.5q0 17 -23 17
q-29 0 -46.5 -22t-28.5 -63t-24 -131z" />
    <glyph glyph-name="quotedblbase" unicode="&#x201e;" horiz-adv-x="609" 
d="M77 -212v28q34 19 55.5 36.5t33.5 34t16.5 34t4.5 37.5q0 19 -7 28t-16 9q-6 0 -21.5 -5t-29.5 -5q-28 0 -48 20t-20 49q0 16 7 30.5t19 25.5t28 17.5t34 6.5q22 0 43 -10.5t37 -28.5t26 -42.5t10 -53.5q0 -35 -11.5 -68t-34 -60.5t-54.5 -49t-72 -33.5zM397 -212v28
q58 31 84 64.5t26 73.5q0 23 -7 32t-15 9t-24 -5t-26 -5q-27 0 -48 20.5t-21 49.5q0 16 7 30.5t18.5 25t27 17t33.5 6.5q22 0 43.5 -10.5t38 -29t26.5 -43t10 -52.5q0 -33 -11.5 -65.5t-33.5 -60t-54 -50t-74 -35.5z" />
    <glyph glyph-name="ellipsis" unicode="&#x2026;" horiz-adv-x="1372" 
d="M1144 130q31 0 52.5 -22t21.5 -52q0 -31 -21.5 -53t-52.5 -22t-53 22t-22 53q0 32 21.5 53t53.5 21zM228 130q31 0 53 -21.5t22 -52.5t-22 -53t-53 -22q-30 0 -52 22t-22 53q0 32 22 53t52 21zM686 130q31 0 52.5 -22t21.5 -52q0 -31 -21.5 -53t-52.5 -22t-52.5 22
t-21.5 53q0 32 21.5 53t52.5 21z" />
    <glyph glyph-name="dagger" unicode="&#x2020;" horiz-adv-x="686" 
d="M351 -282h-25q-2 147 -6.5 264t-14.5 206q-8 67 -19 130.5t-27 123.5q17 15 29 29.5t20 32.5t12 41t6 55q-27 -3 -55.5 -11.5t-55 -18l-47.5 -16.5t-33 -7q-30 0 -48.5 18t-18.5 46q0 29 19.5 47.5t49.5 18.5q11 0 13.5 1t9 -1t23 -9l55.5 -24q38 -17 88 -20
q-1 16 -2 27.5t-4 21.5t-7.5 21.5l-11.5 28.5q-36 85 -36 130q0 38 22 62.5t53 24.5q14 0 27 -7t23.5 -19t16.5 -27.5t6 -33.5q0 -12 -1.5 -23.5t-5.5 -25t-11 -31.5l-18 -45q-12 -29 -18 -55t-8 -49q28 2 56.5 9.5t52 16t39.5 15.5t18 8q8 2 15 3t15 1q32 0 51.5 -18.5
t19.5 -47.5q0 -26 -19.5 -45t-49.5 -19q-38 0 -110 31l-27.5 11t-19 6t-17.5 3t-24 2q1 -32 5.5 -55.5t12.5 -42t20 -33t29 -27.5q-32 -123 -45 -244q-7 -61 -12 -180.5t-10 -299.5z" />
    <glyph glyph-name="daggerdbl" unicode="&#x2021;" horiz-adv-x="686" 
d="M355 654q3 -23 6.5 -38t10.5 -27t18 -23.5t28 -25.5q-17 -26 -29 -49.5t-19.5 -48.5t-11 -53.5t-3.5 -64.5q0 -34 3 -61t10.5 -51.5t19.5 -48t30 -49.5q-16 -14 -27 -25t-18 -23.5t-11 -28t-7 -37.5q15 2 23.5 3.5t16 3.5t17.5 6l29 12q29 11 51 17.5t39 6.5
q27 0 44.5 -16.5t17.5 -42.5q0 -27 -17.5 -44.5t-44.5 -17.5q-12 0 -32 7l-44 15.5t-50 16t-50 8.5q3 -22 4.5 -34t3.5 -20t5.5 -16l9.5 -21q33 -74 33 -110q0 -30 -19 -50t-48 -20q-31 0 -49 22t-18 54q0 8 0.5 14.5t3.5 17t9.5 27.5l17.5 47q8 22 12.5 44t7.5 45
q-16 0 -27 -1t-20.5 -3.5t-21 -7t-28.5 -12.5q-52 -23 -76 -23q-27 0 -44 16.5t-17 42.5q0 28 18 45t47 17q9 0 26 -5.5l35.5 -12l36 -13t28.5 -9.5q8 -2 18.5 -3t24.5 -1q-3 21 -7 35.5t-11 26.5t-18 22.5t-28 24.5q38 49 51.5 101.5t13.5 116.5q0 66 -13.5 116t-51.5 92
q17 13 28 23.5t17.5 23t11 28.5t7.5 39l-22.5 -1.5t-15.5 -2.5t-21 -7.5l-38 -15.5q-23 -10 -42.5 -14t-36.5 -4q-26 0 -42.5 16.5t-16.5 42.5q0 25 16 41.5t42 16.5q14 0 36 -7l47 -15l49.5 -16t44.5 -9q-1 18 -3 31t-5.5 26.5t-10 30l-16.5 41.5l-15.5 39t-3.5 14
q0 41 16.5 66.5t51.5 25.5q65 0 65 -87q0 -9 -0.5 -15t-3.5 -14.5t-8.5 -21l-15.5 -34.5q-11 -24 -16.5 -49t-7.5 -53q16 1 25 1.5t17.5 3t19 6.5t31.5 13q26 11 47 17t38 6q26 0 43 -16.5t17 -42.5t-17.5 -42.5t-45.5 -16.5q-33 0 -84 22l-29.5 12.5t-18.5 6.5t-17.5 2.5
t-25.5 2.5z" />
    <glyph glyph-name="perthousand" unicode="&#x2030;" horiz-adv-x="1372" 
d="M237 929q42 0 78 -18.5t61.5 -51.5t40 -78t14.5 -97q0 -57 -15.5 -101.5t-42 -76t-61 -48t-73.5 -16.5q-41 0 -77 18t-62 50t-41 77t-15 98q0 59 16.5 104.5t43.5 76.5t61.5 47t71.5 16zM1133 451q42 0 77.5 -18.5t61.5 -50.5t40.5 -75.5t14.5 -92.5q0 -57 -14 -103.5
t-39.5 -79t-61 -50.5t-78.5 -18q-41 0 -76 18.5t-61 50.5t-40.5 75.5t-14.5 94.5q0 57 14.5 103t40 78.5t60.5 50t76 17.5zM689 451q36 0 70.5 -17t61.5 -48.5t44 -76t17 -100.5q0 -53 -15 -98t-41.5 -78t-62 -51.5t-76.5 -18.5q-37 0 -72 16.5t-62 48t-43 76.5t-16 102
q0 52 15 97t41 78t62 51.5t77 18.5zM234 894q-47 0 -65 -57t-18 -156q0 -105 22.5 -155.5t64.5 -50.5q40 0 63 54.5t23 160.5q0 103 -24 153.5t-66 50.5zM687 415q-21 0 -37 -11.5t-26.5 -37t-16 -66t-5.5 -99.5q0 -103 21.5 -152t62.5 -49q42 0 65 51.5t23 151.5
q0 103 -22.5 157.5t-64.5 54.5zM1133 415q-43 0 -63.5 -51t-20.5 -160q0 -106 22.5 -155t64.5 -49q41 0 62.5 50t21.5 170q0 99 -24 147t-63 48zM817 929l-651 -966h-59l651 966h59z" />
    <glyph glyph-name="guilsinglleft" unicode="&#x2039;" horiz-adv-x="457" 
d="M377 -5h-38l-259 316l259 315h38l-163 -315z" />
    <glyph glyph-name="OE" unicode="&#x152;" horiz-adv-x="1220" 
d="M740 859v-359h122q78 0 109.5 31.5t31.5 100.5h26v-316h-26q-3 42 -11 68t-23.5 41t-41.5 20.5t-65 5.5h-122v-300q0 -37 3 -57.5t11.5 -30t24 -11t41.5 -1.5h70q42 0 68.5 1.5t45 6.5t32.5 14.5t32 25.5q50 46 86 129h27l-72 -228h-325q-45 0 -97.5 -1.5t-100 -4
t-82.5 -4t-44 -1.5q-80 0 -154 32t-131 92t-91 146t-34 194q0 172 95 305q112 159 330 159q2 0 34 -1.5t78.5 -3t99.5 -2.5t97 -1h317v-200h-14q-8 44 -15.5 69t-16.5 38.5t-20.5 20t-27.5 13.5q-23 9 -96 9h-171zM611 698q0 45 -3 72.5t-9 44t-15 24.5t-21 15
q-17 9 -38 14.5t-47 5.5q-62 0 -112.5 -27t-86.5 -80.5t-55.5 -133.5t-19.5 -185q0 -88 17.5 -163.5t51.5 -130.5t84.5 -86t117.5 -31q101 0 124 65q12 31 12 126v470z" />
    <glyph glyph-name="quoteleft" unicode="&#x2018;" horiz-adv-x="457" 
d="M297 929v-29q-61 -36 -86 -67t-25 -71q0 -21 7.5 -31.5t18.5 -10.5q4 0 10.5 1.5t13.5 4t13.5 4t10.5 1.5q26 0 47 -20.5t21 -49.5q0 -20 -8 -35t-20.5 -25t-28 -14.5t-30.5 -4.5q-23 0 -44 10.5t-37.5 28.5t-26 42t-9.5 52q0 32 9.5 63t30.5 59t54 51.5t79 40.5z" />
    <glyph glyph-name="quoteright" unicode="&#x2019;" horiz-adv-x="457" 
d="M159 582v32q61 35 86.5 65t25.5 72q0 22 -8 31.5t-17 9.5q-4 0 -10.5 -1.5t-13.5 -4t-13.5 -4t-10.5 -1.5q-27 0 -48 20t-21 51q0 19 7.5 33.5t20 24t28.5 14.5t32 5q22 0 43 -10t37.5 -28t26.5 -42t10 -52q0 -32 -10 -63t-31.5 -59t-54.5 -52t-79 -41z" />
    <glyph glyph-name="quotedblleft" unicode="&#x201c;" horiz-adv-x="609" 
d="M218 929v-27q-59 -31 -84 -64.5t-25 -73.5q0 -23 6.5 -32t14.5 -9t23 5t27 5q28 0 48.5 -20.5t20.5 -49.5q0 -16 -6.5 -30.5t-18.5 -25t-28 -17t-34 -6.5q-22 0 -43 10.5t-37.5 28.5t-26.5 42.5t-10 53.5q0 34 11.5 66t33.5 59.5t54.5 49.5t73.5 35zM538 927v-25
q-35 -20 -56.5 -37t-33.5 -33.5t-16.5 -33.5t-4.5 -38q0 -20 7.5 -29t15.5 -9t22.5 5.5t29.5 5.5q26 0 47 -19.5t21 -48.5q0 -16 -7 -30.5t-19 -26t-28 -18t-35 -6.5q-22 0 -42.5 10t-36.5 28t-26 42t-10 53q0 35 11.5 68t33.5 60.5t54 48.5t73 33z" />
    <glyph glyph-name="quotedblright" unicode="&#x201d;" horiz-adv-x="609" 
d="M77 583v28q34 19 55.5 36.5t33.5 34t16.5 34t4.5 37.5q0 19 -7 28t-16 9q-6 0 -21.5 -5t-29.5 -5q-28 0 -48 20t-20 49q0 16 7 30.5t19 25.5t28 17.5t34 6.5q22 0 43 -10.5t37 -28.5t26 -42.5t10 -53.5q0 -35 -11.5 -68t-34 -60.5t-54.5 -49t-72 -33.5zM397 583v28
q58 31 84 64.5t26 73.5q0 23 -7 32t-15 9t-24 -5t-26 -5q-27 0 -48 20.5t-21 49.5q0 16 7 30.5t18.5 25t27 17t33.5 6.5q22 0 43.5 -10.5t38 -29t26.5 -43t10 -52.5q0 -33 -11.5 -65.5t-33.5 -60t-54 -50t-74 -35.5z" />
    <glyph glyph-name="bullet" unicode="&#x2022;" horiz-adv-x="480" 
d="M243 622q34 0 64.5 -13.5t53.5 -36.5t36.5 -53.5t13.5 -64.5q0 -35 -13.5 -65.5t-36 -53.5t-53.5 -36.5t-65 -13.5q-35 0 -65.5 13t-53.5 36t-36 54t-13 66q0 34 13.5 64.5t36 53.5t53 36.5t65.5 13.5z" />
    <glyph glyph-name="endash" unicode="&#x2013;" horiz-adv-x="686" 
d="M697 304h-709v48h709v-48z" />
    <glyph glyph-name="emdash" unicode="&#x2014;" horiz-adv-x="1372" 
d="M1384 304h-1397v49h1397v-49z" />
    <glyph glyph-name="trademark" unicode="&#x2122;" horiz-adv-x="1345" 
d="M775 909l182 -384l178 384h187v-25q-27 -1 -41.5 -4t-22 -13t-9 -27.5t-1.5 -46.5v-313q0 -29 2.5 -45.5t10 -25.5t22 -12.5t39.5 -4.5v-24h-267v24q30 1 46 5.5t23.5 14t9 26t1.5 41.5v330l-206 -441h-21l-207 435v-323q0 -27 2 -44.5t9 -27t19.5 -13t32.5 -3.5h24v-24
h-205v24q28 0 43 3.5t22.5 13t9 27t1.5 44.5v312q0 29 -1.5 47t-9 28t-22.5 13.5t-43 3.5v25h192zM34 909h488l15 -135h-23q-7 48 -35.5 71t-94.5 23h-50v-388q0 -29 2.5 -45.5t10.5 -25.5t21.5 -12.5t36.5 -4.5v-24h-251v24q22 2 35.5 5.5t20.5 13t9 26t2 43.5v388h-51
q-63 0 -90 -21t-37 -73h-23z" />
    <glyph glyph-name="guilsinglright" unicode="&#x203a;" horiz-adv-x="457" 
d="M77 626h39l264 -316l-264 -315h-39l163 315z" />
    <glyph glyph-name="oe" unicode="&#x153;" horiz-adv-x="991" 
d="M578 384q0 -8 -0.5 -14.5t-0.5 -11.5q0 -62 15 -111t40.5 -83.5t59 -53t71.5 -18.5q54 0 95 34t65 112l22 -12q-24 -129 -84 -187t-143 -58q-66 0 -112 31.5t-69 76.5q-83 -108 -213 -108q-59 0 -109.5 22.5t-88.5 63.5t-59.5 99.5t-21.5 130.5q0 77 22.5 139t61 105.5
t90 67t109.5 23.5q72 0 124.5 -29.5t84.5 -76.5q40 57 83 81.5t107 24.5q48 0 88 -16t69 -47t45 -75t16 -99v-11h-367zM304 595q-23 0 -47 -11t-43.5 -38t-31.5 -72t-12 -113q0 -66 11.5 -126t33 -105.5t53.5 -73t73 -27.5q29 0 54 11t44 37t29.5 69t10.5 107
q0 77 -11.5 140t-33.5 108t-55 69.5t-75 24.5zM578 427h235q0 32 -7 61t-21.5 51.5t-36.5 35.5t-52 13q-45 0 -79 -40t-39 -121z" />
    <glyph glyph-name="Ydieresis" unicode="&#x178;" horiz-adv-x="991" 
d="M654 909h317v-25h-18q-38 0 -82 -34.5t-97 -119.5l-219 -345v-228q0 -46 6.5 -72.5t19 -39.5t31 -16.5t42.5 -3.5h29v-25h-386v25h33q24 0 42 4t30 17.5t18 39.5t6 71v216l-249 380l-37.5 54.5t-22.5 29.5q-4 4 -13.5 12t-23.5 15.5t-31 13.5t-36 6v25h388v-25h-20
q-15 0 -30 -3.5t-27 -10.5t-19.5 -18.5t-7.5 -26.5q-1 -12 10 -33.5t31 -53.5l189 -293l179 280q38 61 40 94q-2 14 -6.5 26t-15 20.5t-27.5 13.5t-43 5v25zM391 1145q30 0 51.5 -21.5t21.5 -51.5t-21.5 -51.5t-51.5 -21.5t-51.5 21.5t-21.5 51.5t21 51.5t52 21.5zM627 1145
q30 0 51 -21.5t21 -51.5t-21 -51.5t-51 -21.5t-51.5 21.5t-21.5 51.5t21.5 51.5t51.5 21.5z" />
    <glyph glyph-name="uni00A0" unicode="&#xa0;" horiz-adv-x="343" 
 />
    <glyph glyph-name="exclamdown" unicode="&#xa1;" horiz-adv-x="457" 
d="M216 393h25l60 -542q0 -2 0.5 -10.5l1 -17.5t1 -16.5t0.5 -8.5q0 -43 -22.5 -68.5t-53.5 -25.5q-32 0 -53.5 25.5t-21.5 76.5q0 15 3 45zM229 653q31 0 53 -21.5t22 -53.5q0 -31 -22 -52t-53 -21t-52.5 21t-21.5 52t21.5 53t52.5 22z" />
    <glyph glyph-name="cent" unicode="&#xa2;" horiz-adv-x="686" 
d="M603 234q-14 -55 -37 -101t-55 -79t-73.5 -51.5t-91.5 -18.5q-54 0 -109 23l-95 -261h-47l104 286q-63 60 -88 125t-25 146q0 73 22 134t61 104.5t92 68t114 24.5h16t24 -2l94 256h48l-97 -269q38 -17 62 -33.5t38 -33t19.5 -33.5t5.5 -35q0 -26 -16 -41.5t-47 -15.5
q-30 0 -49.5 16t-25.5 64q-2 11 -4.5 21.5t-7.5 22.5l-152 -423q17 -12 30 -19.5t25.5 -12.5t25 -7t28.5 -2q41 0 78.5 17t56.5 40q21 24 56 99zM248 167l149 413q-19 8 -40 8q-41 0 -71.5 -18.5t-50.5 -50t-30.5 -73t-10.5 -88.5q0 -26 2.5 -48t8.5 -44.5t16.5 -46
t26.5 -52.5z" />
    <glyph glyph-name="sterling" unicode="&#xa3;" horiz-adv-x="686" 
d="M484 442h-172v-46q0 -33 -2 -61t-7 -55.5t-12.5 -57.5t-19.5 -66l103 -32.5t47 -13.5q37 -8 68 -8q56 0 90.5 25.5t50.5 81.5l25 -6q-7 -54 -25.5 -95t-44.5 -68.5t-58 -41.5t-65 -14q-25 0 -43 2.5t-40 13t-53 32l-82 59.5q-54 -107 -125 -107q-34 0 -56 23t-22 63
q0 46 31 75.5t79 29.5q11 0 25 -1.5l32 -3.5q2 17 2 30v21q0 30 -3.5 85t-10.5 136h-130v63h130q-9 100 -9 134q0 67 20.5 120t54.5 90.5t79 57.5t94 20q43 0 74.5 -13t52.5 -33.5t31.5 -44.5t10.5 -45t-16 -38t-36 -17q-10 0 -18.5 2.5t-15.5 11t-11.5 23.5t-6.5 40
q-3 41 -23.5 59t-57.5 18q-26 0 -48 -9t-38.5 -31t-26 -57.5t-9.5 -89.5q0 -17 2 -45l4 -57.5t4.5 -56t4.5 -39.5h172v-63zM200 115q-29 19 -57 19q-30 0 -47 -16.5t-17 -42.5q0 -24 13 -38t31 -14q22 0 43 20.5t34 71.5z" />
    <glyph glyph-name="currency" unicode="&#xa4;" horiz-adv-x="686" 
d="M532 683l96 95l39 -38l-97 -95q69 -89 69 -188q0 -103 -69 -190l97 -97l-39 -37l-96 95q-90 -69 -181 -69q-29 0 -58.5 5.5t-55.5 15t-48 22t-36 26.5l-97 -95l-38 37l97 97q-69 78 -69 189q0 105 69 189l-97 95l38 38l97 -95q17 15 40.5 27.5t49 21.5t51.5 14t50 5
q47 0 98 -17t90 -51zM343 697q-50 0 -94 -19.5t-77 -52.5t-52.5 -77t-19.5 -94q0 -49 19 -93t52 -77t77 -52t94 -19q49 0 93.5 19.5t78 52.5t53 77t19.5 93q0 46 -18.5 90t-51.5 77.5t-77.5 54t-95.5 20.5z" />
    <glyph glyph-name="yen" unicode="&#xa5;" horiz-adv-x="686" 
d="M400 285h285v-49h-285v-73q0 -34 1 -55t4 -33.5t9 -19.5t16 -13q25 -15 57 -15h28v-27h-345v27h21q31 0 49.5 5t28.5 19.5t13 41t3 70.5v73h-284v49h284v96l-10 24h-274v49h253l-143 333q-13 29 -24.5 47.5t-24 29t-27.5 15t-34 4.5v26h296v-26q-48 -4 -64.5 -15.5
t-16.5 -25.5q0 -12 12 -40l144 -348l143 338q14 34 14 50q0 8 -2.5 14.5t-10 11t-22.5 8.5t-40 7v26h231v-26q-24 0 -40.5 -5.5t-29 -18t-23.5 -32.5t-23 -48l-143 -325h259v-49h-280l-5 -10v-110z" />
    <glyph glyph-name="section" unicode="&#xa7;" horiz-adv-x="686" 
d="M253 565q-45 50 -64 90.5t-19 82.5q0 39 15 73.5t40.5 60t60 40.5t74.5 15q37 0 68 -12.5t53.5 -33t35 -47t12.5 -54.5q0 -21 -12.5 -40.5t-40.5 -19.5q-23 0 -37.5 15.5t-14.5 35.5q0 7 4.5 27t4.5 37q0 28 -19.5 46t-53.5 18q-24 0 -45.5 -9t-37.5 -25t-25 -37t-9 -46
q0 -26 8 -48t23 -42t37 -39.5t51 -40.5q58 -42 99.5 -79t68.5 -71.5t39.5 -68.5t12.5 -70q0 -61 -35.5 -122t-113.5 -107q24 -26 40 -48t25.5 -41.5t13.5 -39t4 -41.5q0 -41 -15 -76t-40.5 -60.5t-60 -40.5t-74.5 -15q-36 0 -66.5 12.5t-53.5 33.5t-36 48t-13 57q0 25 16 42
t37 17q20 0 35 -16t15 -43q0 -17 -5.5 -39.5t-5.5 -33.5q0 -12 7.5 -22t19 -16.5t26 -10t28.5 -3.5q22 0 43.5 9.5t38 25.5t26.5 36t10 40q0 50 -33.5 92t-104.5 96q-57 42 -96.5 78.5t-63.5 69.5t-34.5 65.5t-10.5 67.5q0 62 35.5 121.5t112.5 105.5zM274 544
q-101 -61 -101 -149q0 -27 8.5 -52t27 -50t48.5 -52.5t73 -59.5l43.5 -34.5t37.5 -33.5q103 63 103 148q0 21 -6 43t-23 47t-46.5 54t-75.5 65q-28 21 -50 39.5t-39 34.5z" />
    <glyph glyph-name="dieresis" unicode="&#xa8;" horiz-adv-x="457" 
d="M111 896q30 0 51.5 -21.5t21.5 -51.5t-21.5 -51.5t-51.5 -21.5t-51.5 21.5t-21.5 51.5t21 51.5t52 21.5zM347 896q30 0 51 -21.5t21 -51.5t-21 -51.5t-51 -21.5t-51.5 21.5t-21.5 51.5t21.5 51.5t51.5 21.5z" />
    <glyph glyph-name="circumflex" unicode="&#x2c6;" horiz-adv-x="457" 
d="M167 928h123l127 -222h-20l-183 143l-154 -143h-20z" />
    <glyph glyph-name="tilde" unicode="&#x2dc;" horiz-adv-x="457" 
d="M36 735h-21q3 92 38.5 133t87.5 41q15 0 29 -2.5t29 -9t33.5 -17.5t43.5 -28q53 -37 82 -37q10 0 20 3.5t18 14t14.5 29t11.5 47.5h21q0 -44 -10 -77t-27.5 -55.5t-40.5 -33.5t-49 -11q-53 0 -132 54q-22 15 -35 23t-22 12t-15 5t-14 1q-12 0 -20.5 -2t-15.5 -11
t-13 -27.5t-13 -51.5z" />
    <glyph glyph-name="copyright" unicode="&#xa9;" horiz-adv-x="1043" 
d="M521 929q121 0 234 -61t178 -176q64 -116 64 -238q0 -124 -63 -236q-62 -112 -176 -176q-57 -32 -115.5 -47.5t-121.5 -15.5q-124 0 -236 63q-113 62 -176 176q-63 112 -63 236q0 122 64 238q63 114 178 176q113 61 233 61zM521 888q-80 0 -157.5 -31t-138.5 -88
t-99 -137t-38 -178q0 -83 32.5 -161.5t90 -139t137 -97t173.5 -36.5q84 0 162 32.5t138.5 90.5t97 137.5t36.5 173.5q0 87 -33.5 165.5t-92 138t-137.5 95t-171 35.5zM756 760l14 -188h-26q-24 81 -76.5 119.5t-126.5 38.5q-99 0 -157 -67.5t-58 -192.5q0 -72 16 -124
t45 -86t69.5 -50.5t90.5 -16.5q131 0 209 108l25 -12q-93 -136 -256 -136q-67 0 -124 23.5t-98.5 63.5t-65 94t-23.5 116q0 64 25 120.5t69.5 98.5t106 66.5t133.5 24.5q17 0 28.5 -0.5t23.5 -3t28.5 -7.5t43.5 -14q14 -5 25 -5t18 5.5t15 24.5h26z" />
    <glyph glyph-name="ordfeminine" unicode="&#xaa;" horiz-adv-x="379" 
d="M228 791q0 37 -5 60t-14 36t-22 17.5t-30 4.5q-63 0 -63 -60q0 -30 -11 -44t-28 -14q-16 0 -27 11.5t-11 28.5q0 18 9.5 35.5t28.5 31t48.5 21.5t70.5 8q52 0 81 -11.5t43.5 -30.5t18 -43.5t3.5 -50.5v-146q0 -21 0.5 -31t1 -14.5t2.5 -5.5t5 -4q6 -4 9 -4q8 0 39 20v-32
l-41 -28t-25 -14.5t-17 -5.5t-17 -1q-17 0 -30 13.5t-19 49.5q-85 -61 -144 -61q-17 0 -33 7t-28 18.5t-19.5 26.5t-7.5 31q0 27 9.5 47t35 40t70.5 42t117 52zM228 765q-41 -14 -68 -29t-42.5 -30.5t-22 -31.5t-6.5 -32q0 -23 17 -40.5t43 -17.5q29 0 79 30v151z" />
    <glyph glyph-name="guillemotleft" unicode="&#xab;" horiz-adv-x="686" 
d="M643 -5h-39l-264 316l264 315h39l-163 -315zM340 -5h-38l-259 316l259 315h38l-163 -315z" />
    <glyph glyph-name="logicalnot" unicode="&#xac;" horiz-adv-x="774" 
d="M24 588h724v-272h-53v218h-671v54z" />
    <glyph glyph-name="registered" unicode="&#xae;" horiz-adv-x="1043" 
d="M521 929q121 0 234 -61t178 -176q64 -116 64 -238q0 -124 -63 -236q-62 -112 -176 -176q-57 -32 -115.5 -47.5t-121.5 -15.5q-124 0 -236 63q-113 62 -176 176q-63 112 -63 236q0 122 64 238q63 114 178 176q113 61 233 61zM521 888q-80 0 -157.5 -31t-138.5 -88
t-99 -137t-38 -178q0 -83 32.5 -161.5t90 -139t137 -97t173.5 -36.5q84 0 162 32.5t138.5 90.5t97 137.5t36.5 173.5q0 87 -33.5 165.5t-92 138t-137.5 95t-171 35.5zM259 746h258q49 0 86 -12t62 -32t38 -47.5t13 -58.5q0 -50 -34.5 -89t-114.5 -59l141 -200q10 -15 19 -26
t18 -18t19.5 -10.5t24.5 -4.5v-22h-124l-197 271h-51v-207q2 -11 6 -19t12.5 -13t23 -7.5t37.5 -2.5v-22h-245v22q24 0 38 3t20.5 13t8.5 28t2 48v351q0 29 -1 46.5t-7 27.5t-18.5 13t-34.5 3v24zM417 467q104 0 147.5 33t43.5 89q0 26 -10 49.5t-27.5 41t-42 27.5t-54.5 10
q-28 0 -57 -11v-239z" />
    <glyph glyph-name="macron" unicode="&#xaf;" horiz-adv-x="686" 
d="M698 980h-709v56h709v-56z" />
    <glyph glyph-name="degree" unicode="&#xb0;" horiz-adv-x="549" 
d="M271 929q43 0 81 -16.5t66 -44.5t44 -66t16 -80t-16.5 -79.5t-44.5 -65.5t-65.5 -44t-80.5 -16q-42 0 -79.5 16.5t-65 44t-44 65t-16.5 79.5q0 43 16 80.5t44 65.5t65.5 44.5t79.5 16.5zM271 872q-31 0 -58 -12t-47.5 -32t-32 -47t-11.5 -58q0 -30 11.5 -57.5t32 -47.5
t47.5 -32t58 -12t58.5 12t47.5 32.5t32 47.5t12 57q0 31 -12 58t-32 47t-47.5 32t-58.5 12z" />
    <glyph glyph-name="plusminus" unicode="&#xb1;" horiz-adv-x="753" 
d="M5 94v55h334v280h-334v55h334v333h54v-333h335v-55h-335v-280h335v-55h-723z" />
    <glyph glyph-name="acute" unicode="&#xb4;" horiz-adv-x="457" 
d="M379 931l-198 -231h-23l70 231h151z" />
    <glyph glyph-name="mu" unicode="&#xb5;" horiz-adv-x="791" 
d="M131 614h110v-357q0 -99 12 -133q9 -27 32 -43.5t51 -16.5q80 0 158 89v461h111v-438q0 -39 2.5 -63t7.5 -37t14 -17.5t22 -4.5q20 0 34 21.5t20 61.5h28q-6 -81 -42 -118.5t-91 -37.5q-45 0 -72 29t-34 99q-58 -69 -108 -98.5t-102 -29.5q-32 0 -55 10t-49 47v-31
q0 -54 22 -160q9 -41 9 -69q0 -32 -18.5 -53t-44.5 -21q-25 0 -41.5 19t-16.5 54q0 34 19 110q9 39 14 65.5t7 47.5t2 38v39v14q0 13 -1 36v487z" />
    <glyph glyph-name="mu" unicode="&#x3bc;" horiz-adv-x="791" 
d="M131 614h110v-357q0 -99 12 -133q9 -27 32 -43.5t51 -16.5q80 0 158 89v461h111v-438q0 -39 2.5 -63t7.5 -37t14 -17.5t22 -4.5q20 0 34 21.5t20 61.5h28q-6 -81 -42 -118.5t-91 -37.5q-45 0 -72 29t-34 99q-58 -69 -108 -98.5t-102 -29.5q-32 0 -55 10t-49 47v-31
q0 -54 22 -160q9 -41 9 -69q0 -32 -18.5 -53t-44.5 -21q-25 0 -41.5 19t-16.5 54q0 34 19 110q9 39 14 65.5t7 47.5t2 38v39v14q0 13 -1 36v487z" />
    <glyph glyph-name="paragraph" unicode="&#xb6;" horiz-adv-x="622" 
d="M535 872v-1168h-49v1168h-125v-1168h-49v699q-128 5 -191 33q-64 29 -97 88.5t-33 132.5q0 62 21.5 109t61 79t95 48t123.5 16h332v-37h-89z" />
    <glyph glyph-name="periodcentered" unicode="&#xb7;" horiz-adv-x="457" 
d="M402 541q30 0 50 -20t20 -50q0 -29 -20.5 -49.5t-49.5 -20.5t-49.5 20.5t-20.5 49.5q0 30 20 50t50 20z" />
    <glyph glyph-name="periodcentered" unicode="&#x2219;" horiz-adv-x="457" 
d="M402 541q30 0 50 -20t20 -50q0 -29 -20.5 -49.5t-49.5 -20.5t-49.5 20.5t-20.5 49.5q0 30 20 50t50 20z" />
    <glyph glyph-name="cedilla" unicode="&#xb8;" horiz-adv-x="457" 
d="M242 11h40l-33 -53q42 -11 62.5 -36.5t20.5 -61.5q0 -24 -11 -46t-30 -38.5t-45.5 -26.5t-57.5 -10q-12 0 -27.5 1t-35.5 3v29q10 -2 18 -2h14q17 0 32 6t26 16t17.5 23t6.5 28q0 20 -15.5 35t-38.5 15q-4 0 -8 -0.5t-10 -1.5z" />
    <glyph glyph-name="ordmasculine" unicode="&#xba;" horiz-adv-x="425" 
d="M409 731q0 -41 -16 -78t-44 -65t-64.5 -44.5t-76.5 -16.5q-39 0 -73.5 14.5t-60 40.5t-40.5 61.5t-15 76.5q0 46 14.5 84t41 65.5t62.5 42.5t80 15q41 0 76.5 -15.5t61 -42t40 -62.5t14.5 -76zM317 685q0 40 -8.5 78.5t-24 68.5t-37.5 48t-49 18q-35 0 -59.5 -29.5
t-24.5 -95.5q0 -39 7.5 -77t21.5 -68t35.5 -48.5t49.5 -18.5q38 0 63.5 30t25.5 94z" />
    <glyph glyph-name="guillemotright" unicode="&#xbb;" horiz-adv-x="686" 
d="M43 626h39l264 -316l-264 -315h-39l163 315zM346 626h38l259 -316l-259 -315h-38l163 315z" />
    <glyph glyph-name="questiondown" unicode="&#xbf;" horiz-adv-x="609" 
d="M295 419h27q-3 -80 -17 -132q-13 -47 -68 -164q-55 -116 -55 -194q0 -89 44.5 -137t113.5 -48q29 0 52 7.5t39.5 20t25 28t8.5 32.5q0 9 -6.5 24.5t-14.5 32t-14.5 32t-6.5 25.5q0 23 16 38.5t39 15.5q28 0 51 -28t23 -74q0 -38 -17 -73t-48.5 -62t-77 -43t-101.5 -16
q-57 0 -102.5 17t-78 45.5t-50 67t-17.5 82.5q0 34 7 63.5t21.5 59t37 60.5t54.5 67q36 42 58 74t33 55q21 45 24 124zM303 653q31 0 52.5 -21.5t21.5 -52.5t-21.5 -52.5t-52.5 -21.5t-53 21.5t-22 52.5t22 52.5t53 21.5z" />
    <glyph glyph-name="Agrave" unicode="&#xc0;" horiz-adv-x="991" 
d="M628 304h-352l-62 -143q-22 -53 -22 -79q0 -11 3.5 -20t15 -16.5t32 -13t54.5 -7.5v-25h-286v25q34 5 55 15t36 27.5t27.5 45.5l30.5 69l320 747h23l316 -755q19 -47 35.5 -75.5t34 -44.5t38 -22t49.5 -7v-25h-359v25q54 2 73.5 17.5t19.5 37.5q-1 29 -27 94zM609 354
l-154 367l-158 -367h312zM344 1204h149l71 -231h-23z" />
    <glyph glyph-name="Aacute" unicode="&#xc1;" horiz-adv-x="991" 
d="M628 304h-352l-62 -143q-22 -53 -22 -79q0 -11 3.5 -20t15 -16.5t32 -13t54.5 -7.5v-25h-286v25q34 5 55 15t36 27.5t27.5 45.5l30.5 69l320 747h23l316 -755q19 -47 35.5 -75.5t34 -44.5t38 -22t49.5 -7v-25h-359v25q54 2 73.5 17.5t19.5 37.5q-1 29 -27 94zM609 354
l-154 367l-158 -367h312zM644 1204l-198 -231h-23l70 231h151z" />
    <glyph glyph-name="Acircumflex" unicode="&#xc2;" horiz-adv-x="991" 
d="M628 304h-352l-62 -143q-22 -53 -22 -79q0 -11 3.5 -20t15 -16.5t32 -13t54.5 -7.5v-25h-286v25q34 5 55 15t36 27.5t27.5 45.5l30.5 69l320 747h23l316 -755q19 -47 35.5 -75.5t34 -44.5t38 -22t49.5 -7v-25h-359v25q54 2 73.5 17.5t19.5 37.5q-1 29 -27 94zM609 354
l-154 367l-158 -367h312zM431 1201h123l127 -222h-20l-183 143l-154 -143h-20z" />
    <glyph glyph-name="Atilde" unicode="&#xc3;" horiz-adv-x="991" 
d="M628 304h-352l-62 -143q-22 -53 -22 -79q0 -11 3.5 -20t15 -16.5t32 -13t54.5 -7.5v-25h-286v25q34 5 55 15t36 27.5t27.5 45.5l30.5 69l320 747h23l316 -755q19 -47 35.5 -75.5t34 -44.5t38 -22t49.5 -7v-25h-359v25q54 2 73.5 17.5t19.5 37.5q-1 29 -27 94zM609 354
l-154 367l-158 -367h312zM301 982h-21q3 92 38.5 133t87.5 41q15 0 29 -2.5t29 -9t33.5 -17.5t43.5 -28q53 -37 82 -37q10 0 20 3.5t18 14t14.5 29t11.5 47.5h21q0 -44 -10 -77t-27.5 -55.5t-40.5 -33.5t-49 -11q-53 0 -132 54q-22 15 -35 23t-22 12t-15 5t-14 1
q-12 0 -20.5 -2t-15.5 -11t-13 -27.5t-13 -51.5z" />
    <glyph glyph-name="Adieresis" unicode="&#xc4;" horiz-adv-x="991" 
d="M628 304h-352l-62 -143q-22 -53 -22 -79q0 -11 3.5 -20t15 -16.5t32 -13t54.5 -7.5v-25h-286v25q34 5 55 15t36 27.5t27.5 45.5l30.5 69l320 747h23l316 -755q19 -47 35.5 -75.5t34 -44.5t38 -22t49.5 -7v-25h-359v25q54 2 73.5 17.5t19.5 37.5q-1 29 -27 94zM609 354
l-154 367l-158 -367h312zM374 1145q30 0 51.5 -21.5t21.5 -51.5t-21.5 -51.5t-51.5 -21.5t-51.5 21.5t-21.5 51.5t21 51.5t52 21.5zM610 1145q30 0 51 -21.5t21 -51.5t-21 -51.5t-51 -21.5t-51.5 21.5t-21.5 51.5t21.5 51.5t51.5 21.5z" />
    <glyph glyph-name="Aring" unicode="&#xc5;" horiz-adv-x="991" 
d="M490 1140q26 0 49.5 -10t41 -27.5t27.5 -41t10 -49.5q0 -46 -28 -80.5t-70 -45.5l299 -712q19 -47 35.5 -75.5t34 -44.5t38 -22t49.5 -7v-25h-359v25q54 2 73.5 17.5t19.5 37.5q-1 15 -7 38.5t-20 55.5l-55 130h-352l-62 -143q-22 -53 -22 -79q0 -11 3.5 -20t15 -16.5
t32 -13t54.5 -7.5v-25h-286v25q34 5 55 15t36 27.5t27.5 45.5l30.5 69l301 704q-43 10 -71 45t-28 81q0 27 10 50t27.5 40.5t40.5 27.5t50 10zM609 354l-154 367l-158 -367h312zM490 1093q-33 0 -57.5 -23t-24.5 -58q0 -34 24 -58t58 -24t58 24.5t24 57.5q0 34 -24 57.5
t-58 23.5z" />
    <glyph glyph-name="AE" unicode="&#xc6;" horiz-adv-x="1220" 
d="M688 859v-359h172q39 0 65.5 6.5t43.5 22t25.5 41t11.5 62.5h24v-316h-24q-5 44 -12.5 70.5t-23 41t-41.5 19t-69 4.5h-172v-301q0 -33 0.5 -53t7.5 -30.5t23 -13.5t46 -3h122q37 0 64 2.5t48.5 9t39.5 18t37 29.5q24 23 44.5 52.5t35.5 66.5h26l-72 -228h-683v25h35
q55 0 81 33q16 20 16 102v192h-265l-83 -156q-47 -89 -47 -116q0 -10 4 -19t15.5 -16t32 -12.5t53.5 -7.5v-25h-285v25q22 1 39.5 7t35 23.5t37.5 48t47 80.5l276 516q52 95 52 129q0 24 -24 37.5t-92 17.5v25h744v-200h-12q-6 43 -15 71.5t-28 46t-51 25t-83 7.5h-222z
M559 859l-239 -458h239v458z" />
    <glyph glyph-name="Ccedilla" unicode="&#xc7;" horiz-adv-x="915" 
d="M826 929l21 -309h-21q-42 139 -118.5 200t-184.5 61q-70 0 -129 -26.5t-101.5 -81.5t-66.5 -138t-24 -196q0 -91 22.5 -165t66 -126.5t106.5 -81t145 -28.5q86 0 156 38q67 35 149 150l21 -13q-69 -121 -159.5 -177.5t-216.5 -56.5q-97 0 -178 34t-139.5 95.5t-91.5 146
t-33 185.5q0 137 61 250q60 114 167 176q108 63 234 63q99 0 194 -48q28 -15 40 -15q22 0 36.5 18t20.5 45h23zM468 11h40l-33 -53q42 -11 62.5 -36.5t20.5 -61.5q0 -24 -11 -46t-30 -38.5t-45.5 -26.5t-57.5 -10q-12 0 -27.5 1t-35.5 3v29q10 -2 18 -2h14q17 0 32 6t26 16
t17.5 23t6.5 28q0 20 -15.5 35t-38.5 15q-4 0 -8 -0.5t-10 -1.5z" />
    <glyph glyph-name="Egrave" unicode="&#xc8;" horiz-adv-x="838" 
d="M287 859v-359h199q44 0 71 8t42.5 24t21.5 41t8 59h25v-316h-25q-5 39 -11.5 65t-21 41.5t-40.5 22t-70 6.5h-199v-300q0 -34 1 -54t8 -30.5t22 -13.5t44 -3h154q39 0 66 2t46.5 8t34.5 16.5t32 26.5q40 39 85 125h27l-79 -228h-700v25h32q13 0 27 3t26.5 8.5t22.5 14.5
t14 21q8 22 8 88v590q0 87 -17 107q-24 27 -81 27h-32v25h700v-199h-16q-10 49 -21.5 78.5t-30.5 45.5t-48.5 20.5t-75.5 4.5h-249zM272 1204h149l71 -231h-23z" />
    <glyph glyph-name="Eacute" unicode="&#xc9;" horiz-adv-x="838" 
d="M287 859v-359h199q44 0 71 8t42.5 24t21.5 41t8 59h25v-316h-25q-5 39 -11.5 65t-21 41.5t-40.5 22t-70 6.5h-199v-300q0 -34 1 -54t8 -30.5t22 -13.5t44 -3h154q39 0 66 2t46.5 8t34.5 16.5t32 26.5q40 39 85 125h27l-79 -228h-700v25h32q13 0 27 3t26.5 8.5t22.5 14.5
t14 21q8 22 8 88v590q0 87 -17 107q-24 27 -81 27h-32v25h700v-199h-16q-10 49 -21.5 78.5t-30.5 45.5t-48.5 20.5t-75.5 4.5h-249zM572 1204l-198 -231h-23l70 231h151z" />
    <glyph glyph-name="Ecircumflex" unicode="&#xca;" horiz-adv-x="838" 
d="M287 859v-359h199q44 0 71 8t42.5 24t21.5 41t8 59h25v-316h-25q-5 39 -11.5 65t-21 41.5t-40.5 22t-70 6.5h-199v-300q0 -34 1 -54t8 -30.5t22 -13.5t44 -3h154q39 0 66 2t46.5 8t34.5 16.5t32 26.5q40 39 85 125h27l-79 -228h-700v25h32q13 0 27 3t26.5 8.5t22.5 14.5
t14 21q8 22 8 88v590q0 87 -17 107q-24 27 -81 27h-32v25h700v-199h-16q-10 49 -21.5 78.5t-30.5 45.5t-48.5 20.5t-75.5 4.5h-249zM360 1201h123l127 -222h-20l-183 143l-154 -143h-20z" />
    <glyph glyph-name="Edieresis" unicode="&#xcb;" horiz-adv-x="838" 
d="M287 859v-359h199q44 0 71 8t42.5 24t21.5 41t8 59h25v-316h-25q-5 39 -11.5 65t-21 41.5t-40.5 22t-70 6.5h-199v-300q0 -34 1 -54t8 -30.5t22 -13.5t44 -3h154q39 0 66 2t46.5 8t34.5 16.5t32 26.5q40 39 85 125h27l-79 -228h-700v25h32q13 0 27 3t26.5 8.5t22.5 14.5
t14 21q8 22 8 88v590q0 87 -17 107q-24 27 -81 27h-32v25h700v-199h-16q-10 49 -21.5 78.5t-30.5 45.5t-48.5 20.5t-75.5 4.5h-249zM303 1145q30 0 51.5 -21.5t21.5 -51.5t-21.5 -51.5t-51.5 -21.5t-51.5 21.5t-21.5 51.5t21 51.5t52 21.5zM539 1145q30 0 51 -21.5t21 -51.5
t-21 -51.5t-51 -21.5t-51.5 21.5t-21.5 51.5t21.5 51.5t51.5 21.5z" />
    <glyph glyph-name="Igrave" unicode="&#xcc;" horiz-adv-x="457" 
d="M423 25v-25h-389v25h32q24 0 42.5 3.5t30.5 17t18.5 41t6.5 74.5v587q0 31 -1.5 51.5t-5 33.5t-10.5 20.5t-19 14.5q-30 16 -62 16h-32v25h389v-25h-32q-24 0 -42.5 -4t-30.5 -17.5t-18.5 -41t-6.5 -73.5v-587q0 -32 1 -52t5 -33t11.5 -20.5t19.5 -14.5q28 -16 61 -16h32
zM80 1204h149l71 -231h-23z" />
    <glyph glyph-name="Iacute" unicode="&#xcd;" horiz-adv-x="457" 
d="M423 25v-25h-389v25h32q24 0 42.5 3.5t30.5 17t18.5 41t6.5 74.5v587q0 31 -1.5 51.5t-5 33.5t-10.5 20.5t-19 14.5q-30 16 -62 16h-32v25h389v-25h-32q-24 0 -42.5 -4t-30.5 -17.5t-18.5 -41t-6.5 -73.5v-587q0 -32 1 -52t5 -33t11.5 -20.5t19.5 -14.5q28 -16 61 -16h32
zM379 1204l-198 -231h-23l70 231h151z" />
    <glyph glyph-name="Icircumflex" unicode="&#xce;" horiz-adv-x="457" 
d="M423 25v-25h-389v25h32q24 0 42.5 3.5t30.5 17t18.5 41t6.5 74.5v587q0 31 -1.5 51.5t-5 33.5t-10.5 20.5t-19 14.5q-30 16 -62 16h-32v25h389v-25h-32q-24 0 -42.5 -4t-30.5 -17.5t-18.5 -41t-6.5 -73.5v-587q0 -32 1 -52t5 -33t11.5 -20.5t19.5 -14.5q28 -16 61 -16h32
zM167 1201h123l127 -222h-20l-183 143l-154 -143h-20z" />
    <glyph glyph-name="Idieresis" unicode="&#xcf;" horiz-adv-x="457" 
d="M423 25v-25h-389v25h32q24 0 42.5 3.5t30.5 17t18.5 41t6.5 74.5v587q0 31 -1.5 51.5t-5 33.5t-10.5 20.5t-19 14.5q-30 16 -62 16h-32v25h389v-25h-32q-24 0 -42.5 -4t-30.5 -17.5t-18.5 -41t-6.5 -73.5v-587q0 -32 1 -52t5 -33t11.5 -20.5t19.5 -14.5q28 -16 61 -16h32
zM111 1145q30 0 51.5 -21.5t21.5 -51.5t-21.5 -51.5t-51.5 -21.5t-51.5 21.5t-21.5 51.5t21 51.5t52 21.5zM347 1145q30 0 51 -21.5t21 -51.5t-21 -51.5t-51 -21.5t-51.5 21.5t-21.5 51.5t21.5 51.5t51.5 21.5z" />
    <glyph glyph-name="Ntilde" unicode="&#xd1;" horiz-adv-x="991" 
d="M-18 909h246l556 -682v524q0 46 -6.5 73t-19 40t-30.5 16.5t-41 3.5h-32v25h317v-25h-33q-24 0 -42 -4t-30 -18t-18 -40t-6 -71v-766h-24l-599 732v-560q0 -47 6.5 -73.5t18.5 -39.5t30 -16t41 -3h32v-25h-316v25h32q24 0 42 4t30.5 17.5t18.5 39.5t6 71v632
q-20 24 -33.5 38t-25.5 23t-26 15t-35 13q-20 6 -59 6v25zM300 982h-21q3 92 38.5 133t87.5 41q15 0 29 -2.5t29 -9t33.5 -17.5t43.5 -28q53 -37 82 -37q10 0 20 3.5t18 14t14.5 29t11.5 47.5h21q0 -44 -10 -77t-27.5 -55.5t-40.5 -33.5t-49 -11q-53 0 -132 54
q-22 15 -35 23t-22 12t-15 5t-14 1q-12 0 -20.5 -2t-15.5 -11t-13 -27.5t-13 -51.5z" />
    <glyph glyph-name="Ograve" unicode="&#xd2;" horiz-adv-x="991" 
d="M502 929q87 0 166 -36t139 -99t95.5 -148.5t35.5 -185.5q0 -103 -35.5 -191t-96 -152.5t-142 -101t-173.5 -36.5q-93 0 -174 35t-140.5 98.5t-94 151.5t-34.5 194q0 98 34.5 184t95 149.5t143.5 100.5t181 37zM489 880q-69 0 -122.5 -29.5t-90 -84t-55.5 -132t-19 -174.5
q0 -96 18.5 -175.5t55 -137t90.5 -89t124 -31.5q63 0 116.5 24t93.5 74.5t62.5 129t22.5 187.5q0 103 -18.5 184.5t-56 138t-93 86t-128.5 29.5zM342 1204h149l71 -231h-23z" />
    <glyph glyph-name="Oacute" unicode="&#xd3;" horiz-adv-x="991" 
d="M502 929q87 0 166 -36t139 -99t95.5 -148.5t35.5 -185.5q0 -103 -35.5 -191t-96 -152.5t-142 -101t-173.5 -36.5q-93 0 -174 35t-140.5 98.5t-94 151.5t-34.5 194q0 98 34.5 184t95 149.5t143.5 100.5t181 37zM489 880q-69 0 -122.5 -29.5t-90 -84t-55.5 -132t-19 -174.5
q0 -96 18.5 -175.5t55 -137t90.5 -89t124 -31.5q63 0 116.5 24t93.5 74.5t62.5 129t22.5 187.5q0 103 -18.5 184.5t-56 138t-93 86t-128.5 29.5zM642 1204l-198 -231h-23l70 231h151z" />
    <glyph glyph-name="Ocircumflex" unicode="&#xd4;" horiz-adv-x="991" 
d="M502 929q87 0 166 -36t139 -99t95.5 -148.5t35.5 -185.5q0 -103 -35.5 -191t-96 -152.5t-142 -101t-173.5 -36.5q-93 0 -174 35t-140.5 98.5t-94 151.5t-34.5 194q0 98 34.5 184t95 149.5t143.5 100.5t181 37zM489 880q-69 0 -122.5 -29.5t-90 -84t-55.5 -132t-19 -174.5
q0 -96 18.5 -175.5t55 -137t90.5 -89t124 -31.5q63 0 116.5 24t93.5 74.5t62.5 129t22.5 187.5q0 103 -18.5 184.5t-56 138t-93 86t-128.5 29.5zM430 1201h123l127 -222h-20l-183 143l-154 -143h-20z" />
    <glyph glyph-name="Otilde" unicode="&#xd5;" horiz-adv-x="991" 
d="M502 929q87 0 166 -36t139 -99t95.5 -148.5t35.5 -185.5q0 -103 -35.5 -191t-96 -152.5t-142 -101t-173.5 -36.5q-93 0 -174 35t-140.5 98.5t-94 151.5t-34.5 194q0 98 34.5 184t95 149.5t143.5 100.5t181 37zM489 880q-69 0 -122.5 -29.5t-90 -84t-55.5 -132t-19 -174.5
q0 -96 18.5 -175.5t55 -137t90.5 -89t124 -31.5q63 0 116.5 24t93.5 74.5t62.5 129t22.5 187.5q0 103 -18.5 184.5t-56 138t-93 86t-128.5 29.5zM299 982h-21q3 92 38.5 133t87.5 41q15 0 29 -2.5t29 -9t33.5 -17.5t43.5 -28q53 -37 82 -37q10 0 20 3.5t18 14t14.5 29
t11.5 47.5h21q0 -44 -10 -77t-27.5 -55.5t-40.5 -33.5t-49 -11q-53 0 -132 54q-22 15 -35 23t-22 12t-15 5t-14 1q-12 0 -20.5 -2t-15.5 -11t-13 -27.5t-13 -51.5z" />
    <glyph glyph-name="Odieresis" unicode="&#xd6;" horiz-adv-x="991" 
d="M502 929q87 0 166 -36t139 -99t95.5 -148.5t35.5 -185.5q0 -103 -35.5 -191t-96 -152.5t-142 -101t-173.5 -36.5q-93 0 -174 35t-140.5 98.5t-94 151.5t-34.5 194q0 98 34.5 184t95 149.5t143.5 100.5t181 37zM489 880q-69 0 -122.5 -29.5t-90 -84t-55.5 -132t-19 -174.5
q0 -96 18.5 -175.5t55 -137t90.5 -89t124 -31.5q63 0 116.5 24t93.5 74.5t62.5 129t22.5 187.5q0 103 -18.5 184.5t-56 138t-93 86t-128.5 29.5zM373 1145q30 0 51.5 -21.5t21.5 -51.5t-21.5 -51.5t-51.5 -21.5t-51.5 21.5t-21.5 51.5t21 51.5t52 21.5zM609 1145
q30 0 51 -21.5t21 -51.5t-21 -51.5t-51 -21.5t-51.5 21.5t-21.5 51.5t21.5 51.5t51.5 21.5z" />
    <glyph glyph-name="Oslash" unicode="&#xd8;" horiz-adv-x="991" 
d="M768 829l88 109l39 -29l-89 -112q70 -78 101 -154q32 -78 32 -183q0 -229 -164 -372q-125 -109 -277 -109q-34 0 -70.5 6.5t-73 19t-71 30t-62.5 40.5l-86 -106l-40 31l89 110q-135 138 -135 354q0 98 35.5 183t96.5 147.5t142 98.5t173 36q154 0 272 -100zM712 760
q-76 122 -219 122q-79 0 -134.5 -34t-90 -91t-50.5 -132t-16 -158q0 -156 49 -273zM738 712l-459 -567q42 -65 95 -91.5t115 -26.5q61 0 115 23t94 72.5t63 128t23 189.5q0 37 -1.5 68.5t-6.5 63t-14 65.5t-24 75z" />
    <glyph glyph-name="Ugrave" unicode="&#xd9;" horiz-adv-x="991" 
d="M655 884v25h321v-25h-34q-52 0 -82 -45q-14 -20 -14 -97v-368q0 -134 -28 -213q-14 -38 -40 -71t-66 -57.5t-93.5 -39t-122.5 -14.5q-75 0 -131 13t-96 38t-66 60t-42 79q-22 61 -22 224v355q0 42 -5.5 68.5t-17.5 41.5t-30.5 20.5t-43.5 5.5h-35v25h393v-25h-35
q-24 0 -42 -5t-30 -19.5t-18.5 -41t-6.5 -70.5v-396q0 -60 8 -117t33 -101.5t71.5 -71t123.5 -26.5q44 0 85 10.5t74.5 28.5t58.5 43.5t37 55.5q26 59 26 206v368q0 84 -19 106q-26 30 -77 30h-34zM376 1204h149l71 -231h-23z" />
    <glyph glyph-name="Uacute" unicode="&#xda;" horiz-adv-x="991" 
d="M655 884v25h321v-25h-34q-52 0 -82 -45q-14 -20 -14 -97v-368q0 -134 -28 -213q-14 -38 -40 -71t-66 -57.5t-93.5 -39t-122.5 -14.5q-75 0 -131 13t-96 38t-66 60t-42 79q-22 61 -22 224v355q0 42 -5.5 68.5t-17.5 41.5t-30.5 20.5t-43.5 5.5h-35v25h393v-25h-35
q-24 0 -42 -5t-30 -19.5t-18.5 -41t-6.5 -70.5v-396q0 -60 8 -117t33 -101.5t71.5 -71t123.5 -26.5q44 0 85 10.5t74.5 28.5t58.5 43.5t37 55.5q26 59 26 206v368q0 84 -19 106q-26 30 -77 30h-34zM644 1204l-198 -231h-23l70 231h151z" />
    <glyph glyph-name="Ucircumflex" unicode="&#xdb;" horiz-adv-x="991" 
d="M655 884v25h321v-25h-34q-52 0 -82 -45q-14 -20 -14 -97v-368q0 -134 -28 -213q-14 -38 -40 -71t-66 -57.5t-93.5 -39t-122.5 -14.5q-75 0 -131 13t-96 38t-66 60t-42 79q-22 61 -22 224v355q0 42 -5.5 68.5t-17.5 41.5t-30.5 20.5t-43.5 5.5h-35v25h393v-25h-35
q-24 0 -42 -5t-30 -19.5t-18.5 -41t-6.5 -70.5v-396q0 -60 8 -117t33 -101.5t71.5 -71t123.5 -26.5q44 0 85 10.5t74.5 28.5t58.5 43.5t37 55.5q26 59 26 206v368q0 84 -19 106q-26 30 -77 30h-34zM463 1201h123l127 -222h-20l-183 143l-154 -143h-20z" />
    <glyph glyph-name="Udieresis" unicode="&#xdc;" horiz-adv-x="991" 
d="M655 884v25h321v-25h-34q-52 0 -82 -45q-14 -20 -14 -97v-368q0 -134 -28 -213q-14 -38 -40 -71t-66 -57.5t-93.5 -39t-122.5 -14.5q-75 0 -131 13t-96 38t-66 60t-42 79q-22 61 -22 224v355q0 42 -5.5 68.5t-17.5 41.5t-30.5 20.5t-43.5 5.5h-35v25h393v-25h-35
q-24 0 -42 -5t-30 -19.5t-18.5 -41t-6.5 -70.5v-396q0 -60 8 -117t33 -101.5t71.5 -71t123.5 -26.5q44 0 85 10.5t74.5 28.5t58.5 43.5t37 55.5q26 59 26 206v368q0 84 -19 106q-26 30 -77 30h-34zM407 1145q30 0 51.5 -21.5t21.5 -51.5t-21.5 -51.5t-51.5 -21.5t-51.5 21.5
t-21.5 51.5t21 51.5t52 21.5zM643 1145q30 0 51 -21.5t21 -51.5t-21 -51.5t-51 -21.5t-51.5 21.5t-21.5 51.5t21.5 51.5t51.5 21.5z" />
    <glyph glyph-name="germandbls" unicode="&#xdf;" horiz-adv-x="686" 
d="M23 0v24q31 2 49 8.5t27 20.5t11 37.5t2 60.5v496q0 84 16 142.5t47 95t75 52.5t101 16q54 0 97.5 -16.5t74.5 -45.5t47.5 -69t16.5 -87q0 -62 -27 -107.5t-101 -77.5q183 -53 183 -267q0 -57 -16 -110t-45 -93.5t-70.5 -64.5t-93.5 -24q-29 0 -52.5 8.5t-40.5 23.5
t-26 35t-9 42q0 28 14.5 43t38.5 15q26 0 40.5 -14.5t14.5 -38.5q0 -13 -3.5 -26.5t-3.5 -18.5q0 -12 10 -21.5t27 -9.5q48 0 74.5 47.5t26.5 132.5q0 140 -49 221.5t-149 88.5v38q72 0 108 41.5t36 139.5q0 90 -35 130.5t-93 40.5q-27 0 -49.5 -9t-39 -33t-25.5 -65.5
t-9 -106.5v-695h-200z" />
    <glyph glyph-name="agrave" unicode="&#xe0;" horiz-adv-x="609" 
d="M391 88l-77.5 -57.5t-41.5 -26.5q-37 -17 -77 -17q-32 0 -58.5 11.5t-46 32t-30.5 49.5t-11 65q0 42 16.5 75t51 60.5t89.5 50.5q86 40 185 76v24q0 46 -7.5 77t-22.5 49.5t-36 26t-48 7.5q-43 0 -68 -23t-25 -52l2 -39q0 -31 -15.5 -47.5t-41.5 -16.5q-25 0 -41 17.5
t-16 47.5q0 28 15 55.5t44 49.5t70.5 35.5t95.5 13.5q71 0 120.5 -21t71.5 -72q12 -29 12 -118v-208q0 -53 1.5 -81.5t5.5 -41.5t10 -15.5t15 -2.5q7 0 13 2t14 8t18.5 16.5l27.5 27.5v-38q-75 -100 -143 -100q-32 0 -52 22.5t-20 77.5zM391 132v234q-70 -28 -160 -72
q-33 -17 -51.5 -48t-18.5 -69q0 -24 8 -44.5t21 -35.5t30.5 -23.5t36.5 -8.5q51 0 134 67zM174 931h149l71 -231h-23z" />
    <glyph glyph-name="aacute" unicode="&#xe1;" horiz-adv-x="609" 
d="M391 88l-77.5 -57.5t-41.5 -26.5q-37 -17 -77 -17q-32 0 -58.5 11.5t-46 32t-30.5 49.5t-11 65q0 42 16.5 75t51 60.5t89.5 50.5q86 40 185 76v24q0 46 -7.5 77t-22.5 49.5t-36 26t-48 7.5q-43 0 -68 -23t-25 -52l2 -39q0 -31 -15.5 -47.5t-41.5 -16.5q-25 0 -41 17.5
t-16 47.5q0 28 15 55.5t44 49.5t70.5 35.5t95.5 13.5q71 0 120.5 -21t71.5 -72q12 -29 12 -118v-208q0 -53 1.5 -81.5t5.5 -41.5t10 -15.5t15 -2.5q7 0 13 2t14 8t18.5 16.5l27.5 27.5v-38q-75 -100 -143 -100q-32 0 -52 22.5t-20 77.5zM391 132v234q-70 -28 -160 -72
q-33 -17 -51.5 -48t-18.5 -69q0 -24 8 -44.5t21 -35.5t30.5 -23.5t36.5 -8.5q51 0 134 67zM457 931l-198 -231h-23l70 231h151z" />
    <glyph glyph-name="acircumflex" unicode="&#xe2;" horiz-adv-x="609" 
d="M391 88l-77.5 -57.5t-41.5 -26.5q-37 -17 -77 -17q-32 0 -58.5 11.5t-46 32t-30.5 49.5t-11 65q0 42 16.5 75t51 60.5t89.5 50.5q86 40 185 76v24q0 46 -7.5 77t-22.5 49.5t-36 26t-48 7.5q-43 0 -68 -23t-25 -52l2 -39q0 -31 -15.5 -47.5t-41.5 -16.5q-25 0 -41 17.5
t-16 47.5q0 28 15 55.5t44 49.5t70.5 35.5t95.5 13.5q71 0 120.5 -21t71.5 -72q12 -29 12 -118v-208q0 -53 1.5 -81.5t5.5 -41.5t10 -15.5t15 -2.5q7 0 13 2t14 8t18.5 16.5l27.5 27.5v-38q-75 -100 -143 -100q-32 0 -52 22.5t-20 77.5zM391 132v234q-70 -28 -160 -72
q-33 -17 -51.5 -48t-18.5 -69q0 -24 8 -44.5t21 -35.5t30.5 -23.5t36.5 -8.5q51 0 134 67zM245 928h123l127 -222h-20l-183 143l-154 -143h-20z" />
    <glyph glyph-name="atilde" unicode="&#xe3;" horiz-adv-x="609" 
d="M391 88l-77.5 -57.5t-41.5 -26.5q-37 -17 -77 -17q-32 0 -58.5 11.5t-46 32t-30.5 49.5t-11 65q0 42 16.5 75t51 60.5t89.5 50.5q86 40 185 76v24q0 46 -7.5 77t-22.5 49.5t-36 26t-48 7.5q-43 0 -68 -23t-25 -52l2 -39q0 -31 -15.5 -47.5t-41.5 -16.5q-25 0 -41 17.5
t-16 47.5q0 28 15 55.5t44 49.5t70.5 35.5t95.5 13.5q71 0 120.5 -21t71.5 -72q12 -29 12 -118v-208q0 -53 1.5 -81.5t5.5 -41.5t10 -15.5t15 -2.5q7 0 13 2t14 8t18.5 16.5l27.5 27.5v-38q-75 -100 -143 -100q-32 0 -52 22.5t-20 77.5zM391 132v234q-70 -28 -160 -72
q-33 -17 -51.5 -48t-18.5 -69q0 -24 8 -44.5t21 -35.5t30.5 -23.5t36.5 -8.5q51 0 134 67zM114 735h-21q3 92 38.5 133t87.5 41q15 0 29 -2.5t29 -9t33.5 -17.5t43.5 -28q53 -37 82 -37q10 0 20 3.5t18 14t14.5 29t11.5 47.5h21q0 -44 -10 -77t-27.5 -55.5t-40.5 -33.5
t-49 -11q-53 0 -132 54q-22 15 -35 23t-22 12t-15 5t-14 1q-12 0 -20.5 -2t-15.5 -11t-13 -27.5t-13 -51.5z" />
    <glyph glyph-name="adieresis" unicode="&#xe4;" horiz-adv-x="609" 
d="M391 88l-77.5 -57.5t-41.5 -26.5q-37 -17 -77 -17q-32 0 -58.5 11.5t-46 32t-30.5 49.5t-11 65q0 42 16.5 75t51 60.5t89.5 50.5q86 40 185 76v24q0 46 -7.5 77t-22.5 49.5t-36 26t-48 7.5q-43 0 -68 -23t-25 -52l2 -39q0 -31 -15.5 -47.5t-41.5 -16.5q-25 0 -41 17.5
t-16 47.5q0 28 15 55.5t44 49.5t70.5 35.5t95.5 13.5q71 0 120.5 -21t71.5 -72q12 -29 12 -118v-208q0 -53 1.5 -81.5t5.5 -41.5t10 -15.5t15 -2.5q7 0 13 2t14 8t18.5 16.5l27.5 27.5v-38q-75 -100 -143 -100q-32 0 -52 22.5t-20 77.5zM391 132v234q-70 -28 -160 -72
q-33 -17 -51.5 -48t-18.5 -69q0 -24 8 -44.5t21 -35.5t30.5 -23.5t36.5 -8.5q51 0 134 67zM189 896q30 0 51.5 -21.5t21.5 -51.5t-21.5 -51.5t-51.5 -21.5t-51.5 21.5t-21.5 51.5t21 51.5t52 21.5zM425 896q30 0 51 -21.5t21 -51.5t-21 -51.5t-51 -21.5t-51.5 21.5
t-21.5 51.5t21.5 51.5t51.5 21.5z" />
    <glyph glyph-name="aring" unicode="&#xe5;" horiz-adv-x="609" 
d="M391 88l-77.5 -57.5t-41.5 -26.5q-37 -17 -77 -17q-32 0 -58.5 11.5t-46 32t-30.5 49.5t-11 65q0 42 16.5 75t56 62t105 59t164.5 66v24q0 46 -7.5 77t-22.5 49.5t-36 26t-48 7.5q-43 0 -68 -23t-25 -52l2 -39q0 -31 -15.5 -47.5t-41.5 -16.5q-25 0 -41 17.5t-16 47.5
q0 28 15 55.5t44 49.5t70.5 35.5t95.5 13.5q71 0 120.5 -21t71.5 -72q12 -29 12 -118v-208q0 -53 1.5 -81.5t5.5 -41.5t10 -15.5t15 -2.5q7 0 13 2t14 8t18.5 16.5l27.5 27.5v-38q-75 -100 -143 -100q-32 0 -52 22.5t-20 77.5zM307 955q26 0 49.5 -10t41 -27.5t27.5 -40.5
t10 -50t-10 -50t-27.5 -40.5t-40.5 -27.5t-50 -10t-50 10t-40.5 27.5t-27.5 41t-10 49.5q0 27 10 50t27.5 40.5t40.5 27.5t50 10zM391 132v234q-70 -28 -115 -50t-70.5 -43t-35 -44t-9.5 -52q0 -24 8 -44.5t21 -35.5t30.5 -23.5t36.5 -8.5q51 0 134 67zM307 909
q-33 0 -57.5 -23.5t-24.5 -58.5q0 -33 24 -57t58 -24q17 0 32 6.5t26 18t17.5 26t6.5 30.5q0 34 -24 58t-58 24z" />
    <glyph glyph-name="ae" unicode="&#xe6;" horiz-adv-x="915" 
d="M492 380q-1 -17 -1 -30v-20q0 -68 13 -115t36 -76.5t54.5 -43t68.5 -13.5q27 0 51 5t47.5 20.5t45.5 44.5t45 77l22 -15q-10 -44 -30.5 -86t-52 -74.5t-73 -52.5t-92.5 -20q-31 0 -54.5 3t-45 14t-45 32t-54.5 58l-62.5 -47t-53.5 -33.5t-53 -20t-60 -6.5q-32 0 -59 12
t-47 33t-31.5 49t-11.5 60q0 29 6 53t22 46t54 49.5t114 62.5q69 32 132 54v62q0 72 -26.5 102t-71.5 30t-70 -22.5t-25 -48.5q0 -33 -2.5 -54t-9 -33t-16.5 -16t-25 -4q-16 0 -27.5 6t-19 15t-11 20.5t-3.5 22.5q0 27 15 54.5t44 49t71 35t95 13.5q83 0 125 -23.5t56 -58.5
q37 47 79.5 64.5t100.5 17.5q48 0 88 -16.5t69 -48.5t45 -79t16 -108h-382zM409 123q-7 15 -12.5 35.5t-10 44t-7 48t-2.5 46.5v59q-54 -19 -124 -52q-52 -27 -72 -61.5t-20 -69.5q0 -27 8.5 -49t23.5 -38t34.5 -24.5t41.5 -8.5q14 0 27 3t28.5 10.5t36 21t48.5 35.5z
M492 423h253q-2 85 -36 123.5t-88 38.5q-53 0 -90.5 -41.5t-38.5 -120.5z" />
    <glyph glyph-name="ccedilla" unicode="&#xe7;" horiz-adv-x="609" 
d="M564 233q-12 -61 -37.5 -108t-60 -79t-75.5 -48.5t-84 -16.5q-51 0 -98 23t-83 65t-57.5 102t-21.5 135q0 72 23.5 132t63.5 103t93 67t113 24q45 0 82.5 -13.5t65.5 -35t43.5 -48t15.5 -51.5q0 -26 -16.5 -41.5t-46.5 -15.5q-31 0 -51 15.5t-24 64.5q-8 80 -91 80
q-40 0 -70.5 -18t-51 -48.5t-31 -71t-10.5 -85.5q0 -53 13.5 -103t39.5 -89t63 -62.5t84 -23.5q28 0 53.5 7t49 24.5t45 48t42.5 77.5zM315 11h40l-33 -53q42 -11 62.5 -36.5t20.5 -61.5q0 -24 -11 -46t-30 -38.5t-45.5 -26.5t-57.5 -10q-12 0 -27.5 1t-35.5 3v29
q10 -2 18 -2h14q17 0 32 6t26 16t17.5 23t6.5 28q0 20 -15.5 35t-38.5 15q-4 0 -8 -0.5t-10 -1.5z" />
    <glyph glyph-name="egrave" unicode="&#xe8;" horiz-adv-x="609" 
d="M146 383q0 -69 18.5 -123t49 -92t71 -58t85.5 -20q60 0 104.5 33t74.5 114l21 -13q-7 -45 -28 -88.5t-53.5 -78t-75.5 -55.5t-94 -21q-55 0 -103.5 22.5t-85 64t-58 100t-21.5 131.5q0 79 22 141t60 105t89.5 65t111.5 22q51 0 94 -17.5t74.5 -50t49.5 -78.5t18 -103
h-424zM146 421h284q-5 85 -40.5 124.5t-92.5 39.5q-27 0 -53 -11t-46.5 -32t-34.5 -51.5t-17 -69.5zM191 931h149l71 -231h-23z" />
    <glyph glyph-name="eacute" unicode="&#xe9;" horiz-adv-x="609" 
d="M146 383q0 -69 18.5 -123t49 -92t71 -58t85.5 -20q60 0 104.5 33t74.5 114l21 -13q-7 -45 -28 -88.5t-53.5 -78t-75.5 -55.5t-94 -21q-55 0 -103.5 22.5t-85 64t-58 100t-21.5 131.5q0 79 22 141t60 105t89.5 65t111.5 22q51 0 94 -17.5t74.5 -50t49.5 -78.5t18 -103
h-424zM146 421h284q-5 85 -40.5 124.5t-92.5 39.5q-27 0 -53 -11t-46.5 -32t-34.5 -51.5t-17 -69.5zM466 931l-198 -231h-23l70 231h151z" />
    <glyph glyph-name="ecircumflex" unicode="&#xea;" horiz-adv-x="609" 
d="M146 383q0 -69 18.5 -123t49 -92t71 -58t85.5 -20q60 0 104.5 33t74.5 114l21 -13q-7 -45 -28 -88.5t-53.5 -78t-75.5 -55.5t-94 -21q-55 0 -103.5 22.5t-85 64t-58 100t-21.5 131.5q0 79 22 141t60 105t89.5 65t111.5 22q51 0 94 -17.5t74.5 -50t49.5 -78.5t18 -103
h-424zM146 421h284q-5 85 -40.5 124.5t-92.5 39.5q-27 0 -53 -11t-46.5 -32t-34.5 -51.5t-17 -69.5zM270 928h123l127 -222h-20l-183 143l-154 -143h-20z" />
    <glyph glyph-name="edieresis" unicode="&#xeb;" horiz-adv-x="609" 
d="M146 383q0 -69 18.5 -123t49 -92t71 -58t85.5 -20q60 0 104.5 33t74.5 114l21 -13q-7 -45 -28 -88.5t-53.5 -78t-75.5 -55.5t-94 -21q-55 0 -103.5 22.5t-85 64t-58 100t-21.5 131.5q0 79 22 141t60 105t89.5 65t111.5 22q51 0 94 -17.5t74.5 -50t49.5 -78.5t18 -103
h-424zM146 421h284q-5 85 -40.5 124.5t-92.5 39.5q-27 0 -53 -11t-46.5 -32t-34.5 -51.5t-17 -69.5zM214 896q30 0 51.5 -21.5t21.5 -51.5t-21.5 -51.5t-51.5 -21.5t-51.5 21.5t-21.5 51.5t21 51.5t52 21.5zM450 896q30 0 51 -21.5t21 -51.5t-21 -51.5t-51 -21.5t-51.5 21.5
t-21.5 51.5t21.5 51.5t51.5 21.5z" />
    <glyph glyph-name="igrave" unicode="&#xec;" horiz-adv-x="381" 
d="M254 632v-493q0 -44 5.5 -67.5t17 -34t29 -12t42.5 -1.5v-24h-298v24q31 0 49.5 4.5t28.5 17.5t12.5 35.5t2.5 57.5v236q0 58 -2 92t-7 50.5t-14.5 21t-24.5 4.5q-10 0 -20.5 -2.5t-24.5 -7.5l-10 24l185 75h29zM52 931h149l71 -231h-23z" />
    <glyph glyph-name="iacute" unicode="&#xed;" horiz-adv-x="381" 
d="M254 632v-493q0 -44 5.5 -67.5t17 -34t29 -12t42.5 -1.5v-24h-298v24q31 0 49.5 4.5t28.5 17.5t12.5 35.5t2.5 57.5v236q0 58 -2 92t-7 50.5t-14.5 21t-24.5 4.5q-10 0 -20.5 -2.5t-24.5 -7.5l-10 24l185 75h29zM334 931l-198 -231h-23l71 231h150z" />
    <glyph glyph-name="icircumflex" unicode="&#xee;" horiz-adv-x="381" 
d="M254 632v-493q0 -44 5.5 -67.5t17 -34t29 -12t42.5 -1.5v-24h-298v24q31 0 49.5 4.5t28.5 17.5t12.5 35.5t2.5 57.5v236q0 58 -2 92t-7 50.5t-14.5 21t-24.5 4.5q-10 0 -20.5 -2.5t-24.5 -7.5l-10 24l185 75h29zM135 928h124l127 -222h-21l-183 143l-153 -143h-20z" />
    <glyph glyph-name="idieresis" unicode="&#xef;" horiz-adv-x="381" 
d="M254 632v-493q0 -44 5.5 -67.5t17 -34t29 -12t42.5 -1.5v-24h-298v24q31 0 49.5 4.5t28.5 17.5t12.5 35.5t2.5 57.5v236q0 58 -2 92t-7 50.5t-14.5 21t-24.5 4.5q-10 0 -20.5 -2.5t-24.5 -7.5l-10 24l185 75h29zM74 895q31 0 52 -21.5t21 -51.5t-21.5 -51t-51.5 -21
t-51.5 21t-21.5 51t21 51.5t52 21.5zM310 895q30 0 51.5 -21.5t21.5 -51.5t-21.5 -51t-51.5 -21t-51.5 21t-21.5 51t21.5 51.5t51.5 21.5z" />
    <glyph glyph-name="ntilde" unicode="&#xf1;" horiz-adv-x="686" 
d="M222 502q107 130 205 130q34 0 63 -11.5t50.5 -38t33.5 -71t12 -110.5v-262q0 -40 4.5 -63t15 -34.5t28.5 -14.5t46 -3v-24h-303v24h12q30 0 47.5 5.5t26 18.5t11 35.5t2.5 55.5v251q0 85 -21.5 122t-73.5 37q-81 0 -159 -87v-323q0 -39 2.5 -61.5t12.5 -34.5t30 -15.5
t55 -3.5v-24h-304v24h13q24 0 39.5 5.5t24.5 18.5t12.5 35.5t3.5 55.5v227q0 66 -2 102t-7.5 52.5t-15 19.5t-23.5 3q-10 0 -20.5 -2.5t-24.5 -7.5l-10 24l185 75h29v-130zM151 735h-21q3 92 38.5 133t87.5 41q15 0 29 -2.5t29 -9t33.5 -17.5t43.5 -28q53 -37 82 -37
q10 0 20 3.5t18 14t14.5 29t11.5 47.5h21q0 -44 -10 -77t-27.5 -55.5t-40.5 -33.5t-49 -11q-53 0 -132 54q-22 15 -35 23t-22 12t-15 5t-14 1q-12 0 -20.5 -2t-15.5 -11t-13 -27.5t-13 -51.5z" />
    <glyph glyph-name="ograve" unicode="&#xf2;" horiz-adv-x="686" 
d="M343 632q64 0 118 -25t93.5 -67.5t62 -100t22.5 -121.5q0 -75 -24.5 -137t-66.5 -106.5t-97 -69t-115 -24.5q-63 0 -116.5 26t-92 70t-60 102t-21.5 122q0 66 23 125.5t63 105.5t94 73t117 27zM322 588q-29 0 -56 -12.5t-48 -40t-34 -71.5t-13 -107q0 -65 13.5 -124.5
t38.5 -104.5t61 -72t80 -27q32 0 59.5 12.5t47.5 40.5t31.5 73.5t11.5 111.5t-13 124.5t-37.5 102t-60 69t-81.5 25.5zM202 931h149l71 -231h-23z" />
    <glyph glyph-name="oacute" unicode="&#xf3;" horiz-adv-x="686" 
d="M343 632q64 0 118 -25t93.5 -67.5t62 -100t22.5 -121.5q0 -75 -24.5 -137t-66.5 -106.5t-97 -69t-115 -24.5q-63 0 -116.5 26t-92 70t-60 102t-21.5 122q0 66 23 125.5t63 105.5t94 73t117 27zM322 588q-29 0 -56 -12.5t-48 -40t-34 -71.5t-13 -107q0 -65 13.5 -124.5
t38.5 -104.5t61 -72t80 -27q32 0 59.5 12.5t47.5 40.5t31.5 73.5t11.5 111.5t-13 124.5t-37.5 102t-60 69t-81.5 25.5zM485 931l-198 -231h-23l70 231h151z" />
    <glyph glyph-name="ocircumflex" unicode="&#xf4;" horiz-adv-x="686" 
d="M343 632q64 0 118 -25t93.5 -67.5t62 -100t22.5 -121.5q0 -75 -24.5 -137t-66.5 -106.5t-97 -69t-115 -24.5q-63 0 -116.5 26t-92 70t-60 102t-21.5 122q0 66 23 125.5t63 105.5t94 73t117 27zM322 588q-29 0 -56 -12.5t-48 -40t-34 -71.5t-13 -107q0 -65 13.5 -124.5
t38.5 -104.5t61 -72t80 -27q32 0 59.5 12.5t47.5 40.5t31.5 73.5t11.5 111.5t-13 124.5t-37.5 102t-60 69t-81.5 25.5zM289 928h123l127 -222h-20l-183 143l-154 -143h-20z" />
    <glyph glyph-name="otilde" unicode="&#xf5;" horiz-adv-x="686" 
d="M343 632q64 0 118 -25t93.5 -67.5t62 -100t22.5 -121.5q0 -75 -24.5 -137t-66.5 -106.5t-97 -69t-115 -24.5q-63 0 -116.5 26t-92 70t-60 102t-21.5 122q0 66 23 125.5t63 105.5t94 73t117 27zM322 588q-29 0 -56 -12.5t-48 -40t-34 -71.5t-13 -107q0 -65 13.5 -124.5
t38.5 -104.5t61 -72t80 -27q32 0 59.5 12.5t47.5 40.5t31.5 73.5t11.5 111.5t-13 124.5t-37.5 102t-60 69t-81.5 25.5zM150 735h-21q3 92 38.5 133t87.5 41q15 0 29 -2.5t29 -9t33.5 -17.5t43.5 -28q53 -37 82 -37q10 0 20 3.5t18 14t14.5 29t11.5 47.5h21q0 -44 -10 -77
t-27.5 -55.5t-40.5 -33.5t-49 -11q-53 0 -132 54q-22 15 -35 23t-22 12t-15 5t-14 1q-12 0 -20.5 -2t-15.5 -11t-13 -27.5t-13 -51.5z" />
    <glyph glyph-name="odieresis" unicode="&#xf6;" horiz-adv-x="686" 
d="M343 632q64 0 118 -25t93.5 -67.5t62 -100t22.5 -121.5q0 -75 -24.5 -137t-66.5 -106.5t-97 -69t-115 -24.5q-63 0 -116.5 26t-92 70t-60 102t-21.5 122q0 66 23 125.5t63 105.5t94 73t117 27zM322 588q-29 0 -56 -12.5t-48 -40t-34 -71.5t-13 -107q0 -65 13.5 -124.5
t38.5 -104.5t61 -72t80 -27q32 0 59.5 12.5t47.5 40.5t31.5 73.5t11.5 111.5t-13 124.5t-37.5 102t-60 69t-81.5 25.5zM224 896q30 0 51.5 -21.5t21.5 -51.5t-21.5 -51.5t-51.5 -21.5t-51.5 21.5t-21.5 51.5t21 51.5t52 21.5zM460 896q30 0 51 -21.5t21 -51.5t-21 -51.5
t-51 -21.5t-51.5 21.5t-21.5 51.5t21.5 51.5t51.5 21.5z" />
    <glyph glyph-name="divide" unicode="&#xf7;" horiz-adv-x="753" 
d="M738 429h-723v55h723v-55zM377 305q24 0 41 -17.5t17 -41.5t-17 -41.5t-41 -17.5q-25 0 -42 17.5t-17 41.5t17 41.5t42 17.5zM377 720q24 0 41 -17t17 -41t-17 -41t-42 -17q-24 0 -41 17t-17 41t17 41t42 17z" />
    <glyph glyph-name="oslash" unicode="&#xf8;" horiz-adv-x="686" 
d="M540 557l89 99l31 -29l-91 -102q72 -90 72 -209q0 -73 -24.5 -134.5t-65.5 -106t-96 -69.5t-115 -25q-28 0 -52 4t-46.5 13t-45.5 24t-48 36l-90 -103l-32 29l95 106q-17 20 -30 46.5t-22 55.5t-14 58t-5 55q0 71 25 131t66 103.5t95 68t113 24.5q55 0 99.5 -17.5
t91.5 -57.5zM490 438l-270 -301q18 -31 34 -52t33.5 -33.5t36.5 -17.5t42 -5q33 0 60.5 12t47.5 40.5t31.5 74t11.5 113.5q0 82 -27 169zM472 482q-35 59 -68 82.5t-77 23.5q-32 0 -60 -13t-48.5 -40.5t-32.5 -71.5t-12 -107q0 -80 26 -175z" />
    <glyph glyph-name="ugrave" unicode="&#xf9;" horiz-adv-x="686" 
d="M581 614v-372q0 -63 2.5 -98t7.5 -51.5t14 -20t23 -3.5q19 0 47 11l9 -23l-184 -76h-30v130q-41 -44 -69.5 -70t-51.5 -39.5t-43 -17t-44 -3.5q-84 0 -120.5 62.5t-36.5 176.5v274q0 31 -5 49.5t-16.5 28.5t-29.5 13.5t-45 3.5h-8v25h215v-411q0 -44 8.5 -71.5
t22.5 -42.5t32.5 -20t38.5 -5q29 0 65 18t87 69v347q0 26 -4 43.5t-15 28t-30 15t-49 4.5v25h209zM206 931h149l71 -231h-23z" />
    <glyph glyph-name="uacute" unicode="&#xfa;" horiz-adv-x="686" 
d="M581 614v-372q0 -63 2.5 -98t7.5 -51.5t14 -20t23 -3.5q19 0 47 11l9 -23l-184 -76h-30v130q-41 -44 -69.5 -70t-51.5 -39.5t-43 -17t-44 -3.5q-84 0 -120.5 62.5t-36.5 176.5v274q0 31 -5 49.5t-16.5 28.5t-29.5 13.5t-45 3.5h-8v25h215v-411q0 -44 8.5 -71.5
t22.5 -42.5t32.5 -20t38.5 -5q29 0 65 18t87 69v347q0 26 -4 43.5t-15 28t-30 15t-49 4.5v25h209zM469 931l-198 -231h-23l70 231h151z" />
    <glyph glyph-name="ucircumflex" unicode="&#xfb;" horiz-adv-x="686" 
d="M581 614v-372q0 -63 2.5 -98t7.5 -51.5t14 -20t23 -3.5q19 0 47 11l9 -23l-184 -76h-30v130q-41 -44 -69.5 -70t-51.5 -39.5t-43 -17t-44 -3.5q-84 0 -120.5 62.5t-36.5 176.5v274q0 31 -5 49.5t-16.5 28.5t-29.5 13.5t-45 3.5h-8v25h215v-411q0 -44 8.5 -71.5
t22.5 -42.5t32.5 -20t38.5 -5q29 0 65 18t87 69v347q0 26 -4 43.5t-15 28t-30 15t-49 4.5v25h209zM284 928h123l127 -222h-20l-183 143l-154 -143h-20z" />
    <glyph glyph-name="udieresis" unicode="&#xfc;" horiz-adv-x="686" 
d="M581 614v-372q0 -63 2.5 -98t7.5 -51.5t14 -20t23 -3.5q19 0 47 11l9 -23l-184 -76h-30v130q-41 -44 -69.5 -70t-51.5 -39.5t-43 -17t-44 -3.5q-84 0 -120.5 62.5t-36.5 176.5v274q0 31 -5 49.5t-16.5 28.5t-29.5 13.5t-45 3.5h-8v25h215v-411q0 -44 8.5 -71.5
t22.5 -42.5t32.5 -20t38.5 -5q29 0 65 18t87 69v347q0 26 -4 43.5t-15 28t-30 15t-49 4.5v25h209zM224 896q30 0 51.5 -21.5t21.5 -51.5t-21.5 -51.5t-51.5 -21.5t-51.5 21.5t-21.5 51.5t21 51.5t52 21.5zM460 896q30 0 51 -21.5t21 -51.5t-21 -51.5t-51 -21.5t-51.5 21.5
t-21.5 51.5t21.5 51.5t51.5 21.5z" />
    <glyph glyph-name="ydieresis" unicode="&#xff;" horiz-adv-x="686" 
d="M8 614h286v-25h-14q-30 0 -45 -13t-15 -33q0 -27 22 -72l149 -310l138 339q11 28 11 55q0 16 -10.5 25t-51.5 9v25h200v-25q-18 -2 -29.5 -5t-20.5 -12t-18 -27t-22 -49l-250 -612q-18 -44 -43 -78t-52.5 -56.5t-56.5 -34t-56 -11.5q-20 0 -36.5 6t-28.5 16.5t-18.5 24
t-6.5 28.5q0 28 18.5 45t50.5 17q7 0 21.5 -4l29.5 -8.5t27 -8.5t15 -4q20 0 43.5 21.5t48.5 80.5l44 106l-221 463q-18 41 -43 67t-66 35v25zM250 896q30 0 51.5 -21.5t21.5 -51.5t-21.5 -51.5t-51.5 -21.5t-51.5 21.5t-21.5 51.5t21 51.5t52 21.5zM486 896q30 0 51 -21.5
t21 -51.5t-21 -51.5t-51 -21.5t-51.5 21.5t-21.5 51.5t21.5 51.5t51.5 21.5z" />
    <glyph glyph-name="Euro" unicode="&#x20ac;" horiz-adv-x="686" 
d="M567 494h-384q-1 -14 -1.5 -28t-0.5 -28h370l-16 -52h-353q3 -76 19.5 -139.5t45 -109.5t67 -71.5t85.5 -25.5q39 0 69.5 6.5t57.5 23t54.5 46t60.5 75.5l21 -13q-35 -56 -67.5 -93t-67 -59.5t-72 -32t-82.5 -9.5q-70 0 -126 27.5t-97 79t-66 126t-32 169.5h-67l15 52h50
v11v21t1 24h-66l15 52h56q13 85 44 155t77.5 120.5t107 78t132.5 27.5q116 0 228 -59v-200h-27q-17 215 -201 215q-47 0 -85.5 -23t-68 -66.5t-48.5 -106t-28 -141.5h396z" />
    <glyph glyph-name="Scaron" unicode="&#x160;" horiz-adv-x="763" 
d="M629 929v-314h-25q-17 127 -83 194t-168 67q-35 0 -64 -12t-51 -31.5t-34 -44.5t-12 -52q0 -25 10 -47.5t36 -46.5t69.5 -51.5t111.5 -63.5q64 -35 107 -61.5t66 -44.5q47 -36 72 -85.5t25 -103.5q0 -51 -21 -97t-58.5 -80.5t-90.5 -55t-116 -20.5q-40 0 -74 6
q-6 1 -31.5 8.5l-54.5 15.5l-54 15t-29 7q-17 0 -26.5 -10t-14.5 -42h-25v312h25q18 -96 47 -147q14 -24 37.5 -44.5t53 -36t63.5 -24t69 -8.5q42 0 75.5 12t57 32.5t36 47.5t12.5 57q0 34 -18.5 68t-57.5 64l-26 16l-51 30.5l-65.5 38.5l-68 41l-59 36.5t-38.5 26.5
q-49 39 -74.5 85.5t-25.5 103.5q0 48 20 91.5t55.5 76.5t84.5 52t106 19q72 0 153 -35q19 -8 32 -13t21 -4q18 0 29 10t17 42h25zM440 980h-123l-127 221h20l183 -142l154 142h20z" />
    <glyph glyph-name="Zcaron" unicode="&#x17d;" horiz-adv-x="838" 
d="M789 909l-597 -854h373q43 0 75 8t57 29t44 58t37 95l22 -4l-43 -241h-740v25l583 829h-290q-55 0 -88 -8.5t-52 -28.5t-28.5 -53.5t-17.5 -82.5h-26l19 228h672zM492 980h-124l-127 221h21l183 -142l153 142h20z" />
    <glyph glyph-name="scaron" unicode="&#x161;" horiz-adv-x="534" 
d="M440 632v-209h-23q-12 49 -28.5 82t-36.5 52t-45.5 27t-55.5 8q-24 0 -43 -7t-33 -18t-21.5 -25t-7.5 -29q0 -19 4.5 -35t16.5 -30t32.5 -28t52.5 -30l98 -48q136 -66 136 -175q0 -42 -17.5 -76.5t-46.5 -58.5t-66 -37.5t-75 -13.5q-29 0 -61 4.5t-68 15.5q-11 3 -20 5
t-16 2q-15 0 -24 -17h-22v219h22q9 -47 28 -82.5t44 -59t55.5 -35.5t62.5 -12q23 0 42 7t33 19.5t22 29.5t8 36q0 23 -7 41.5t-25 36t-49.5 36.5t-81.5 44q-49 24 -79.5 45t-48 42t-23.5 44t-6 52q0 38 13.5 70.5t38.5 56.5t59 37.5t75 13.5q13 0 33 -4t40.5 -9l37.5 -9
t23 -4q11 0 16.5 4.5t13.5 21.5h23zM329 706h-123l-128 222h21l183 -142l153 142h21z" />
    <glyph glyph-name="zcaron" unicode="&#x17e;" horiz-adv-x="609" 
d="M576 188v-188h-549v24l408 543h-201q-33 0 -53.5 -2t-32.5 -6.5t-19 -12t-13 -19.5q-18 -33 -21 -83h-27v170h519v-25l-411 -544h223q36 0 59 2.5t37.5 9t23 16.5t16.5 25q5 11 10 33t8 57h23zM377 706h-123l-127 222h20l183 -142l154 142h20z" />
    <glyph glyph-name="brokenbar" unicode="&#xa6;" horiz-adv-x="275" 
d="M163 201v-484h-55v484h55zM163 953v-497h-55v497h55z" />
    <glyph glyph-name="macron" unicode="&#xad;" horiz-adv-x="457" 
d="M56 358h346v-101h-346v101z" />
    <glyph glyph-name="twosuperior" unicode="&#xb2;" horiz-adv-x="411" 
d="M385 547l-41 -102h-331v19q69 53 117 96.5t78.5 80.5t44.5 68.5t14 60.5q0 41 -28 68.5t-70 27.5q-38 0 -67 -19.5t-44 -59.5h-30q10 66 52 103t110 37q36 0 65.5 -11t50.5 -28.5t32.5 -40t11.5 -46.5q0 -28 -13 -58.5t-40.5 -66t-71 -76.5t-104.5 -91h124q30 0 48.5 2
t30 6.5t18 11.5t13.5 18h30z" />
    <glyph glyph-name="threesuperior" unicode="&#xb3;" horiz-adv-x="411" 
d="M37 823q28 58 66 81t88 23q31 0 55.5 -8.5t41.5 -22.5t26.5 -31.5t9.5 -35.5q0 -45 -71 -104q49 -18 73 -50t24 -72q0 -34 -14.5 -64.5t-43 -53.5t-69.5 -36.5t-95 -13.5q-47 0 -73 11.5t-26 30.5q0 11 11.5 20.5t28.5 9.5q8 0 23 -5l31.5 -11t32.5 -11t28 -5
q19 0 35.5 7.5t29 19.5t19.5 28t7 33q0 29 -13 50.5t-33 35t-43.5 20t-45.5 6.5h-20v18q25 0 47.5 8.5t39 23t26 33.5t9.5 39q0 33 -22 54t-59 21q-57 0 -99 -59z" />
    <glyph glyph-name="onesuperior" unicode="&#xb9;" horiz-adv-x="411" 
d="M91 869l137 58h24v-396q0 -27 2 -41t9.5 -19t20.5 -5h36v-21h-218v21q28 0 42.5 1t20 7t5.5 19v38v250q0 27 -1 43.5t-3.5 25.5t-7 11.5t-11.5 2.5q-12 0 -45 -14z" />
    <glyph glyph-name="onequarter" unicode="&#xbc;" horiz-adv-x="1029" 
d="M1006 150v-54h-73v-123h-78v123h-230v49l252 311h56v-306h73zM866 927l-626 -963h-60l626 963h60zM90 869l137 58h24v-396q0 -18 0.5 -29t2 -17t4 -8.5t7.5 -4.5q12 -6 53 -6v-21h-218v21q29 0 43.5 1.5t20 7.5t5.5 19v37v250q0 27 -1 43.5t-4 25.5t-7.5 11.5t-11.5 2.5
q-12 0 -45 -14zM855 150v212l-174 -212h174z" />
    <glyph glyph-name="onehalf" unicode="&#xbd;" horiz-adv-x="1029" 
d="M1001 76l-41 -103h-331v20q68 53 116 96t78.5 80t44.5 68.5t14 61.5q0 41 -27.5 68.5t-69.5 27.5q-38 0 -67.5 -19.5t-43.5 -59.5h-30q10 66 52 103t110 37q36 0 65.5 -11t50.5 -29t32.5 -40.5t11.5 -45.5q0 -28 -13 -58.5t-40.5 -65.5t-71.5 -76.5t-105 -91.5h126
q30 0 48 1.5t29.5 6t18 12t13.5 18.5h30zM850 927l-627 -963h-60l627 963h60zM90 869l137 58h24v-396q0 -18 0.5 -29t2 -17t4 -8.5t7.5 -4.5q12 -6 53 -6v-21h-218v21q29 0 43.5 1.5t20 7.5t5.5 19v37v250q0 27 -1 43.5t-4 25.5t-7.5 11.5t-11.5 2.5q-12 0 -45 -14z" />
    <glyph glyph-name="threequarters" unicode="&#xbe;" horiz-adv-x="1029" 
d="M1006 150v-54h-73v-123h-77v123h-231v49l252 311h56v-306h73zM36 823q28 58 66 81t88 23q31 0 55.5 -8.5t41.5 -22.5t26 -31.5t9 -35.5q0 -46 -70 -104q48 -18 72.5 -50t24.5 -72q0 -34 -14.5 -64.5t-43 -53.5t-69.5 -36.5t-95 -13.5q-48 0 -73.5 11.5t-25.5 30.5
q0 11 11 20.5t29 9.5q8 0 23 -5l31.5 -11t32.5 -11t28 -5q19 0 35.5 7.5t29 19.5t19.5 28t7 33q0 48 -37 80t-118 32v18q25 0 47.5 8.5t39 23t26 33.5t9.5 39q0 33 -22.5 54t-59.5 21q-57 0 -98 -59zM856 927l-624 -963h-60l626 963h58zM856 150v212l-175 -212h175z" />
    <glyph glyph-name="Eth" unicode="&#xd0;" horiz-adv-x="991" 
d="M23 0v25h35q56 0 82 37q14 22 14 99v293h-131v50h131v244q0 84 -19 106q-26 30 -77 30h-35v25h370q209 0 313 -49q102 -49 166 -153q66 -107 66 -247q0 -94 -30 -177.5t-92 -146.5t-158 -99.5t-229 -36.5h-406zM283 67q43 -10 78.5 -14.5t64.5 -4.5q77 0 143 28.5t114 81
t75.5 128t27.5 168.5q0 94 -27.5 169t-76 127.5t-115.5 80.5t-146 28q-30 0 -64.5 -5t-73.5 -14v-336h264v-50h-264v-387z" />
    <glyph glyph-name="multiply" unicode="&#xd7;" horiz-adv-x="774" 
d="M111 220l236 236l-236 236l39 39l236 -236l236 236l37 -38l-236 -236l238 -237l-39 -39l-237 237l-236 -236z" />
    <glyph glyph-name="Yacute" unicode="&#xdd;" horiz-adv-x="991" 
d="M654 909h317v-25h-18q-38 0 -82 -34.5t-97 -119.5l-219 -345v-228q0 -46 6.5 -72.5t19 -39.5t31 -16.5t42.5 -3.5h29v-25h-386v25h33q24 0 42 4t30 17.5t18 39.5t6 71v216l-249 380l-37.5 54.5t-22.5 29.5q-4 4 -13.5 12t-23.5 15.5t-31 13.5t-36 6v25h388v-25h-20
q-15 0 -30 -3.5t-27 -10.5t-19.5 -18.5t-7.5 -26.5q-1 -12 10 -33.5t31 -53.5l189 -293l179 280q38 61 40 94q-2 14 -6.5 26t-15 20.5t-27.5 13.5t-43 5v25zM668 1204l-198 -231h-23l70 231h151z" />
    <glyph glyph-name="Thorn" unicode="&#xde;" horiz-adv-x="763" 
d="M281 702h50q51 0 88 -2t62 -6q50 -9 92 -29t72.5 -50.5t47.5 -70.5t17 -88q0 -100 -64 -166.5t-190 -82.5q-24 -3 -128 -3h-47v-41q0 -44 5.5 -71t17.5 -42t31.5 -20t48.5 -5h27v-25h-387v25h26q29 0 52.5 9.5t36.5 27.5q13 19 13 99v581q0 75 -7 94q-8 18 -33 33t-61 15
h-27v25h387v-25h-26q-11 0 -24.5 -2t-27 -7.5t-25 -15t-17.5 -24.5q-10 -25 -10 -89v-44zM281 650v-399h30q66 0 113 15t76 42t42.5 64.5t13.5 82.5q0 38 -12 70.5t-33 57t-48.5 41t-57.5 21.5q-14 2 -36.5 3.5t-54.5 1.5h-33z" />
    <glyph glyph-name="eth" unicode="&#xf0;" horiz-adv-x="686" 
d="M314 783l-165 -90l-20 37l156 88q-23 24 -38.5 38.5t-28 25t-26 20l-33.5 22.5l18 29q40 -20 81 -46t84 -58l167 93l23 -37l-153 -87q64 -56 111.5 -116.5t80.5 -127.5q65 -133 65 -256q0 -69 -21.5 -130.5t-61.5 -107t-95.5 -72.5t-123.5 -27q-59 0 -111.5 23.5
t-91.5 65.5t-62 99.5t-23 125.5q0 63 21 122.5t58 106t88.5 74.5t113.5 28q15 0 28 -1t25.5 -5t27 -12t32.5 -21q-26 56 -58 104.5t-68 91.5zM321 586q-32 0 -59.5 -12.5t-47.5 -41t-32 -74t-12 -111.5q0 -77 17 -136.5t44.5 -100t63 -61.5t71.5 -21q30 0 56.5 12.5t46.5 40
t31.5 70t11.5 102.5q0 74 -14 135.5t-39 105.5t-60 68t-78 24z" />
    <glyph glyph-name="yacute" unicode="&#xfd;" horiz-adv-x="686" 
d="M8 614h286v-25h-14q-30 0 -45 -13t-15 -33q0 -27 22 -72l149 -310l138 339q11 28 11 55q0 16 -10.5 25t-51.5 9v25h200v-25q-18 -2 -29.5 -5t-20.5 -12t-18 -27t-22 -49l-250 -612q-18 -44 -43 -78t-52.5 -56.5t-56.5 -34t-56 -11.5q-20 0 -36.5 6t-28.5 16.5t-18.5 24
t-6.5 28.5q0 28 18.5 45t50.5 17q7 0 21.5 -4l29.5 -8.5t27 -8.5t15 -4q20 0 43.5 21.5t48.5 80.5l44 106l-221 463q-18 41 -43 67t-66 35v25zM491 931l-198 -231h-23l70 231h151z" />
    <glyph glyph-name="thorn" unicode="&#xfe;" horiz-adv-x="686" 
d="M-1 876l189 77h25v-467q48 81 95.5 113.5t100.5 32.5q52 0 94.5 -24t72.5 -65.5t46.5 -96.5t16.5 -117q0 -70 -19.5 -133t-56 -111t-88.5 -76t-116 -28q-23 0 -41.5 2t-35.5 8t-33.5 17t-35.5 28v-187q0 -32 1.5 -51t5.5 -29.5t10.5 -15.5t16.5 -10q19 -10 70 -10v-26
h-322v26l17 -1q22 0 39 2t28 13.5t17 36t6 69.5v903q0 36 -2.5 57.5t-8.5 33t-16.5 15t-26.5 3.5q-18 0 -41 -10zM213 446v-229q0 -74 6 -98q4 -20 16 -37.5t30 -31t41.5 -21.5t50.5 -8q39 0 69.5 18.5t51.5 51t31.5 77.5t10.5 98q0 58 -11.5 107t-33 85t-52 56.5
t-67.5 20.5q-15 0 -28 -1.5t-28 -9.5t-35.5 -26.5t-51.5 -51.5z" />
    <glyph glyph-name="uni200C" unicode="&#x200c;" horiz-adv-x="39" 
d="M40 -800h-40v1538h40v-1538z" />
    <glyph glyph-name="uni200D" unicode="&#x200d;" horiz-adv-x="39" 
d="M40 -800h-40v1538h40v-1538zM185 844l-137 -71l137 -72v-24l-165 85l-165 -86v24l137 71l-137 72v24l165 -85l165 86v-24z" />
    <glyph glyph-name="uni25CC" unicode="&#x25cc;" horiz-adv-x="882" 
d="M322 564q-46 -26 -74 -72l-56 42q34 52 90 88zM688 534l-56 -42q-29 46 -72 72l38 58q56 -36 90 -88zM228 334l-70 -12q-6 28 -6 60q0 33 6 62l70 -8q-6 -26 -6 -54q0 -26 6 -48zM728 382q0 -32 -6 -60l-70 12q6 22 6 48q0 28 -6 54l70 8q6 -30 6 -62zM504 102
q-35 -6 -64 -6q-30 0 -64 6l14 68q24 -6 50 -6t52 6zM322 202l-40 -56q-54 34 -90 88l56 40q28 -46 74 -72zM504 662l-12 -66q-26 6 -52 6t-50 -6l-14 66q17 4 33 6t31 2t31 -2t33 -6zM688 234q-36 -54 -90 -88l-38 56q43 25 72 72z" />
    <glyph glyph-name="leftAngleBracket" unicode="&#x3008;" horiz-adv-x="575" 
d="M126 133l377 -798l-72 -41l-391 839l424 842l72 -41z" />
    <glyph glyph-name="rightAngleBracket" unicode="&#x3009;" horiz-adv-x="575" 
d="M114 -706l-74 33l377 798l-377 793l74 41l391 -826z" />
    <glyph glyph-name="leftDoubleAngleBracket" unicode="&#x300a;" horiz-adv-x="855" 
d="M402 133l377 -798l-72 -41l-391 839l424 842l72 -41zM126 133l377 -798l-72 -41l-391 839l424 842l72 -41z" />
    <glyph glyph-name="rightDoubleAngleBracket" unicode="&#x300b;" horiz-adv-x="855" 
d="M392 -706l-74 33l377 798l-377 793l74 41l391 -826zM114 -706l-74 33l377 798l-377 793l74 41l391 -826z" />
    <glyph glyph-name="leftCornerBracket" unicode="&#x300c;" horiz-adv-x="560" 
d="M527 1132h-408v-1663h-79v1743h487v-80z" />
    <glyph glyph-name="rightCornerBracket" unicode="&#x300d;" horiz-adv-x="590" 
d="M527 -836h-487v80h407v1671h80v-1751z" />
    <glyph glyph-name="leftWhiteCornerBracket" unicode="&#x300e;" horiz-adv-x="590" 
d="M552 964h-270v-1503h-242v1751h512v-248zM122 1132v-1591h80v1503h270v88h-350z" />
    <glyph glyph-name="rightWhiteCornerBracket" unicode="&#x300f;" horiz-adv-x="590" 
d="M544 -836h-504v247h264v1504h240v-1751zM384 835v-1503h-264v-88h344v1591h-80z" />
    <glyph glyph-name="leftBlackConcave" unicode="&#x3010;" horiz-adv-x="840" 
d="M777 -522h-737v1734h743q-212 -228 -318 -447t-106 -433q0 -398 418 -854z" />
    <glyph glyph-name="rightBlackConcave" unicode="&#x3011;" horiz-adv-x="840" 
d="M759 1212v-1734h-727q408 471 408 889q0 391 -400 845h719z" />
    <glyph glyph-name="leftTortoiseShell" unicode="&#x3014;" horiz-adv-x="440" 
d="M120 883v-1023l289 -288l-55 -41l-314 315v1051l314 315l55 -41z" />
    <glyph glyph-name="rightTortoiseShell" unicode="&#x3015;" horiz-adv-x="440" 
d="M392 -134l-305 -327l-55 49l280 303v991l-272 281l55 49l297 -305v-1041z" />
    <glyph glyph-name="leftWhiteConcave" unicode="&#x3016;" horiz-adv-x="925" 
d="M40 -522v1734h848q-114 -102 -205.5 -215.5t-155.5 -226.5t-98 -221.5t-34 -201.5q0 -92 27.5 -197t88 -217t155.5 -227.5t230 -227.5h-856zM120 1133v-1575h567q-44 43 -88.5 99t-85.5 120t-77 134.5t-62.5 143t-41.5 144.5t-15 140q0 359 378 794h-575z" />
    <glyph glyph-name="rightWhiteConcave" unicode="&#x3017;" horiz-adv-x="925" 
d="M882 -508h-834q111 102 199 215.5t149.5 227.5t94.5 222t33 198q0 84 -25 185.5t-82 212.5t-149.5 228t-227.5 231h842v-1720zM241 1133q47 -43 92 -100t85.5 -123t74.5 -137.5t58.5 -144.5t38.5 -144t14 -135q0 -173 -88.5 -367.5t-274.5 -409.5h559v1561h-559z" />
    <glyph glyph-name="leftWhiteTortoiseShell" unicode="&#x3018;" horiz-adv-x="440" 
d="M272 952v-1179l129 -201l-64 -41l-297 463v738l314 480l55 -49zM120 718v-710l72 -111v932z" />
    <glyph glyph-name="rightWhiteTortoiseShell" unicode="&#x3019;" horiz-adv-x="440" 
d="M408 732v-738l-297 -463l-64 41l129 200v1180l-137 211l55 49zM328 718l-72 111v-933l72 112v710z" />
    <glyph glyph-name="leftWhiteSquareBracket" unicode="&#x301a;" horiz-adv-x="580" 
d="M527 1132h-229v-1583h229v-80h-487v1743h487v-80zM119 1132v-1583h100v1583h-100z" />
    <glyph glyph-name="rightWhiteSquareBracket" unicode="&#x301b;" horiz-adv-x="580" 
d="M526 1212v-1743h-487v80h229v1583h-229v80h487zM447 1132h-100v-1583h100v1583z" />
    <glyph glyph-name="waveDash" unicode="&#x301c;" horiz-adv-x="1154" 
d="M1049 473q-7 -18 -16 -39t-21 -43.5t-27.5 -45t-34.5 -42.5q-48 -49 -100.5 -74.5t-115.5 -26.5q-71 0 -128.5 20.5t-108 45.5t-97 45.5t-94.5 20.5q-32 0 -61 -13.5t-55 -38.5t-49 -59t-43 -76l-58 25q15 40 44.5 89.5t72 93t96.5 73t118 29.5q49 0 90.5 -9.5t78 -24.5
t69.5 -31.5l64 -31.5t62 -24.5t64 -9.5q34 0 61.5 12t50 34.5t41.5 54t36 70.5z" />
    <glyph glyph-name="reversedDoublePrime" unicode="&#x301d;" horiz-adv-x="740" 
d="M206 1160q16 -43 129 -497l-31 -14l-98.5 173.5l-71 125.5l-48 86t-29 55.5t-14 33.5t-3.5 20q0 18 9 31t23.5 21.5t31.5 12.5t33 4q26 0 43.5 -14t25.5 -38zM537 1160q16 -43 129 -497l-31 -14l-98.5 173.5l-71 125.5l-48 86t-29 55.5t-14 33.5t-3.5 20q0 18 9 31
t23.5 21.5t31.5 12.5t33 4q26 0 43.5 -14t25.5 -38z" />
    <glyph glyph-name="doublePrime" unicode="&#x301e;" horiz-adv-x="740" 
d="M123 682l-31 6l110.5 316.5t44.5 137.5q8 31 31 50.5t55 19.5q30 0 54 -20.5t24 -54.5q0 -10 -4 -21.5t-15 -31t-30.5 -49.5l-51.5 -77l-78 -114.5zM420 682l-31 6l110.5 316.5t44.5 137.5q8 31 31 50.5t55 19.5q30 0 54 -20.5t24 -54.5q0 -10 -4 -21.5t-15 -31
t-30.5 -49.5l-51.5 -77l-78 -114.5z" />
    <glyph glyph-name="lowDoublePrime" unicode="&#x301f;" horiz-adv-x="740" 
d="M88 -291l-31 6l110.5 316.5t44.5 137.5q8 31 31 50.5t55 19.5q30 0 54 -20.5t24 -54.5q0 -10 -4 -21.5t-15 -31t-30.5 -49.5l-51.5 -77l-78 -114.5zM385 -291l-31 6l110.5 316.5t44.5 137.5q8 31 31 50.5t55 19.5q30 0 54 -20.5t24 -54.5q0 -10 -4 -21.5t-15 -31
t-30.5 -49.5l-51.5 -77l-78 -114.5z" />
    <glyph glyph-name="tibAa.Naro.Anusvara" unicode="&#xf00;" horiz-adv-x="956" 
d="M896 672l-40 -110v-654q0 -12 -3.5 -20t-9.5 -8q-12 0 -19 16q-57 113 -108 202.5t-100.5 156t-99 111t-102.5 68.5q-32 -26 -60.5 -53.5t-53.5 -56.5q88 -19 134 -59t46 -103q0 -45 -16.5 -81.5t-45.5 -63t-70.5 -40.5t-90.5 -14q-114 0 -165.5 64t-51.5 185
q0 47 15 95.5t37 94t47.5 86.5l46.5 74h-94l50 110h172l-88.5 -137t-69.5 -118.5t-45.5 -105.5t-16.5 -98q0 -42 11 -69t31 -43t48.5 -22t64.5 -6q29 0 52.5 8t40 22t25.5 32t9 39q0 39 -33.5 69.5t-112.5 52.5q45 72 96.5 138.5t111.5 127.5h-98l50 110h275l-43 -110h-44
q-33 -20 -66 -50q96 -84 169 -202t130 -285v40q0 214 -23 337.5t-66 159.5l41 110h133zM1069 1108q-7 -69 -40.5 -119.5t-86 -85t-120 -54.5t-142.5 -27q-91 -9 -147 -38.5t-61 -88.5h-31q-44 45 -85 77.5t-83.5 53t-90.5 30.5t-107 11q25 55 58.5 80t73.5 25q25 0 56 -18
t63.5 -46t64.5 -63.5t59 -69.5q12 37 33.5 65t48 47t55.5 30t56 15q155 24 252.5 65t140.5 115q4 7 8.5 10.5t12.5 3.5q6 0 9 -4.5t3 -10.5v-3zM580 1066q0 -32 -12.5 -58.5t-32 -45t-43.5 -28.5t-48 -10q-25 0 -50 10t-45 28.5t-32.5 45t-12.5 58.5q0 33 11.5 59.5t31 45.5
t45 29t52.5 10q25 0 49 -10.5t43.5 -29t31.5 -45t12 -59.5zM528 1040q0 21 -12 39t-30 31.5t-39 21.5t-40 8q-20 0 -35.5 -9.5t-15.5 -36.5q0 -12 7.5 -29.5t22 -33t36.5 -26.5t51 -11q20 0 37.5 8.5t17.5 37.5z" />
    <glyph glyph-name="tibTruncAa" unicode="&#xf01;" horiz-adv-x="882" 
d="M675 672l-43 -110h-44q-31 -19 -66 -50q136 -118 231 -317l19 -40l25.5 -55l27.5 -62l25.5 -60.5t18.5 -51.5t7 -34q0 -12 -2 -20t-10 -8q-5 0 -10 3t-10 13q-106 231 -208.5 368.5t-211.5 185.5q-32 -26 -60.5 -53.5t-53.5 -56.5q88 -19 134 -59t46 -103
q0 -45 -16.5 -81.5t-45.5 -63t-70.5 -40.5t-90.5 -14q-115 0 -171 64t-56 185q0 47 15 95.5t37 94t47.5 86.5l46.5 74h-94l50 110h172l-88.5 -137t-69.5 -118.5t-45.5 -105.5t-16.5 -98q0 -42 12.5 -69t34.5 -43t52 -22t66 -6q29 0 52.5 8t40 22t25.5 32t9 39
q0 39 -33.5 69.5t-112.5 52.5q45 72 96.5 138.5t111.5 127.5h-98l50 110h275z" />
    <glyph glyph-name="tibAchung_Shapkyu.Hon__Visarga" unicode="&#xf02;" horiz-adv-x="1363" 
d="M924 -366q-14 -182 -228 -182q-75 0 -146 46.5t-152 143.5q-63 75 -146.5 141.5t-183.5 132.5q-7 6 -7 13q0 8 6 16t14 8q5 0 11 -3q103 -60 189 -125t155 -137q39 -41 69.5 -66.5t62 -40t68.5 -20t88 -5.5q81 0 118.5 19.5t37.5 62.5q0 45 -20.5 65.5t-65.5 20.5
q-40 0 -71.5 -14t-54.5 -46q0 158 122 158q6 0 13 -0.5t8 -1.5q-110 292 -331 292q-72 0 -176 -32q16 145 172 162q78 0 134 -28q47 77 47 149q0 109 -111 199h-234q-128 -59 -170 -246q-2 -10 -2.5 -20.5t-0.5 -19.5q0 -80 47 -160q-24 -64 -86 -126q-60 121 -60 248
q0 74 21.5 139t60 120t92 99t118.5 76h434l-62 -110q35 -87 35 -153q0 -51 -20 -104t-71 -119q133 -93 198 -375q78 -35 78 -177zM1326 458q0 -47 -17.5 -85t-45.5 -65t-63 -41.5t-71 -14.5q-37 0 -73.5 14.5t-65.5 41.5t-47 65t-18 85q0 48 17 86.5t45.5 66t65.5 42
t76 14.5q36 0 71.5 -15t63.5 -42.5t45 -66t17 -85.5zM1326 -36q0 -47 -17.5 -85t-45.5 -65t-63 -41.5t-71 -14.5q-37 0 -73.5 14.5t-65.5 41.5t-47 65t-18 85q0 48 17 86.5t45.5 66t65.5 42t76 14.5q36 0 71.5 -15t63.5 -42.5t45 -66t17 -85.5zM826 1020
q-20 -156 -99 -233.5t-212 -77.5q-65 0 -116 17t-88.5 56t-60.5 101.5t-32 154.5q0 11 3 18.5t11 7.5q15 0 20 -18q16 -70 40 -118t56.5 -77.5t74 -42.5t93.5 -13q103 0 172 57t98 172q7 18 24 18q16 -1 16 -22zM1270 419q0 31 -20 59.5t-50 51t-64.5 36t-63.5 13.5
q-16 0 -33 -4.5t-31.5 -14t-23.5 -24.5t-9 -36q0 -20 14.5 -47.5t41 -53t62.5 -43.5t80 -18q16 0 33 4t31.5 13.5t23.5 25t9 38.5zM1270 -75q0 31 -20 59.5t-50 51t-64.5 36t-63.5 13.5q-16 0 -33 -4.5t-31.5 -14t-23.5 -24.5t-9 -36q0 -20 14.5 -47.5t41 -53t62.5 -43.5
t80 -18q16 0 33 4t31.5 13.5t23.5 25t9 38.5zM582 1204q-2 -26 -5 -49t-3 -37q0 -10 1 -17.5t4.5 -15t10 -16t18.5 -21.5q18 -20 31 -39.5t13 -40.5q0 -62 -35 -96t-101 -34q-62 0 -96.5 29t-34.5 88q0 24 8.5 43t20.5 30h50q-9 -16 -12.5 -33t-3.5 -35q0 -27 19 -40.5
t52 -13.5q67 0 67 58q0 14 -9 25.5l-22 27.5q-24 29 -33.5 52t-9.5 48q0 1 0.5 9t1.5 20t2.5 27t3.5 31h62z" />
    <glyph glyph-name="tibAchung_Shapkyu.Hon__XXX" unicode="&#xf03;" horiz-adv-x="1443" 
d="M924 -366q-14 -182 -228 -182q-75 0 -146 46.5t-152 143.5q-63 75 -146.5 141.5t-183.5 132.5q-7 6 -7 13q0 8 6 16t14 8q5 0 11 -3q103 -60 189 -125t155 -137q39 -41 69.5 -66.5t62 -40t68.5 -20t88 -5.5q81 0 118.5 19.5t37.5 62.5q0 45 -20.5 65.5t-65.5 20.5
q-40 0 -71.5 -14t-54.5 -46q0 158 122 158q6 0 13 -0.5t8 -1.5q-110 292 -331 292q-72 0 -176 -32q16 145 172 162q78 0 134 -28q47 77 47 149q0 109 -111 199h-234q-128 -59 -170 -246q-2 -10 -2.5 -20.5t-0.5 -19.5q0 -80 47 -160q-24 -64 -86 -126q-60 121 -60 248
q0 74 21.5 139t60 120t92 99t118.5 76h434l-62 -110q35 -87 35 -153q0 -51 -20 -104t-71 -119q133 -93 198 -375q78 -35 78 -177zM1356 458q0 -47 -17.5 -85t-45.5 -65t-63 -41.5t-71 -14.5q-37 0 -73.5 14.5t-65.5 41.5t-47 65t-18 85q0 48 17 86.5t45.5 66t65.5 42
t76 14.5q36 0 71.5 -15t63.5 -42.5t45 -66t17 -85.5zM1356 -234q0 -47 -17.5 -85t-45.5 -65t-63 -41.5t-71 -14.5q-37 0 -73.5 14.5t-65.5 41.5t-47 65t-18 85q0 48 17 86.5t45.5 66t65.5 42t76 14.5q36 0 71.5 -15t63.5 -42.5t45 -66t17 -85.5zM826 1020
q-20 -156 -99 -233.5t-212 -77.5q-65 0 -116 17t-88.5 56t-60.5 101.5t-32 154.5q0 11 3 18.5t11 7.5q15 0 20 -18q16 -70 40 -118t56.5 -77.5t74 -42.5t93.5 -13q103 0 172 57t98 172q7 18 24 18q16 -1 16 -22zM1300 419q0 31 -20 59.5t-50 51t-64.5 36t-63.5 13.5
q-16 0 -33 -4.5t-31.5 -14t-23.5 -24.5t-9 -36q0 -20 14.5 -47.5t41 -53t62.5 -43.5t80 -18q16 0 33 4t31.5 13.5t23.5 25t9 38.5zM1300 -273q0 31 -20 59.5t-50 51t-64.5 36t-63.5 13.5q-16 0 -33 -4.5t-31.5 -14t-23.5 -24.5t-9 -36q0 -20 14.5 -47.5t41 -53t62.5 -43.5
t80 -18q16 0 33 4t31.5 13.5t23.5 25t9 38.5zM582 1204q-2 -26 -5 -49t-3 -37q0 -10 1 -17.5t4.5 -15t10 -16t18.5 -21.5q18 -20 31 -39.5t13 -40.5q0 -62 -35 -96t-101 -34q-62 0 -96.5 29t-34.5 88q0 24 8.5 43t20.5 30h50q-9 -16 -12.5 -33t-3.5 -35q0 -27 19 -40.5
t52 -13.5q67 0 67 58q0 14 -9 25.5l-22 27.5q-24 29 -33.5 52t-9.5 48q0 1 0.5 9t1.5 20t2.5 27t3.5 31h62zM1397 146v-64h-482v64h482z" />
    <glyph glyph-name="tibSnail" unicode="&#xf04;" horiz-adv-x="1187" 
d="M1183 411q0 -147 -79 -224.5t-222 -77.5q-107 0 -194 65t-147 193q-73 160 -189 269t-274 169q10 8 20 12.5t33 4.5q62 0 128.5 -31.5t131 -85.5t123 -127t105.5 -157q107 -194 272 -192q105 0 161 45.5t65 132.5q-3 93 -51 140.5t-141 47.5q-50 0 -74 -17t-24 -46
q0 -35 25.5 -54t61.5 -19q35 0 55.5 14.5t32.5 25.5q10 -6 13.5 -15t3.5 -26q0 -26 -11.5 -46.5t-29 -35t-39 -22.5t-40.5 -8q-63 0 -102.5 43.5t-43.5 119.5q12 177 184 184q118 -9 181.5 -78t64.5 -204zM1181 143l-1 -60q-1 -40 -26 -83t-67 -78t-97.5 -58t-116.5 -23
q-137 0 -239.5 71t-188.5 215q-91 152 -190.5 251t-219.5 137l17.5 13.5t23.5 5.5q51 0 110.5 -30t121.5 -83.5t124.5 -126.5t120.5 -159q23 -34 51.5 -63.5t67 -52t89 -35.5t116.5 -13q48 0 92.5 12.5t84 35t72 54.5t55.5 70z" />
    <glyph glyph-name="tibSnail2" unicode="&#xf05;" horiz-adv-x="579" 
d="M569 428q0 -160 -74.5 -241t-225.5 -81q-56 0 -100.5 16.5t-81.5 53t-68 95t-60 142.5l67 -67.5t72 -60t80.5 -43t92.5 -16.5q112 0 170 49.5t58 143.5q0 41 -13.5 73t-37.5 53.5t-56.5 33t-70.5 11.5q-58 0 -83.5 -17t-25.5 -49q0 -12 5.5 -24t15.5 -22t24.5 -16.5
t32.5 -6.5q19 0 31.5 2.5t23.5 7t21.5 12t24.5 16.5q9 -13 11 -19.5t2 -18.5q0 -20 -10 -39.5t-26 -35t-37 -25t-43 -9.5q-32 0 -59.5 9.5t-47.5 29.5t-31.5 50t-11.5 71t13.5 75t37.5 58t58 37.5t75 13.5q54 0 99.5 -21.5t78.5 -57.5t51 -83.5t18 -99.5zM581 132
q1 -6 1 -13v-12q0 -58 -25 -107.5t-67.5 -85.5t-98.5 -56t-118 -20q-77 0 -132 27t-90.5 70t-52.5 97t-17 108l49 -62t58 -55.5t77 -39.5t106 -15q91 0 170.5 39.5t139.5 124.5z" />
    <glyph glyph-name="tibSnailShey" unicode="&#xf06;" horiz-adv-x="1228" 
d="M1184 459q0 -112 -79.5 -171t-221.5 -59q-107 0 -194 49.5t-147 146.5q-73 121 -189 204t-274 129q10 6 20 9.5t33 3.5q62 0 128.5 -24t131 -65t123 -96.5t105.5 -119.5q106 -146 272 -146q105 0 161 35t65 101q-3 70 -51 106.5t-141 36.5q-50 0 -74 -13t-24 -35
q0 -26 25.5 -41t61.5 -15q35 0 55.5 11t32.5 20q10 -5 13.5 -11.5t3.5 -20.5q0 -19 -11.5 -34.5t-29 -27t-39 -17.5t-40.5 -6q-63 0 -102.5 33t-43.5 91q12 134 184 140q118 -7 181.5 -59t64.5 -155zM1186 255l-1 -46q-1 -30 -26 -62.5t-67 -59.5t-97.5 -44.5t-116.5 -17.5
q-137 0 -239.5 54t-188.5 164q-91 115 -190.5 190.5t-219.5 104.5q10 6 17.5 10t23.5 4q51 0 110.5 -23t121.5 -63.5t124.5 -96t120.5 -120.5q23 -26 51.5 -48.5t67 -39.5t89 -27t116.5 -10q96 0 176.5 36t127.5 95zM955 -45l-40 -110v-570q-1 -11 -6.5 -17.5t-16.5 -6.5
t-16.5 6.5t-6.5 16.5v194q0 18 -2 49.5t-6.5 69t-12 77.5t-18 75.5t-24 63.5t-31.5 42l40 110h140z" />
    <glyph glyph-name="tibSnailShey2" unicode="&#xf07;" horiz-adv-x="1855" 
d="M1122 213q0 -147 -79 -224.5t-222 -77.5q-107 0 -194 65t-147 193q-73 160 -189 269t-274 169q10 8 20 12.5t33 4.5q62 0 128.5 -31.5t131 -85.5t123 -127t105.5 -157q107 -194 272 -192q105 0 161 45.5t65 132.5q-3 93 -51 140.5t-141 47.5q-50 0 -74 -17t-24 -46
q0 -35 25.5 -54t61.5 -19q35 0 55.5 14.5t32.5 25.5q10 -6 13.5 -15t3.5 -26q0 -26 -11.5 -46.5t-29 -35t-39 -22.5t-40.5 -8q-63 0 -102.5 43.5t-43.5 119.5q12 177 184 184q238 -18 246 -282zM1812 496v-632h-64v632h64zM1294 500v-636h-62v636h62zM1612 390
q-8 -90 -98 -98q-90 8 -98 98q8 90 98 98q90 -8 98 -98zM1612 60q-8 -90 -98 -98q-90 8 -98 98q8 90 98 98q90 -8 98 -98z" />
    <glyph glyph-name="tibPalmTree" unicode="&#xf08;" horiz-adv-x="572" 
d="M467 629q0 -54 -47 -90.5t-144 -50.5q-8 -2 -16 -2h-13q-20 0 -32 7t-12 21q0 10 6 22.5t6 23.5q0 13 -7.5 22t-21.5 9q-25 0 -49 -22.5t-43.5 -50t-33 -50t-16.5 -22.5q-7 0 -7 17q0 38 17 80.5t45.5 78.5t66 59.5t79.5 23.5q31 0 47.5 -16t16.5 -36q0 -12 -9 -26.5
t-9 -28.5q0 -13 9 -20.5t24 -7.5q22 0 39.5 9t29.5 24t18.5 35t6.5 42q0 5 -2.5 16.5t-2.5 21.5q0 7 1.5 12t7.5 5q11 0 19.5 -12.5t14 -29.5t8.5 -35t3 -29zM358 56q-29 -41 -32 -140q-1 -24 -2 -73t-3 -110.5t-3.5 -129t-2.5 -128t-2 -107.5t-1 -68q0 -31 -18 -32
q-18 5 -18 32q-3 163 -6.5 313t-9.5 303q-2 42 -10.5 76.5t-25.5 63.5q14 -4 34 -11.5t34 -18.5q25 24 66 30zM542 178q-2 1 -15 1h-14q-114 0 -221 -83q-98 80 -225 80q-10 0 -19.5 -0.5t-19.5 -1.5q34 84 107 84q66 0 157 -64q88 61 150 61q68 0 100 -77zM534 342
q-14 2 -27.5 3t-26.5 1q-115 0 -188 -70q-82 73 -193 73q-21 0 -43 -3q35 74 108 74q50 0 124 -38q79 40 135 40q78 0 111 -80z" />
    <glyph glyph-name="tibBhutanMark1" unicode="&#xf09;" horiz-adv-x="999" 
d="M965 -102q0 -14 -5 -27.5t-21 -13.5q-18 0 -38 35q-183 311 -610 311h-33q-9 0 -11 -1q-23 1 -23 27q0 22 11 31t27 12t34 2t32 1q29 3 63.5 10.5t70 19.5t68 29t58 39t41 49t15.5 60q0 78 -66 122t-187 44q-34 0 -93.5 -15.5t-152.5 -60.5l-43.5 -22t-37.5 -9
q-11 0 -18 7t-7 18q0 25 13 40t44 35q29 19 69.5 38t86 35t93 26t91.5 10q55 0 110 -16.5t98 -48t70 -76t27 -100.5q0 -39 -14 -75t-39 -67.5t-60 -58.5t-77 -48q324 -120 404 -312q10 -24 10 -50zM867 -298q0 -16 -12 -28t-30 -12q-22 0 -34 26q-121 326 -502 326
q-42 0 -42 40q6 32 54 34q382 -5 528 -282q6 -11 12.5 -24.5t12 -28t9.5 -28t4 -23.5z" />
    <glyph glyph-name="tibBhutanMark2" unicode="&#xf0a;" horiz-adv-x="1109" 
d="M1056 -423q0 -69 -48 -69q-213 11 -391 73.5t-306.5 171.5t-199.5 262.5t-71 347.5q0 124 55 226.5t165.5 175.5t276.5 113t388 40q25 0 50.5 -2t46 -8t33.5 -18t13 -33q0 -35 -26 -35q-5 0 -21.5 0.5t-34.5 0.5t-34 0.5t-21 0.5q-795 0 -795 -481q0 -156 55 -283
t150.5 -220.5t224 -151t276.5 -74.5q23 -4 42 -5.5t35 -1.5q38 0 50 9.5t12 23.5v18q0 11 4 19.5t23 10.5q17 0 26.5 -13.5t14.5 -31.5t6 -37t1 -29zM1067 -57q0 -14 -5 -27.5t-21 -13.5q-18 0 -38 35q-46 78 -103 130t-120 84t-129 45.5t-129 13.5h-25q-7 0 -9 -1
q-23 1 -23 27q0 21 10 32t27 11h28q6 0 29.5 4t54.5 13.5t65.5 25t63 38t47.5 53t19 69.5q0 78 -40 114.5t-115 36.5q-30 0 -54.5 -2t-51 -9t-59 -20t-78.5 -35l-43.5 -22t-37.5 -9q-11 0 -18 7t-7 18q0 25 13 39.5t44 35.5q28 19 61.5 36.5t71 31.5t78 22.5t84.5 8.5
q55 0 101 -14t79 -42.5t51 -71t18 -98.5q0 -39 -14 -75t-39 -67.5t-60 -58.5t-77 -48q53 -14 105.5 -39.5t98 -60t81.5 -77t56 -90.5q10 -24 10 -50zM976 -260q0 -16 -12 -28t-30 -12q-22 0 -34 26q-30 82 -67.5 137.5t-90 89t-122.5 47.5t-166 14q-42 0 -42 40q6 32 54 34
q96 -1 168 -13.5t127.5 -40.5t98 -74.5t78.5 -115.5q6 -11 12.5 -24.5t12 -28t9.5 -28t4 -23.5z" />
    <glyph glyph-name="tibTsek" unicode="&#xf0b;" horiz-adv-x="324" 
d="M264 672l-83 -178h-39l-82 178h204z" />
    <glyph glyph-name="tibNBTsek" unicode="&#xf0c;" horiz-adv-x="324" 
d="M264 672l-83 -178h-39l-82 178h204z" />
    <glyph glyph-name="tibShey" unicode="&#xf0d;" horiz-adv-x="280" 
d="M230 672l-40 -110v-1338q-1 -11 -6.5 -17.5t-16.5 -6.5t-16.5 6.5t-6.5 16.5v689q0 18 -2 70t-6.5 119.5t-12 142.5t-18 141.5t-24 114.5t-31.5 62l40 110h140z" />
    <glyph glyph-name="tibSheyShey" unicode="&#xf0e;" horiz-adv-x="540" 
d="M510 672l-40 -110v-1338q-1 -11 -6.5 -17.5t-16.5 -6.5t-16.5 6.5t-6.5 16.5v689q0 18 -2 70t-6.5 119.5t-12 142.5t-18 141.5t-24 114.5t-31.5 62l40 110h140zM230 672l-40 -110v-1338q-1 -11 -6.5 -17.5t-16.5 -6.5t-16.5 6.5t-6.5 16.5v689q0 18 -2 70t-6.5 119.5
t-12 142.5t-18 141.5t-24 114.5t-31.5 62l40 110h140z" />
    <glyph glyph-name="tibTsekShey" unicode="&#xf0f;" horiz-adv-x="260" 
d="M220 374l-40 -110v-1040q-1 -11 -6.5 -17.5t-16.5 -6.5t-16.5 6.5t-6.5 16.5v391q0 18 -2 70t-6.5 119.5t-12 142.5t-18 141.5t-24 114.5t-31.5 62l40 110h140zM225 672l-76 -162h-34l-75 162h185z" />
    <glyph glyph-name="tibTsekTsekShey" unicode="&#xf10;" horiz-adv-x="260" 
d="M220 127l-40 -110v-793q-1 -11 -6.5 -17.5t-16.5 -6.5t-16.5 6.5t-6.5 16.5v144q0 18 -2 70t-6.5 119.5t-12 142.5t-18 141.5t-24 114.5t-31.5 62l40 110h140zM225 425l-76 -162h-34l-75 162h185zM225 672l-76 -162h-34l-75 162h185z" />
    <glyph glyph-name="tibTsekTsekTsekShey" unicode="&#xf11;" horiz-adv-x="510" 
d="M342 127l-40 -110v-793q-1 -11 -6.5 -17.5t-16.5 -6.5t-16.5 6.5t-6.5 16.5v144q0 18 -2 70t-6.5 119.5t-12 142.5t-18 141.5t-24 114.5t-31.5 62l40 110h140zM347 425l-62 -162h-48l-75 162h185zM470 672l-76 -162h-34l-75 162h185zM225 672l-76 -162h-34l-75 162h185z
" />
    <glyph glyph-name="tibElaboratePlusShey" unicode="&#xf12;" horiz-adv-x="2008" 
d="M1063 249l-40 -110v-915q-1 -11 -6.5 -17.5t-16.5 -6.5t-16.5 6.5t-6.5 16.5v266q0 18 -2 70t-6.5 119.5t-12 142.5t-18 141.5t-24 114.5t-31.5 62l40 110h140zM1118 972q0 -56 -33.5 -82.5t-86.5 -26.5q-51 0 -79.5 27t-28.5 72q0 40 17.5 60.5t52.5 31.5
q15 12 20.5 27.5t7.5 38.5q1 7 4.5 12.5t12.5 5.5q5 0 12 -4t7 -11q0 -26 6.5 -41.5t19.5 -23.5q64 -14 68 -86zM1213 411q0 -26 -7 -46.5t-19 -35t-26.5 -22t-29.5 -7.5q-31 0 -66 16.5t-82 60.5q-19 17 -42 29t-40 12q-15 0 -27 -4t-22.5 -15t-20.5 -29.5t-23 -47.5
q-4 -9 -7.5 -13.5t-10.5 -4.5q-14 0 -14 18q6 89 28.5 131t78.5 42q23 0 42 -6.5t34.5 -16.5t29 -21.5t25.5 -20.5l30.5 -25.5t23 -17t20.5 -9.5t25 -3q58 0 67 87q4 12 14 14q11 0 15 -16.5t4 -31.5v-17zM526 650v-200q-8 6 -14.5 14t-15.5 16.5t-21.5 15t-31.5 9.5
l-403 32v26l403 32q21 10 41.5 22.5t41.5 32.5zM1968 563v-26l-403 -32q-19 -3 -31.5 -9.5t-21.5 -15t-16 -16.5t-14 -14v200q21 -20 41.5 -32.5t41.5 -22.5zM1220 902q-50 -176 -224 -176q-102 2 -155 55.5t-65 140.5q0 8 8 8q2 0 12 -4q43 -76 94.5 -111t115.5 -35
q57 0 103 33t83 93q8 14 20 14q8 -4 8 -14v-4zM753 645q-2 -20 -17.5 -40.5t-53.5 -54.5q-43 31 -60 52.5t-17 40.5t22 23t51 6q28 0 51.5 -6.5t23.5 -20.5zM1394 645q-2 -20 -17.5 -40.5t-53.5 -54.5q-43 31 -60 52.5t-17 40.5t22 23t51 6q28 0 51.5 -6.5t23.5 -20.5z
M1180 645q-2 -20 -17.5 -40.5t-53.5 -54.5q-43 31 -60 52.5t-17 40.5t22 23t51 6q28 0 51.5 -6.5t23.5 -20.5zM967 645q-2 -20 -17.5 -40.5t-53.5 -54.5q-43 31 -60 52.5t-17 40.5t22 23t51 6q28 0 51.5 -6.5t23.5 -20.5zM1066 968q0 46 -66 48q-27 -3 -43.5 -13t-16.5 -38
q0 -20 16 -35.5t44 -15.5q66 0 66 54z" />
    <glyph glyph-name="tibCircle4Dots" unicode="&#xf13;" horiz-adv-x="1328" 
d="M992 202q0 -74 -22.5 -133.5t-64 -101.5t-101 -64.5t-132.5 -22.5q-74 0 -133.5 22.5t-101.5 64.5t-64.5 101.5t-22.5 133.5q0 75 22.5 135.5t64.5 103t101.5 65t133.5 22.5q73 0 132.5 -22.5t101 -65t64 -103t22.5 -135.5zM926 206q0 59 -18 106t-51 80t-80 50.5
t-105 17.5q-60 0 -108 -17.5t-82 -50.5t-52 -80t-18 -106q0 -60 18 -108t52 -81t82 -51t108 -18q58 0 105 18t80 51t51 81t18 108zM773 735q0 -46 -26.5 -74t-71.5 -28q-47 0 -74.5 28.5t-27.5 75.5q0 45 27 70.5t75 25.5q45 0 71.5 -26.5t26.5 -71.5zM1302 206
q0 -46 -26.5 -74t-71.5 -28q-47 0 -74.5 28.5t-27.5 75.5q0 45 27 70.5t75 25.5q45 0 71.5 -26.5t26.5 -71.5zM240 206q0 -46 -26.5 -74t-71.5 -28q-47 0 -74.5 28.5t-27.5 75.5q0 45 27 70.5t75 25.5q45 0 71.5 -26.5t26.5 -71.5zM773 -323q0 -46 -26.5 -74t-71.5 -28
q-47 0 -74.5 28.5t-27.5 75.5q0 45 27 70.5t75 25.5q45 0 71.5 -26.5t26.5 -71.5z" />
    <glyph glyph-name="tibCircleDashCircle" unicode="&#xf14;" horiz-adv-x="482" 
d="M442 586q0 -47 -17.5 -85t-45.5 -65t-63 -41.5t-71 -14.5q-37 0 -73.5 14.5t-65.5 41.5t-47 65t-18 85q0 48 17 86.5t45.5 66t65.5 42t76 14.5q36 0 71.5 -15t63.5 -42.5t45 -66t17 -85.5zM442 -177q0 -47 -17.5 -85t-45.5 -65t-63 -41.5t-71 -14.5q-37 0 -73.5 14.5
t-65.5 41.5t-47 65t-18 85q0 48 17 86.5t45.5 66t65.5 42t76 14.5q36 0 71.5 -15t63.5 -42.5t45 -66t17 -85.5zM386 -216q0 31 -20 59.5t-50 51t-64.5 36t-63.5 13.5q-16 0 -33 -4.5t-31.5 -14t-23.5 -24.5t-9 -36q0 -20 14.5 -47.5t41 -53t62.5 -43.5t80 -18q16 0 33 4
t31.5 13.5t23.5 25t9 38.5zM386 547q0 31 -20 59.5t-50 51t-64.5 36t-63.5 13.5q-16 0 -33 -4.5t-31.5 -14t-23.5 -24.5t-9 -36q0 -20 14.5 -47.5t41 -53t62.5 -43.5t80 -18q16 0 33 4t31.5 13.5t23.5 25t9 38.5zM442 239v-64h-402v64h402z" />
    <glyph glyph-name="tibGuillotine" unicode="&#xf15;" horiz-adv-x="962" 
d="M922 734v-1250q-335 518 -882 620v612q0 128 82 128h730q70 0 70 -110zM844 708q0 70 -36 70h-654q-36 -2 -36 -70h336q20 -2 20 -36q0 -15 -6 -23t-14 -9h-336v-258h726v258h-316q-24 2 -26 32q4 34 26 36h316zM844 -46v362h-726v-154q451 -107 726 -450v102
q-107 193 -486 372q-23 11 -23 30q0 14 11.5 20.5t25.5 6.5q17 0 34 -7l32 -13q227 -90 406 -269zM356 512q0 -31 -18 -32h-130q-24 4 -24 38q4 28 32 28h118q18 -2 22 -34zM748 516q0 -31 -18 -32h-130q-24 4 -24 38q4 28 32 28h118q18 -2 22 -34z" />
    <glyph glyph-name="tibBrickWall" unicode="&#xf16;" horiz-adv-x="1161" 
d="M1122 866v-1462q0 -11 -9.5 -18.5t-28.5 -7.5q-34 0 -34 26v138h-944q-42 0 -60 16t-18 54v156q0 32 15.5 54t46.5 22h474v156h-474q-12 0 -21 7t-9 21q0 34 22 34h968v428h-262q-36 0 -36 -50v-170q0 -63 -27 -92.5t-85 -29.5h-538q-26 0 -38 28.5t-12 73.5q0 92 42 92
h392q40 0 40 78q0 70 -40 70h-340q-58 0 -82 23t-24 75v326q0 45 29.5 67.5t84.5 22.5h512q28 0 28 -107q0 -58 -10 -83.5t-30 -25.5h-398q-16 0 -16 -44q0 -23 5 -36.5t13 -13.5h792v176q0 24 38 24q32 -4 34 -28zM624 898q0 19 -8 30.5t-20 11.5h-438q-20 0 -34 -12
t-14 -30v-302q0 -20 13.5 -32t34.5 -12h376q66 0 66 -38v-150q0 -86 -98 -86h-368q-8 0 -14 -6.5t-6 -19.5q0 -32 16 -32h482q38 0 54 19.5t16 70.5v200q0 42 40 42h328v80h-838q-22 0 -31 29.5t-9 89.5q0 54 10.5 76.5t33.5 22.5h376q14 0 23 13.5t9 34.5zM130 -220
q-24 0 -24 -86q0 -90 32 -90h912v176h-920zM1050 0h-414v-156h414v156z" />
    <glyph glyph-name="tibFeather" unicode="&#xf17;" horiz-adv-x="1115" 
d="M1078 724q-7 -85 -44.5 -189t-103.5 -239q-38 -78 -63.5 -157.5t-42.5 -164.5q-45 -136 -151 -136q-23 0 -44 2t-42 2q-242 0 -379 -158q-29 -33 -48 -33q-18 0 -30 29q-89 360 -90 448q0 19 4 32.5t11 14.5q5 0 11.5 -3t17 -13.5t26.5 -31t40 -55.5q3 37 9 72t15 79
l20 101t24 138q3 18 7.5 27.5t14.5 9.5q21 0 36.5 -26.5t15.5 -71.5q0 -34 -8.5 -82t-20.5 -101l-25 -106.5t-22 -97.5q36 58 68.5 105t61.5 83q25 97 39.5 200.5t18.5 215.5q0 26 20 26q13 -5 25.5 -30t23 -65.5t19 -95.5t14.5 -121l19 121.5t21 113.5t23.5 84t26.5 33
q17 -3 31.5 -38t14.5 -92q0 -85 -42 -218q-3 -8 -5 -14t-3 -10q1 -1 14 -1q12 0 27.5 3.5t34.5 9.5l62 172.5t50.5 129t39 80.5t28.5 28q12 -2 16 -14t4 -32q0 -26 -13.5 -82.5l-36.5 -147.5l-9.5 -39t-4.5 -21q60 54 216 336q14 23 33 23q14 0 19.5 -9.5t5.5 -23.5z
M778 190q-76 -193 -220 -196q-103 -2 -174.5 -9.5t-111.5 -18.5l-32 -12q9 -32 15 -48t13 -30q180 46 272 46q18 0 33 -2.5t30 -2.5q157 0 175 273zM698 242q-279 -62 -279 -154q0 -5 1 -8q10 0 30.5 -0.5t43 -1.5t42.5 -1.5t30 -0.5q100 10 132 166z" />
    <glyph glyph-name="tib_WireCoil" unicode="&#xf18;" horiz-adv-x="849" 
d="M805 -26q0 -59 -21 -105.5t-52.5 -82.5t-68.5 -61t-70 -41q-45 -94 -101.5 -170t-116.5 -134q-5 -62 -25 -103t-48.5 -65.5t-61.5 -34.5t-64 -10q-56 1 -105 10t-86 23t-58.5 32t-21.5 38q0 4 0.5 11t3.5 14t9.5 11.5t17.5 4.5q14 0 44 -6l63 -12.5l61.5 -12.5t40.5 -6
q26 0 47 4t36 15t23.5 30t8.5 49v13q-41 18 -84 49.5t-78.5 71t-58 84t-22.5 88.5q0 28 5.5 50t28 38t67 25t122.5 12q-1 3 -1.5 13.5t-0.5 33.5q0 48 7 84.5t25 60.5t49 36t78 12q52 0 91.5 -20.5t68 -51.5t46.5 -67t28 -67q12 11 25.5 25.5t25.5 32t19.5 37t7.5 39.5
q0 45 -17.5 77t-38 54.5t-38 39.5t-17.5 32q0 17 9.5 30t32.5 13q25 0 53.5 -16t53.5 -46.5t41.5 -76t16.5 -104.5zM264 -482q1 8 1.5 15t0.5 15q0 35 -7 73t-15 89q-81 0 -111.5 -14.5t-30.5 -39.5q0 -11 16.5 -34.5t40.5 -46.5t50.5 -40.5t46.5 -17.5q5 0 8 1zM498 -151
q0 25 -11.5 42t-28.5 27.5t-35.5 15t-32.5 4.5q-17 0 -31.5 -13.5t-14.5 -28.5q0 -35 36 -62.5t108 -57.5q5 18 7.5 40t2.5 33zM368 -455q16 16 32 37.5t28.5 42t20 37t7.5 24.5q-20 4 -35.5 11.5t-29 15t-25.5 13.5t-24 8q4 -26 8 -47.5t7.5 -43.5t6.5 -45.5t4 -52.5z" />
    <glyph glyph-name="tib_Shey" unicode="&#xf19;" horiz-adv-x="0" 
d="M-292 0l-40 -110v-613q-1 -11 -6.5 -17.5t-16.5 -6.5t-17 6.5t-6 16.5v26q0 17 -2 64t-6.5 108t-11.5 128.5t-17.5 127t-24.5 103.5t-32 57l40 110h140z" />
    <glyph glyph-name="tibSymbolO" unicode="&#xf1a;" horiz-adv-x="577" 
d="M537 206q0 -57 -17.5 -103.5t-50 -79.5t-79 -51t-103.5 -18q-56 0 -102 18t-78.5 51t-50 79.5t-17.5 103.5q0 56 17.5 101.5t50 77.5t78.5 49.5t102 17.5q57 0 103 -17.5t79 -49.5t50.5 -77.5t17.5 -101.5zM467 206q0 40 -13 72.5t-36.5 55.5t-57 35.5t-73.5 12.5
q-41 0 -73.5 -12.5t-55 -35.5t-35 -55.5t-12.5 -72.5q0 -82 47.5 -131t128.5 -49q85 0 132.5 47.5t47.5 132.5z" />
    <glyph glyph-name="tibSymbolOO" unicode="&#xf1b;" horiz-adv-x="1368" 
d="M1317 206q0 -57 -17.5 -103.5t-50 -79.5t-79 -51t-103.5 -18q-56 0 -102 18t-78.5 51t-50 79.5t-17.5 103.5q0 56 17.5 101.5t50 77.5t78.5 49.5t102 17.5q57 0 103 -17.5t79 -49.5t50.5 -77.5t17.5 -101.5zM1247 206q0 40 -13 72.5t-36.5 55.5t-57 35.5t-73.5 12.5
q-41 0 -73.5 -12.5t-55 -35.5t-35 -55.5t-12.5 -72.5q0 -82 47.5 -131t128.5 -49q85 0 132.5 47.5t47.5 132.5zM537 206q0 -57 -17.5 -103.5t-50 -79.5t-79 -51t-103.5 -18q-56 0 -102 18t-78.5 51t-50 79.5t-17.5 103.5q0 56 17.5 101.5t50 77.5t78.5 49.5t102 17.5
q57 0 103 -17.5t79 -49.5t50.5 -77.5t17.5 -101.5zM467 206q0 40 -13 72.5t-36.5 55.5t-57 35.5t-73.5 12.5q-41 0 -73.5 -12.5t-55 -35.5t-35 -55.5t-12.5 -72.5q0 -82 47.5 -131t128.5 -49q85 0 132.5 47.5t47.5 132.5z" />
    <glyph glyph-name="tibSymbolOOO" unicode="&#xf1c;" horiz-adv-x="1368" 
d="M537 -107q0 -57 -17.5 -103.5t-50 -79.5t-79 -51t-103.5 -18q-56 0 -102 18t-78.5 51t-50 79.5t-17.5 103.5q0 56 17.5 101.5t50 77.5t78.5 49.5t102 17.5q57 0 103 -17.5t79 -49.5t50.5 -77.5t17.5 -101.5zM467 -107q0 40 -13 72.5t-36.5 55.5t-57 35.5t-73.5 12.5
q-41 0 -73.5 -12.5t-55 -35.5t-35 -55.5t-12.5 -72.5q0 -82 47.5 -131t128.5 -49q85 0 132.5 47.5t47.5 132.5zM1317 -107q0 -57 -17.5 -103.5t-50 -79.5t-79 -51t-103.5 -18q-56 0 -102 18t-78.5 51t-50 79.5t-17.5 103.5q0 56 17.5 101.5t50 77.5t78.5 49.5t102 17.5
q57 0 103 -17.5t79 -49.5t50.5 -77.5t17.5 -101.5zM1247 -107q0 40 -13 72.5t-36.5 55.5t-57 35.5t-73.5 12.5q-41 0 -73.5 -12.5t-55 -35.5t-35 -55.5t-12.5 -72.5q0 -82 47.5 -131t128.5 -49q85 0 132.5 47.5t47.5 132.5zM927 576q0 -57 -17.5 -103.5t-50 -79.5t-79 -51
t-103.5 -18q-56 0 -102 18t-78.5 51t-50 79.5t-17.5 103.5q0 56 17.5 101.5t50 77.5t78.5 49.5t102 17.5q57 0 103 -17.5t79 -49.5t50.5 -77.5t17.5 -101.5zM857 576q0 40 -13 72.5t-36.5 55.5t-57 35.5t-73.5 12.5q-41 0 -73.5 -12.5t-55 -35.5t-35 -55.5t-12.5 -72.5
q0 -82 47.5 -131t128.5 -49q85 0 132.5 47.5t47.5 132.5z" />
    <glyph glyph-name="tibSymbolX" unicode="&#xf1d;" horiz-adv-x="536" 
d="M490 390l-184 -184l188 -188l-42 -44l-184 184l-184 -184l-44 44l184 188l-184 184l48 40l180 -182l180 182z" />
    <glyph glyph-name="tibSymbolXX" unicode="&#xf1e;" horiz-adv-x="1224" 
d="M1170 390l-184 -184l188 -188l-42 -44l-184 184l-184 -184l-44 44l184 188l-184 184l48 40l180 -182l180 182zM490 390l-184 -184l188 -188l-42 -44l-184 184l-184 -184l-44 44l184 188l-184 184l48 40l180 -182l180 182z" />
    <glyph glyph-name="tibSymbolOX" unicode="&#xf1f;" horiz-adv-x="1271" 
d="M537 206q0 -57 -17.5 -103.5t-50 -79.5t-79 -51t-103.5 -18q-56 0 -102 18t-78.5 51t-50 79.5t-17.5 103.5q0 56 17.5 101.5t50 77.5t78.5 49.5t102 17.5q57 0 103 -17.5t79 -49.5t50.5 -77.5t17.5 -101.5zM467 206q0 40 -13 72.5t-36.5 55.5t-57 35.5t-73.5 12.5
q-41 0 -73.5 -12.5t-55 -35.5t-35 -55.5t-12.5 -72.5q0 -82 47.5 -131t128.5 -49q85 0 132.5 47.5t47.5 132.5zM1234 390l-184 -184l188 -188l-42 -44l-184 184l-184 -184l-44 44l184 188l-184 184l48 40l180 -182l180 182z" />
    <glyph glyph-name="tibZero" unicode="&#xf20;" horiz-adv-x="715" 
d="M667 431q0 -14 -6.5 -31.5t-16.5 -36t-22 -36l-22 -31.5q-22 -30 -41 -49t-40.5 -29.5t-48.5 -14.5t-65 -4q-47 0 -95 5.5t-93 16.5q-37 9 -69.5 23t-56.5 33t-37.5 43.5t-13.5 54.5q0 48 28 99t75 102q15 17 41 42.5t55 49.5t58 41t51 17q12 0 32.5 -10t47 -26.5
t55.5 -38.5t57 -47l48.5 -46.5t40.5 -46.5t27.5 -43.5t10.5 -36.5zM576 345q0 18 -9.5 41t-26 48t-38.5 50t-47 48q-39 35 -81 58t-79 23q-24 0 -50.5 -21t-48.5 -50t-36.5 -61.5t-14.5 -54.5q0 -38 25.5 -61.5t85.5 -40.5q26 -8 56.5 -13.5t62 -9.5t62.5 -6t57 -2
q44 0 63 17.5t19 34.5z" />
    <glyph glyph-name="tibOne" unicode="&#xf21;" horiz-adv-x="655" 
d="M604 716l-46 -106q-11 -716 -546 -1094q-17 -12 -25 -12t-8 8q0 5 4.5 13t12.5 15q229 191 340.5 455t111.5 607q-78 1 -164 24q-34 -1 -54 -54t-34 -162q-7 -52 -48.5 -86t-107.5 -52q23 51 42.5 115t27.5 125q82 194 252 208q46 -7 79.5 -9.5t58.5 -2.5q20 0 46 1.5
t58 6.5z" />
    <glyph glyph-name="tibTwo" unicode="&#xf22;" horiz-adv-x="778" 
d="M712 720q-31 -55 -45.5 -95t-14.5 -67q-7 -249 -226 -376q141 -61 239 -244q15 -28 33 -71t36.5 -94t36 -107.5t31 -110t22 -101.5t8.5 -82q0 -9 -3 -15.5t-7 -6.5q-10 0 -20 24q-50 163 -109 296.5t-124.5 227.5t-137.5 145.5t-148 51.5q-71 0 -147 -43q7 37 24.5 67
t42.5 51.5t55 33t62 11.5q39 0 66 -13q140 110 146 388q-39 8 -72 12.5t-62 4.5q-131 0 -150 -91q-10 -47 -25 -91.5t-37 -88.5q-52 -46 -138 -76q61 130 84 252q9 50 58 70q27 11 58.5 30.5t67.5 47.5q67 52 143 52q17 0 34 -4t34 -8.5t34 -8t34 -3.5q50 0 117 32z" />
    <glyph glyph-name="tibThree" unicode="&#xf23;" horiz-adv-x="744" 
d="M668 716q-15 -35 -23.5 -69.5t-12.5 -72.5q-5 -48 -36 -90t-82 -82q65 -3 93 -16.5t28 -53.5q0 -14 -2.5 -28t-12.5 -34.5t-30 -50t-56 -73.5q144 -41 180 -258q15 -94 26.5 -183t20.5 -180q2 -14 3.5 -28t1.5 -28q0 -13 -3.5 -22t-12.5 -9q-16 0 -21 17t-13 55
q-30 152 -57.5 255t-64.5 166t-88.5 90.5t-129.5 27.5q-35 0 -60.5 -7.5t-54.5 -7.5q-5 0 -9.5 2t-4.5 6q0 8 3.5 12t13.5 14q86 86 205 86h19q12 46 12 79q0 67 -52 67q-35 0 -71 -15t-73 -43q-15 -12 -23 -12q-10 0 -10 10q0 11 13 28q36 50 82 82.5t106 47.5
q29 69 29 159q0 26 -1 32.5t-2 8.5q-38 -12 -71 -12q-54 0 -97 28q-14 -5 -22 -29.5t-20 -72.5q-18 -72 -76.5 -122.5t-143.5 -85.5q-7 -4 -19 -4q-10 0 -10 8q0 9 17 24q35 32 58.5 70.5t31.5 81.5q20 108 142 150q72 84 156 84q67 0 138 -50q40 43 86 48z" />
    <glyph glyph-name="tibFour" unicode="&#xf24;" horiz-adv-x="1008" 
d="M1152 -74q0 -11 -22.5 -17.5t-53.5 -10t-64 -5t-54 -1.5q-439 0 -918 392q72 127 145 229t149 187q8 9 14 11.5t14 2.5q9 0 12.5 -7.5t3.5 -18.5q0 -4 -0.5 -7t-0.5 -7q0 -220 435 -358q-4 -12 -4 -33q0 -64 77 -64q10 0 22.5 2t23.5 2q20 0 20 -17q0 -13 -17 -16
q-428 0 -654 346q-64 -70 -130 -174q280 -268 650 -328q107 -116 235 -116q38 0 91 14q4 1 7 1.5t6 0.5q10 0 13 -8z" />
    <glyph glyph-name="tibFive" unicode="&#xf25;" horiz-adv-x="792" 
d="M655 701q0 -5 -2.5 -15t-10.5 -22q-35 -57 -53.5 -114t-17.5 -117q0 -76 35 -199t114 -306q6 -178 140 -318q12 -14 12 -24q0 -11 -12 -11q-6 0 -16 7q-238 157 -364 694q-210 -143 -289 -143q-38 0 -66.5 27t-47 70t-28 97t-9.5 108q0 37 4 75t12 76q20 12 38 26.5
l32.5 26.5l24.5 20.5t15 8.5t7 -7.5t2 -17.5q0 -59 -6 -111t-6 -94q0 -31 2 -65.5t11 -63.5t28 -48t54 -19q73 0 214 78q-2 27 -3.5 52t-1.5 47q0 50 6 88t21.5 69.5t42.5 59t69 56.5q29 20 40 20q9 0 9 -11z" />
    <glyph glyph-name="tibSix" unicode="&#xf26;" horiz-adv-x="882" 
d="M402 444l146 12q52 44 184 260h156l-50 -64.5t-64 -89.5q-45 -65 -95.5 -93t-104.5 -29q127 -151 127 -253q0 -32 -16.5 -62t-48.5 -53.5t-79.5 -38t-108.5 -14.5q-195 0 -308 221q-20 40 -38.5 87.5t-32 98.5t-21.5 103.5t-8 102.5q0 56 7 111t20 105t31.5 93.5
t41.5 76.5l152 26q-30 -47 -55 -103t-42.5 -116.5t-27.5 -123.5t-10 -124q0 -38 5.5 -78.5t14.5 -79.5t21 -75t25 -66q90 -208 263 -208q26 0 45 9.5t32 24.5t19 32.5t6 34.5q0 102 -186 273z" />
    <glyph glyph-name="tibSeven" unicode="&#xf27;" horiz-adv-x="900" 
d="M860 545q0 -76 -30 -147t-84 -129.5t-130 -100t-167 -58.5q-43 -8 -78 -17.5t-63.5 -22.5t-51.5 -29.5t-42 -38.5q-7 -8 -12.5 -11.5t-8.5 -3.5q-5 0 -5 7t6 24q29 88 85.5 135t134.5 61q46 145 46 324q-36 1 -59 3.5t-38 4.5t-25.5 4t-20.5 2q-34 0 -49 -56
q-22 -82 -68 -137t-114 -83l-28 -12.5t-28 -8.5q-7 0 -7 5t19 24q68 71 82 130q9 46 25.5 70.5t40.5 42t55.5 36.5t70.5 55q18 17 37.5 25.5t45.5 8.5q44 0 97 -30q20 -11 33 -11q10 0 19 6.5t17 14t16 14t16 6.5q12 0 12 -13q0 -10 -7 -17q-36 -42 -36 -142q0 -69 -31 -134
t-97 -128q96 13 159 33.5t100.5 53t53 80t15.5 115.5q0 121 -41.5 246.5t-110.5 263.5l120 94q59 -149 92.5 -284.5t33.5 -274.5z" />
    <glyph glyph-name="tibEight" unicode="&#xf28;" horiz-adv-x="798" 
d="M598 722q0 -15 -4 -26q-23 -103 -84 -180.5t-152 -137.5q202 -48 330 -270q18 -27 29 -63.5t17 -82.5q17 -139 43.5 -258t58.5 -228q1 -5 1.5 -8t0.5 -4q0 -10 -7 -10q-11 0 -17 18q-64 191 -117.5 326t-102.5 220q-72 129 -163.5 193.5t-206.5 64.5q-80 0 -160 -28
q-11 -3 -16 -3q-8 0 -8 5q0 3 2 8.5t10 13.5q42 38 93 61.5t111 40.5q63 17 105 73t65 151q4 42 54 66q18 11 34.5 24l30 24t24.5 18.5t18 7.5q5 0 8 -5t3 -11z" />
    <glyph glyph-name="tibNine" unicode="&#xf29;" horiz-adv-x="706" 
d="M666 622q0 -44 -40 -90q-42 -42 -58 -72t-16 -53q0 -41 70 -107q-17 -20 -17 -41q0 -20 13.5 -41.5t37.5 -47.5q6 -6 8 -11.5t2 -10.5q0 -10 -10 -10q-8 0 -18 6q-108 57 -155 105.5t-47 94.5q0 49 56 116q45 52 45 87q0 18 -11.5 29t-29.5 11q-31 0 -74 -33
q-242 -209 -260 -716q-34 -108 -34 -201q0 -100 42 -161q14 -20 14 -30t-11 -10q-25 2 -49 37.5t-42.5 88t-30 113t-11.5 113.5q0 30 2.5 59t7.5 57q44 259 127 433.5t217 268.5q60 42 108 61.5t85 20.5q32 0 55.5 -14.5t23.5 -51.5z" />
    <glyph glyph-name="tibHalf" horiz-adv-x="1175" 
d="M1127 399q0 -47 -17.5 -94t-46 -91.5t-66 -84.5t-76.5 -73q-14 -13 -27 -13q-15 0 -15 17q0 4 13 20.5l32 41.5l42 57t42 67.5t32 72.5t13 72q0 27 -10 46t-26 31.5t-36 18.5t-40 6q-35 0 -87 -17.5t-106 -57.5q-170 -125 -345.5 -273l-365.5 -309q-5 2 -15 13.5
t-18 34.5q197 184 379 334t357 280l45.5 27t44.5 23t49.5 16t60.5 6q53 0 89 -14t57.5 -37.5t31 -54.5t9.5 -65z" />
    <glyph glyph-name="tibHalfOne" unicode="&#xf2a;" horiz-adv-x="1175" 
d="M814 716l-46 -106q-11 -716 -546 -1094q-17 -12 -25 -12t-8 8q0 5 4.5 13t12.5 15q229 191 340.5 455t111.5 607q-78 1 -164 24q-34 -1 -54 -54t-34 -162q-7 -52 -48.5 -86t-107.5 -52q23 51 42.5 115t27.5 125q82 194 252 208q46 -7 79.5 -9.5t58.5 -2.5q20 0 46 1.5
t58 6.5zM1127 399q0 -47 -17.5 -94t-46 -91.5t-66 -84.5t-76.5 -73q-14 -13 -27 -13q-15 0 -15 17q0 4 13 20.5l32 41.5l42 57t42 67.5t32 72.5t13 72q0 27 -10 46t-26 31.5t-36 18.5t-40 6q-35 0 -87 -17.5t-106 -57.5q-170 -125 -345.5 -273l-365.5 -309q-5 2 -15 13.5
t-18 34.5q197 184 379 334t357 280l45.5 27t44.5 23t49.5 16t60.5 6q53 0 89 -14t57.5 -37.5t31 -54.5t9.5 -65z" />
    <glyph glyph-name="tibHalfTwo" unicode="&#xf2b;" horiz-adv-x="1175" 
d="M852 720q-31 -55 -45.5 -95t-14.5 -67q-7 -249 -226 -376q141 -61 239 -244q15 -28 33 -71t36.5 -94t36 -107.5t31 -110t22 -101.5t8.5 -82q0 -9 -3 -15.5t-7 -6.5q-10 0 -20 24q-50 163 -109 296.5t-124.5 227.5t-137.5 145.5t-148 51.5q-71 0 -147 -43q7 37 24.5 67
t42.5 51.5t55 33t62 11.5q39 0 66 -13q140 110 146 388q-39 8 -72 12.5t-62 4.5q-131 0 -150 -91q-10 -47 -25 -91.5t-37 -88.5q-52 -46 -138 -76q61 130 84 252q9 50 58 70q27 11 58.5 30.5t67.5 47.5q67 52 143 52q17 0 34 -4t34 -8.5t34 -8t34 -3.5q50 0 117 32z
M1127 250q0 -47 -17.5 -94t-46 -91.5t-66 -84.5t-76.5 -73q-14 -13 -27 -13q-15 0 -15 17q0 4 13 20.5l32 41.5l42 57t42 67.5t32 72.5t13 72q0 27 -10 46t-26 31.5t-36 18.5t-40 6q-35 0 -87 -17.5t-106 -57.5q-170 -125 -345.5 -273l-365.5 -309q-5 2 -15 13.5t-18 34.5
q197 184 379 334t357 280l45.5 27t44.5 23t49.5 16t60.5 6q53 0 89 -14t57.5 -37.5t31 -54.5t9.5 -65z" />
    <glyph glyph-name="tibHalfThree" unicode="&#xf2c;" horiz-adv-x="1175" 
d="M748 716q-15 -35 -23.5 -69.5t-12.5 -72.5q-5 -48 -36 -90t-82 -82q65 -3 93 -16.5t28 -53.5q0 -14 -2.5 -28t-12.5 -34.5t-30 -50t-56 -73.5q144 -41 180 -258q15 -94 26.5 -183t20.5 -180q2 -14 3.5 -28t1.5 -28q0 -13 -3.5 -22t-12.5 -9q-16 0 -21 17t-13 55
q-30 152 -57.5 255t-64.5 166t-88.5 90.5t-129.5 27.5q-35 0 -60.5 -7.5t-54.5 -7.5q-5 0 -9.5 2t-4.5 6q0 8 3.5 12t13.5 14q86 86 205 86h19q12 46 12 79q0 67 -52 67q-35 0 -71 -15t-73 -43q-15 -12 -23 -12q-10 0 -10 10q0 11 13 28q36 50 82 82.5t106 47.5
q29 69 29 159q0 26 -1 32.5t-2 8.5q-38 -12 -71 -12q-54 0 -97 28q-14 -5 -22 -29.5t-20 -72.5q-18 -72 -76.5 -122.5t-143.5 -85.5q-7 -4 -19 -4q-10 0 -10 8q0 9 17 24q35 32 58.5 70.5t31.5 81.5q20 108 142 150q72 84 156 84q67 0 138 -50q40 43 86 48zM1147 399
q0 -47 -17.5 -94t-46 -91.5t-66 -84.5t-76.5 -73q-14 -13 -27 -13q-15 0 -15 17q0 4 13 20.5l32 41.5l42 57t42 67.5t32 72.5t13 72q0 27 -10 46t-26 31.5t-36 18.5t-40 6q-35 0 -87 -17.5t-106 -57.5q-170 -125 -345.5 -273l-365.5 -309q-5 2 -15 13.5t-18 34.5
q197 184 379 334t357 280l45.5 27t44.5 23t49.5 16t60.5 6q53 0 89 -14t57.5 -37.5t31 -54.5t9.5 -65z" />
    <glyph glyph-name="tibHalfFour" unicode="&#xf2d;" horiz-adv-x="1298" 
d="M1292 -74q0 -11 -22.5 -17.5t-53.5 -10t-64 -5t-54 -1.5q-439 0 -918 392q72 127 145 229t149 187q8 9 14 11.5t14 2.5q9 0 12.5 -7.5t3.5 -18.5q0 -4 -0.5 -7t-0.5 -7q0 -220 435 -358q-4 -12 -4 -33q0 -64 77 -64q10 0 22.5 2t23.5 2q20 0 20 -17q0 -13 -17 -16
q-428 0 -654 346q-64 -70 -130 -174q280 -268 650 -328q107 -116 235 -116q38 0 91 14q4 1 7 1.5t6 0.5q10 0 13 -8zM1127 429q0 -47 -17.5 -94t-46 -91.5t-66 -84.5t-76.5 -73q-14 -13 -27 -13q-15 0 -15 17q0 4 13 20.5l32 41.5l42 57t42 67.5t32 72.5t13 72q0 27 -10 46
t-26 31.5t-36 18.5t-40 6q-35 0 -87 -17.5t-106 -57.5q-170 -125 -345.5 -273l-365.5 -309q-5 2 -15 13.5t-18 34.5q197 184 379 334t357 280l45.5 27t44.5 23t49.5 16t60.5 6q53 0 89 -14t57.5 -37.5t31 -54.5t9.5 -65z" />
    <glyph glyph-name="tibHalfFive" unicode="&#xf2e;" horiz-adv-x="1175" 
d="M805 701q0 -5 -2.5 -15t-10.5 -22q-35 -57 -53.5 -114t-17.5 -117q0 -76 35 -199t114 -306q6 -178 140 -318q12 -14 12 -24q0 -11 -12 -11q-6 0 -16 7q-238 157 -364 694q-210 -143 -289 -143q-38 0 -66.5 27t-47 70t-28 97t-9.5 108q0 37 4 75t12 76q20 12 38 26.5
l32.5 26.5l24.5 20.5t15 8.5t7 -7.5t2 -17.5q0 -59 -6 -111t-6 -94q0 -31 2 -65.5t11 -63.5t28 -48t54 -19q73 0 214 78q-2 27 -3.5 52t-1.5 47q0 50 6 88t21.5 69.5t42.5 59t69 56.5q29 20 40 20q9 0 9 -11zM1147 380q0 -47 -17.5 -94t-46 -91.5t-66 -84.5t-76.5 -73
q-14 -13 -27 -13q-15 0 -15 17q0 4 13 20.5l32 41.5l42 57t42 67.5t32 72.5t13 72q0 27 -10 46t-26 31.5t-36 18.5t-40 6q-35 0 -87 -17.5t-106 -57.5q-170 -125 -345.5 -273l-365.5 -309q-5 2 -15 13.5t-18 34.5q197 184 379 334t357 280l45.5 27t44.5 23t49.5 16t60.5 6
q53 0 89 -14t57.5 -37.5t31 -54.5t9.5 -65z" />
    <glyph glyph-name="tibHalfSix" unicode="&#xf2f;" horiz-adv-x="1175" 
d="M532 444l146 12q52 44 184 260h156l-50 -64.5t-64 -89.5q-45 -65 -95.5 -93t-104.5 -29q127 -151 127 -253q0 -32 -16.5 -62t-48.5 -53.5t-79.5 -38t-108.5 -14.5q-195 0 -308 221q-20 40 -38.5 87.5t-32 98.5t-21.5 103.5t-8 102.5q0 56 7 111t20 105t31.5 93.5
t41.5 76.5l152 26q-30 -47 -55 -103t-42.5 -116.5t-27.5 -123.5t-10 -124q0 -38 5.5 -78.5t14.5 -79.5t21 -75t25 -66q90 -208 263 -208q26 0 45 9.5t32 24.5t19 32.5t6 34.5q0 102 -186 273zM1127 459q0 -47 -17.5 -94t-46 -91.5t-66 -84.5t-76.5 -73q-14 -13 -27 -13
q-15 0 -15 17q0 4 13 20.5l32 41.5l42 57t42 67.5t32 72.5t13 72q0 27 -10 46t-26 31.5t-36 18.5t-40 6q-35 0 -87 -17.5t-106 -57.5q-170 -125 -345.5 -273l-365.5 -309q-5 2 -15 13.5t-18 34.5q197 184 379 334t357 280l45.5 27t44.5 23t49.5 16t60.5 6q53 0 89 -14
t57.5 -37.5t31 -54.5t9.5 -65z" />
    <glyph glyph-name="tibHalfSeven" unicode="&#xf30;" horiz-adv-x="1175" 
d="M860 545q0 -76 -30 -147t-84 -129.5t-130 -100t-167 -58.5q-43 -8 -78 -17.5t-63.5 -22.5t-51.5 -29.5t-42 -38.5q-7 -8 -12.5 -11.5t-8.5 -3.5q-5 0 -5 7t6 24q29 88 85.5 135t134.5 61q46 145 46 324q-36 1 -59 3.5t-38 4.5t-25.5 4t-20.5 2q-34 0 -49 -56
q-22 -82 -68 -137t-114 -83l-28 -12.5t-28 -8.5q-7 0 -7 5t19 24q68 71 82 130q9 46 25.5 70.5t40.5 42t55.5 36.5t70.5 55q18 17 37.5 25.5t45.5 8.5q44 0 97 -30q20 -11 33 -11q10 0 19 6.5t17 14t16 14t16 6.5q12 0 12 -13q0 -10 -7 -17q-36 -42 -36 -142q0 -69 -31 -134
t-97 -128q96 13 159 33.5t100.5 53t53 80t15.5 115.5q0 121 -41.5 246.5t-110.5 263.5l120 94q59 -149 92.5 -284.5t33.5 -274.5zM1127 549q0 -47 -17.5 -94t-46 -91.5t-66 -84.5t-76.5 -73q-14 -13 -27 -13q-15 0 -15 17q0 4 13 20.5l32 41.5l42 57t42 67.5t32 72.5t13 72
q0 27 -10 46t-26 31.5t-36 18.5t-40 6q-35 0 -87 -17.5t-106 -57.5q-170 -125 -345.5 -273l-365.5 -309q-5 2 -15 13.5t-18 34.5q197 184 379 334t357 280l45.5 27t44.5 23t49.5 16t60.5 6q53 0 89 -14t57.5 -37.5t31 -54.5t9.5 -65z" />
    <glyph glyph-name="tibHalfEight" unicode="&#xf31;" horiz-adv-x="1175" 
d="M598 722q0 -15 -4 -26q-23 -103 -84 -180.5t-152 -137.5q202 -48 330 -270q18 -27 29 -63.5t17 -82.5q17 -139 43.5 -258t58.5 -228q1 -5 1.5 -8t0.5 -4q0 -10 -7 -10q-11 0 -17 18q-64 191 -117.5 326t-102.5 220q-72 129 -163.5 193.5t-206.5 64.5q-80 0 -160 -28
q-11 -3 -16 -3q-8 0 -8 5q0 3 2 8.5t10 13.5q42 38 93 61.5t111 40.5q63 17 105 73t65 151q4 42 54 66q18 11 34.5 24l30 24t24.5 18.5t18 7.5q5 0 8 -5t3 -11zM1127 429q0 -47 -17.5 -94t-46 -91.5t-66 -84.5t-76.5 -73q-14 -13 -27 -13q-15 0 -15 17q0 4 13 20.5l32 41.5
l42 57t42 67.5t32 72.5t13 72q0 27 -10 46t-26 31.5t-36 18.5t-40 6q-35 0 -87 -17.5t-106 -57.5q-170 -125 -345.5 -273l-365.5 -309q-5 2 -15 13.5t-18 34.5q197 184 379 334t357 280l45.5 27t44.5 23t49.5 16t60.5 6q53 0 89 -14t57.5 -37.5t31 -54.5t9.5 -65z" />
    <glyph glyph-name="tibHalfNine" unicode="&#xf32;" horiz-adv-x="1175" 
d="M836 622q0 -44 -40 -90q-42 -42 -58 -72t-16 -53q0 -41 70 -107q-17 -20 -17 -41q0 -20 13.5 -41.5t37.5 -47.5q6 -6 8 -11.5t2 -10.5q0 -10 -10 -10q-8 0 -18 6q-108 57 -155 105.5t-47 94.5q0 49 56 116q45 52 45 87q0 18 -11.5 29t-29.5 11q-31 0 -74 -33
q-242 -209 -260 -716q-34 -108 -34 -201q0 -100 42 -161q14 -20 14 -30t-11 -10q-25 2 -49 37.5t-42.5 88t-30 113t-11.5 113.5q0 30 2.5 59t7.5 57q44 259 127 433.5t217 268.5q60 42 108 61.5t85 20.5q32 0 55.5 -14.5t23.5 -51.5zM1127 320q0 -47 -17.5 -94t-46 -91.5
t-66 -84.5t-76.5 -73q-14 -13 -27 -13q-15 0 -15 17q0 4 13 20.5l32 41.5l42 57t42 67.5t32 72.5t13 72q0 27 -10 46t-26 31.5t-36 18.5t-40 6q-35 0 -87 -17.5t-106 -57.5q-170 -125 -345.5 -273l-365.5 -309q-5 2 -15 13.5t-18 34.5q197 184 379 334t357 280l45.5 27
t44.5 23t49.5 16t60.5 6q53 0 89 -14t57.5 -37.5t31 -54.5t9.5 -65z" />
    <glyph glyph-name="tibHalfZero" unicode="&#xf33;" horiz-adv-x="1175" 
d="M897 431q0 -14 -6.5 -31.5t-16.5 -36t-22 -36l-22 -31.5q-22 -30 -41 -49t-40.5 -29.5t-48.5 -14.5t-65 -4q-47 0 -95 5.5t-93 16.5q-37 9 -69.5 23t-56.5 33t-37.5 43.5t-13.5 54.5q0 48 28 99t75 102q15 17 41 42.5t55 49.5t58 41t51 17q12 0 32.5 -10t47 -26.5
t55.5 -38.5t57 -47l48.5 -46.5t40.5 -46.5t27.5 -43.5t10.5 -36.5zM806 345q0 18 -9.5 41t-26 48t-38.5 50t-47 48q-39 35 -81 58t-79 23q-24 0 -50.5 -21t-48.5 -50t-36.5 -61.5t-14.5 -54.5q0 -38 25.5 -61.5t85.5 -40.5q26 -8 56.5 -13.5t62 -9.5t62.5 -6t57 -2
q44 0 63 17.5t19 34.5zM1137 489q0 -47 -17.5 -94t-46 -91.5t-66 -84.5t-76.5 -73q-14 -13 -27 -13q-15 0 -15 17q0 4 13 20.5l32 41.5l42 57t42 67.5t32 72.5t13 72q0 27 -10 46t-26 31.5t-36 18.5t-40 6q-35 0 -87 -17.5t-106 -57.5q-170 -125 -345.5 -273l-365.5 -309
q-5 2 -15 13.5t-18 34.5q197 184 379 334t357 280l45.5 27t44.5 23t49.5 16t60.5 6q53 0 89 -14t57.5 -37.5t31 -54.5t9.5 -65z" />
    <glyph glyph-name="tibTsekDashDash" unicode="&#xf34;" horiz-adv-x="432" 
d="M403 18q0 -6 -1.5 -14.5t-7.5 -8.5q-10 0 -22 12q-52 55 -91 89t-75.5 53.5t-75.5 26.5t-90 7v130q144 -2 233.5 -68.5t126.5 -205.5q3 -12 3 -21zM403 -282q0 -6 -1.5 -14.5t-7.5 -8.5q-10 0 -22 12q-52 55 -91 89t-75.5 53.5t-75.5 26.5t-90 7v130q144 -2 233.5 -68.5
t126.5 -205.5q3 -12 3 -21zM323 672l-81 -157h-44l-80 157h205z" />
    <glyph glyph-name="tib_SunMoon" unicode="&#xf35;" horiz-adv-x="0" 
d="M-298 -124q0 -55 -31.5 -88t-85.5 -33q-56 0 -88 33.5t-32 89.5q0 57 31.5 89.5t88.5 32.5q54 0 85.5 -33.5t31.5 -90.5zM-111 -126q0 -9 -8 -23q-79 -131 -152.5 -191.5t-145.5 -60.5t-145 59.5t-149 188.5q-9 15 -9 24q0 11 11 11t24 -19q67 -98 133 -140t138 -42
q70 0 136.5 45t134.5 143q12 16 22 16q5 0 7.5 -3.5t2.5 -7.5zM-331 -147q0 18 -12 35.5t-29.5 30.5t-38 21t-37.5 8q-20 0 -38 -11t-18 -35q0 -11 8.5 -27.5t23.5 -31.5t36.5 -26t47.5 -11q18 0 37.5 10.5t19.5 36.5z" />
    <glyph glyph-name="tibFourDots" unicode="&#xf36;" horiz-adv-x="1243" 
d="M722 680q-11 -98 -110 -110q-98 12 -110 110q12 99 110 110q100 -10 110 -110zM1192 202q-11 -98 -110 -110q-98 12 -110 110q12 99 110 110q100 -10 110 -110zM722 -268q-11 -98 -110 -110q-98 12 -110 110q12 99 110 110q100 -10 110 -110zM258 202q-11 -98 -110 -110
q-97 12 -108 110q11 100 108 110q100 -10 110 -110z" />
    <glyph glyph-name="tib_Circle" unicode="&#xf37;" horiz-adv-x="0" 
d="M-210 -186q0 -42 -15.5 -76t-40.5 -58t-56.5 -37t-62.5 -13q-33 0 -65.5 13t-58.5 37t-42 58t-16 76q0 43 15.5 77.5t41 58.5t58 37t67.5 13q32 0 63.5 -13.5t56 -37.5t40 -58.5t15.5 -76.5zM-260 -221q0 27 -18 53t-44.5 45.5t-57.5 31.5t-56 12q-14 0 -29.5 -4
t-28.5 -12.5t-21 -21.5t-8 -32q0 -17 13 -41.5t36.5 -47.5t56 -39t71.5 -16q14 0 29.5 3.5t28 12t20.5 22t8 34.5z" />
    <glyph glyph-name="tibHighLaMark" unicode="&#xf38;" horiz-adv-x="872" 
d="M832 1205l-40 -110v-194q0 -20 -3 -40t-11 -37t-22.5 -29t-38.5 -15q-51 -6 -100 -10t-107 -8q-32 -2 -71.5 -9t-70.5 -20q4 25 12.5 42.5t22.5 30.5t33.5 23.5t45.5 21.5q9 45 9 83q0 57 -23.5 96t-63.5 65h-176q-51 -36 -74.5 -80.5t-23.5 -99.5q0 -35 13 -72.5
t37 -77.5l-104 -74q-18 41 -27.5 82t-9.5 91q0 78 45 160.5t152 180.5h314l-36 -106q30 -47 30 -111q0 -28 -5.5 -62.5t-16.5 -69.5q60 5 104 6.5t72 6t41.5 14.5t13.5 31v53q0 46 -27 80t-84 48l50 110h140z" />
    <glyph glyph-name="tib.Flag" unicode="&#xf39;" horiz-adv-x="0" 
d="M138 951v-6q0 -29 -17 -59t-48.5 -55t-75.5 -41t-99 -17q8 -11 17 -27.5t16.5 -34t12.5 -33.5t6 -26h-40q-7 20 -18.5 41.5t-25.5 41.5t-29 38.5t-29 32.5l73 89q5 -1 10 -1h10q31 0 65.5 4.5t66.5 12.5t59.5 18.5t45.5 21.5z" />
    <glyph glyph-name="tibSnail3Circles" unicode="&#xf3a;" horiz-adv-x="1900" 
d="M1122 213q0 -147 -79 -224.5t-222 -77.5q-107 0 -194 65t-147 193q-73 160 -189 269t-274 169q10 8 20 12.5t33 4.5q62 0 128.5 -31.5t131 -85.5t123 -127t105.5 -157q107 -194 272 -192q105 0 161 45.5t65 132.5q-3 93 -51 140.5t-141 47.5q-50 0 -74 -17t-24 -46
q0 -35 25.5 -54t61.5 -19q35 0 55.5 14.5t32.5 25.5q10 -6 13.5 -15t3.5 -26q0 -26 -11.5 -46.5t-29 -35t-39 -22.5t-40.5 -8q-63 0 -102.5 43.5t-43.5 119.5q12 177 184 184q238 -18 246 -282zM1861 463q0 -79 -46.5 -125.5t-127.5 -46.5q-79 0 -125.5 46.5t-46.5 125.5
t46.5 125.5t125.5 46.5q81 0 127.5 -46.5t46.5 -125.5zM1861 -44q0 -79 -46.5 -125.5t-127.5 -46.5q-79 0 -125.5 46.5t-46.5 125.5t46.5 125.5t125.5 46.5q81 0 127.5 -46.5t46.5 -125.5zM1522 202q0 -79 -46.5 -125.5t-127.5 -46.5q-79 0 -125.5 46.5t-46.5 125.5
t46.5 125.5t125.5 46.5q81 0 127.5 -46.5t46.5 -125.5zM1470 202q0 57 -32.5 89.5t-89.5 32.5q-55 0 -87.5 -32.5t-32.5 -89.5q0 -55 32.5 -88.5t87.5 -33.5q57 0 89.5 33.5t32.5 88.5zM1809 463q0 57 -32.5 89.5t-89.5 32.5q-55 0 -87.5 -32.5t-32.5 -89.5
q0 -55 32.5 -88.5t87.5 -33.5q57 0 89.5 33.5t32.5 88.5zM1809 -44q0 57 -32.5 89.5t-89.5 32.5q-55 0 -87.5 -32.5t-32.5 -89.5q0 -55 32.5 -88.5t87.5 -33.5q57 0 89.5 33.5t32.5 88.5z" />
    <glyph glyph-name="tibRevSnail3Circles" unicode="&#xf3b;" horiz-adv-x="1900" 
d="M1886 607q-157 -60 -274 -168.5t-189 -269.5q-60 -133 -149.5 -195.5t-198.5 -62.5q-139 2 -216.5 79.5t-77.5 222.5q0 133 64.5 203t181.5 79q172 -7 184 -184q-4 -76 -43.5 -119.5t-102.5 -43.5q-20 0 -41 8t-38.5 22.5t-29 35t-11.5 46.5q0 17 3.5 26t13.5 15
q6 -5 13.5 -12t18 -13t24.5 -10.5t32 -4.5q36 0 61.5 19t25.5 54q0 63 -102 63q-91 0 -138 -48.5t-50 -139.5q9 -87 65 -132.5t161 -45.5q166 0 272 192q46 84 105 157t123.5 127t131 85.5t128.5 31.5q23 0 33 -4.5t20 -12.5zM39 463q0 79 46.5 125.5t127.5 46.5
q79 0 125.5 -46.5t46.5 -125.5t-46.5 -125.5t-125.5 -46.5q-81 0 -127.5 46.5t-46.5 125.5zM39 -44q0 79 46.5 125.5t127.5 46.5q79 0 125.5 -46.5t46.5 -125.5t-46.5 -125.5t-125.5 -46.5q-81 0 -127.5 46.5t-46.5 125.5zM378 202q0 79 46.5 125.5t127.5 46.5
q79 0 125.5 -46.5t46.5 -125.5t-46.5 -125.5t-125.5 -46.5q-81 0 -127.5 46.5t-46.5 125.5zM91 463q0 -55 32.5 -88.5t89.5 -33.5q55 0 87.5 33.5t32.5 88.5q0 57 -32.5 89.5t-87.5 32.5q-57 0 -89.5 -32.5t-32.5 -89.5zM430 202q0 -55 32.5 -88.5t89.5 -33.5
q55 0 87.5 33.5t32.5 88.5q0 57 -32.5 89.5t-87.5 32.5q-57 0 -89.5 -32.5t-32.5 -89.5zM91 -44q0 -55 32.5 -88.5t89.5 -33.5q55 0 87.5 33.5t32.5 88.5q0 57 -32.5 89.5t-87.5 32.5q-57 0 -89.5 -32.5t-32.5 -89.5z" />
    <glyph glyph-name="tibAlbatrossL" unicode="&#xf3c;" horiz-adv-x="837" 
d="M1287 1167q0 -55 -16.5 -99t-45 -79.5t-66 -64.5t-80.5 -53.5t-88 -45l-88 -40.5q-87 -40 -135 -92.5t-70.5 -114t-27 -130.5t-4.5 -142q0 -50 9 -99q-90 -12 -152 -43.5t-100 -84.5t-54.5 -127.5t-16.5 -170.5q0 -29 1.5 -61t1.5 -63q0 -86 -14 -164t-46 -139
t-84.5 -100.5t-129.5 -47.5q-4 -1 -8 -1h-6q-11 0 -19 3.5t-8 14.5t13.5 19.5t52.5 22.5q33 11 62 34t50.5 66.5t34 113.5t12.5 175q0 38 -2.5 82.5t-2.5 88.5q0 79 13 153t46.5 137.5t91 114t146.5 82.5q0 100 12.5 183.5t47.5 153.5t97.5 126t163.5 101q28 12 61 23.5
t68 25.5t69.5 33.5t65.5 48.5t57 69t44 96q4 14 10 25.5t18 11.5q11 0 13.5 -14t2.5 -28z" />
    <glyph glyph-name="tibAlbatrossR" unicode="&#xf3d;" horiz-adv-x="837" 
d="M-450 1167q0 14 2.5 28t13.5 14t17 -11.5t11 -25.5q17 -56 43 -96t57.5 -69t66 -48.5t69 -33.5t68 -25.5t61.5 -23.5q100 -45 163 -101t98 -126t47.5 -153.5t12.5 -183.5q89 -32 146.5 -82.5t91 -114t46.5 -137.5t13 -153q0 -44 -2.5 -88.5t-2.5 -82.5q0 -105 12.5 -175
t34 -113.5t50.5 -66.5t62 -34q39 -14 52.5 -22.5t13.5 -19.5t-8 -14.5t-19 -3.5h-7q-3 0 -7 1q-77 8 -129.5 47.5t-84.5 100.5t-46 139t-14 164q0 31 1.5 63t1.5 61q0 96 -16.5 170.5t-54.5 127.5t-100 84.5t-152 43.5q9 49 9 99q0 73 -4.5 142t-27 130.5t-70.5 114
t-135 92.5l-88 40.5t-88 45t-80.5 53.5t-66 64.5t-45 80t-16.5 98.5z" />
    <glyph glyph-name="tibTailR" unicode="&#xf3e;" horiz-adv-x="680" 
d="M648 -497q-2 -23 -30 -23q-44 0 -78 16t-59 45t-41.5 70t-25.5 92t-14.5 147.5t-11.5 247.5q-2 51 -2 99t-6 92.5t-20.5 85.5t-45.5 79q-38 47 -98 76.5t-138 55.5q-29 10 -29 38q0 23 18.5 34t41.5 11q44 0 85.5 -10.5t77.5 -29.5t66.5 -44t52.5 -53q37 -48 56 -91.5
t28 -92t11.5 -106.5l5.5 -134q3 -66 5 -120t4.5 -100.5t6.5 -87.5t10 -82q6 -43 27 -72.5t44 -52.5t41 -44t18 -46z" />
    <glyph glyph-name="tibTailL" unicode="&#xf3f;" horiz-adv-x="680" 
d="M647 624q0 -28 -29 -38q-79 -26 -139 -55.5t-97 -76.5q-30 -39 -45 -80t-20.5 -85t-6 -91.5t-2.5 -99.5q-5 -151 -11.5 -247.5t-14.5 -147.5q-9 -51 -25.5 -92t-41.5 -70t-59.5 -45t-77.5 -16q-14 0 -22 6t-8 17q0 25 18 46t41 44t44 52.5t27 72.5q6 41 9.5 82t6 87.5
t5 100.5l5.5 120l5.5 134t11.5 106.5t28 92t56 91.5q22 28 52.5 53t66.5 44t77.5 29.5t85.5 10.5q23 0 41.5 -11t18.5 -34z" />
    <glyph glyph-name="tibKa" unicode="&#xf40;" 
d="M833 672l-40 -110v-1338q-1 -11 -5.5 -17.5t-15.5 -6.5q-22 0 -24 23v471q0 83 -2.5 172.5t-7.5 177.5t-12 170.5t-15.5 151t-18 120t-19.5 76.5h-173q5 -45 6.5 -125.5t1.5 -198.5v-198q0 -11 -5 -17.5t-15 -6.5t-17.5 6.5t-7.5 17.5v24q0 97 -8 179.5t-22 146.5
t-33 108t-42 64h-126l13 -79.5t6 -69.5q0 -53 -20.5 -87t-50 -62.5l-60.5 -59.5t-52 -78q-26 63 -26 103q0 35 14.5 68t43.5 56q25 19 44 36.5t32 38.5t19.5 47.5t6.5 65.5v21h-162l50 110h743z" />
    <glyph glyph-name="tibKha" unicode="&#xf41;" 
d="M811 672l-38 -110q6 -38 10 -78.5t6 -91.5t3 -116.5t1 -152.5v-175l-126.5 106.5t-99 73t-95 42t-115.5 13.5q-19 0 -38.5 -1.5t-40.5 -3.5q30 236 136 384h-212q-34 -16 -56.5 -63t-36 -114.5t-19 -151t-5.5 -171.5v-340q-2 -31 -25 -32q-18 2 -20 32v804l89 146h682z
M748 59q-6 202 -32 325.5t-77 177.5h-131q-106 -109 -152 -242q94 0 190.5 -64t201.5 -197z" />
    <glyph glyph-name="tibGa" unicode="&#xf42;" 
d="M833 672l-40 -110v-1338q-1 -11 -6 -17.5t-15 -6.5q-22 0 -24 23v474q0 88 -2.5 179t-7 178t-11.5 167t-15 147t-18 117t-21 77h-174q4 -33 6.5 -70t4 -82.5t2 -101.5t0.5 -127v-50q0 -29 -0.5 -61.5t-0.5 -64.5v-55l-110.5 94.5t-96 73t-99 47.5t-117.5 17
q-11 0 -18.5 -0.5l-14.5 -1t-14.5 -1.5t-17.5 -2q14 115 51 212t89 173h-123l50 110h743zM466 60q-3 79 -9 155t-16 142t-23.5 119t-29.5 86h-132q-51 -54 -91 -115.5t-64 -127.5q30 -1 71 -17t89 -48t100.5 -80t104.5 -114z" />
    <glyph glyph-name="tibGha" unicode="&#xf43;" 
d="M833 672l-40 -110v-635q0 -19 -6 -28t-15 -9q-15 0 -19.5 13t-4.5 22v185q0 102 -7 179t-18.5 132t-27.5 89.5t-34 51.5h-171q8 -42 12 -81.5t4 -90.5l-2 -247q-88 81 -188.5 129.5t-215.5 48.5q-24 0 -33 -0.5t-15 -1.5q10 61 44.5 123t77.5 120h-134l50 110h743z
M616 110l-50 -110h-192q-51 -22 -92 -53.5t-74 -70.5q92 -26 154 -94q39 51 88 82.5t118 31.5q44 0 76 -15t53 -40.5t31 -60t10 -74.5q0 -51 -17.5 -119t-43 -139t-55.5 -137.5t-54 -113.5q-6 -13 -18 -13q-19 0 -19 17q0 13 7 28.5t12 29.5l36.5 104t33.5 109t25 104.5
t10 91.5q0 60 -33 97t-99 37q-36 0 -76.5 -13.5t-64.5 -40.5q35 -62 53 -132q1 -2 2 -7t1 -7q0 -6 -4.5 -11t-11.5 -5q-9 0 -18 12q-111 180 -279 180h-11q34 126 118 222h-132l54 110h462zM390 562h-118q-49 -38 -83 -68t-51 -63q88 -15 169 -63.5t153 -133.5
q-1 133 -18.5 213t-51.5 115z" />
    <glyph glyph-name="tibNga" unicode="&#xf44;" 
d="M833 672l-50 -110h-498q-39 -28 -68.5 -64t-51.5 -77t-35.5 -85t-20.5 -88q37 8 88.5 13t124.5 5q110 0 190 -15.5t146 -56.5q50 -30 95.5 -76t93.5 -112q12 -17 24.5 -31.5t12.5 -25.5q0 -9 -3 -15t-11 -6q-10 0 -16 2t-11.5 6.5t-10.5 10.5l-12 14q-53 60 -105.5 97
t-109.5 54q-30 9 -55.5 15.5t-55.5 11t-71 6.5t-102 2q-47 0 -86 -2.5t-72.5 -7t-63 -11.5t-58.5 -16q0 168 27 278t67 174h-82l50 110h730z" />
    <glyph glyph-name="tibCa" unicode="&#xf45;" 
d="M813 672l-50 -110h-259v-25q0 -20 8.5 -33t30.5 -26.5t60 -30.5l96 -45q64 -32 102.5 -75t39.5 -114q0 -58 -26 -108t-67 -86.5t-93.5 -57.5t-104.5 -21q-62 0 -119 18t-118.5 66t-130 131.5t-152.5 214.5l70 114q9 -12 20.5 -29.5l23.5 -34.5l22 -32t16 -22
q132 22 197.5 60t65.5 109v12q0 7 -1 15h-344l50 110h663zM448 412q-86 -103 -202 -140q57 -87 107.5 -138.5t96 -78t85.5 -34.5t76 -8q24 0 51 9t50 27.5t38.5 46t15.5 64.5q0 40 -24 66.5t-75 51.5l-64.5 30.5t-59 30t-52 33t-43.5 40.5z" />
    <glyph glyph-name="tibCha" unicode="&#xf46;" 
d="M813 672l-50 -110h-271q2 -15 2 -33v-37q0 -25 -5 -58t-24 -81q10 12 26 28.5t37 31t46.5 25t55.5 10.5q108 0 155.5 -68.5t47.5 -190.5q0 -58 -15 -104t-42.5 -78.5t-66 -49.5t-86.5 -17q-66 0 -112.5 34.5t-78.5 98.5q-32 -64 -74 -98.5t-110 -34.5q-102 0 -155 64
t-53 189q0 121 55 188t157 67q61 0 98.5 -28.5t65.5 -92.5q-4 57 -8.5 93.5t-11.5 62t-17.5 43.5t-25.5 36h-263l50 110h673zM789 189q0 31 -9.5 59t-29.5 49t-51.5 33t-75.5 12q-41 0 -71.5 -12.5t-50.5 -33t-30 -47.5t-10 -56q0 -66 42 -106.5t120 -40.5q28 0 57.5 9.5
t53.5 27.5t39.5 44.5t15.5 61.5zM401 197q0 27 -11 53t-32 46.5t-52 33t-70 12.5t-68 -16t-47.5 -39.5t-27.5 -50t-9 -47.5q0 -39 13 -66t35.5 -44t51 -25t60.5 -8q35 0 64 11t49.5 31t32 48t11.5 61z" />
    <glyph glyph-name="tibJa" unicode="&#xf47;" 
d="M833 672l-50 -110h-515q-41 -26 -70.5 -56.5t-47.5 -80.5h563l-50 -110h-545q-6 -18 -10.5 -33.5t-8.5 -32.5t-6.5 -38.5t-4.5 -49.5q53 11 100 15.5t95 4.5q96 -2 169 -14.5t133.5 -41.5t113.5 -78t109 -125q12 -17 24.5 -31.5t12.5 -25.5q0 -9 -3 -15t-11 -6
q-10 0 -16 2t-11.5 6.5t-10.5 10.5l-12 14q-53 60 -105.5 95.5t-109.5 55.5q-65 23 -127 28.5t-107 5.5q-47 0 -86 -2.5t-73.5 -8t-67 -13.5t-65.5 -19v66q2 90 7 152.5t16 114t29 100t46 110.5h-98l50 110h743z" />
    <glyph glyph-name="tibNya" unicode="&#xf49;" 
d="M806 672l-52 -102q19 -37 19 -80q0 -71 -57 -140q117 -87 117 -240q0 -46 -19 -96.5t-54.5 -108.5t-86 -125.5l-112.5 -146.5l-55 -71l-55 -72.5l-62.5 -78l-75.5 -87.5q-11 -11 -19 -11q-5 0 -9.5 2.5t-4.5 9.5q0 10 9 22l125.5 170.5l104.5 143.5q51 73 88 133t61 110
t35.5 92.5t11.5 80.5q0 51 -11 92.5t-37.5 71.5t-71 46.5t-110.5 16.5q-34 0 -66 -7.5t-57 -22t-40.5 -36.5t-15.5 -51q0 -15 6.5 -31.5t22 -30t40.5 -22.5t63 -9q10 0 20.5 0.5t22.5 1.5q-10 -31 -27.5 -65.5t-42.5 -72.5h-10q-30 0 -60.5 10.5t-55.5 31t-40.5 50.5
t-15.5 68q0 47 22.5 96.5t64.5 90t100.5 66t130.5 25.5q65 0 125 -22q10 33 10 69q0 81 -72 119h-333q-61 -23 -97.5 -63t-36.5 -96q0 -51 36 -103q-29 -51 -86 -106q-21 27 -37 72t-16 96q0 45 16.5 86t51.5 79t91 74t134 71h473z" />
    <glyph glyph-name="tibTta" unicode="&#xf4a;" 
d="M833 672l-28 -110l-156 -545q-6 -20 -22 -20q-8 0 -13 6.5t-5 16.5q0 14 2 36t4 36l14 148q-18 10 -46.5 17.5t-61 11.5t-63.5 6t-53 2q-47 0 -86 -13t-66.5 -38t-43 -60.5t-15.5 -80.5t21 -110.5t66.5 -160t117 -223l172.5 -300.5q2 -3 5 -8.5t3 -8.5q0 -5 -4.5 -11
t-14.5 -6q-8 0 -12 5t-10 14l-211.5 333t-134.5 234t-71 158.5t-21 106.5q0 55 19 106t56.5 90t91.5 62.5t125 23.5q41 0 78 -8.5t68.5 -21.5t55.5 -28t40 -28l27 258h-621l50 110h743z" />
    <glyph glyph-name="tibTtha" unicode="&#xf4b;" 
d="M802 672l-33 -110h-42q13 -27 19 -57t6 -57q0 -35 -16.5 -67.5t-48.5 -64.5l45 -66t39 -64.5t33.5 -72t28.5 -88.5q-88 35 -184 35q-66 0 -137.5 -4t-143.5 -20.5t-142.5 -50.5t-133.5 -93q-14 -12 -20 -12q-6 1 -6 18v664l-26 110h762zM605 268q-26 -5 -51.5 -7.5
t-49.5 -2.5q-47 0 -98 8.5t-100 27t-94 46.5t-80 67q-5 -91 -13 -187.5t-8 -199.5v-48q65 61 127.5 100t126 60.5t128.5 29.5t136 8q24 0 37.5 -0.5t22 -1.5t14.5 -1.5t16 -1.5q-22 32 -54.5 61.5t-59.5 41.5zM663 562h-461q-23 -17 -37.5 -38.5t-21.5 -66.5
q66 -52 146 -70.5t165 -18.5q42 0 83.5 3t74 14.5t52.5 35.5t20 66q0 17 -5 37.5t-16 37.5z" />
    <glyph glyph-name="tibDda" unicode="&#xf4c;" 
d="M833 672l-50 -110h-78q30 -63 52.5 -131.5t38 -131t23.5 -113t8 -78.5q-72 19 -145 32.5t-139 13.5q-69 0 -127 -11t-106.5 -37.5t-87 -71.5t-67.5 -114q-21 -48 -36.5 -108.5t-28.5 -134t-25 -161.5l-25 -192q-2 -15 -3.5 -36.5t-5 -41t-11 -33.5t-21.5 -14
q-7 0 -10.5 7.5t-3.5 16.5q0 4 0.5 17t1 29t1.5 32t3 27q4 30 8.5 78.5l9.5 107.5t12 124t16 129t21 122.5t28 104.5q30 85 75 138t103.5 82t129.5 39.5t152 10.5q21 0 46.5 -1.5t52 -3.5t51 -5t42.5 -6q-6 23 -20.5 63.5t-37 86.5t-55 90t-74.5 74h-511l50 110h743z" />
    <glyph glyph-name="tibDdha" unicode="&#xf4d;" 
d="M820 672l-50 -110h-119q14 -21 32.5 -59.5t36.5 -86.5t33.5 -102t24.5 -106q-30 12 -64.5 20.5t-70 14.5t-69.5 8.5t-63 2.5q-151 0 -246 -62.5t-130 -171.5q-15 -47 -24 -93t-14.5 -87t-9 -77t-7.5 -63q-2 -14 -9.5 -22t-16.5 -8q-20 0 -20 30q4 153 30 275.5t81.5 209
t146 133t225.5 46.5q37 0 83.5 -7t80.5 -16q-21 46 -39.5 81t-35.5 61t-35.5 45t-39.5 34h-491l50 110h730zM704 110l-50 -110h-192q-51 -22 -92 -53.5t-74 -70.5q92 -26 154 -94q39 51 88 82.5t118 31.5q44 0 76 -15t53 -40.5t31 -60t10 -74.5q0 -51 -17.5 -119t-43 -139
t-55.5 -137.5t-54 -113.5q-6 -13 -18 -13q-19 0 -19 17q0 13 7 28.5t12 29.5l36.5 104t33.5 109t25 104.5t10 91.5q0 60 -33 97t-99 37q-36 0 -76.5 -13.5t-64.5 -40.5q35 -62 53 -132q1 -2 2 -7t1 -7q0 -6 -4.5 -11t-11.5 -5q-9 0 -18 12q-111 180 -279 180h-11
q34 126 118 222h-132l54 110h462z" />
    <glyph glyph-name="tibNna" unicode="&#xf4e;" 
d="M833 672l-50 -110h-303q-32 -22 -60 -61t-52 -99q34 17 72.5 28t86.5 11q63 0 116.5 -14.5t91.5 -44.5t59.5 -76.5t21.5 -111.5q0 -43 -17 -85t-49 -75t-79 -53.5t-107 -20.5t-106 20.5t-78.5 55t-52 78.5t-27.5 91q-46 -52 -80.5 -141.5t-62 -213.5t-50.5 -281t-46 -343
q-2 -12 -8.5 -18t-14.5 -6t-11.5 8t-3.5 20t1.5 31.5t3.5 31.5q14 111 24.5 223t22.5 218t28 203t41.5 178t62.5 143.5t90 99.5q2 23 5.5 52t8.5 58t11 54t13 40h-219l50 110h667zM344 248q6 -38 26 -71t49.5 -57.5t65.5 -38.5t74 -14q30 0 67 6t70 20t55.5 38.5t22.5 62.5
q0 40 -20 67t-51.5 43.5t-70.5 23t-77 6.5q-67 0 -118 -24t-93 -62z" />
    <glyph glyph-name="tibTa" unicode="&#xf4f;" horiz-adv-x="883" 
d="M836 672l-50 -110h-575l31 -306q8 9 29 31t54 44.5t76.5 40t95.5 17.5q245 0 245 -277q0 -32 -7.5 -67t-25 -77.5t-45 -96.5t-67.5 -124l-123 -204.5l-170 -266.5q-6 -9 -10 -14t-12 -5q-10 0 -14.5 7t-4.5 12t5 10.5t7 12.5l155.5 271t110.5 208q55 111 81 184.5
t26 122.5q0 104 -45.5 147.5t-138.5 43.5q-58 0 -117.5 -22.5t-99.5 -58.5l16 -169q0 -11 -4.5 -19.5t-15.5 -8.5q-9 0 -13.5 5t-6.5 15l-145 544h-38l50 110h746z" />
    <glyph glyph-name="tibTha" unicode="&#xf50;" 
d="M833 672l-40 -110v-694q0 -18 -6 -18q-4 0 -7.5 3l-12.5 11q-63 58 -131 95.5t-138 60t-139 31.5t-134 9q-99 0 -184 -35q7 34 24.5 76.5t38.5 83.5t43.5 76.5t39.5 56.5q-65 65 -65 147q0 35 11.5 65t29 55t37 46.5l35.5 40.5h598zM727 409q-35 -39 -77.5 -67t-89 -46.5
t-95 -27t-95.5 -8.5q-24 0 -54.5 4.5t-56.5 9.5q-13 -6 -27 -20t-26.5 -30.5t-22.5 -32t-14 -24.5l12 1.5t7.5 1t8.5 0.5h17q63 0 129 -10t134 -35.5t136 -69.5t135 -113v228q0 31 -1.5 64.5t-4 65.5t-6.5 60.5t-9 48.5zM716 459q-5 37 -20.5 61.5t-38.5 41.5h-446
q-11 -17 -16 -29t-5 -29q0 -45 20 -71.5t52.5 -40.5t74 -18t83.5 -4q85 0 157.5 18.5t138.5 70.5z" />
    <glyph glyph-name="tibDa" unicode="&#xf51;" 
d="M833 672l-50 -110h-481q-49 -38 -82 -83t-54 -88.5t-33 -81.5t-18 -61q18 3 42.5 6t51 5t52 3.5t46.5 1.5q52 0 100 -2.5t92 -13t84 -32t76 -59.5t67 -95t58 -139q15 -46 27.5 -100.5t23.5 -112t19.5 -115.5l16 -110.5t13 -96.5t10.5 -74q0 -2 1 -12t2 -22.5t2 -23.5
t1 -15q0 -9 -3.5 -16.5t-10.5 -7.5q-13 0 -21.5 14.5t-13.5 35t-8 41.5l-5 34l-34 188t-31.5 154t-31 124t-32.5 99q-35 90 -79 139.5t-95 73.5t-108 29t-117 5q-66 0 -139 -13.5t-145 -32.5q6 48 11 95.5t16 101.5t32 117t59 140h-104l50 110h743z" />
    <glyph glyph-name="tibDha" unicode="&#xf52;" 
d="M815 672l-50 -110h-473q-29 -21 -55.5 -51.5t-48.5 -62.5t-37.5 -61.5t-22.5 -47.5q46 9 91.5 14t93.5 5q95 0 170 -15.5t130.5 -51t90.5 -93t50 -141.5q7 -39 14 -85.5t13 -93.5t9.5 -93t3.5 -83q0 -32 -18 -32q-19 0 -22 32q-3 27 -9 67t-14.5 86.5l-18 96.5t-20.5 97
q-26 112 -121 159t-257 47q-138 0 -276 -50q9 40 23.5 88.5t32.5 97.5t37.5 93.5t38.5 77.5h-110l50 110h705zM556 110l-50 -110h-192q-51 -22 -92 -53.5t-74 -70.5q92 -26 154 -94q39 51 88 82.5t118 31.5q44 0 76 -15t53 -40.5t31 -60t10 -74.5q0 -51 -16 -117.5
t-40.5 -134.5t-52.5 -132.5t-52 -110.5q-4 -7 -13 -17t-15 -10q-18 0 -18 17q0 4 1 8t2 6l39 111t39.5 120.5t30.5 118t12 103.5q0 60 -33 97t-99 37q-36 0 -76.5 -13.5t-64.5 -40.5q18 -30 28.5 -56.5t21.5 -62.5q2 -4 4 -13.5t2 -11.5q0 -7 -4.5 -12.5t-11.5 -5.5
q-9 0 -18 12q-111 180 -279 180h-11q34 126 118 222h-132l54 110h462z" />
    <glyph glyph-name="tibNa" unicode="&#xf53;" 
d="M790 672l-50 -110h-219q7 -15 13 -40t11 -54t8.5 -58t5.5 -52q53 -37 90 -99.5t62.5 -143.5t41.5 -178t28 -203t22.5 -218t24.5 -223q2 -12 3.5 -31.5t1.5 -31.5t-3.5 -20t-11.5 -8q-10 0 -15.5 8t-8.5 20t-5 26.5t-3 27.5l-46 322t-48 263t-58.5 200.5t-77.5 135.5
q-8 -47 -27.5 -91t-52 -78.5t-78.5 -55t-106 -20.5t-107 20.5t-79 53.5t-49 75t-17 85q0 65 21.5 111.5t59.5 76.5t91.5 44.5t116.5 14.5q48 0 86.5 -11t72.5 -28q-24 60 -52 99t-60 61h-303l50 110h667zM512 248q-42 38 -93 62t-118 24q-38 0 -77 -6.5t-70.5 -23
t-51.5 -43.5t-20 -67q0 -38 22.5 -62.5t55.5 -38.5t70 -20t67 -6q38 0 74 14t65.5 38.5t49.5 57.5t26 71z" />
    <glyph glyph-name="tibPa" unicode="&#xf54;" horiz-adv-x="848" 
d="M808 672l-40 -110v-658q0 -24 -10 -24q-14 0 -26 12q-68 80 -140.5 139.5t-146 99.5t-146 59.5t-139.5 19.5q-26 0 -42 -0.5t-29.5 -2t-26.5 -4.5t-32 -7q1 54 12 107.5t27.5 101.5t37 88.5t41.5 68.5h-108l50 110h399l-50 -110h-170q-30 -22 -57 -51t-49 -61.5
t-38.5 -67t-24.5 -65.5q17 2 32.5 2.5t32.5 0.5q78 0 148 -21.5t137 -65t134 -110.5t139 -157v107q0 90 -8 172.5t-24 148t-39.5 110t-53.5 58.5l52 110h158z" />
    <glyph glyph-name="tibPha" unicode="&#xf55;" horiz-adv-x="848" 
d="M808 672l-40 -110v-658q0 -24 -10 -24q-14 0 -26 12q-68 80 -140.5 139.5t-146 99.5t-146 59.5t-139.5 19.5q-26 0 -42 -0.5t-29.5 -2t-26.5 -4.5t-32 -7q1 54 12 107.5t27.5 101.5t37 88.5t41.5 68.5h-108l50 110h399l-50 -110h-170q-30 -22 -57 -51t-49 -61.5
t-38.5 -67t-24.5 -65.5q17 2 32.5 2.5t32.5 0.5q103 0 195 -39q15 24 44.5 59.5t67.5 71.5t80 68t83 49q-16 22 -37 33l52 110h158zM723 -34v107q0 62 -4 120.5t-11.5 111t-19 97t-26.5 78.5q-44 -19 -82.5 -47t-71 -59.5t-58 -62t-41.5 -53.5q78 -43 154.5 -115t159.5 -177
z" />
    <glyph glyph-name="tibBa" unicode="&#xf56;" horiz-adv-x="848" 
d="M808 672l-40 -110v-658q0 -24 -10 -24q-14 0 -26 12q-68 80 -140.5 139.5t-146 99.5t-146 59.5t-139.5 19.5q-26 0 -42 -0.5t-29.5 -2t-26.5 -4.5t-32 -7q1 54 12 107.5t27.5 101.5t37 88.5t41.5 68.5h-108l50 110h718zM723 -34v107q0 90 -8 172.5t-24 148t-39.5 110
t-53.5 58.5h-329q-30 -22 -57 -51t-49 -61.5t-38.5 -67t-24.5 -65.5q17 2 32.5 2.5t32.5 0.5q78 0 148 -21.5t137 -65t134 -110.5t139 -157z" />
    <glyph glyph-name="tibBha" unicode="&#xf57;" horiz-adv-x="848" 
d="M808 672l-40 -110v-534q0 -8 -1.5 -14t-8.5 -6q-3 0 -12 8t-14 14q-80 66 -153 109t-143 67.5t-138.5 34.5t-140.5 10q-28 0 -56.5 -1.5t-58.5 -5.5q5 99 31 175.5t74 142.5h-107l50 110h718zM556 110l-50 -110h-192q-51 -22 -92 -53.5t-74 -70.5q92 -26 154 -94
q39 51 88 82.5t118 31.5q44 0 76 -15t53 -40.5t31 -60t10 -74.5q0 -51 -17.5 -119t-43 -139t-55.5 -137.5t-54 -113.5q-6 -13 -18 -13q-19 0 -19 17q0 13 7 28.5t12 29.5l36.5 104t33.5 109t25 104.5t10 91.5q0 60 -33 97t-99 37q-36 0 -76.5 -13.5t-64.5 -40.5
q35 -62 53 -132q1 -2 2 -7t1 -7q0 -6 -4.5 -11t-11.5 -5q-9 0 -18 12q-111 180 -279 180h-11q34 126 118 222h-132l54 110h462zM723 92v217q0 19 -2.5 53t-13 71.5t-32 72.5t-58.5 56h-337q-30 -11 -58 -32t-51.5 -48t-40 -58.5t-23.5 -63.5q9 0 18 0.5t17 0.5q84 0 147 -13
t114 -38l63.5 -31.5t76.5 -42.5t86.5 -60t93.5 -84z" />
    <glyph glyph-name="tibMa" unicode="&#xf58;" 
d="M833 672l-40 -110v-634q0 -7 -3 -12.5t-8 -5.5q-8 0 -35 35.5l-68 88t-94.5 114t-113.5 112.5q-4 -35 -16 -80t-37.5 -84.5t-68 -66.5t-108.5 -27q-44 0 -80.5 16t-63.5 46.5t-42 74.5t-15 101q0 52 15 95t43 74t69 47.5t93 16.5q35 0 71.5 -9t69.5 -28q-11 21 -25.5 40
t-30.5 35t-31.5 29t-27.5 22h-203l50 110h457l-50 -110h-132q21 -48 34.5 -87t21.5 -87q54 -48 97.5 -100.5t78 -101t61 -90.5t47.5 -70v134q0 97 -6 163t-19 111t-33.5 74.5t-50.5 53.5l50 110h144zM421 300q-38 27 -84 43t-91 16q-24 0 -53 -6t-54.5 -20t-43 -38.5
t-17.5 -60.5q0 -40 19 -64.5t45.5 -37.5t53.5 -17.5t43 -4.5q55 0 89.5 22t55 52.5t28.5 62.5t9 53z" />
    <glyph glyph-name="tibTsa" unicode="&#xf59;" 
d="M813 672l-50 -110h-259v-25q0 -20 8.5 -33t30.5 -26.5t60 -30.5l96 -45q64 -32 102.5 -75t39.5 -114q0 -58 -26 -108t-67 -86.5t-93.5 -57.5t-104.5 -21q-62 0 -119 18t-118.5 66t-130 131.5t-152.5 214.5l70 114q9 -12 20.5 -29.5l23.5 -34.5l22 -32t16 -22
q132 22 197.5 60t65.5 109v12q0 7 -1 15h-344l50 110h592q-17 36 -43 72t-50 62l73 89q5 -1 10 -1h10q31 0 65.5 4.5t66.5 12.5t59.5 18.5t45.5 21.5v-6q0 -29 -17 -59t-48.5 -55t-75.5 -41t-99 -17q12 -18 25.5 -48t20.5 -53h28zM448 412q-86 -103 -202 -140
q57 -87 107.5 -138.5t96 -78t85.5 -34.5t76 -8q24 0 51 9t50 27.5t38.5 46t15.5 64.5q0 40 -24 66.5t-75 51.5l-64.5 30.5t-59 30t-52 33t-43.5 40.5z" />
    <glyph glyph-name="tibTsha" unicode="&#xf5a;" 
d="M813 672l-50 -110h-271q2 -15 2 -33v-37q0 -25 -5 -58t-24 -81q10 12 26 28.5t37 31t46.5 25t55.5 10.5q108 0 155.5 -68.5t47.5 -190.5q0 -58 -15 -104t-42.5 -78.5t-66 -49.5t-86.5 -17q-66 0 -112.5 34.5t-78.5 98.5q-32 -64 -74 -98.5t-110 -34.5q-102 0 -155 64
t-53 189q0 121 55 188t157 67q61 0 98.5 -28.5t65.5 -92.5q-4 57 -8.5 93.5t-11.5 62t-17.5 43.5t-25.5 36h-263l50 110h602q-17 36 -43 72t-50 62l73 89q5 -1 10 -1h10q31 0 65.5 4.5t66.5 12.5t59.5 18.5t45.5 21.5v-6q0 -29 -17 -59t-48.5 -55t-75.5 -41t-99 -17
q12 -18 25.5 -48t20.5 -53h28zM789 189q0 31 -9.5 59t-29.5 49t-51.5 33t-75.5 12q-41 0 -71.5 -12.5t-50.5 -33t-30 -47.5t-10 -56q0 -66 42 -106.5t120 -40.5q28 0 57.5 9.5t53.5 27.5t39.5 44.5t15.5 61.5zM401 197q0 27 -11 53t-32 46.5t-52 33t-70 12.5t-68 -16
t-47.5 -39.5t-27.5 -50t-9 -47.5q0 -39 13 -66t35.5 -44t51 -25t60.5 -8q35 0 64 11t49.5 31t32 48t11.5 61z" />
    <glyph glyph-name="tibDza" unicode="&#xf5b;" 
d="M833 672l-50 -110h-515q-41 -26 -70.5 -56.5t-47.5 -80.5h563l-50 -110h-545q-6 -18 -10.5 -33.5t-8.5 -32.5t-6.5 -38.5t-4.5 -49.5q53 11 100 15.5t95 4.5q96 -2 169 -14.5t133.5 -41.5t113.5 -78t109 -125q12 -17 24.5 -31.5t12.5 -25.5q0 -9 -3 -15t-11 -6
q-10 0 -16 2t-11.5 6.5t-10.5 10.5l-12 14q-53 60 -105.5 95.5t-109.5 55.5q-65 23 -127 28.5t-107 5.5q-47 0 -86 -2.5t-73.5 -8t-67 -13.5t-65.5 -19v66q2 90 7 152.5t16 114t29 100t46 110.5h-98l50 110h672q-17 36 -43 72t-50 62l73 89q5 -1 10 -1h10q31 0 65.5 4.5
t66.5 12.5t59.5 18.5t45.5 21.5v-6q0 -29 -17 -59t-48.5 -55t-75.5 -41t-99 -17q12 -18 25.5 -48t20.5 -53h28z" />
    <glyph glyph-name="tibDzha" unicode="&#xf5c;" horiz-adv-x="929" 
d="M1012 951v-6q0 -29 -17 -59t-48.5 -55t-75.5 -41t-99 -17q16 -22 28 -51t14 -50l-50 -110h-526q-18 -25 -28.5 -47t-16.5 -40h572l-30 -102h-562q-9 -25 -15 -55.5t-9 -60.5q42 11 93 16.5t93 5.5q81 0 148 -13t128.5 -43.5t121.5 -80.5t127 -123q5 -5 12 -13.5t7 -15.5
q0 -8 -5.5 -13t-11.5 -5q-12 0 -22 9q-102 75 -178 115.5t-135 59t-106 21.5t-90 3q-31 0 -59.5 -3t-58.5 -8.5t-62 -13l-69 -16.5q0 39 3 90t11 107t22.5 114.5t37.5 111.5h-116l50 110h684q-14 42 -40 73.5l-52 60.5l73 89q5 -1 10 -1h10q31 0 65.5 4.5t66.5 12.5
t59.5 18.5t45.5 21.5zM556 110l-50 -110h-192q-51 -22 -92 -53.5t-74 -70.5q92 -26 154 -94q39 51 88 82.5t118 31.5q44 0 76 -15t53 -40.5t31 -60t10 -74.5q0 -51 -17.5 -119t-43 -139t-55.5 -137.5t-54 -113.5q-6 -13 -18 -13q-19 0 -19 17q0 13 7 28.5t12 29.5l36.5 104
t33.5 109t25 104.5t10 91.5q0 60 -33 97t-99 37q-36 0 -76.5 -13.5t-64.5 -40.5q35 -62 53 -132q1 -2 2 -7t1 -7q0 -6 -4.5 -11t-11.5 -5q-9 0 -18 12q-111 180 -279 180h-11q34 126 118 222h-132l54 110h462z" />
    <glyph glyph-name="tibWa" unicode="&#xf5d;" horiz-adv-x="920" 
d="M880 672l-40 -110v-776q0 -9 -3 -15.5t-8 -6.5q-4 0 -8.5 2t-10.5 8q-64 54 -118.5 90.5t-104.5 58.5t-99.5 31.5t-103.5 9.5q-29 0 -58.5 -2.5t-61.5 -7.5q22 91 54.5 167.5t75.5 142.5q-32 -1 -64.5 -7t-65.5 -19q12 142 143 142q7 0 14 -0.5t15 -1.5q0 66 -23.5 111
t-80.5 73h-154q-86 -56 -86 -127q0 -64 36 -119l-76 -106q-52 64 -52 147q0 100 65 178.5t183 136.5h260l-52 -110q33 -48 33 -117q0 -35 -9 -75q81 -16 161.5 -51.5t153.5 -92.5q0 153 -32 236.5t-87 103.5l44 106h160zM795 176q-72 40 -142.5 61.5t-136.5 26.5
q-54 -32 -96 -80.5t-74 -112.5q2 1 8 1.5t23 0.5q106 0 207.5 -54.5t210.5 -166.5v324z" />
    <glyph glyph-name="tibZha" unicode="&#xf5e;" 
d="M787 672l-62 -110q10 -19 17.5 -51.5t13.5 -68.5t9.5 -71.5t4.5 -59.5q22 -34 38 -85.5t27.5 -118t20 -147t16.5 -173.5q17 -208 33 -529q-2 -24 -22 -26q-17 1 -22 26q-8 146 -21.5 272.5l-25.5 236.5l-14.5 124.5t-15 108.5t-19.5 97t-27 90q-14 -29 -37 -56.5
t-52.5 -48.5t-64 -34t-71.5 -13q-106 0 -166.5 55t-60.5 155q0 43 16.5 79t46 61.5t70.5 40t89 14.5q69 0 118.5 -17t84.5 -46q-16 57 -48.5 108t-75.5 77h-257q-39 -17 -74.5 -47t-63 -70.5t-44 -90.5t-16.5 -105q0 -13 2 -30.5t9 -38.5t20.5 -46t36.5 -54
q-9 -39 -25 -69.5t-42 -62.5q-29 35 -47 68t-28 65t-14 64t-4 65q0 81 22.5 151.5t62.5 129t95.5 104.5t121.5 77h445zM699 245q-14 16 -30.5 31.5t-39 27.5t-51.5 19t-69 7q-85 0 -132 -21t-47 -64q0 -28 19 -47t46.5 -30t59 -16t56.5 -5q45 0 77.5 9t55 23t35.5 31.5
t20 34.5z" />
    <glyph glyph-name="tibZa" unicode="&#xf5f;" horiz-adv-x="800" 
d="M760 672l-40 -110v-659q0 -8 -3.5 -15.5t-10.5 -7.5q-3 0 -7 1t-11 6q-59 44 -114.5 78t-111.5 57t-114 35t-121 12q-113 0 -203 -43q13 49 27 80t32 48.5t41 24t55 6.5q57 0 114 -14.5t117.5 -43t125.5 -71.5t139 -100v122q0 80 -4 136.5t-9 91.5h-610l50 110h548
q-5 37 -17 79t-31 67h-562l50 110h670z" />
    <glyph glyph-name="tibAchung" unicode="&#xf60;" 
d="M757 672l-62 -110q34 -67 34 -141q0 -29 -5 -55t-15.5 -51t-27 -50.5t-38.5 -55.5q75 -55 125.5 -143.5t77.5 -220.5q1 -3 2 -9t1 -8q0 -9 -3.5 -15.5t-11.5 -6.5q-17 0 -21 19q-58 163 -143 237t-203 74q-81 0 -168 -33q17 146 172 162q77 0 134 -28q10 21 17 37.5
t11.5 30.5t6.5 28t2 31q0 115 -117 198h-232q-29 -15 -56.5 -37.5t-48.5 -53t-34 -69t-13 -86.5q0 -91 49 -170q-25 -71 -90 -130q-60 121 -60 248q0 74 18.5 135t53.5 111t85.5 90t115.5 72h444z" />
    <glyph glyph-name="tibYa" unicode="&#xf61;" horiz-adv-x="900" 
d="M860 672l-40 -110v-656q0 -11 -1.5 -18.5t-6.5 -7.5t-10 3t-12 11l-83.5 96.5t-85 86.5t-84 67.5t-79.5 41.5q-34 -49 -75.5 -73.5t-101.5 -24.5q-62 0 -106.5 17.5t-73.5 48t-43 72.5t-14 91q0 60 20.5 119.5t65.5 125.5h-90l50 110h172q-126 -180 -148 -298
q0 -35 9.5 -65t30 -52.5t51 -35.5t72.5 -13q89 0 135 49.5t46 144.5q0 54 -26.5 93.5t-75.5 66.5l57 110h110l-57 -110q54 -83 54 -181q0 -48 -10 -89q36 -24 71.5 -60t69.5 -77.5t65.5 -86l58.5 -84.5v176q0 81 -6 150t-18.5 121.5t-31 86t-43.5 44.5l46 110h138z" />
    <glyph glyph-name="tibRa" unicode="&#xf62;" horiz-adv-x="848" 
d="M780 672l-50 -110h-267q2 -16 3.5 -31t1.5 -29q0 -20 -2 -42t-6 -44t-9.5 -41.5t-11.5 -34.5q43 -11 95.5 -40t107.5 -82.5t107.5 -134.5t94.5 -195q4 -8 4 -19q0 -19 -15 -19q-9 0 -18 17q-60 114 -123.5 186.5t-128 114t-129.5 57t-129 15.5q-91 0 -161 -19.5
t-124 -70.5q7 34 27.5 70.5t55.5 66.5t84 49t113 19q21 0 41 -1t45 -4q3 11 5 26.5t2 23.5q0 91 -72 162h-281l50 110h690z" />
    <glyph glyph-name="tibLa" unicode="&#xf63;" 
d="M833 672l-40 -110v-552q-3 -24 -17 -24q-6 0 -11.5 2t-13.5 10q-63 64 -114.5 108.5t-97 72.5t-88 40.5t-87.5 12.5q-70 0 -131 -26q0 120 126 134q37 0 78 -12q5 25 8 46t3 39q0 105 -81 149h-176q-51 -36 -74.5 -80.5t-23.5 -99.5q0 -35 13.5 -72t36.5 -76l-106 -76
q-34 77 -34 179q0 77 45.5 158.5t150.5 176.5h314l-36 -106q16 -27 23 -52t7 -50q0 -52 -34 -148q35 -17 68 -41t66 -56t67.5 -71.5l73.5 -87.5v115q0 71 -5 135t-16.5 115.5t-31 87t-48.5 49.5l48 110h138z" />
    <glyph glyph-name="tibSha" unicode="&#xf64;" 
d="M386 -104q3 -12 3 -20q0 -18 -15 -18q-5 0 -11 3t-11 11q-28 43 -56.5 73.5t-61 49.5t-69.5 27.5t-81 8.5q-61 0 -120 -13q11 54 57.5 89t117.5 35q41 0 81 -16q6 20 8.5 41.5t2.5 43.5q0 59 -11 114.5t-11 107.5q0 100 61 162.5t167 76.5h396l-40 -110v-1338
q-2 -24 -22 -24q-12 0 -17.5 8t-5.5 20v515q0 209 -9 367t-12 266q-37 -86 -101.5 -132t-140.5 -46q-70 0 -119.5 15t-82.5 42q-1 -42 -6 -83t-12 -71q28 -19 50.5 -44t38 -52.5t24 -55.5t8.5 -53zM717 434q-15 52 -41.5 82.5t-64.5 45.5h-178q-75 -7 -122.5 -41.5
t-47.5 -88.5q0 -69 56 -96.5t162 -27.5q64 0 122.5 27.5t113.5 98.5z" />
    <glyph glyph-name="tibSsa" unicode="&#xf65;" horiz-adv-x="860" 
d="M538 -104q0 25 8.5 53t24 55.5t38 52.5t50.5 44q-7 30 -12 71t-6 83q-33 -27 -82.5 -42t-119.5 -15q-76 0 -140.5 46t-101.5 132q-3 -108 -12 -266t-9 -367v-515q0 -12 -5 -20t-18 -8q-21 0 -22 24v1338l-40 110h396q106 -14 167 -76.5t61 -162.5q0 -52 -11 -107.5
t-11 -114.5q0 -22 2.5 -43.5t8.5 -41.5q40 16 81 16q72 0 118 -35t57 -89q-59 13 -120 13q-44 0 -81 -8.5t-69.5 -27.5t-61.5 -49.5t-56 -73.5q-5 -8 -11 -11t-11 -3q-15 0 -15 18q0 8 3 20zM207 434q55 -71 113.5 -98.5t122.5 -27.5q106 0 162 27.5t56 96.5
q0 54 -47.5 88.5t-122.5 41.5h-178q-38 -15 -64.5 -45.5t-41.5 -82.5z" />
    <glyph glyph-name="tibSa" unicode="&#xf66;" horiz-adv-x="848" 
d="M808 672l-40 -110v-657q0 -10 -2.5 -17t-8.5 -7q-4 0 -8 2t-9 10q-146 235 -264.5 389.5t-229.5 233.5q-51 -40 -88 -91t-60 -103q223 -36 335 -274q5 -8 5 -17q0 -18 -16 -18q-7 0 -14 7q-160 169 -353 169q-17 0 -24 -1t-11 -1q7 54 21 106.5t33.5 101.5t43.5 91.5
t51 75.5h-129l50 110h466l-50 -110h-114q91 -103 173 -246.5t158 -318.5v136q0 117 -8.5 197t-23.5 130.5t-34.5 74t-41.5 27.5l50 110h143z" />
    <glyph glyph-name="tibHa" unicode="&#xf67;" horiz-adv-x="848" 
d="M750 672l-50 -110h-340q-168 -120 -234 -270q115 -11 192 -94q25 53 51.5 90t55.5 59.5t62 32.5t71 10q50 0 95 -19t78.5 -54.5t53.5 -86.5t20 -115q0 -59 -26.5 -135t-78.5 -173.5t-128 -218l-176 -268.5q-8 -11 -18 -11q-7 0 -12 3.5t-5 10.5t2.5 13.5t5.5 11.5
l138.5 244t104.5 207t66 169t23 130q0 36 -11.5 68.5t-32.5 57t-50 39t-64 14.5q-60 0 -105.5 -26t-89.5 -89q28 -38 48.5 -84t43.5 -103q2 -3 3.5 -8.5t1.5 -8.5q0 -19 -18 -19q-11 0 -19 11q-42 60 -76.5 102t-70.5 69t-77.5 39.5t-96.5 12.5q-27 0 -55 -3q47 212 176 392
h-118l50 110h610z" />
    <glyph glyph-name="tibAa" unicode="&#xf68;" horiz-adv-x="936" 
d="M896 672l-40 -110v-654q0 -12 -3.5 -20t-9.5 -8q-12 0 -19 16q-57 113 -108 202.5t-100.5 156t-99 111t-102.5 68.5q-32 -26 -60.5 -53.5t-53.5 -56.5q88 -19 134 -59t46 -103q0 -45 -16.5 -81.5t-45.5 -63t-70.5 -40.5t-90.5 -14q-114 0 -165.5 64t-51.5 185
q0 47 15 95.5t37 94t47.5 86.5l46.5 74h-94l50 110h172l-88.5 -137t-69.5 -118.5t-45.5 -105.5t-16.5 -98q0 -42 11 -69t31 -43t48.5 -22t64.5 -6q29 0 52.5 8t40 22t25.5 32t9 39q0 39 -33.5 69.5t-112.5 52.5q45 72 96.5 138.5t111.5 127.5h-98l50 110h275l-43 -110h-44
q-33 -20 -66 -50q96 -84 169 -202t130 -285v40q0 214 -23 337.5t-66 159.5l41 110h133z" />
    <glyph glyph-name="tibKssa" unicode="&#xf69;" 
d="M909 -401q-31 7 -58.5 14t-56.5 7t-59.5 -3t-61.5 -15t-62 -36t-61 -66q-11 -16 -22 -16q-15 0 -15 18q0 57 27 103.5t68 76.5q-3 14 -6 31t-5 35q-40 -32 -94.5 -46t-114.5 -14q-38 0 -77.5 15t-73 40t-58.5 56t-33 64l-7.5 -82.5t-6.5 -85t-5 -114t-2 -171.5v-182
q0 -12 -5.5 -20t-17.5 -8q-21 0 -22 24v774l-40 110h396q106 0 167 -53t61 -150q0 -30 -5.5 -54.5t-16.5 -45.5v-13q0 -22 2.5 -43.5t8.5 -41.5q40 16 81 16q72 0 118 -35t57 -89zM833 672l-40 -110v-784q0 -10 -5 -15t-12 -5t-17 5t-11 15l-18 315.5t-17 241t-20.5 158.5
t-29.5 69h-165q9 -86 9 -178v-26l-1 -112q0 -20 -16 -24q-17 0 -22 20q-9 133 -32.5 214t-61.5 106h-148q14 -47 14 -78q0 -43 -15 -80.5t-50 -65.5q-21 -17 -37.5 -29t-29 -22.5t-23 -22t-19.5 -26.5q-26 47 -26 84q0 32 22 60.5t58 51.5q48 31 62 64.5t14 63.5h-156
l50 110h743zM156 -79q55 -71 113.5 -97t122.5 -26q106 0 162 29.5t56 77.5q0 23 -12.5 39.5t-35 27t-54 17t-68.5 9.5h-222q-27 -13 -40 -33.5t-22 -43.5z" />
    <glyph glyph-name="tibRaGoFixed" unicode="&#xf6a;" 
d="M826 672l-49 -110h-319q5 -18 7.5 -42.5t2.5 -47.5t-2.5 -47.5t-10.5 -56.5q69 -14 152 -65.5t164 -148.5q27 -30 47.5 -60.5t34.5 -56t21.5 -44.5t7.5 -26q0 -9 -4 -16t-11 -7q-5 0 -8.5 3t-11.5 15q-44 67 -97 123t-119 98t-141 63t-162 21q-43 0 -80 -6.5t-72.5 -19
t-71 -32t-74.5 -45.5q10 46 36 85.5t65.5 68.5t91 45.5t111.5 16.5q22 0 40.5 -1t38.5 -5q0 51 -14.5 98.5t-51.5 89.5h-291l49 110h721z" />
    <glyph glyph-name="tib_Achung" unicode="&#xf71;" horiz-adv-x="0" 
d="M-38 0l-43 -88q7 -12 10 -22t3 -24q0 -13 -2 -23t-7.5 -20t-13.5 -21.5t-20 -26.5q16 -12 32.5 -31t30 -39t22 -37t8.5 -25q0 -7 -2 -11.5t-12 -4.5q-9 0 -12.5 4.5l-7.5 9.5q-20 28 -41 49t-46.5 35.5t-57 22t-71.5 9.5q-8 0 -17.5 -1t-20.5 -2q17 39 37 54.5t48 15.5
q15 0 35.5 -7t41.5 -19q11 18 15 29t4 26q0 18 -7 31t-23 26h-165q-16 -3 -27.5 -11.5t-19 -20t-11 -24t-3.5 -24.5q0 -8 1 -12.5t2.5 -9t3 -11t3.5 -18.5q-21 -40 -76 -74q-6 17 -11.5 37t-5.5 44q0 69 33 123.5t114 90.5h279z" />
    <glyph glyph-name="tib.Gigu" unicode="&#xf72;" horiz-adv-x="0" 
d="M-623 961q-4 -32 -13 -59.5t-22.5 -47.5t-32 -31.5t-42.5 -11.5q-63 0 -97.5 47t-34.5 135q0 91 44 139t147 48q48 0 106 -22.5t128.5 -73t154.5 -131t186 -197.5q3 -3 8 -8.5t9.5 -11.5t8 -12t3.5 -10q0 -8 -5 -13.5t-11 -5.5q-7 0 -14.5 4t-13.5 9.5t-10.5 10.5t-5.5 7
q-171 178 -306.5 261t-237.5 83q-43 0 -71 -6.5t-44.5 -17.5t-23 -24.5t-6.5 -28.5q0 -35 24 -54.5t69 -19.5q35 0 60.5 11t42.5 31z" />
    <glyph glyph-name="tib_Achung.Gigu" unicode="&#xf73;" horiz-adv-x="0" 
d="M-623 961q-4 -32 -13 -59.5t-22.5 -47.5t-32 -31.5t-42.5 -11.5q-63 0 -97.5 47t-34.5 135q0 91 44 139t147 48q48 0 106 -22.5t128.5 -73t154.5 -131t186 -197.5q3 -3 8 -8.5t9.5 -11.5t8 -12t3.5 -10q0 -8 -5 -13.5t-11 -5.5q-7 0 -14.5 4t-13.5 9.5t-10.5 10.5t-5.5 7
q-171 178 -306.5 261t-237.5 83q-43 0 -71 -6.5t-44.5 -17.5t-23 -24.5t-6.5 -28.5q0 -35 24 -54.5t69 -19.5q35 0 60.5 11t42.5 31zM-38 0l-43 -88q7 -12 10 -22t3 -24q0 -13 -2 -23t-7.5 -20t-13.5 -21.5t-20 -26.5q16 -12 32.5 -31t30 -39t22 -37t8.5 -25q0 -7 -2 -11.5
t-12 -4.5q-9 0 -12.5 4.5l-7.5 9.5q-20 28 -41 49t-46.5 35.5t-57 22t-71.5 9.5q-8 0 -17.5 -1t-20.5 -2q17 39 37 54.5t48 15.5q15 0 35.5 -7t41.5 -19q11 18 15 29t4 26q0 18 -7 31t-23 26h-165q-16 -3 -27.5 -11.5t-19 -20t-11 -24t-3.5 -24.5q0 -8 1 -12.5t2.5 -9t3 -11
t3.5 -18.5q-21 -40 -76 -74q-6 17 -11.5 37t-5.5 44q0 69 33 123.5t114 90.5h279z" />
    <glyph glyph-name="tib_Shapkyu" unicode="&#xf74;" horiz-adv-x="0" 
d="M-40 -210q0 -48 -16 -87t-43.5 -66.5t-65.5 -42.5t-83 -15q-46 0 -84 5t-73 18.5t-69.5 36t-73.5 57t-85 82.5l-103 112l-73.5 84.5l-49.5 60l-39 49.5l-43 53q-4 5 -7 10.5t-3 12.5q0 18 19 18q13 0 30 -15.5t44 -47.5l66.5 -80.5l97.5 -114.5q33 -38 74.5 -78.5
t93.5 -74t115.5 -55.5t140.5 -22q41 0 76 4.5t60 15t39 26.5t14 39q0 38 -30 61.5t-76 23.5q-73 0 -102 -35q0 5 -0.5 9t-0.5 9q0 61 24.5 94t78.5 33q66 0 106.5 -46t40.5 -134z" />
    <glyph glyph-name="tib_Achung_Shapkyu" unicode="&#xf75;" horiz-adv-x="0" 
d="M-40 -110l-52 -98q8 -16 12 -28t4 -29q0 -33 -11 -57t-28 -44q20 -23 36 -53.5t22 -55.5q30 -28 43.5 -69.5t13.5 -79.5q0 -48 -16 -87t-43.5 -66.5t-65.5 -42.5t-83 -15q-55 0 -106.5 20.5t-103 61.5t-106 102.5t-115.5 144.5l-71.5 94l-58.5 72l-50.5 60l-48.5 58
q-4 5 -7 10.5t-3 12.5q0 8 5 13t13 5q7 0 15 -5.5t15 -13.5q22 -26 42.5 -47.5l45 -49.5l58 -68.5t81.5 -104.5q94 -127 191.5 -190.5t204.5 -63.5q33 0 63 4.5t53 15t36.5 26.5t13.5 39q0 38 -30 61.5t-76 23.5q-73 0 -102 -35q-1 5 -1 10v10q0 24 5 47t17 40.5t31.5 28.5
t49.5 11q-27 29 -63 45.5t-78 16.5q-12 0 -24.5 -0.5t-26.5 -2.5q20 49 42.5 65.5t57.5 16.5q20 0 39.5 -9t43.5 -26q6 15 9.5 26t3.5 31q0 19 -10.5 34t-28.5 33h-147q-39 -7 -58.5 -32.5t-19.5 -57.5q0 -11 0.5 -15t2 -7.5l4 -9.5t5.5 -20q-13 -28 -36.5 -52t-57.5 -46
q-8 22 -14 48.5t-6 57.5q0 18 10 47t32.5 62t57 66.5t84.5 60.5h285z" />
    <glyph glyph-name="tib_Rata.RevGigu" unicode="&#xf76;" horiz-adv-x="0" 
d="M-80 0v-482q0 -28 -10 -28q-12 0 -29.5 9.5t-45.5 26.5q-16 10 -48 28t-75 39t-94 43t-106.5 40.5t-112 30t-109.5 11.5q-26 0 -62.5 -6.5t-75.5 -38.5q6 42 16.5 74.5t28.5 55t45 34t66 11.5q55 0 120 -21t137.5 -58.5t150.5 -89.5t159 -115v436h45zM-40 993
q0 -88 -34.5 -135t-97.5 -47q-24 0 -42.5 11.5t-32 31.5t-22.5 47.5t-13 59.5q17 -20 42.5 -31t59.5 -11q45 0 69.5 19.5t24.5 54.5q0 15 -6.5 28.5t-23 24.5t-44.5 17.5t-71 6.5q-201 0 -541 -342q-2 -2 -6 -7t-10.5 -11t-15 -10.5t-17.5 -4.5q-6 0 -11 5.5t-5 13.5t9 20
t15 19q102 117 187 198t156.5 132t130.5 74t108 23q103 0 147 -48t44 -139z" />
    <glyph glyph-name="tib_Rata_Achung.RevGigu" unicode="&#xf77;" horiz-adv-x="0" 
d="M-80 0v-366h67l-52 -98q16 -31 16 -66q0 -17 -2.5 -30t-9 -26.5t-16.5 -28.5t-25 -35q21 -15 40.5 -38.5t35.5 -48.5t25.5 -46t9.5 -30q0 -11 -2 -16.5t-15 -5.5q-12 0 -15.5 5.5t-8.5 14.5q-24 37 -50 63.5t-57.5 43.5t-70.5 25.5t-88 8.5q-11 0 -20.5 -1t-20.5 -2
q20 51 44 70.5t59 19.5q20 0 44.5 -8t50.5 -25q12 25 18 39t6 34q0 25 -10 43t-28 36h-202q-39 -7 -56 -32.5t-17 -54.5q0 -21 3 -40.5t9 -48.5q-13 -28 -36.5 -52t-57.5 -46q-8 22 -13 48.5t-7 57.5q0 91 40 156.5t139 113.5h175l-82 47t-118 57t-141 48t-151 20
q-26 0 -62.5 -6.5t-75.5 -38.5q6 42 16.5 74.5t28.5 55t45 34t66 11.5q55 0 113.5 -19t123 -54t136.5 -85.5t153 -113.5v336h46zM-40 993q0 -88 -34.5 -135t-97.5 -47q-24 0 -42.5 11.5t-32 31.5t-22.5 47.5t-13 59.5q17 -20 42.5 -31t59.5 -11q45 0 69.5 19.5t24.5 54.5
q0 15 -6.5 28.5t-23 24.5t-44.5 17.5t-71 6.5q-201 0 -541 -342q-2 -2 -6 -7t-10.5 -11t-15 -10.5t-17.5 -4.5q-6 0 -11 5.5t-5 13.5t9 20t15 19q102 117 187 198t156.5 132t130.5 74t108 23q103 0 147 -48t44 -139z" />
    <glyph glyph-name="tib_Lata.RevGigu" unicode="&#xf78;" horiz-adv-x="0" 
d="M-40 993q0 -88 -34.5 -135t-97.5 -47q-24 0 -42.5 11.5t-32 31.5t-22.5 47.5t-13 59.5q17 -20 42.5 -31t59.5 -11q45 0 69.5 19.5t24.5 54.5q0 15 -6.5 28.5t-23 24.5t-44.5 17.5t-71 6.5q-201 0 -541 -342q-2 -2 -6 -7t-10.5 -11t-15 -10.5t-17.5 -4.5q-6 0 -11 5.5
t-5 13.5t9 20t15 19q102 117 187 198t156.5 132t130.5 74t108 23q103 0 147 -48t44 -139zM-40 0l-40 -110v-436q0 -10 -3.5 -20t-16.5 -10t-19 7t-13 14q-55 53 -95.5 86.5t-76 53t-71 26.5t-80.5 7q-66 0 -129 -26q0 30 9.5 55.5t27.5 43.5t43 28.5t56 10.5q23 0 36.5 -3.5
t27.5 -8.5q10 24 10 57q0 71 -72 115h-174q-51 -36 -74.5 -80.5t-23.5 -99.5q0 -18 5 -35t12.5 -33t16 -29.5t14.5 -24.5l-99 -73q-14 31 -26.5 70t-12.5 97q0 69 50 149.5t150 168.5h308l-44 -106q28 -40 28 -91q0 -23 -6 -49.5t-18 -52.5q38 -20 70.5 -47t59.5 -55.5
t48 -56.5l36 -49q-6 190 -30.5 284.5t-73.5 112.5l50 110h140z" />
    <glyph glyph-name="tib_Lata_Achung.RevGigu" unicode="&#xf79;" horiz-adv-x="0" 
d="M-40 0l-40 -110v-366h52l-52 -98q8 -16 12 -28t4 -29q0 -33 -11 -57t-28 -44q9 -6 17.5 -17.5t16 -24.5t12 -24.5t4.5 -16.5q0 -6 -3 -13t-10 -7q-11 0 -15.5 4t-11.5 12q-31 35 -80.5 58.5t-109.5 23.5q-17 0 -27.5 -2.5t-24.5 -3.5q12 34 36 55t59 21q20 0 46 -9
t50 -26q6 15 9.5 26t3.5 31q0 19 -10.5 34t-28.5 33h-167q-39 -7 -58.5 -32.5t-19.5 -57.5q0 -11 0.5 -15t2 -7.5l4 -9.5t5.5 -20q-13 -28 -36.5 -52t-57.5 -46q-8 22 -14 48.5t-6 57.5q0 18 10 47t32.5 62t57 66.5t84.5 60.5h135q-38 27 -69 45t-60 29t-60 15.5t-68 4.5
q-66 0 -129 -26q0 30 9.5 55.5t27.5 43.5t43 28.5t56 10.5q23 0 36.5 -3.5t27.5 -8.5q10 24 10 57q0 71 -72 115h-174q-51 -36 -74.5 -80.5t-23.5 -99.5q0 -18 5 -35t12.5 -33t16 -29.5t14.5 -24.5l-99 -73q-14 31 -26.5 70t-12.5 97q0 69 50 149.5t150 168.5h308l-44 -106
q28 -40 28 -91q0 -23 -6 -49.5t-18 -52.5q32 -16 64 -40t60.5 -49t51.5 -48.5t37 -39.5h1q-3 94 -10.5 160t-20 108.5t-31 65.5t-42.5 32l50 110h140zM-40 993q0 -88 -34.5 -135t-97.5 -47q-24 0 -42.5 11.5t-32 31.5t-22.5 47.5t-13 59.5q17 -20 42.5 -31t59.5 -11
q45 0 69.5 19.5t24.5 54.5q0 15 -6.5 28.5t-23 24.5t-44.5 17.5t-71 6.5q-201 0 -541 -342q-2 -2 -6 -7t-10.5 -11t-15 -10.5t-17.5 -4.5q-6 0 -11 5.5t-5 13.5t9 20t15 19q102 117 187 198t156.5 132t130.5 74t108 23q103 0 147 -48t44 -139z" />
    <glyph glyph-name="tib.Drengbo" unicode="&#xf7a;" horiz-adv-x="0" 
d="M-70 721q0 -8 -5 -17t-11 -9q-10 0 -20 12t-23 25q-87 84 -166 143.5t-155.5 98t-153.5 56.5t-158 18q-23 0 -43.5 -2t-40.5 -6q29 140 148 140q126 0 272.5 -105.5t324.5 -311.5q3 -3 8 -8.5l10.5 -12t9 -12.5t3.5 -9z" />
    <glyph glyph-name="tib.DrengboDrengbo" unicode="&#xf7b;" horiz-adv-x="0" 
d="M-40 712q0 -17 -13 -17q-11 0 -16.5 3.5t-11.5 8.5q-72 45 -163 88.5t-186 78t-185 55.5t-159 21q-11 0 -22.5 -1t-17.5 -2q7 23 14 42.5t20 33.5t34 22t56 8q43 0 109 -24t139 -60.5t145.5 -78.5l129.5 -78q-49 53 -106 103.5t-121.5 90t-135 64t-145.5 25.5
q15 22 27 38t27 26.5t35.5 15.5t53.5 5q34 0 76.5 -23.5t88 -61t91.5 -85t87.5 -95.5l76 -91.5l56.5 -73.5q6 -7 11 -14.5t5 -23.5z" />
    <glyph glyph-name="tib.Naro" unicode="&#xf7c;" horiz-adv-x="0" 
d="M113 1117q-6 -69 -31 -114.5t-68 -74t-103.5 -43t-136.5 -21.5q-45 -5 -81 -20t-61.5 -37t-39.5 -49.5t-16 -56.5h-31q-66 97 -157 144.5t-209 49.5q25 55 58.5 80t73.5 25q27 0 60 -18t66 -47t63.5 -66.5t53.5 -77.5q12 38 34 69.5t49.5 55t58 38.5t59.5 20
q82 13 135 23.5t88.5 25t58 36.5t43.5 59q4 7 8.5 10.5t12.5 3.5q6 0 9 -4.5t3 -10.5z" />
    <glyph glyph-name="tib.NaroNaro" unicode="&#xf7d;" horiz-adv-x="0" 
d="M-11 1007q0 -14 -3.5 -27.5l-6.5 -24.5q-14 -47 -42.5 -72.5t-67.5 -37.5t-87.5 -15.5l-102.5 -7.5q-69 -5 -111.5 -41t-46.5 -86h-26q-108 160 -308 165q21 46 49 77t62 31q23 0 50.5 -15.5t55 -42t53.5 -62.5t45 -77q10 32 27.5 59.5t39 48t46 32.5t48.5 14
q71 5 119 9.5t81.5 13t56.5 23t44 40.5q4 5 6 8t9 3q6 0 8 -4.5t2 -10.5zM-11 1166q0 -15 -3.5 -29t-8.5 -27q-17 -49 -51.5 -74t-76.5 -36.5t-87 -13.5t-83 -5q-34 -3 -62.5 -14.5t-49.5 -28t-33.5 -37t-14.5 -41.5l-18 -2q-48 73 -118 117.5t-170 44.5q-7 0 -13 -0.5
t-13 -0.5q21 46 49 77t62 31q23 0 50.5 -15.5t55 -42t53.5 -62.5t45 -77q10 32 27.5 59t39 47.5t46 32.5t48.5 14q71 5 119.5 9.5t82.5 13t56.5 23.5t42.5 41q4 5 6 8t9 3q6 0 8 -4.5t2 -10.5z" />
    <glyph glyph-name="tib.Anusvara" unicode="&#xf7e;" horiz-adv-x="0" 
d="M-295 888q0 -35 -13 -63t-33.5 -47.5t-46.5 -30.5t-52 -11q-27 0 -54 11t-48 30.5t-34.5 47.5t-13.5 63t12.5 63.5t33.5 48.5t48 31t56 11q27 0 53 -11t46.5 -31t33 -48.5t12.5 -63.5zM-345 860q0 22 -13.5 42.5t-34 36t-44 24.5t-43.5 9q-22 0 -41 -12.5t-19 -41.5
q0 -13 9 -32t26 -37t41 -30.5t55 -12.5q11 0 22.5 2.5t20.5 9t15 17t6 25.5z" />
    <glyph glyph-name="tibVisarga" unicode="&#xf7f;" horiz-adv-x="481" 
d="M441 463q0 -47 -17.5 -85t-45.5 -65t-63 -41.5t-71 -14.5q-37 0 -73.5 14.5t-65.5 41.5t-47 65t-18 85q0 48 17 86.5t45.5 66t65.5 42t76 14.5q36 0 71.5 -15t63.5 -42.5t45 -66t17 -85.5zM441 -27q0 -47 -17.5 -85t-45.5 -65t-63 -41.5t-71 -14.5q-37 0 -73.5 14.5
t-65.5 41.5t-47 65t-18 85q0 48 17 86.5t45.5 66t65.5 42t76 14.5q36 0 71.5 -15t63.5 -42.5t45 -66t17 -85.5zM385 424q0 31 -20 59.5t-50 51t-64.5 36t-63.5 13.5q-16 0 -33 -4.5t-31.5 -14t-23.5 -24.5t-9 -36q0 -20 14.5 -47.5t41 -53t62.5 -43.5t80 -18q16 0 33 4
t31.5 13.5t23.5 25t9 38.5zM385 -66q0 31 -20 59.5t-50 51t-64.5 36t-63.5 13.5q-16 0 -33 -4.5t-31.5 -14t-23.5 -24.5t-9 -36q0 -20 14.5 -47.5t41 -53t62.5 -43.5t80 -18q16 0 33 4t31.5 13.5t23.5 25t9 38.5z" />
    <glyph glyph-name="tib.RevGigu" unicode="&#xf80;" horiz-adv-x="0" 
d="M-40 993q0 -88 -34.5 -135t-97.5 -47q-24 0 -42.5 11.5t-32 31.5t-22.5 47.5t-13 59.5q17 -20 42.5 -31t59.5 -11q45 0 69.5 19.5t24.5 54.5q0 15 -6.5 28.5t-23 24.5t-44.5 17.5t-71 6.5q-201 0 -541 -342q-2 -2 -6 -7t-10.5 -11t-15 -10.5t-17.5 -4.5q-6 0 -11 5.5
t-5 13.5t9 20t15 19q102 117 187 198t156.5 132t130.5 74t108 23q103 0 147 -48t44 -139z" />
    <glyph glyph-name="tib_Achung.RevGigu" unicode="&#xf81;" horiz-adv-x="0" 
d="M-40 993q0 -88 -34.5 -135t-97.5 -47q-24 0 -42.5 11.5t-32 31.5t-22.5 47.5t-13 59.5q17 -20 42.5 -31t59.5 -11q45 0 69.5 19.5t24.5 54.5q0 15 -6.5 28.5t-23 24.5t-44.5 17.5t-71 6.5q-201 0 -541 -342q-2 -2 -6 -7t-10.5 -11t-15 -10.5t-17.5 -4.5q-6 0 -11 5.5
t-5 13.5t9 20t15 19q102 117 187 198t156.5 132t130.5 74t108 23q103 0 147 -48t44 -139zM-38 0l-43 -88q7 -12 10 -22t3 -24q0 -13 -2 -23t-7.5 -20t-13.5 -21.5t-20 -26.5q16 -12 32.5 -31t30 -39t22 -37t8.5 -25q0 -7 -2 -11.5t-12 -4.5q-9 0 -12.5 4.5l-7.5 9.5
q-20 28 -41 49t-46.5 35.5t-57 22t-71.5 9.5q-8 0 -17.5 -1t-20.5 -2q17 39 37 54.5t48 15.5q15 0 35.5 -7t41.5 -19q11 18 15 29t4 26q0 18 -7 31t-23 26h-165q-16 -3 -27.5 -11.5t-19 -20t-11 -24t-3.5 -24.5q0 -8 1 -12.5t2.5 -9t3 -11t3.5 -18.5q-21 -40 -76 -74
q-6 17 -11.5 37t-5.5 44q0 69 33 123.5t114 90.5h279z" />
    <glyph glyph-name="tib.SunMoonHon" unicode="&#xf82;" horiz-adv-x="0" 
d="M-135 1053q-16 -172 -96.5 -250t-212.5 -78q-65 0 -118 18.5t-92.5 57.5t-64.5 100t-34 147q0 11 3 18.5t11 7.5q18 0 22 -18q31 -129 100.5 -187t172.5 -58q100 0 171.5 58.5t101.5 186.5q2 9 8.5 13.5t14.5 4.5q13 0 13 -21zM-307 974q0 -63 -34.5 -96.5t-103.5 -33.5
q-60 0 -95 36t-35 90q0 29 9 40.5t23 21.5h48q-7 -8 -11.5 -18.5t-4.5 -39.5q0 -27 18.5 -44.5t50.5 -17.5q67 0 67 58q0 13 -11.5 27.5l-26 32.5t-26 40t-11.5 49q0 9 1 21.5t2.5 25l3 24t2.5 20.5h62l-4 -46.5t-2 -45.5q0 -23 12 -41.5t27 -36t27 -33.5t12 -33z" />
    <glyph glyph-name="tib.SunMoon" unicode="&#xf83;" horiz-adv-x="0" 
d="M-293 1011q0 -35 -13 -63t-33.5 -47.5t-46.5 -30.5t-52 -11q-27 0 -54 11t-48 30.5t-34.5 47.5t-13.5 63t12.5 63.5t33.5 48.5t48 31t56 11q27 0 53 -11t46.5 -31t33 -48.5t12.5 -63.5zM-131 1053q-16 -172 -96.5 -250t-212.5 -78q-65 0 -118 18.5t-92.5 57.5t-64.5 100
t-34 147q0 11 3 18.5t11 7.5q18 0 22 -18q31 -129 100.5 -187t172.5 -58q100 0 171.5 58.5t101.5 186.5q2 9 8.5 13.5t14.5 4.5q13 0 13 -21zM-334 982q0 22 -15 43.5t-37 38t-47.5 26.5t-46.5 10q-12 0 -24.5 -3.5t-23 -10.5t-17.5 -18t-7 -26q0 -14 11 -34.5t30.5 -39
t46.5 -32t59 -13.5q12 0 24.5 3t23 9.5t17 18t6.5 28.5z" />
    <glyph glyph-name="tib_Halanta" unicode="&#xf84;" horiz-adv-x="0" 
d="M-12 -449q0 -21 -19 -21q-13 0 -21 17q-77 175 -183.5 254.5t-234.5 79.5q-19 0 -37 -1.5t-35 -6.5q16 127 127 127q132 0 232.5 -107t166.5 -322q2 -5 3 -10.5t1 -9.5z" />
    <glyph glyph-name="tibPaluta" unicode="&#xf85;" horiz-adv-x="1035" 
d="M965 71q0 -36 -7.5 -80t-19.5 -90.5t-25 -92l-25 -85t-19.5 -70.5t-7.5 -47q0 -33 10.5 -83.5t43.5 -127.5l8.5 -22t3.5 -22q0 -3 -2 -6t-6 -3q-2 0 -5 3l-29 29q-121 103 -121 190q0 37 11.5 76.5t27.5 83.5q11 30 22.5 65.5t21.5 75t16 84t6 92.5q0 42 -13 70.5
t-36.5 46.5t-56 25.5t-72.5 7.5q-51 0 -96.5 -12t-80.5 -39t-55.5 -70.5t-20.5 -106.5q0 -43 24 -76t69 -61q-32 -36 -60 -50.5t-46 -14.5q-24 0 -41.5 14.5t-29 37t-17 49t-5.5 50.5q0 37 8.5 78t29.5 85.5t56 91t88 93.5q14 34 23 62.5t14.5 53t8 46t2.5 41.5
q0 30 -14 52.5t-38.5 37.5t-57.5 22.5t-71 7.5q-59 0 -103.5 -4.5t-74 -19t-44 -42t-14.5 -74.5q0 -11 6 -30t21.5 -37.5t43.5 -33.5t73 -19q-4 -21 -25 -38.5t-66 -17.5q-22 0 -46 14.5t-44 42.5t-33 69t-13 93q0 53 24 90.5t66.5 61t100 34t125.5 10.5q70 0 123 -16.5
t88 -43.5t52.5 -61t17.5 -68q0 -42 -11.5 -96.5t-35.5 -123.5h46q54 0 109 -8t99 -30.5t71.5 -62t27.5 -101.5z" />
    <glyph glyph-name="tib.CupHook" unicode="&#xf86;" horiz-adv-x="0" 
d="M-227 846q-1 -58 -46 -91t-126 -33q-99 0 -149.5 29t-50.5 103q0 37 74 96q44 34 63.5 61t19.5 59q0 33 -7 67.5t-18 73.5h48q15 -18 24.5 -41.5t15 -46t7 -40.5t1.5 -25q0 -75 -98 -146q-28 -20 -40 -35t-12 -29q0 -56 110 -56q25 0 48 2.5t41.5 14t31 35t17.5 65.5
q6 3 10 3q3 0 8 -0.5t15 -0.5q8 -8 10.5 -26t2.5 -39z" />
    <glyph glyph-name="tib.Shey" unicode="&#xf87;" horiz-adv-x="0" 
d="M-327 1208l-54 -82l-10 -388q0 -10 -5 -14.5t-13 -5.5q-18 0 -18 20l-16 388l-54 82h170z" />
    <glyph glyph-name="tibSuperX" unicode="&#xf88;" horiz-adv-x="834" 
d="M815 672l-40 -110h-52l-263 -155l227 -163h78l-38 -104h-708l36 104h52l275 162l-217 156h-104l48 110h706zM609 244l-192 137l-232 -137h424zM645 562h-400l180 -130z" />
    <glyph glyph-name="tibSuper3" unicode="&#xf89;" 
d="M832 398q0 -69 -24 -111t-78 -42q-34 0 -66 13q78 45 78 146q0 41 -13 72.5t-33 52.5t-44.5 32t-48.5 11q-32 0 -59.5 -14.5t-47 -44.5t-30.5 -77t-11 -112h-38q0 65 -11 112t-30.5 77t-47 44.5t-59.5 14.5q-24 0 -48.5 -11t-44.5 -32t-33 -52.5t-13 -72.5
q0 -101 78 -146q-32 -13 -66 -13q-54 0 -78 42t-24 111q0 62 15 114t43.5 90t70.5 59t97 21q31 0 58 -10t49 -26.5t38 -37t25 -40.5q9 20 25 40.5t37.5 37t48.5 26.5t59 10q55 0 97 -21t70.5 -59t43.5 -90t15 -114z" />
    <glyph glyph-name="tibCamel" unicode="&#xf8a;" 
d="M832 71h-34q-6 146 -9 230.5t-3 91.5q-1 60 -7 101t-18 65.5t-32 35t-49 10.5q-45 0 -63.5 -22t-18.5 -76v-220q0 -54 -7.5 -92.5t-25.5 -63t-48.5 -36.5t-77.5 -12q-83 0 -118.5 39.5t-35.5 131.5v249q0 54 -19.5 78t-70.5 24q-31 0 -51.5 -10t-33 -33.5t-18 -63
t-6.5 -97.5q0 -6 -3 -93t-9 -237h-34v436q0 91 37 133.5t119 42.5q81 0 120.5 -38t39.5 -121v-241q0 -33 3 -56.5t11.5 -38t25 -21t43.5 -6.5q54 0 74.5 22t20.5 75v263q0 89 35.5 125.5t110.5 36.5q76 -2 114 -39.5t38 -121.5v-451z" />
    <glyph glyph-name="tibSuper3Trunc" unicode="&#xf8b;" horiz-adv-x="950" 
d="M910 656v-122q-17 3 -31 3q-153 0 -157 -297q-30 -1 -71 -2.5t-86.5 -4t-92 -7t-87.5 -11.5q1 13 5.5 26.5t14.5 27t26.5 26t42.5 23.5q9 45 9 83q0 110 -79 161h-176q-51 -36 -74.5 -80.5t-23.5 -99.5q0 -35 13 -72.5t37 -77.5l-104 -74q-18 41 -27.5 82t-9.5 91
q0 78 45 160.5t152 180.5h314l-36 -106q30 -47 30 -111q0 -62 -22 -125q3 1 13.5 2.5t22.5 2.5t21.5 1.5t10.5 0.5h26q36 0 66 -3q-1 2 -1.5 6.5t-0.5 16.5q0 77 10 133.5t35 93t66 54.5t103 18h16z" />
    <glyph glyph-name="tib_Ka" unicode="&#xf90;" horiz-adv-x="0" 
d="M-40 0l-40 -110v-680q0 -15 -5 -24.5t-15 -9.5t-18 9.5t-8 24.5q0 65 -3 140t-8.5 149.5t-13 143.5t-17.5 123t-22 87.5t-26 36.5h-144q5 -36 7.5 -79t2.5 -94q0 -81 -6 -183q-5 -24 -20 -24q-16 4 -20 28q-12 145 -30.5 230.5t-43.5 121.5h-150q8 -32 11 -56.5t3 -41.5
q0 -27 -12 -48.5t-38 -41.5q-40 -30 -68.5 -61t-45.5 -65q-21 43 -21 81q0 35 19.5 69t59.5 62q31 21 47.5 42.5t16.5 50.5v9h-158l50 110h716z" />
    <glyph glyph-name="tib_Kha" unicode="&#xf91;" horiz-adv-x="0" 
d="M-40 0l-37 -110q10 -49 18.5 -135t8.5 -227v-88q0 -19 -13 -19q-5 0 -9.5 4t-12.5 12q-34 38 -70 70.5t-77 56t-89 37t-105 13.5q-38 0 -80 -6q7 51 18 90.5t25.5 72.5t33 61.5t41.5 57.5h-191q-37 -33 -59 -82.5t-34 -110t-15.5 -129.5t-3.5 -142v-239q0 -9 -6.5 -15.5
t-16.5 -6.5t-16.5 6.5t-6.5 15.5v663l87 150h610zM-200 -110h-106l-77 -82t-53 -82q152 0 340 -216q-2 82 -9 144t-19.5 107t-31.5 76.5t-44 52.5z" />
    <glyph glyph-name="tib_Ga" unicode="&#xf92;" horiz-adv-x="0" 
d="M-40 0l-40 -110v-698q-1 -17 -5.5 -21t-13.5 -6q-13 2 -20 7t-7 20q0 317 -23 489.5t-63 208.5h-138q9 -50 13 -109t3 -129l-2 -221q-88 81 -188.5 129.5t-215.5 48.5q-12 0 -24.5 -0.5t-23.5 -1.5q5 31 16.5 68t28 75t36.5 74.5t41 65.5h-134l50 110h710zM-450 -110
h-118q-24 -19 -45 -42t-38 -46t-30 -45t-21 -38q88 -15 169 -63.5t153 -133.5q0 65 -5 124t-14 107t-22 83.5t-29 53.5z" />
    <glyph glyph-name="tib_Gha" unicode="&#xf93;" horiz-adv-x="0" 
d="M-292 -317l-50 -110h-165q-44 -13 -72 -28.5t-50 -45.5q76 -26 134 -84q48 55 91 83t91 28q69 0 107.5 -34t38.5 -88q0 -27 -4 -50t-15.5 -48t-33 -53.5t-56.5 -66.5q-9 -10 -15 -15.5t-23 -5.5q-5 0 -6 2t-1 10t8 19t12 16q21 33 32 56t16 41t5.5 33t0.5 32
q0 19 -8 32.5t-21 21t-28.5 11t-30.5 3.5q-27 0 -60.5 -12t-73.5 -41q20 -21 33.5 -42.5t13.5 -47.5q0 -7 -4 -13.5t-12 -6.5q-9 0 -16 11q-26 32 -54.5 54t-61.5 36.5t-70 22.5t-79 12q7 41 27 77t57 81h-148l66 110h313q-48 19 -91 30t-83 16t-78 6.5t-76 1.5h-32
q2 18 8 40t15 43.5t20 40t22 29.5h-101l50 110h710l-40 -110v-698q-1 -17 -5.5 -21t-13.5 -6q-13 2 -20 7t-7 20q0 317 -23 489.5t-63 208.5h-138q6 -16 9.5 -38.5t5.5 -45.5t2.5 -42.5t0.5 -28.5l-2 -52h42zM-450 -110h-165q-8 -5 -17.5 -14t-18.5 -19l-16.5 -19l-11.5 -14
q40 -3 77 -10t73 -19t72.5 -29.5t76.5 -41.5q0 48 -18 89.5t-52 76.5z" />
    <glyph glyph-name="tib_Nga" unicode="&#xf94;" horiz-adv-x="0" 
d="M-80 0l-52 -110h-424q-26 -18 -51 -40.5t-46 -49t-36 -56t-20 -60.5q18 4 39 6.5t43 4.5t43 3t38 1q93 0 162 -11.5t126 -38t108.5 -70t108.5 -107.5q7 -8 9.5 -15.5t2.5 -12.5q0 -6 -4.5 -8t-9.5 -2q-10 0 -30 14q-55 40 -100.5 65.5t-94.5 40t-108.5 20t-142.5 5.5
q-29 0 -61 -2.5t-65 -7t-66 -11.5t-62 -16q0 8 -0.5 15.5t-0.5 15.5q0 58 9.5 107t24.5 88.5t32.5 69.5t33.5 52h-106l50 110h650z" />
    <glyph glyph-name="tib_Ca" unicode="&#xf95;" horiz-adv-x="0" 
d="M-86 0l-50 -110h-220q0 -21 5 -35.5t23.5 -29t55 -32t100.5 -43.5q29 -12 53.5 -30.5t42 -41.5t27 -49t9.5 -53q0 -50 -23 -89t-62 -66t-90.5 -41t-107.5 -14q-55 0 -103.5 12.5t-102.5 51t-118.5 109t-152.5 187.5l64 86l40.5 -45.5l41.5 -44.5q130 18 188 63t58 105
h-270l50 110h542zM-404 -242q-88 -88 -196 -110q54 -63 90.5 -101t66.5 -57q101 -62 178 -62q22 0 48 6.5t48.5 19.5t37 33.5t14.5 49.5t-19.5 58t-67.5 49q-72 29 -121.5 55.5t-78.5 58.5z" />
    <glyph glyph-name="tib_Cha" unicode="&#xf96;" horiz-adv-x="0" 
d="M-77 0l-52 -110h-245q2 -15 5 -33t3 -38q0 -21 -0.5 -35.5t-1.5 -26t-3 -22t-5 -23.5q15 24 30.5 43t34.5 32t42.5 20t55.5 7q37 0 69 -13t55 -41.5t36 -72.5t13 -106q0 -60 -13 -104.5t-36.5 -73.5t-56 -43t-71.5 -14q-69 0 -108.5 36t-67.5 102q-14 -32 -30 -57.5
t-36.5 -43.5t-47 -27.5t-61.5 -9.5q-39 0 -73 12t-59.5 40t-40 73.5t-14.5 113.5q0 61 15 104.5t41.5 71t61 40.5t73.5 13q28 0 49.5 -7t39 -20t31.5 -33t29 -45v8q0 28 -7 54.5t-18 48.5t-24.5 40t-27.5 30h-226l50 110h591zM-425 -424q0 22 -7.5 45t-24.5 41.5t-45 30
t-68 11.5q-35 0 -61 -11t-43 -28.5t-26 -39.5t-9 -44q0 -60 38.5 -92.5t98.5 -32.5q72 0 109.5 28.5t37.5 91.5zM-86 -419q0 19 -6.5 40.5t-22 40t-40.5 30.5t-62 12q-42 0 -70 -12.5t-45 -31t-24 -39t-7 -36.5q0 -58 32.5 -93.5t113.5 -35.5q60 0 95.5 31t35.5 94z" />
    <glyph glyph-name="tib_Ja" unicode="&#xf97;" horiz-adv-x="0" 
d="M-50 0l-50 -110h-476q-18 -25 -28.5 -47t-16.5 -40h482l-30 -102h-472q-9 -25 -15 -55.5t-9 -60.5q17 4 40 8t48.5 7t51 5t46.5 2q81 0 140 -13t111 -43.5t104.5 -80.5t119.5 -123q5 -5 12 -13.5t7 -15.5q0 -8 -6.5 -13t-13.5 -5q-10 0 -19 9l-105 74t-81.5 53.5
t-67 36.5t-61.5 21.5t-65.5 10.5t-78.5 3q-31 0 -59.5 -3t-58.5 -8.5t-62 -13l-69 -16.5q0 39 3 90t11 107t22.5 114.5t37.5 111.5h-116l50 110h674z" />
    <glyph glyph-name="tib_Nya" unicode="&#xf99;" horiz-adv-x="0" 
d="M-107 0l-73 -110q4 -9 8 -15.5t4 -23.5q0 -20 -6 -35.5t-14 -27.5q57 -35 80.5 -82.5t23.5 -99.5q0 -44 -15.5 -84.5t-49 -88t-88 -105.5l-132.5 -136q-1 -1 -5 -5.5t-10 -9t-12 -8.5t-12 -4q-15 0 -15 12q1 5 6.5 12.5t12 15.5t13 14.5l9.5 9.5q64 75 103.5 127t61 92
t29 73.5t7.5 72.5q0 31 -12 56t-32.5 42.5t-47.5 26.5t-56 9q-148 0 -148 -92q0 -37 26.5 -54.5t68.5 -17.5h10l-66 -109q-34 9 -55 28t-33 42t-16.5 47t-4.5 42q0 36 16 72.5t45 65.5t70 47t92 18q24 0 45.5 -3.5t50.5 -10.5v7q0 19 -9.5 42.5t-27.5 37.5h-297
q-29 -15 -47.5 -33t-29.5 -36.5t-15.5 -36.5t-4.5 -33q0 -38 6.5 -60.5t23.5 -38.5l-90 -84q-14 23 -22 49t-8 65q0 31 14 69t44.5 80t78.5 85t116 84h389z" />
    <glyph glyph-name="tib_Tta" unicode="&#xf9a;" horiz-adv-x="0" 
d="M-80 0l-146 -536q-6 -19 -22 -19q-11 0 -16 6.5t-5 14.5q0 5 1 8l28 142q-19 19 -43.5 33.5t-51.5 24t-54 14t-52 4.5q-78 0 -116 -37t-38 -94q0 -36 8 -67.5t29 -69.5t56 -88.5l89 -123.5q8 -12 14.5 -20t6.5 -15q0 -4 -4.5 -8t-9.5 -4q-13 0 -17.5 4t-17.5 18l-46 53
t-53.5 67.5t-54 76t-47.5 77.5t-34 73.5t-13 62.5q0 36 13.5 71.5t41 63.5t69.5 45.5t100 17.5q35 0 71.5 -13t68.5 -33t56 -45t34 -50l45 236h-556l50 110h616z" />
    </font>
</defs>
</svg>
