<svg xmlns="http://www.w3.org/2000/svg" viewBox="0 0 348 835" width="348" height="835">
	<defs>
		<clipPath clipPathUnits="userSpaceOnUse" id="cp1">
			<path d="M0 0L348 0L348 835L0 835Z" />
		</clipPath>
	</defs>
	<style>
		tspan { white-space:pre }
		.shp0 { fill: #ffffff } 
	</style>
	<g id="Page 1" clip-path="url(#cp1)">
		<path id="Path 1" fill-rule="evenodd" class="shp0" d="M0.11 284.78C0.11 241.79 -0.01 198.8 0.13 155.81C0.42 68.5 68.27 0.58 155.55 0.4C181.8 0.35 208.13 -1.33 234.03 5.75C300.54 23.93 347.75 83.98 348.06 152.78C348.44 241.09 348.52 329.41 348.07 417.72C347.66 499.89 281.03 567.47 198.29 569.68C170.41 570.43 142.34 571.96 114.82 564.45C47.79 546.15 0.79 486.07 0.19 416.75C-0.19 372.76 0.12 328.77 0.11 284.78ZM29.9 285.45L29.97 285.45C29.97 329.42 29.67 373.41 30.05 417.38C30.52 471.99 66.55 520.8 119.63 533.48C143.78 539.24 169.8 538.73 194.95 538.55C263.11 538.07 316.71 484.97 317.38 416.68C318.24 329.06 318.23 241.43 317.4 153.81C316.81 92.81 274.78 43.28 215.1 33.47C193.97 29.99 171.86 30.44 150.34 31.62C78.15 35.58 30.09 87.13 29.92 159.51C29.82 201.49 29.9 243.47 29.9 285.45ZM192.15 780.49C204.22 768.26 216.29 756.02 228.38 743.8C230.95 741.19 233.44 738.47 236.24 736.12C243.54 729.98 253.05 730.18 258.66 736.4C264.26 742.59 263.97 750.95 257.31 757.87C248.08 767.48 238.51 776.76 229.09 786.18C215.19 800.07 201.36 814.04 187.37 827.84C177.68 837.4 170.43 837.36 160.9 827.87C138.24 805.3 115.63 782.69 93.04 760.05C84.41 751.42 83.44 742.44 90.24 735.68C97.29 728.68 105.54 729.85 114.6 738.56C128.98 752.38 143.59 765.95 158 779.54C158.11 778.3 158.53 775.57 158.53 772.83C158.57 733.2 158.55 693.56 158.57 653.92C158.58 650.59 158.4 647.2 158.93 643.95C160.3 635.6 167.1 629.7 174.79 630.3C183.3 630.95 188.02 636.24 189.32 644.29C190.05 648.85 189.69 653.59 189.69 658.25C189.71 698.53 189.7 738.81 189.7 779.09L192.15 780.49ZM189.66 188.19C189.66 204.85 189.77 221.51 189.62 238.18C189.52 250.02 183.2 257.55 173.91 257.39C164.63 257.24 158.66 249.76 158.63 237.77C158.54 204.11 158.55 170.44 158.61 136.78C158.63 124.77 164.5 117.43 173.91 117.25C183.87 117.06 189.61 124.2 189.68 137.2C189.77 154.19 189.7 171.19 189.7 188.19L189.66 188.19Z" />
	</g>
</svg>