<svg width="168" height="45" viewBox="0 0 168 45" fill="none" xmlns="http://www.w3.org/2000/svg">
<g filter="url(#filter0_d)">
<path fill-rule="evenodd" clip-rule="evenodd" d="M42.2595 3.06239C41.3194 2.59024 40.1561 2.45109 38.8561 2.68757C38.0546 2.83396 37.2 3.12352 36.3138 3.56511C35.463 3.99061 34.6484 4.52389 33.8766 5.14244L37.0075 6.71574C37.7793 6.0972 38.5939 5.56391 39.4438 5.13922C40.33 4.69683 41.1836 4.40726 41.9861 4.26087C43.2861 4.02439 44.4494 4.16354 45.3895 4.6357L42.2595 3.06239Z" fill="#F0A72E"/>
<mask id="mask0" mask-type="alpha" maskUnits="userSpaceOnUse" x="4" y="0" width="31" height="35">
<path fill-rule="evenodd" clip-rule="evenodd" d="M4 0.609169H34.3026V34.2347H4V0.609169Z" fill="white"/>
</mask>
<g mask="url(#mask0)">
<path fill-rule="evenodd" clip-rule="evenodd" d="M31.1726 1.17282C30.0865 0.626667 28.7409 0.466602 27.2382 0.74008C26.3102 0.908993 25.3217 1.2436 24.2961 1.75597C22.5898 2.60858 20.9876 3.84728 19.5983 5.31199C17.0421 8.00736 15.2065 11.4677 14.762 14.6891C13.9949 14.8387 13.1729 15.1226 12.3295 15.5441C10.8584 16.2785 9.47751 17.345 8.28075 18.6063C5.71614 21.3064 3.99028 24.8971 3.99958 28.0228C4.00795 30.3023 4.9369 31.9069 6.4368 32.6606L9.56678 34.2347C8.06595 33.4803 7.137 31.8756 7.12956 29.5961C7.11933 26.4704 8.84612 22.8798 11.4098 20.1796C12.6075 18.9183 13.9874 17.8518 15.4594 17.1174C16.3019 16.6959 17.1248 16.412 17.8911 16.2624C18.3356 13.041 20.1721 9.58067 22.7283 6.8853C24.1176 5.42058 25.7188 4.18188 27.4261 3.32928C28.4508 2.81691 29.4393 2.4823 30.3673 2.31338C31.8709 2.0391 33.2155 2.19997 34.3025 2.74612L31.1726 1.17282Z" fill="#F0A72E"/>
</g>
<path fill-rule="evenodd" clip-rule="evenodd" d="M27.4258 3.32944C32.2668 0.911568 36.2895 2.44465 37.0073 6.71574C37.7791 6.0972 38.5937 5.56392 39.4436 5.13922C44.0577 2.83476 47.8125 4.68557 47.8274 9.27115C47.8423 13.8575 44.1116 19.4462 39.4975 21.7506L15.5131 33.729C10.8925 36.0366 7.14419 34.1826 7.12932 29.5962C7.11444 25.0098 10.8377 19.4252 15.4583 17.1176C16.3026 16.6961 17.1246 16.4122 17.8908 16.2625C18.5771 11.2901 22.5774 5.75052 27.4258 3.32944Z" fill="#FFCA00"/>
<path fill-rule="evenodd" clip-rule="evenodd" d="M66.7052 5.31441C65.7651 4.84225 64.6018 4.7031 63.3019 4.93958C62.4994 5.08597 61.6457 5.37554 60.7586 5.81712C59.9087 6.24182 59.0942 6.77591 58.3224 7.39445L61.4523 8.96775C62.2241 8.34921 63.0387 7.81512 63.8896 7.39123C64.7748 6.94804 65.6294 6.65928 66.4309 6.51288C67.7318 6.27641 68.8942 6.41556 69.8343 6.88771L66.7052 5.31441Z" fill="#D43E3E"/>
<path fill-rule="evenodd" clip-rule="evenodd" d="M55.6138 3.41977C54.5277 2.87361 53.1821 2.71274 51.6795 2.98622C50.7514 3.15514 49.7648 3.48974 48.741 4.00131C47.0403 4.8507 45.4427 6.08618 44.0563 7.54848C41.4982 10.2463 39.6589 13.713 39.2135 16.9376C38.4398 17.0905 37.6243 17.3712 36.7744 17.7959C35.3052 18.5294 33.9262 19.596 32.7294 20.8564C30.1648 23.5566 28.4352 27.1488 28.4454 30.2745C28.4529 32.5532 29.3837 34.1563 30.8827 34.9108L34.0126 36.4833C32.5127 35.7296 31.5819 34.1265 31.5745 31.8478C31.5643 28.7221 33.2948 25.1299 35.8585 22.4297C37.0561 21.1685 38.4352 20.1027 39.9034 19.3692C40.7552 18.9445 41.5698 18.6638 42.3434 18.5109C42.7889 15.2855 44.6282 11.8196 47.1863 9.12179C48.5727 7.65948 50.1703 6.42401 51.871 5.57381C52.8939 5.06305 53.8814 4.72844 54.8085 4.55953C56.3121 4.28605 57.6567 4.44692 58.7438 4.99307L55.6138 3.41977Z" fill="#D43E3E"/>
<path fill-rule="evenodd" clip-rule="evenodd" d="M51.8706 5.57397C56.7116 3.1569 60.7352 4.69643 61.4521 8.96751C62.2239 8.34897 63.0385 7.81569 63.8893 7.39099C68.5034 5.08653 72.2573 6.93734 72.2722 11.5229C72.2871 16.1093 68.5573 21.6979 63.9433 24.0024L39.9579 35.9807C35.3448 38.2852 31.5899 36.4344 31.5751 31.848C31.5602 27.2616 35.2899 21.673 39.904 19.3685C40.7548 18.9446 41.5703 18.6639 42.3431 18.5103C43.0293 13.5386 47.0297 7.99184 51.8706 5.57397Z" fill="#FA7564"/>
<path d="M85.9397 26V12.92H88.5597L90.8797 19.32C91.0264 19.7333 91.1664 20.16 91.2997 20.6C91.4331 21.0267 91.5731 21.4533 91.7197 21.88H91.7997C91.9464 21.4533 92.0797 21.0267 92.1997 20.6C92.3331 20.16 92.4731 19.7333 92.6197 19.32L94.8797 12.92H97.5197V26H95.3797V20.02C95.3797 19.7133 95.3864 19.38 95.3997 19.02C95.4264 18.66 95.4531 18.3 95.4797 17.94C95.5064 17.5667 95.5397 17.2067 95.5797 16.86C95.6197 16.5 95.6531 16.1667 95.6797 15.86H95.5997L94.5397 18.9L92.3997 24.78H91.0197L88.8597 18.9L87.8197 15.86H87.7397C87.7664 16.1667 87.7931 16.5 87.8197 16.86C87.8597 17.2067 87.8931 17.5667 87.9197 17.94C87.9597 18.3 87.9864 18.66 87.9997 19.02C88.0264 19.38 88.0397 19.7133 88.0397 20.02V26H85.9397ZM102.672 26.24C101.806 26.24 101.106 25.98 100.572 25.46C100.039 24.9267 99.7723 24.2267 99.7723 23.36C99.7723 22.84 99.8789 22.38 100.092 21.98C100.319 21.5667 100.666 21.2133 101.132 20.92C101.612 20.6267 102.212 20.38 102.932 20.18C103.666 19.98 104.539 19.8267 105.552 19.72C105.539 19.4667 105.499 19.2267 105.432 19C105.379 18.76 105.279 18.5533 105.132 18.38C104.999 18.1933 104.819 18.0533 104.592 17.96C104.366 17.8533 104.086 17.8 103.752 17.8C103.272 17.8 102.799 17.8933 102.332 18.08C101.879 18.2667 101.432 18.4933 100.992 18.76L100.152 17.22C100.699 16.8733 101.312 16.5733 101.992 16.32C102.672 16.0667 103.406 15.94 104.192 15.94C105.419 15.94 106.332 16.3067 106.932 17.04C107.546 17.76 107.852 18.8067 107.852 20.18V26H105.952L105.792 24.92H105.712C105.272 25.2933 104.799 25.6067 104.292 25.86C103.799 26.1133 103.259 26.24 102.672 26.24ZM103.412 24.44C103.812 24.44 104.172 24.3467 104.492 24.16C104.826 23.9733 105.179 23.7067 105.552 23.36V21.16C104.886 21.24 104.326 21.3467 103.872 21.48C103.419 21.6133 103.052 21.7667 102.772 21.94C102.492 22.1 102.292 22.2867 102.172 22.5C102.052 22.7133 101.992 22.94 101.992 23.18C101.992 23.62 102.126 23.94 102.392 24.14C102.659 24.34 102.999 24.44 103.412 24.44ZM110.255 26V16.18H112.155L112.315 17.92H112.395C112.742 17.28 113.162 16.7933 113.655 16.46C114.148 16.1133 114.655 15.94 115.175 15.94C115.642 15.94 116.015 16.0067 116.295 16.14L115.895 18.14C115.722 18.0867 115.562 18.0467 115.415 18.02C115.268 17.9933 115.088 17.98 114.875 17.98C114.488 17.98 114.082 18.1333 113.655 18.44C113.228 18.7333 112.862 19.2533 112.555 20V26H110.255ZM120.826 26.24C120.253 26.24 119.766 26.1533 119.366 25.98C118.979 25.8067 118.659 25.5667 118.406 25.26C118.166 24.94 117.986 24.5667 117.866 24.14C117.759 23.7 117.706 23.2133 117.706 22.68V18H116.306V16.28L117.826 16.18L118.106 13.5H120.026V16.18H122.526V18H120.026V22.68C120.026 23.8267 120.486 24.4 121.406 24.4C121.579 24.4 121.753 24.38 121.926 24.34C122.113 24.3 122.279 24.2467 122.426 24.18L122.826 25.88C122.559 25.9733 122.253 26.0533 121.906 26.12C121.573 26.2 121.213 26.24 120.826 26.24ZM126.193 26.24C125.327 26.24 124.627 25.98 124.093 25.46C123.56 24.9267 123.293 24.2267 123.293 23.36C123.293 22.84 123.4 22.38 123.613 21.98C123.84 21.5667 124.187 21.2133 124.653 20.92C125.133 20.6267 125.733 20.38 126.453 20.18C127.187 19.98 128.06 19.8267 129.073 19.72C129.06 19.4667 129.02 19.2267 128.953 19C128.9 18.76 128.8 18.5533 128.653 18.38C128.52 18.1933 128.34 18.0533 128.113 17.96C127.887 17.8533 127.607 17.8 127.273 17.8C126.793 17.8 126.32 17.8933 125.853 18.08C125.4 18.2667 124.953 18.4933 124.513 18.76L123.673 17.22C124.22 16.8733 124.833 16.5733 125.513 16.32C126.193 16.0667 126.927 15.94 127.713 15.94C128.94 15.94 129.853 16.3067 130.453 17.04C131.067 17.76 131.373 18.8067 131.373 20.18V26H129.473L129.313 24.92H129.233C128.793 25.2933 128.32 25.6067 127.813 25.86C127.32 26.1133 126.78 26.24 126.193 26.24ZM126.933 24.44C127.333 24.44 127.693 24.3467 128.013 24.16C128.347 23.9733 128.7 23.7067 129.073 23.36V21.16C128.407 21.24 127.847 21.3467 127.393 21.48C126.94 21.6133 126.573 21.7667 126.293 21.94C126.013 22.1 125.813 22.2867 125.693 22.5C125.573 22.7133 125.513 22.94 125.513 23.18C125.513 23.62 125.647 23.94 125.913 24.14C126.18 24.34 126.52 24.44 126.933 24.44ZM138.876 26.24C138.116 26.24 137.429 26.1333 136.816 25.92C136.216 25.6933 135.696 25.34 135.256 24.86C134.829 24.38 134.496 23.7667 134.256 23.02C134.029 22.26 133.916 21.34 133.916 20.26V12.92H136.236V20.44C136.236 21.1467 136.296 21.7467 136.416 22.24C136.549 22.72 136.729 23.1067 136.956 23.4C137.196 23.6933 137.476 23.9067 137.796 24.04C138.116 24.16 138.476 24.22 138.876 24.22C139.276 24.22 139.643 24.16 139.976 24.04C140.309 23.9067 140.596 23.6933 140.836 23.4C141.076 23.1067 141.263 22.72 141.396 22.24C141.529 21.7467 141.596 21.1467 141.596 20.44V12.92H143.816V20.26C143.816 21.34 143.703 22.26 143.476 23.02C143.249 23.7667 142.916 24.38 142.476 24.86C142.049 25.34 141.529 25.6933 140.916 25.92C140.316 26.1333 139.636 26.24 138.876 26.24ZM146.732 26V12.92H150.852C151.572 12.92 152.238 12.9867 152.852 13.12C153.478 13.2533 154.018 13.48 154.472 13.8C154.925 14.12 155.278 14.54 155.532 15.06C155.785 15.5667 155.912 16.2 155.912 16.96C155.912 17.68 155.785 18.3067 155.532 18.84C155.278 19.3733 154.925 19.82 154.472 20.18C154.032 20.5267 153.505 20.7867 152.892 20.96C152.292 21.12 151.638 21.2 150.932 21.2H149.052V26H146.732ZM149.052 19.34H150.752C152.672 19.34 153.632 18.5467 153.632 16.96C153.632 16.1333 153.378 15.5667 152.872 15.26C152.378 14.94 151.645 14.78 150.672 14.78H149.052V19.34Z" fill="white"/>
</g>
<defs>
<filter id="filter0_d" x="0" y="0" width="172" height="45" filterUnits="userSpaceOnUse" color-interpolation-filters="sRGB">
<feFlood flood-opacity="0" result="BackgroundImageFix"/>
<feColorMatrix in="SourceAlpha" type="matrix" values="0 0 0 0 0 0 0 0 0 0 0 0 0 0 0 0 0 0 127 0"/>
<feOffset dy="4"/>
<feGaussianBlur stdDeviation="2"/>
<feColorMatrix type="matrix" values="0 0 0 0 0 0 0 0 0 0 0 0 0 0 0 0 0 0 0.25 0"/>
<feBlend mode="normal" in2="BackgroundImageFix" result="effect1_dropShadow"/>
<feBlend mode="normal" in="SourceGraphic" in2="effect1_dropShadow" result="shape"/>
</filter>
</defs>
</svg>
