<?xml version="1.0" encoding="utf-8"?>
<!-- Generator: Adobe Illustrator 23.0.1, SVG Export Plug-In . SVG Version: 6.00 Build 0)  -->
<svg version="1.1" id="Слой_2" xmlns="http://www.w3.org/2000/svg" xmlns:xlink="http://www.w3.org/1999/xlink" x="0px" y="0px"
	width="60" height="60" viewBox="0 0 1125 1116.67" style="enable-background:new 0 0 1125 1116.67;" xml:space="preserve">
<style type="text/css">
	.st0{fill:#FFFFFF;}
</style>
<path class="st0" d="M396.41,775.53H163.16v-18.07c0,0,61.6,5.21,79.02-19.42c0,0,10.99-8.12,13.07-35.12
	c2.07-27,2.72-142.19,2.72-142.19l0.02-209.13l-2.98-170.82c-0.01-0.77-0.01-1.54-0.01-2.31c0-4.85-1.43-32.67-33.36-47.87
	c-35.06-16.69-58.52-10.15-58.52-10.15v-17.3h166.32c12.37,0,23.64,7.13,28.93,18.32l187.51,396.32l-2.85-219.16
	c-0.3-23.08-13.63-44.2-34.61-53.82c-0.61-0.28-1.24-0.56-1.87-0.83c-11.52-4.99-23.95-7.52-36.49-7.85l-19.24-0.5v-17.97h293.45
	v18.31l-23.95,0.31c0,0-36.95-0.05-58.32,20.94c-17.56,17.24-18.78,46.18-18.66,55.97c0.05,4.24,0.09,8.48,0.07,12.72l-1.01,193.31
	l182.85-390.05c6.32-13.48,19.82-22.14,34.71-22.25l165.65-1.26v18.06c0,0-34-1.41-50.66,6.65s-41.01,15.3-42.53,65.29
	s-1.49,448.3-1.49,448.3s-0.4,73.58,9.57,85.76s12.33,25.02,56.25,27.08l28.92,0.77v18.09H792.35v-18.09c0,0,48.82,1.48,63.63-8.01
	s20.34-6.98,27.62-36.47s3.64-152.62,3.64-152.62l0.02-329.16c0-3.77-5.13-4.9-6.71-1.47L660.3,708.4
	c-11.56,25.12-17.45,52.48-17.25,80.13l0.81,110.74c0,0-1.09,44.01,36.99,46.03c38.08,2.02,189.66-1.92,189.66-1.92
	s77.97-0.2,113.7-80.49l27.11-58.65l17.4,4.05l-57.27,181.78H450.83v-17.92l33-1.2c10.43-0.38,20.73-2.64,30.21-7
	c12.48-5.73,26.09-15.98,28.12-33.71c2.7-23.59,3.94-102.84,4.43-148.48c0.24-21.72-4.35-43.22-13.44-62.94L308.19,230.71
	c-1.52-3.29-6.44-2.19-6.42,1.43l2.9,469.6c0,0-1.44,51.51,45.15,53.67c46.59,2.16,46.59,2.16,46.59,2.16V775.53z"/>
</svg>
