<svg width="14" height="15" viewBox="0 0 14 15" fill="none" xmlns="http://www.w3.org/2000/svg">
<path fill-rule="evenodd" clip-rule="evenodd" d="M13.8751 5.82927H7.14791C7.14791 6.52887 7.14791 7.92809 7.14362 8.62769H11.0418C10.8925 9.3273 10.3628 10.3067 9.61449 10.8C9.61377 10.7993 9.61306 10.8042 9.61163 10.8035C8.61671 11.4604 7.30372 11.6094 6.32881 11.4135C4.80069 11.1099 3.59134 10.0017 3.10032 8.59411C3.10317 8.59201 3.10532 8.57242 3.10746 8.57102C2.80012 7.69792 2.80012 6.52887 3.10746 5.82927H3.10675C3.50272 4.54339 4.74851 3.37015 6.27878 3.04903C7.50957 2.78808 8.89832 3.07072 9.91968 4.02638C10.0555 3.89346 11.7995 2.19062 11.9303 2.05209C8.44088 -1.10803 2.85373 0.00364733 0.763104 4.08445H0.762389C0.762389 4.08445 0.763104 4.08445 0.758816 4.09215C-0.275418 6.09652 -0.232534 8.45839 0.765963 10.3669C0.763104 10.369 0.76096 10.3704 0.758816 10.3725C1.66368 12.1285 3.31045 13.4753 5.29458 13.9881C7.40236 14.5408 10.0848 14.163 11.8817 12.5378C11.8824 12.5385 11.8831 12.5392 11.8838 12.5399C13.4062 11.1687 14.354 8.83268 13.8751 5.82927Z" fill="white"/>
</svg>
