<svg width="14" height="14" viewBox="0 0 14 14" fill="none" xmlns="http://www.w3.org/2000/svg">
<path d="M9.33333 7C9.33333 6.3559 9.10547 5.80599 8.64974 5.35026C8.19401 4.89453 7.6441 4.66667 7 4.66667C6.3559 4.66667 5.80599 4.89453 5.35026 5.35026C4.89453 5.80599 4.66667 6.3559 4.66667 7C4.66667 7.6441 4.89453 8.19401 5.35026 8.64974C5.80599 9.10547 6.3559 9.33333 7 9.33333C7.6441 9.33333 8.19401 9.10547 8.64974 8.64974C9.10547 8.19401 9.33333 7.6441 9.33333 7ZM10.5911 7C10.5911 7.99653 10.2418 8.84418 9.54297 9.54297C8.84418 10.2418 7.99653 10.5911 7 10.5911C6.00347 10.5911 5.15582 10.2418 4.45703 9.54297C3.75825 8.84418 3.40885 7.99653 3.40885 7C3.40885 6.00347 3.75825 5.15582 4.45703 4.45703C5.15582 3.75825 6.00347 3.40885 7 3.40885C7.99653 3.40885 8.84418 3.75825 9.54297 4.45703C10.2418 5.15582 10.5911 6.00347 10.5911 7ZM11.5755 3.26302C11.5755 3.49392 11.4935 3.69141 11.3294 3.85547C11.1654 4.01953 10.9679 4.10156 10.737 4.10156C10.5061 4.10156 10.3086 4.01953 10.1445 3.85547C9.98047 3.69141 9.89844 3.49392 9.89844 3.26302C9.89844 3.03212 9.98047 2.83464 10.1445 2.67057C10.3086 2.50651 10.5061 2.42448 10.737 2.42448C10.9679 2.42448 11.1654 2.50651 11.3294 2.67057C11.4935 2.83464 11.5755 3.03212 11.5755 3.26302ZM7 1.25781C6.95747 1.25781 6.72504 1.25629 6.30273 1.25326C5.88042 1.25022 5.5599 1.25022 5.34115 1.25326C5.1224 1.25629 4.82921 1.26541 4.46159 1.2806C4.09397 1.29579 3.78103 1.32617 3.52279 1.37174C3.26454 1.41732 3.04731 1.47352 2.87109 1.54036C2.56727 1.66189 2.29991 1.83811 2.06901 2.06901C1.83811 2.29991 1.66189 2.56727 1.54036 2.87109C1.47352 3.04731 1.41732 3.26454 1.37174 3.52279C1.32617 3.78103 1.29579 4.09397 1.2806 4.46159C1.26541 4.82921 1.25629 5.1224 1.25326 5.34115C1.25022 5.5599 1.25022 5.88042 1.25326 6.30273C1.25629 6.72504 1.25781 6.95747 1.25781 7C1.25781 7.04253 1.25629 7.27496 1.25326 7.69727C1.25022 8.11957 1.25022 8.4401 1.25326 8.65885C1.25629 8.8776 1.26541 9.17079 1.2806 9.53841C1.29579 9.90603 1.32617 10.219 1.37174 10.4772C1.41732 10.7355 1.47352 10.9527 1.54036 11.1289C1.66189 11.4327 1.83811 11.7001 2.06901 11.931C2.29991 12.1619 2.56727 12.3381 2.87109 12.4596C3.04731 12.5265 3.26454 12.5827 3.52279 12.6283C3.78103 12.6738 4.09397 12.7042 4.46159 12.7194C4.82921 12.7346 5.1224 12.7437 5.34115 12.7467C5.5599 12.7498 5.88042 12.7498 6.30273 12.7467C6.72504 12.7437 6.95747 12.7422 7 12.7422C7.04253 12.7422 7.27496 12.7437 7.69727 12.7467C8.11957 12.7498 8.4401 12.7498 8.65885 12.7467C8.8776 12.7437 9.17079 12.7346 9.53841 12.7194C9.90603 12.7042 10.219 12.6738 10.4772 12.6283C10.7355 12.5827 10.9527 12.5265 11.1289 12.4596C11.4327 12.3381 11.7001 12.1619 11.931 11.931C12.1619 11.7001 12.3381 11.4327 12.4596 11.1289C12.5265 10.9527 12.5827 10.7355 12.6283 10.4772C12.6738 10.219 12.7042 9.90603 12.7194 9.53841C12.7346 9.17079 12.7437 8.8776 12.7467 8.65885C12.7498 8.4401 12.7498 8.11957 12.7467 7.69727C12.7437 7.27496 12.7422 7.04253 12.7422 7C12.7422 6.95747 12.7437 6.72504 12.7467 6.30273C12.7498 5.88042 12.7498 5.5599 12.7467 5.34115C12.7437 5.1224 12.7346 4.82921 12.7194 4.46159C12.7042 4.09397 12.6738 3.78103 12.6283 3.52279C12.5827 3.26454 12.5265 3.04731 12.4596 2.87109C12.3381 2.56727 12.1619 2.29991 11.931 2.06901C11.7001 1.83811 11.4327 1.66189 11.1289 1.54036C10.9527 1.47352 10.7355 1.41732 10.4772 1.37174C10.219 1.32617 9.90603 1.29579 9.53841 1.2806C9.17079 1.26541 8.8776 1.25629 8.65885 1.25326C8.4401 1.25022 8.11957 1.25022 7.69727 1.25326C7.27496 1.25629 7.04253 1.25781 7 1.25781ZM14 7C14 8.39149 13.9848 9.3546 13.9544 9.88932C13.8937 11.1532 13.5169 12.1315 12.8242 12.8242C12.1315 13.5169 11.1532 13.8937 9.88932 13.9544C9.3546 13.9848 8.39149 14 7 14C5.60851 14 4.6454 13.9848 4.11068 13.9544C2.84679 13.8937 1.86849 13.5169 1.17578 12.8242C0.483073 12.1315 0.106337 11.1532 0.0455729 9.88932C0.015191 9.3546 0 8.39149 0 7C0 5.60851 0.015191 4.6454 0.0455729 4.11068C0.106337 2.84679 0.483073 1.86849 1.17578 1.17578C1.86849 0.483073 2.84679 0.106337 4.11068 0.0455729C4.6454 0.015191 5.60851 0 7 0C8.39149 0 9.3546 0.015191 9.88932 0.0455729C11.1532 0.106337 12.1315 0.483073 12.8242 1.17578C13.5169 1.86849 13.8937 2.84679 13.9544 4.11068C13.9848 4.6454 14 5.60851 14 7Z" fill="#979797"/>
</svg>
