<svg width="16" height="15" viewBox="0 0 16 15" fill="none" xmlns="http://www.w3.org/2000/svg">
<path fill-rule="evenodd" clip-rule="evenodd" d="M5.032 14.2266C11.0696 14.2266 14.372 8.83976 14.372 4.16884C14.372 4.0155 14.372 3.86302 14.3624 3.7114C15.0048 3.21174 15.5592 2.59148 16 1.88162C15.4016 2.16763 14.7656 2.35544 14.1152 2.43814C14.8 1.9962 15.3128 1.30185 15.5584 0.482589C14.9136 0.894374 14.2088 1.18469 13.4736 1.34062C12.2304 -0.0825381 10.1512 -0.151456 8.8288 1.18728C7.9768 2.05047 7.6144 3.33752 7.8792 4.56512C5.24 4.42211 2.7808 3.07994 1.1136 0.871976C0.2424 2.48724 0.688 4.55306 2.1304 5.59027C1.608 5.57391 1.0968 5.42229 0.64 5.14834V5.19314C0.6408 6.8756 1.7424 8.3246 3.2736 8.65799C2.7904 8.80013 2.2832 8.82081 1.792 8.71829C2.2216 10.1587 3.4544 11.1451 4.8584 11.1735C3.696 12.1573 2.26 12.6914 0.7816 12.6897C0.5208 12.6888 0.26 12.6725 0 12.6389C1.5016 13.6761 3.248 14.2266 5.032 14.224" fill="white"/>
</svg>
